<?xml version="1.0" encoding="UTF-8"?>
<svg id="Camada_2" data-name="Camada 2" xmlns="http://www.w3.org/2000/svg" viewBox="0 0 1019.09 1077.47">
  <defs>
    <style>
      .cls-1 {
        fill: #fff;
        stroke: #000;
        stroke-miterlimit: 10;
        stroke-width: 15px;
      }
    </style>
  </defs>
  <g>
    <path class="cls-1" d="M797.33,513.39s31.82-39,42.23-48.93,46.74-64.9,46.74-64.9c-27.12,50.85-38.26,127.38-38.26,217.95s-60.7,132.55-60.7,132.55c0,0-49.4,29.06-45.85,50.37h-.02c3.55,21.32,23.57,12.28,23.57,12.28,0,0,3.41,29.4-72.58,35.85"/>
    <path class="cls-1" d="M243.24,510.96s-29.07-37.04-39.48-46.97c-10.41-9.93-50.82-45.1-50.82-45.1,27.12,50.86,42.34,107.58,42.34,198.15s60.7,132.55,60.7,132.55c0,0,49.4,29.06,45.85,50.37-3.55,21.31-23.57,12.27-23.57,12.27,0,0-6.42,24.55,80.01,33.43"/>
    <path class="cls-1" d="M915.52,679.6c-53.76,122.05-144.33,181.14-144.33,181.14l183.08,48.43-38.75-229.57Z"/>
    <path class="cls-1" d="M362.53,906.09h0c78.95,129.32,156.82,163.22,156.82,163.22,90.47-37.78,160.42-163.22,160.42-163.22-173.88,71.2-317.24,0-317.24,0Z"/>
    <path class="cls-1" d="M316.38,439.05s0,0,0,0h0Z"/>
    <path class="cls-1" d="M369.99,722.07c140.7,35.84,150.69-4.64,150.69-4.64v-45.89s-24.22-24.86-28.25-30.03c-4.04-5.17,2.74-5.73,2.74-5.73,0,0,46.66-.48,54,0,7.35.48.65,5.97.65,5.97l-26.15,29.54v46.25c9.44,43.11,136.91,6.54,136.91,6.54,15.5,4.84,27.45,46.82,27.45,46.82,32.29-43.59,15.5-58.77,15.5-109.14s31.8-79.84,31.8-79.84c0,0-3.87,23.01,5.57,31s29.3,5.57,33.9-30.51c4.6-36.08,22.52-69.02,22.52-69.02-.48-21.31-15.01-54.25-15.01-54.25,46.01-76.04,34.87-208.27,34.87-208.27-109.95-8.23-174.85,57.64-174.85,57.64-112.37-40.2-241.69-2.91-241.69-2.91-48.43-52.79-173.39-54.73-173.39-54.73-16.47,95.41,33.42,208.27,33.42,208.27-9.2,16.47-17.44,51.82-17.44,51.82,0,0,20.58,26.15,22.04,45.77,1.45,19.62,7.99,59.57,28.09,60.3,20.1.73,16.23-32.45,16.23-32.45,34.39,47.47,29.54,64.9,26.64,116.24-2.91,51.34,17.52,65.01,17.52,65.01,4.51-26.82,16.24-43.76,16.24-43.76ZM573.82,530.41h0s158.3-104.27,158.3-104.27l-7.51,11.67c41.17,48.68-2.18,145.3-53.28,147.24-69.51,2.64-88.47-50.77-88.47-50.77-11.95,8.4-16.47,7.43-16.47,7.43-14.53-2.58-17.63-11.53-17.63-11.53,20.29,4.48,25.06.23,25.06.23ZM316.37,439.05l-15.91-20.16,166.7,112.76s15.77,2.3,23.18-.87c0,0-1.22,9.58-15.75,12.17,0,0-4.52.97-16.47-7.43,0,0-18.96,53.41-88.47,50.77-51.1-1.94-94.45-98.55-53.28-147.23Z"/>
    <path class="cls-1" d="M649.92,241.6L522.06,15.25l-127.87,226.35s129.8-38.75,255.73,0Z"/>
    <path class="cls-1" d="M654.7,781.72l-13.58-12.1c-5.59,19.51-13.32,64.9-13.32,64.9-80.4,46.74-210.45,1.21-210.45,1.21-4.6-8.96-13.8-66.11-13.8-66.11-25.91,16.95-33.9,50.13-33.9,50.13-.48,12.35-11.38,25.91-11.38,25.91,0,0,59.09,40.68,162.87,40.68s171.32-37.78,171.32-37.78l-4.58-16.02c-8.82-24.35-14.82-33.18-33.18-50.82Z"/>
    <path class="cls-1" d="M131.29,672.74l-44.47,233.35,183.08-46.17s-110.2-84.5-138.61-187.18Z"/>
  </g>
  <polygon points="520.69 671.54 491.25 637.99 550.94 638.83 520.69 671.54"/>
  <polygon points="592.5 737.32 592.5 649.72 601.99 733.01 592.5 737.32"/>
  <polygon points="638.11 723.48 636.7 687.83 642.7 723.48 638.11 723.48"/>
  <polygon points="665.64 590.07 665.64 640.19 670.58 590.07 665.64 590.07"/>
  <polygon points="560.47 544.89 562.23 582.3 562.23 543.48 560.47 544.89"/>
  <polygon points="420.7 493.01 424.23 385.36 424.23 497.25 420.7 493.01"/>
  <polygon points="454.35 522.98 458.47 467.95 458.47 524.42 454.35 522.98"/>
  <polygon points="539.99 295.01 541.41 361.72 545.99 295.01 539.99 295.01"/>
  <polygon points="565.05 295.01 565.05 321.48 569.99 295.01 565.05 295.01"/>
  <polygon points="671.99 460.89 671.99 360.66 676.23 456.3 671.99 460.89"/>
  <polygon points="644.88 479.95 642.7 439.05 648.35 477.48 644.88 479.95"/>
  <polygon points="739.76 260.42 739.76 315.48 744.35 257.95 739.76 260.42"/>
  <polygon points="778.94 255.48 782.47 280.19 782.47 253.36 778.94 255.48"/>
  <polygon points="790.58 431.6 790.58 343.01 794.82 420.66 790.58 431.6"/>
  <polygon points="266.47 258.07 266.47 319.48 274.37 254.94 266.47 258.07"/>
  <polygon points="334.94 270.78 334.94 315.95 338.82 272.54 334.94 270.78"/>
  <polygon points="316.38 427.83 327.17 359.01 321.77 430.3 316.38 427.83"/>
  <polygon points="379.64 590.89 379.64 669.48 384.82 590.89 379.64 590.89"/>
  <polygon points="412.58 586.38 412.58 620.07 416.08 578.07 412.58 586.38"/>
  <polygon points="504.82 630.19 509.52 589.01 509.52 630.19 504.82 630.19"/>
  <path d="M447.74,736.1c-.34-3.09,7.43-83.33,7.43-83.33l-3.72,83.33h-3.71Z"/>
  <polygon points="539.99 217.25 542.99 122.66 545.99 219.72 539.99 217.25"/>
  <polygon points="581.17 224.3 581.17 183.36 584.18 227.76 581.17 224.3"/>
  <polygon points="448.11 226.07 453.76 161.48 453.76 224.66 448.11 226.07"/>
  <polygon points="485.88 89.48 483.05 163.6 490.47 83.83 485.88 89.48"/>
  <polygon points="542.99 61.95 542.99 90.54 545.99 69.01 542.99 61.95"/>
  <polygon points="197.76 793.48 157.17 843.6 200.58 801.25 197.76 793.48"/>
  <polygon points="160.35 745.48 134.23 770.89 162.47 751.83 160.35 745.48"/>
  <path d="M101.76,900.42c1.06-.71,82.24-41.65,82.24-41.65l-49.76,30.71-32.47,10.94Z"/>
  <polygon points="101.76 849.95 138.82 822.78 101.76 855.95 101.76 849.95"/>
  <polygon points="231.29 830.19 209.76 841.83 234.47 833.01 231.29 830.19"/>
  <polygon points="509.52 940.89 509.52 996.42 515.76 940.89 509.52 940.89"/>
  <polygon points="564.11 1043.01 564.11 983.25 571.43 1037.3 564.11 1043.01"/>
  <polygon points="604.23 933.36 607.52 962.54 612.23 930.54 604.23 933.36"/>
  <polygon points="475.76 1031.72 475.76 985.6 481.88 1043.01 475.76 1031.72"/>
  <polygon points="434.38 1001.78 438.94 963.07 439.88 1001.78 434.38 1001.78"/>
  <polygon points="886.3 744.83 913.05 761.19 886.3 740.72 886.3 744.83"/>
  <polygon points="915.17 895.3 844.58 850.83 923.29 895.3 915.17 895.3"/>
  <polygon points="940.94 850.83 901.76 830.72 940.94 846.6 940.94 850.83"/>
  <polygon points="850.58 791.19 883.94 807.07 853.76 788.01 850.58 791.19"/>
  <polygon points="932.82 804.95 902.82 788.01 932.82 801.07 932.82 804.95"/>
  <polygon points="650.58 781.89 655.88 826.01 653.23 783.3 650.58 781.89"/>
  <polygon points="386.58 855.95 389.76 827.98 389.76 858.83 386.58 855.95"/>
  <polygon points="402.11 798.48 402.11 830.19 404.94 808.36 402.11 798.48"/>
  <path d="M209.76,500.01s23.53,10.82,28.24,64.94c4.71,54.12,11.29,80,11.29,80,0,0-6.59-63.06-5.18-75.76s-13.65-61.65-34.35-69.18Z"/>
  <path d="M258.7,709.89s-30.35-18.35-36.59-48.47c0,0,16.82,28.71,36.59,48.47Z"/>
  <path d="M313.76,754.13s3.76-35.76-2.35-56.94-11.42-38.59-11.42-38.59c0,0,24.12,36.71,13.77,95.53Z"/>
  <path d="M733.52,745.19s-12.71-47.06-2.35-69.65c0,0-2.35,50.35,2.35,69.65Z"/>
  <path d="M786.23,697.66s23.06-6.94,24.94-47.94,11.76-86.82,11.76-86.82c0,0-8.36,61.17-7.06,95.71-3.44,30.12-19.76,36.24-29.65,39.06Z"/>
  <path d="M765.99,649.72s18.59-12.29,26.71-46.18c0,0-.82,34.94-26.71,46.18Z"/>
  <path d="M817.76,522.13l26.82-39.53s-24.24,45.18-36.24,54.59l9.41-15.06Z"/>
  <path d="M682.82,806.72s18,5.06,33.53-8.24c0,0-14.47,14.59-30.71,14.24l-2.82-6Z"/>
  <path d="M362.05,825.13s-18-1.06-31.24-19.24c0,0,19.94,17.82,34.06,15.71l-2.82,3.53Z"/>
</svg>