<?xml version="1.0" encoding="UTF-8"?>
<svg id="Layer_15" data-name="Layer 15" xmlns="http://www.w3.org/2000/svg" viewBox="0 0 2011.02 2000">
  <defs>
    <style>
      .cls-1 {
        fill: #fff;
      }
    </style>
  </defs>
  <g id="Layer_20" data-name="Layer 20">
    <path class="cls-1" d="m58.15,53.76l9.77,52.03,1.73,74.5-14.07,98.07-5.13,45.43-28.58,94.16-16.12,99.29,11.72,66.68,24.85,76.57,37.87,75.48,55.99,93.06,47.26,61.8,64.48,39.69,72.38,34.44,122.54,34.07,144.36,39.74,64.85,29.88,55.03,32.61,64.41,63.02,60.45,89.4,36.64,73.64,25.65,84.27,31.14,119.44,45.07,114.68,47.63,70.71,53.13,43.23,76.76,45.43s84.82,36.27,87.02,37.01c2.2.73,113.21,17.59,113.21,17.59l80.97-1.47,91.6-15.02,122.74-23.08,75.84-8.52,75.84,4.86,64.43,3.66,70.31,20.52,11.45-3.66-19.78-23.45-52.21-28.58-72-17.22h-80.61l-81.34,3.66-112.48-1.83-86.47-10.99-30.04.37,1.1-16.49,14.66-54.59,9.16,11.36,23.08,34.44,16.54-11.36,5.81-11.72-13.56-32.61,7.74-4.4,45.38,15.75,18.32,2.02-1.83-30.96-22.72-52.76-33.71-55.32-45.07-49.46-45.07-30.78-41.77-6.23-21.37-25.65-80.48-140.51-75.84-137.21-75.84-135.93-87.93-150.59-121.27-206.28-82.8-147.41-3.66-11.53-27.85-47.52-22.35-27.3,21.62-156.45-6.59-25.28-167.81-164.51-9.53,20.75-12.46,232.79,32.24,31.88,60.09,41.58,55.32,36.82-10.92,6.23,9.33,23.82,5.22,20.52,21.16,34.44,14.39,9.89,18.71,35.91,105.89,172.93,113.95,186.12,53.49,102.22,108.45,181.73,148.02,255.37-6.96,32.24s-5.86,11.36-5.86,12.46,7.33,67.78,7.33,67.78l17.59,57.52,34.44,86.83-11.72,5.13-128.24-46.16-93.06-66.32-65.58-66.68-33.23-84.76-9.64-70.59-20.88-74.38-26.38-70.71-36.27-79.87-44.33-65.22-61.55-70.25-80.13-59.08-118.82-60.09-154.62-38.1-130.8-39.2-98.92-49.46-63.02-81.34-54.23-79.51-36.27-82.8-20.52-91.96,1.47-67.78,1.47-39.2,13.92-61.19,13.92-49.83,4.03-75.48-5.86-41.77-15.33-45.8-19.48-33.34Z"/>
    <path d="m1858.57,1776.26s-22.47-9.77-64-46.41c-41.52-36.64-625.55-581.33-625.55-581.33,0,0-247.68-411.82-359.79-618.46,0,0-5.68-6.96-4.95-11.72s-9.34-12.09-18.32-30.04c-8.98-17.95-31.51-59.54-38.1-56.42,0,0,27.3-128.6,29.49-168.54,0,0-155.35-164.14-198.22-186.49,0,0-21.25,227.16-15.75,274.42,0,0,102.22,76.94,142.16,103.32,0,0-4.76.73-1.83,12.46,2.93,11.72,28.4,62.1,28.4,62.1l11.72,17.4s1.83,4.95,8.06,4.21l252.26,429.22-29.8-11.72L140.95,192.98s-32-31.27-45.43-59.6c-13.43-28.33-10.99-64.73-43.97-96.48,0,0,23.45,87.2,10.99,155.35-12.46,68.15-13.92,93.8-13.92,93.8,0,0-2.2,35.17-15.39,65.95C20.04,382.77-2.67,467.77.26,529.33c2.93,61.55,52.03,164.87,73.28,205.91,21.25,41.04,60.82,103.32,90.86,139.23,30.04,35.91,96.73,70.35,96.73,70.35,0,0,21.98,20.52,82.07,34.44,60.09,13.92,230.09,60.82,270.39,75.48,40.3,14.66,86.47,44.7,112.85,72.54,26.38,27.85,99.66,112.85,130.43,185.39,30.78,72.54,40.3,175.13,80.61,271.86,40.3,96.73,65.95,139.23,139.23,184.66,73.28,45.43,108.45,74.74,227.89,94.53,105.52,10.26,238.88-21.98,325.35-33.71,86.47-11.72,286.51-36.64,370.05,63.02,0,0-29.56-70.83-141.43-116.76Zm-659.5-579.01c12.82,5.13,45.43,35.17,45.43,35.17l538.96,501.22s12.09,15.39,6.6,27.11c0,0-65.95-2.56-70.35-2.93-4.4-.37-29.43-2.32-40.18,2.93-10.75,5.25-62.77,3.3-62.77,3.3,0,0-83.29,1.93-99.17.36s-101.25-11.71-108.76-15.56l16.3-52.21,20.7,34.62s5.68,13.19,16.49,8.43c10.81-4.76,22.72-12.09,22.72-18.69s-2.02-16.85-2.02-16.85l-13.19-25.46s63.2,28.58,85.37,31.33c0,0-14.66-57.71-44.33-113.03-29.68-55.32-102.59-142.16-172.93-143.99l-138.86-241.45s-12.82-19.42,0-14.29Zm168.9,569.55c-4.21-19.42-24.55-61-24.55-61l5.31-11.36-7.69,9.34-2.56-6.41c6.22-11.28,8.24-42.68,8.24-42.68-2.38,17.77-12.09,34.99-12.09,34.99l-25.83-82.99s-11.91-60.45-11.72-71.81c.18-11.36,2.38-11.36,4.58-13.01,2.2-1.65,10.63,2.56,10.63,2.56,4.94,2.05,18.5,21.62,18.5,21.62-5.86,9.53-7.33,36.46-7.33,36.46l12.27-28.58,4.03,5.13-7.51,27.48,8.98-24.73,51.11,83.17-8.98,27.66,11.17-25.46,3.85,7.33c-9.89,12.82-13.37,37.37-13.37,37.37,7.88-7.69,15.75-35.17,15.75-35.17l5.13,7.33c-10.26,14.29-20.15,58.99-20.15,58.99,15.94-27.11,23.08-54.77,23.08-54.77,0,0,6.23,16.67,6.23,25.83s-9.16,25.1-9.16,25.1c0,0-3.48,15.39-3.66,28.03-.18,12.64-5.86,16.67-5.86,16.67,0,0-12.82,10.99-18.5,11.36-5.68.37-5.86-2.75-5.86-2.75l3.3-13.92c-5.68,17.59-7.33,8.24-7.33,8.24Zm41.04-192.17l-2.93-4.76,15.02-5.31-16.3.55s-2.75-6.96-3.3-7.69,32.24-4.95,32.24-4.95l-33.89,1.47-20.88-38.84,24.73-3.66-25.65-.37s-8.24-17.22-6.59-24.55c1.65-7.33,3.3-6.85,8.43-5.81s24.55,10.39,35.17,18.26c10.63,7.88,30.23,25.65,37.19,33.89,6.96,8.24,52.58,70.71,59.9,91.96h-37.01l38.47,4.95,3.48,7.14h-8.61l9.89,2.2,4.76,10.81h-47.08l48.91,4.03s6.96,26.01-1.65,29.49c-8.61,3.48-5.86-.55-28.21-6.23-22.35-5.68-26.75-7.14-34.44-21.07-7.69-13.92-47.26-73.72-47.26-73.72l27.48-8.9-31.88,1.1ZM786.89,506.98c3.18-1.1,5.25,6.84,5.25,6.84l-10.5.73c.73-6.35,2.08-6.47,5.25-7.57Zm-16.38-22.35l-8.17,21.49-9.4,4.59c6.23-5.18,13.92-27.18,13.92-27.18l3.65,1.1Zm-72.65-52.52l-20.27-45.31,17.1,43.84s-46.78-32.85-72.06-47.75-37.98-30.53-37.98-30.53c-1.56-5.59-6.59-13.19-7.33-26.56-.73-13.37,2.2-50.56,4.03-60.27,1.83-9.71,2.93-43.6,2.93-47.75s2.81-86.47,3.91-95.63c1.1-9.16,6.96-11.48,11.24-11.72,4.27-.24,8.43,3.18,8.43,3.18l23.82,21.37,35.78,64.12-28.46-58.01,18.69,19.17,31.14,62.29-23.08-53.37s17.46,17.83,20.76,24.67c3.3,6.84,33.34,61.8,33.34,61.8l-19.42-50.56s44.94,46.41,48.24,52.64c3.3,6.23,5.86,11.36,7.94,30.29,2.08,18.93-1.95,46.16-2.93,50.56-.98,4.4-6.72,45.31-6.72,45.31l-19.66-49.83s17.59,53.13,17.83,59.11c.24,5.98-2.44,15.39-2.44,15.39l-18.08-44.82,16.98,47.26c.49,21.13-11.85,30.04-11.85,30.04-14.41,10.87-31.88-8.92-31.88-8.92Zm18.56,34.32c9.04,1.22,21.98-5.13,24.67-7.45,2.69-2.32,6.11-7.69,6.11-7.69,0,0,1.59.61,4.27,2.69,2.69,2.08,1.08,3.91,1.08,3.91,0,0-1.33,3.54-9.76,9.28s-19.55,7.94-19.55,7.94c.23-3.54-6.83-8.67-6.83-8.67Zm12.95,32.61s-4.64.61-6.72,0c-2.08-.61-.37-4.52,0-6.84.37-2.32,2.08-.85,2.08-.85,0,0,1.1,2.93,3.3,4.64,2.2,1.71,1.34,3.05,1.34,3.05Zm-3.78-10.99s-2.08-.73-2.32-4.52c-.24-3.79,3.05-2.56,10.87-5.5,7.82-2.93,16.98-10.63,16.98-10.63,0,0,4.76-3.91,6.23-1.71s-2.44,5.98-2.44,5.98c0,0-2.32,4.89-12.09,10.99-9.77,6.11-17.22,5.37-17.22,5.37Zm10.36,15.88c3.19-3.42,9.79-2.93,8.57,1.1l-5.01,8.18h-5.86s-.89-5.86,2.3-9.28Zm8.57,21.37l-3.3,3.71c-2.81-.69-5.01-2.37-5.25-6.07-.24-3.7,1.83-3.5,3.91-3.38,2.08.12,5.25-2.69,5.25-2.69l-.61,8.43Zm-1.71-33.46c.73-2.56,7.45-6.35,7.45-6.35l8.43-6.35s2.81,0,3.54.98c.73.98-3.18,3.42-3.18,3.42,0,0-4.64,5.5-7.82,8.3s-8.43,0-8.43,0Zm8.43,49.58s-.98-.12-.98-5.65,3.66-7.06,8.92-12.19c5.25-5.13,13.92-31.14,13.92-31.14,0,0,2.2-4.27,3.66-4.4,1.47-.12,0,3.42,0,3.42,0,0-1.83,6.47-8.43,25.28-6.59,18.81-17.1,24.67-17.1,24.67Zm20.15-10.87l5.98-8.3h17.95l-1.1,7.45-17.71,5.37s-3.18,1.59-5.13,0c-1.95-1.59,0-4.52,0-4.52Zm221.05,392.28s-73.77-121.64-78.65-132.39c-4.89-10.75-25.4-34.2-25.4-34.2l-86.22-144.6s-12.46-21.25-19.54-28.58-8.55-23.2-8.55-23.2l24.67,33.95-25.65-40.79,2.2-5.62,32.24,47.63-30.53-50.07c.73-2.44,5.13-1.95,5.13-1.95l57.16,86.96c-4.4-20.52-53.49-86.96-53.49-86.96h11.24c6.11,6.84,40.06,64.73,44.46,72.3,4.4,7.57,26.87,43.97,26.87,43.97,0,0,41.28,62.53,46.9,76.7,5.62,14.17,30.78,57.64,30.78,57.64,0,0,54.47,89.64,58.87,105.03,4.4,15.39,45.43,76.21,45.43,76.21,0,0,29.31,50.56,36.88,64.97,7.57,14.41,27.85,44.94,32,56.42,4.15,11.48,58.13,96.97,70.59,118.47,12.46,21.49,31.75,55.45,31.75,55.45l55.69,109.18,55.45,96.97s16.12,25.89,18.81,34.2c2.69,8.3,40.3,63.26,40.3,63.26,0,0,36.27,59.84,41.77,69.12,5.5,9.28,25.89,41.65,27.85,44.33,1.95,2.69,8.52,12.43,9.25,16.82.73,4.4,0,7.05,0,7.05l-8.34-14.01,7.14,16.76-3.48,3.57-30.78-50.1,28.76,52.49s-8.43.64-12.82,0c-4.4-.64-27.85-50.65-29.68-55.42-1.83-4.76-14.66-19.42-14.66-19.42l-14.66-22.72s-38.72-78.28-48.97-89.76c-10.26-11.48-22.96-30.29-22.96-30.29l-55.69-107.47s-53.74-92.82-56.67-99.66c-2.93-6.84-52.76-98.69-52.76-98.69,0,0-68.88-114.3-86.47-146.06-17.59-31.75-26.87-35.17-26.87-35.17l-49.34-92.33ZM88.19,136.47s3.94,3.66,2.93,13.65l-7.14-8.52s.82-4.49,4.21-5.13Zm-16.95-42.32s18.32,18.04,11.08,33.43l-6.69-24.91,2.47,27.48s-4.95,1.01-6.32-5.59c0,0-.64-27.94-.55-30.41Zm555.53,876.8c-2.93,5.13-2.2,15.88-2.2,15.88,0,0-2.2,13.68-3.91,16.85l.24,3.66-86.96-23.45s61.31,24.67,85.98,26.14l.24,7.94-27.6-5.37,27.11,10.01-.98,3.79-79.26-21.74,77.43,26.5s-2.2,6.84-9.04,7.57c-6.84.73-30.9-7.57-30.9-7.57,0,0-28.21-9.4-32.85-10.38-4.64-.98-14.17-1.22-21.01-5.01-6.84-3.79-54.47-18.56-54.47-18.56,0,0-18.44-6.96-40.79-9.53-22.35-2.56-72.3-16.85-72.3-16.85,0,0-52.15-14.78-61.19-20.88-9.04-6.11-34.2-22.47-36.64-23.33-2.44-.85-50.44-26.38-63.51-40.79-13.07-14.41-40.18-42.38-51.54-60.33s-37.74-56.06-43.48-67.54c-5.74-11.48-42.01-71.81-52.52-106.5-10.5-34.68-19.11-56-23.69-69.55-4.58-13.56-13.19-52.21-10.63-67.05,2.56-14.84,5.68-55.69,16.67-91.78,10.99-36.09,17.77-75.11,22.53-88.67,4.76-13.56,8.98-26.93,11.17-50.2s9.53-77.67,9.53-77.67c0,0,1.28-12.46,2.38-23.45,1.1-10.99-2.02-19.24,2.93-26.38l2.38,1.65s.18,32.97-2.75,44.33c0,0,4.76-10.26,6.6-39.94,0,0,6.96,9.71,6.41,21.8s-.18,63.93-.18,63.93c0,0-6.05,28.76-14.29,47.63-8.24,18.87-14.47,63.75-14.47,63.75,0,0-6.05,49.83-5.86,72.54s7.14,81.15,9.34,87.02c2.2,5.86,7.69,50.56,32.79,101.12,25.1,50.56,39.75,59.35,53.86,86.1,14.11,26.75,48,65.22,48,65.22,0,0,6.59,11.72,10.26,15.57,3.66,3.85,23.82,26.56,43.23,35.91,19.42,9.34,92.7,40.3,92.7,40.3,0,0,69.98,25.1,113.95,34.62,43.97,9.53,112.05,22.59,123.53,27.72s14.66,3.42,17.1,5.86c2.44,2.44,22.23,12.7,22.23,12.7,0,0,6.11,3.91,6.11,8.79,0,0-44.94-11.97-81.58-26.62-36.64-14.66-82.56-23.69-82.56-23.69,0,0,48.12,12.95,66.44,21.98,18.32,9.04,87.69,31.27,97.7,31.75,0,0,1.22,9.04-1.71,14.17Zm-95.26-70.1c-12.21-3.42-122.19-23.58-214.21-60.58-92.03-37-140.69-121.15-140.69-121.15,0,0-50.32-73.52-53-94.77-2.69-21.25-30.04-61.31-34.93-86.22-4.89-24.91-30.78-96.48-12.7-199.07,0,0,7.66-29.31,15.31-54.47s15.1-69.13,11.01-97.09c0,0,2.38-4.58,11.17-1.28,8.79,3.3,17.4,10.63,17.4,10.63l872.55,811.73s2.56,6.23,5.5,9.16c2.93,2.93,62.65,72.18,70.35,90.5,7.69,18.32,218.98,370.54,218.98,370.54,0,0-10.5,16.37-9.77,52.27.73,35.91,11.36,106.62,56.06,206.28,0,0-101.49-11.85-204.57-94.89-103.08-83.05-110.4-162.19-110.4-162.19,0,0-25.89-122.62-56.67-201.76-30.78-79.14-44.94-102.59-44.94-102.59,0,0-24.43-29.56-26.87-35.17-2.44-5.62-19.3-28.33-19.3-28.33,0,0-26.38-33.95-32-41.04-5.62-7.08-69.13-57.16-71.81-61.31-2.69-4.15-72.3-46.9-72.3-46.9,0,0-60.07-30.53-76.93-34.93-16.86-4.4-85.01-23.94-97.22-27.36Zm314.18,365.47s-23.08-36.46-37.92-58.07c-14.84-21.62-36.82-50.74-36.82-50.74,9.71-2.93,34.07-22.17,34.07-22.17l-35.91,19.42-8.06-8.43c4.03-1.65,18.87-18.69,18.87-18.69l-21.07,15.75-8.98-9.03c15.94-7.93,33.34-35.3,33.34-35.3-6.23,8.79-36.09,31.88-36.09,31.88,0,0-18.69-22.53-40.67-40.12-21.98-17.59-36.09-19.78-39.94-22.17-3.85-2.38-14.47-13.74-19.97-19.6-5.5-5.86-9.89-25.83-9.89-25.83,0,0,2.2-10.99,2.2-23.45s3.11-15.75,6.23-21.98c3.11-6.23,8.06-6.41,12.64-8.24s14.84,2.2,14.84,2.2c-8.61,12.82-14.11,36.27-14.11,36.27,1.83-8.61,19.05-36.27,19.05-36.27l9.34,2.93c-13.74,14.66-21.62,48.36-21.62,48.36,4.95-14.29,24.73-48.36,24.73-48.36l10.08,3.3-9.16,19.24,10.81-17.95s60.27,30.96,63.75,33.34c3.48,2.38,26.38,21.25,26.38,21.25,0,0,32.79,30.59,45.07,40.3,12.27,9.71,22.72,27.11,22.72,27.11,0,0,21.07,31.69,24.91,37.37,3.85,5.68,20.7,26.56,20.7,26.56l-34.07,30.59,38.29-26.75,5.13,8.79-30.96,23.45c17.77-6.96,33.52-20.52,33.52-20.52l6.41,10.99-41.58,28.58c26.56-8.61,43.6-25.28,43.6-25.28l8.98,18.87c-10.63,14.29-83.9,51.84-83.9,51.84,45.62-12.82,85.37-47.45,85.37-47.45,0,0,8.79,19.05,10.81,26.2s.73,15.57.73,15.57l-6.05,15.39s-5.5,8.24-22.17,13.56c-16.67,5.31-40.67,10.63-40.67,10.63.18-3.11-14.47-7.51-20.33-11.36-5.86-3.85-12.64-21.98-12.64-21.98Zm997.49,539.78l-38.01-1.83,34.59,5.47c-2.44,2.2-32.97,3.91-32.97,3.91,0,0-64-2.93-93.31-5.62-29.31-2.69-59.11,5.86-96.24,9.53-37.13,3.66-95.5,16.85-95.5,16.85,0,0-20.27,0-52.27,9.53-32,9.53-149,5.86-157.3,5.62-8.3-.24-50.81-7.57-57.65-10.26-6.84-2.69-18.81-4.64-21.25-5.37-2.44-.73-13.19,0-49.83-16.85-36.64-16.85-57.16-31.51-68.88-39.08-11.72-7.57-36.88-27.85-44.7-33.95-7.82-6.11-31.75-25.65-32.97-27.36-1.22-1.71-18.56-23.69-19.3-24.67-.73-.98-15.14-17.59-23.69-25.4-8.55-7.82-18.81-33.46-20.52-36.39-1.71-2.93-16.61-34.2-30.53-66.19-13.92-32-17.83-69.13-19.78-72.06-1.95-2.93-16.37-58.13-18.56-64.73s-16.12-53.74-16.61-55.45c-.49-1.71-2.69-3.18-2.69-3.18,0,0-8.55-29.07-10.26-42.99-1.71-13.92,7.33-18.81,7.33-18.81.67,17.04,33.59,76.21,33.59,76.21-11.36-22.9-29.31-76.76-29.31-76.76,1.1-4.03,26.56-2.93,26.56-2.93l18.14-6.96c6.96,7.14,33.34,81.7,33.34,81.7-1.47-35.91-29.68-84.27-29.68-84.27l7.88-4.95,23.45,53.49-20.52-54.96,7.51-3.66,27.3,62.47-23.63-62.47s6.23,1.65,9.89,4.76c3.66,3.11,5.31,13.01,5.31,13.01l13.92,39.39s10.81,31.88,10.81,37.55,3.66,22.53,6.05,37.37c2.38,14.84,0,18.32,3.3,42.32,3.3,24,17.4,50.93,20.15,60.82,2.75,9.89,19.24,48.36,28.21,59.68,8.98,11.32,34.07,35.21,34.07,35.21,0,0,40.49,34.62,55.14,47.45,14.66,12.82,60.27,43.6,60.27,43.6,0,0,82.44,32.61,97.46,36.46,15.02,3.85,39.26,12.58,47.2,19.17,7.94,6.59,24.18,33.83,26.99,41.52,2.81,7.69,6.6,7.08,6.6,7.08l8.79-15.27,44.82,6.35-43.11-10.01,3.42-5.62c11.19,4.5,73.7,9.44,91.42,10.77-29.97-2.62-87.03-14.8-87.03-14.8l6.78-2.93c4.58,2.02,38.1,6.78,53.68,9.16,15.57,2.38,93.61,6.6,93.61,6.6,0,0-85.19-9.53-92.88-11.17s-53.68-6.41-53.68-6.41l15.69-10.75c4.4-.98,72.3,9.53,72.3,9.53,0,0,88.18,5.86,101.86,5.86s73.52-4.4,77.67-6.35c4.15-1.95,19.54-.98,24.67-.24,5.13.73,56.18,1.95,56.18,1.95,0,0,55.94,1.83,60.88,4.03,4.95,2.2,13.1,8.61,13.1,8.61l-83.35,1.47,86.19,1.74c1.83,1.56,6.14,6.59,6.14,6.59l-43.23.18,45.43,2.75c2.29,3.76,1.56,4.95,1.56,4.95Zm23.27,5.5l-7.69-8.24,7.14,2.93-11.63-11.08s-5.22-5.59-4.31-7.97c.92-2.38,11.08.92,11.08.92l8.34,13.19c-.27,5.77-2.93,10.26-2.93,10.26Zm17.22,10.63c-1.74-.18-7.79-4.49-7.79-4.49,0,0-4.21-2.56-.82-7.05,0,0,3.11.27,4.49,1.56,1.37,1.28,5.68,5.86,6.05,7.14.37,1.28-.18,3.02-1.92,2.84Zm41.04,12.73c-5.13.18-24.73-11.27-26.56-12.72-1.83-1.45-6.96-1.85-6.96-1.85-5.04-5.4-6.87-10.81-6.87-10.81,20.29,1.42,43.14,17.22,43.14,17.22-20.24-18.59-43.78-19.42-43.78-19.42-1.23-3.64.64-9.71.64-9.71.82.09,22.72,12.09,31.23,16.95,8.52,4.85,14.38,12.82,14.38,12.82,0,0-.09,7.33-5.22,7.51Z"/>
    <g>
      <path d="m740.01,272.94c.92-.41,1.85-.84,2.79-1.3,0,0-1.05.46-2.79,1.3Z"/>
      <path d="m697.49,314.99l14.66,28.94-12.64-36.46c6.68-17.01,32.03-30.44,40.5-34.54-25.58,11.48-42.88,6.03-42.88,6.03l-29.93-57.64,24.56,56.03c-38.35-9.43-85.49-155.45-85.49-155.45,53.13,165.61,36.64,161.94,36.64,161.94l-23.45-47.26,21.98,55.69-.55,4.03-17.95-29.13,16.49,32.79c-.73,3.66-6.96,6.78-6.96,6.78l-36.64-70.71,33.89,74.01-40.85,17.95c19.97-5.86,29.86-3.85,29.86-3.85l32.97,49.1-28.94-48.73,8.79,2.02,33.71,49.65-30.59-50.74c35.36,14.29,48,32.06,58.07,43.97,10.08,11.91,26.38,47.26,26.38,47.26,0,0-13.01-45.25-18.5-65.95-5.5-20.7-3.11-35.72-3.11-35.72Z"/>
      <path d="m1012.77,952.14c-5.34-18.74-34.07-67.96-34.07-67.96,2.2,10.99,34.07,67.96,34.07,67.96Z"/>
      <path d="m1017.55,941.69c13.63,22.9,47.19,89.83,47.19,89.83-11.07-33.02-36.57-73.64-47.19-89.83Z"/>
      <path d="m1017.55,941.69c-2.17-3.64-3.83-6.17-4.78-7.14,0,0,1.81,2.62,4.78,7.14Z"/>
      <path d="m1270.4,1397.18l52.76,93.55c-12.95-40.06-52.76-93.55-52.76-93.55Z"/>
      <path d="m1317.79,1463.13c3,18.11,39.81,79.38,39.81,79.38-7.57-24.18-39.81-79.38-39.81-79.38Z"/>
      <path d="m1365.78,1827.07c-28.21-4.4-75.11-6.96-75.11-6.96,0,0,126.77,23.08,143.62,12.46,0,0-40.3-1.1-68.51-5.5Z"/>
      <path d="m1075.6,1643.14s21.25,61.92,144.72,96.36c0,0-66.32-28.21-88.3-45.07-21.98-16.85-56.42-51.29-56.42-51.29Z"/>
      <path d="m1043.73,1631.05s20.15,53.13,75.48,85.37c0,0-63.38-54.96-75.48-85.37Z"/>
      <path d="m1074.14,1691.32s-41.77-47.08-49.83-63.2c0,0,21.62,46.9,49.83,63.2Z"/>
      <path d="m754.47,1030.73l-26.75,37.92c31.14-27.48,26.75-37.92,26.75-37.92Z"/>
      <path d="m777.92,1038.77l-32.06,35.01c23.08-15.02,32.06-35.01,32.06-35.01Z"/>
      <path d="m415.01,934.31s-93.55-25.4-145.82-65.22c0,0,46.41,47.63,145.82,65.22Z"/>
      <path d="m232.79,859.81s28.33,48.85,115.78,62.04c0,0-85.73-30.78-115.78-62.04Z"/>
      <path d="m80.2,678.77c-3.98-6.94-6.42-11.43-6.42-11.43,1.74,3.59,3.92,7.43,6.42,11.43Z"/>
      <path d="m141.93,754.04s-41.44-42.79-61.73-75.28c14.65,25.58,50.2,84.5,61.73,75.28Z"/>
      <path d="m117.5,711.17l-43.72-68.27s20.76,48.6,43.72,68.27Z"/>
      <path d="m46.18,530.55c-8.3-41.28,0-101.37,0-101.37-17.34,43.23,0,101.37,0,101.37Z"/>
      <path d="m43.74,394.5c-1.71.73-3.89,7.82-3.89,7.82l-4.65,35.17,8.55-37.62s1.71-6.11,0-5.37Z"/>
    </g>
  </g>
</svg>