<?xml version="1.0" encoding="UTF-8"?>
<svg id="Layer_1" data-name="Layer 1" xmlns="http://www.w3.org/2000/svg" viewBox="0 0 1313.06 1998.95">
  <defs>
    <style>
      .cls-1 {
        fill: #fff;
      }

      .cls-2 {
        fill: #231f20;
      }
    </style>
  </defs>
  <g>
    <path class="cls-1" d="m1268.07,809.55c-17.11-184.99-145.43-372.12-145.43-372.12,63.09,244.87-104.79,452.32-104.79,452.32,0,0-86.61,115.49-157.19,50.26s4.28-251.29,5.35-254.5c1.07-3.21,89.82-205.31-28.87-377.47C718.45,135.89,521.69,31.1,521.69,31.1c0,0,32.08,192.48,14.97,261.98-17.11,69.51-78.06,331.49-264.12,584.91-186.06,253.43-177.5,502.57-177.5,502.57,0,0-16.04,153.98,130.46,374.26s394.34,228.36,394.34,228.36c323.76,1.66,590.49-343.84,648.24-594.06,54.53-295.13,17.11-394.57,0-579.56Z"/>
    <path class="cls-1" d="m360.23,418.19c81.27-142.22,11.76-280.16-28.96-283.37-40.72-3.21-165.66-21.39-259.75,194.61-94.1,216-40.63,405.27-40.63,405.27,2.14-16.04,122.97-96.24,122.97-96.24,0,0,125.11-78.06,206.38-220.28Z"/>
  </g>
  <path d="m1239.56,635.61c-45.62-175.37-170.38-330.77-170.38-330.77,0,0,37.07,148.99,44.91,268.75s-54.18,224.91-71.64,254.5-72.71,126.89-137.58,117.62c-64.87-9.27-62.38-74.14-62.38-74.14-4.99-76.99,56.32-202.46,67.72-276.59,11.41-74.14,22.81-216.71-125.47-374.97C636.47,61.75,496.74,0,496.74,0c35.64,211.99,28.51,231.42-1.43,386.82,1.43,118.34-273.74,536.08-320.79,613.18s-163.96,340.64-48.48,620.09c122.97,263.05,239.52,287.64,306.89,327.21s317.58,133.66,580.63-106.93c244.87-245.94,292.28-486.18,298.69-682.22,6.42-196.04-27.09-347.17-72.71-522.53Zm9.03,753.5c-51.09,189.27-213.62,448.04-390.06,518.61-114.77,65.23-188.2,64.51-297.62,52.4-109.43-12.12-248.55-121.9-260.44-143.29-11.88-21.39-74.61-86.5-74.61-86.5,0,0-75.21-86.73-108.36-304.87s105.86-443.76,161.47-519.68c55.6-75.92,210.65-350.73,234.18-429.86,23.52-79.13,53.82-211.72,47.76-254.5,0,0,3.33-39.92,39.45-54.18,36.12-14.26,69.39-25.66,107.88,30.89,38.49,56.55,46.1,205.78,46.1,205.78,0,0,16.16-100.28-25.66-192l28.73,27.56s39.7,90.3,43.03,160.63c0,0,3.8-72.24-14.73-126.42l27.09,35.64s27.56,63.68,8.08,195.8c0,0,24.24-64.63,15.21-157.78,0,0,58.93,91.25,48,182.5-10.93,91.25-1.9,70.81-54.18,224.79-52.28,153.98,19.01,201.98,67.49,214.81,48.48,12.83,119.29-23.76,183.45-151.6,0,0-39.76,193.84-91.84,271.41,25.98-36.18,88.67-137.95,99.92-290.9l19.01-37.54s-5.7,79.84-8.08,98.85c0,0,28.04-86.02,20.44-130.22,0,0,28.04-94.57,23.29-151.6,0,0,27.56-3.33,45.62,22.81s59.41,223.84,59.41,223.84c0,0,69.27,341.11,0,564.59Z"/>
  <path class="cls-2" d="m350.61,130.19c-72.71-14.97-164.67-4.99-238.15,99.8C38.97,334.78,5.58,472.37.59,607.81c-4.99,135.45,23.52,222.77,23.52,222.77,42.77-104.44,65.58-125.11,189.62-217.78,124.04-92.67,168.24-192.48,184.16-245.23,15.92-52.75,27.56-194.61-47.29-237.39Zm-34.93,338.38c-42.3,68.44-159.21,151.6-159.21,151.6,0,0-56.55,36.59-83.64,34.22-27.09-2.38-35.88-40.51-35.88-40.51,7.37-60,26.85-138.65,26.85-138.65-9.98,12.36-32.32,86.97-32.32,86.97-2.85-35.64,13.78-110.26,13.78-110.26,0,0,35.08-169.49,122.61-251.41,87.54-81.92,169.19-48.95,169.19-48.95,1.43,45.62-26.14,114.06-26.14,114.06,14.26-14.73,43.72-98.38,43.72-98.38l8.08,15.21c-8.95,35.47-48.95,135.92-48.95,135.92,28.99-31.37,56.08-123.56,56.08-123.56,7.6,6.18,9.03,35.64,9.03,35.64-3,36.94-59.88,154.46-59.88,154.46,43.72-61.31,64.63-120.71,64.63-120.71,2.24,104.95-25.66,135.92-67.96,204.36Z"/>
  <g>
    <path d="m265.42,1281.48c2.85-75.92,9.27-116.2,15.68-140.44,6.42-24.24,14.97-54.53,47.76-119.41,0,0,5.97-8.38-.89-8.73-6.86-.36-22.63,27.27-32.61,51.15-9.98,23.88-27.09,71.29-36,150.42s8.2,175.72,23.52,208.87c0,0-20.32-65.94-17.47-141.86Z"/>
    <path d="m323.16,1136.76s4.1-13.19-.89-14.79c-4.99-1.6-9.8,17.64-9.8,17.64,0,0-16.04,79.13,0,151.84,16.04,72.71,36,166.1,80.55,223.49,0,0-40.63-81.98-59.17-171.8-22.81-88.4-21.03-148.99-10.69-206.38Z"/>
    <path d="m918.29,1595.38c-12.83,43.25-62.73,135.45-62.73,135.45,0,0-38.02,63.68-63.68,109.31s-38.97,57.51-38.97,57.51c31.37-15.21,85.07-83.64,123.56-165.86,38.5-82.22,41.82-136.4,41.82-136.4Z"/>
    <path d="m877.42,1758.86l-62.26,106.93c12.83-4.28,48.95-43.25,84.59-112.16s50.85-137.35,50.85-137.35c-7.6,29.47-73.19,142.57-73.19,142.57Z"/>
  </g>
</svg>