<?xml version="1.0" encoding="UTF-8"?>
<svg id="Layer_9" data-name="Layer 9" xmlns="http://www.w3.org/2000/svg" viewBox="0 0 2007.46 2000">
  <defs>
    <style>
      .cls-1 {
        fill: #fff;
      }

      .cls-2 {
        fill: #5fbb46;
      }
    </style>
  </defs>
  <g id="Group">
    <path class="cls-1" d="m1799.73,1185.95c-18.53-29.23-129.74-157.54-129.74-157.54,0,0-57.03-67.72-109.78-84.12l17.82-41.35s39.21-51.33,49.19-107.64c9.98-56.32-14.26-124.75-53.47-160.4-39.21-35.64-94.81-43.49-146.14-45.62-51.33-2.14-142.57,62.02-151.84,119.76-9.27,57.74-5.7,112.63,24.24,160.4,29.94,47.76,37.78,67.01,37.78,67.01,0,0-76.28,47.98-82.69,63.55-6.42,15.57-101.23-69.97-101.23-69.97l-19.25-22.81s69.15-65.58,81.27-146.85c12.12-81.27,14.97-122.61-25.66-180.36-40.63-57.74-130.46-101.94-130.46-101.94,0,0-114.77-14.97-168.24,19.96-53.47,34.93-126.89,74.14-126.18,176.79.71,102.65,38.5,156.12,56.32,194.61s37.78,39.21,37.78,39.21l-79.13,64.16-55.6,27.2-64.16-67.83,54.18-67.72s39.92-106.93,8.55-173.94c-31.37-67.01-120.48-101.94-120.48-101.94,0,0-115.49-20.67-161.11,44.2,0,0-56.32,27.8-61.31,119.76s43.49,149.7,43.49,149.7l31.37,39.21s-94.81,33.5-165.39,130.46c-70.57,96.95-117.62,166.81-106.22,206.73,11.41,39.92,67.72,12.12,67.72,12.12l147.56-131.88,4.99,17.11-11.54,216.71s-25.52,169.66-48.34,244.51,14.26,94.1,14.26,94.1c0,0,37.07,9.27,76.99-44.91,39.92-54.18,96.24-187.49,96.24-187.49l29.23-46.34,57.03,125.47s47.05,127.6,109.78,131.88l14.97,16.4s-32.79,132.59-22.81,163.96c9.98,31.37,24.95,63.45,81.27,17.11,56.32-46.34,104.08-142.57,104.08-142.57l81.27-178.22,57.03,81.27s64.87,171.8,95.52,197.47c30.65,25.66,92.67,65.31,92.67,65.31,0,0,48.48,9.54,51.33-31.09,2.85-40.63-27.8-168.95-27.8-168.95l22.81-20.67s29.23,9.98,63.45-42.06c34.22-52.04,74.14-151.13,74.14-151.13,0,0,30.65-66.3,43.49-54.89,12.83,11.41,73.43,156.12,73.43,156.12,0,0,47.05,99.09,89.11,107.64,42.06,8.55,44.2-10.69,45.62-42.77,1.43-32.08-39.92-206.73-39.92-206.73,0,0-17.11-220.28-23.52-297.27-6.42-76.99,24.95-2.14,24.95-2.14,0,0,97.66,99.09,129.74,114.06,32.08,14.97,59.17,9.98,64.87-8.55,5.7-18.53-4.99-67.01-23.52-96.24Zm-1004.44,140.44l-26.38,260.91-18.89-60.59-31.01-240.95,62.02-74.14h17.11l-2.85,114.77Zm464.08,178.93l-19.96,100.51-17.82-18.53c.71-2.85-22.1-240.95-22.1-240.95v-146.14l86.26,81.27,9.27,39.21-35.64,184.63Z"/>
    <polygon class="cls-2" points="1000 503.73 902.47 420.56 752.29 247.1 784.29 227.14 863.97 227.14 876.14 133.99 899.14 75.06 983.73 69.36 1102.54 74.58 1129.63 135.42 1129.63 211.93 1144.84 227.14 1218.03 231.42 1204.85 278.5 1095.89 415.34 1000 503.73"/>
    <path d="m1742.7,1090.19c-61.31-87.45-169.19-159.68-169.19-159.68,26.14-22.34,90.3-144,52.75-235.72-37.54-91.72-131.64-119.76-183.45-120.24-51.8-.48-166.34,37.54-185.35,150.18-19.01,112.63,60.83,205.78,60.83,205.78-20.44,8.08-66.53,50.85-66.53,50.85-22.81-28.99-89.82-70.34-89.82-70.34,49.43-43.25,122.61-233.82,54.18-328.87-68.44-95.05-149.7-111.21-149.7-111.21,27.56-28.04,206.73-250.93,206.73-250.93l-131.17-4.28c5.23-70.34-9.03-158.73-9.03-158.73-21.86,6.65-268.99-2.85-268.99-2.85l-2.85,163.49c-56.08-13.78-142.57,2.85-142.57,2.85l213.39,247.13c-31.37,12.36-206.26,94.1-175.84,245.23s81.74,199.13,81.74,199.13c-50.38,25.66-85.67,65.58-85.67,65.58-9.16-8.55-63.08-48-63.08-48,0,0,106.46-136.87,42.77-255.68-91.25-121.66-168.71-101.7-201.5-96.95-32.79,4.75-179.17,66.06-160.63,192.48,18.53,126.42,63.8,160.99,63.8,160.99-54.53,29.58-153.39,133.9-183.09,176.2-29.7,42.3-65.35,108.36-65.35,108.36,0,0-26.14,54.89-4.99,81.74,21.15,26.85,46.1,16.4,88.4-9.27,42.3-25.66,127.37-104.55,127.37-104.55,0,0-10.46,102.89-16.16,184.87-5.7,81.98-28.99,206.26-28.99,206.26,0,0-46.1,137.82-9.03,160.16,37.07,22.34,44.67,5.23,98.38-34.22,53.7-39.45,109.31-221.94,109.31-221.94,30.42,21.39,44.67,64.63,44.67,64.63,0,0,29.47,62.26,51.8,107.88,22.34,45.62,86.5,86.97,86.5,86.97,0,0-50.38,154.46-16.16,194.12,34.22,39.67,76.51,5.96,142.1-58.2,65.58-64.16,127.37-262.81,127.37-262.81,43.72,30.42,73.66,117.39,73.66,117.39,47.52,128.79,112.16,177.27,112.16,177.27,0,0,74.61,79.37,113.11,22.81,38.49-56.55-16.63-187.72-16.63-187.72,47.52-25.66,96-73.66,126.42-155.88,30.42-82.22,61.78-105.98,61.78-105.98,52.75,155.41,99.33,205.31,99.33,205.31,0,0,60.36,75.09,99.8,56.08,39.45-19.01,19.49-104.08-2.38-181.07-21.86-76.99-28.51-198.18-28.51-198.18l-13.78-178.69s86.97,74.61,127.84,105.03c40.87,30.42,77.94,41.82,93.15-2.85,15.21-44.67-27.56-106.46-88.87-193.9Zm-424.87-221.47l-3.8-61.54-2.38,53.7c-30.18-34.46-40.63-125.7-4.51-181.07,36.12-55.37,74.38-71.29,83.88-76.75,9.51-5.47,23.52-2.14,56.08-2.38s65.11,7.84,65.11,7.84l5.94,47.76,4.51-43.96,4.75,2.14v71.29c7.6-15.92,10.22-67.72,10.22-67.72,21.39,12.12,54.42,51.8,54.42,51.8,0,0,6.89,11.17,20.44,46.1,13.54,34.93,5.94,72.71,4.75,84.83-1.19,12.12-8.79,28.51-11.64,36.12-2.85,7.6-16.63,38.5-16.63,38.5l-3.33-70.81-1.66,75.09-5.7,3.8-4.75-21.39-1.9,28.51c-25.19,24.95-91.01,46.57-132.59,42.06-41.58-4.51-108.36-48.95-108.36-48.95l-2.61-84.12-3.56,76.75-6.65-7.6Zm-463.37-524.44s-40.4-54.65-67.96-71.05c0,0-4.99-20.2,0-28.99,4.99-8.79,28.99-7.37,28.99-7.37l8.79,58.46,2.85-58.54h12.59s.48,72.56,8.55,87.06c0,0,3.56-76.28-.48-88.16,0,0,25.43,5.7,30.42-12.59,4.99-18.3,2.38-84.83,2.38-84.83,0,0,4.28-40.16,36.12-55.84l4.04,64.4s7.13-58.46,5.7-66.77h20.44s-5.94,91.25,4.51,112.4c0,0,2.14-49.9,3.56-60.83,1.43-10.93-2.14-51.56-2.14-51.56,0,0,33.5,2.38,42.06,0s44.67-2.38,44.67-2.38l1.19,22.81,5.7-22.81s32.79,1.19,39.92,4.99c7.13,3.8,14.26-.24,26.38,39.45,12.12,39.68,7.37,59.17,9.98,86.02,0,0-5.23,17.35,17.35,25.19v61.78s8.32-48.71,9.03-60.83c0,0,21.15,3.8,30.42,2.38,9.27-1.43,29.7-2.85,24.48,15.92-5.23,18.77-15.21,32.79-25.66,44.44-10.46,11.64-23.76,40.16-32.08,46.81-8.32,6.65-28.28,27.33-37.31,41.35-9.03,14.02-46.09,65.93-68.2,77.94-22.11,12.01-34.48,16.08-40.76,16.24l-4.15-46.18-4,45.86s-16.68,3.33-27.37-11.64c0,0,7.6-74.38-1.43-101.7l-4.75,95.29-103.84-116.67Zm-18.18,481.31l-6.06,27.45-6.42-5.35-3.92-97.31-2.5,93.74c-53.11-98.02-47.76-147.21-23.52-221.7s89.47-109.07,89.47-109.07c-.36,39.92,12.83,86.54,12.83,86.54l-1.43-90.82,7.49-2.85,6.77,54.89,5.35-59.17s18.89-7.84,26.38-7.49,30.3,14.61,30.3,14.61l16.4,19.96s3.56,12.12,9.62,11.76c6.06-.36,8.55-4.28,8.55-4.28l19.6-25.66c9.62-6.06,44.2-16.4,44.2-16.4,34.93,8.55,106.22,77.35,121.19,120.48,14.97,43.13,18.89,126.53,16.04,138.65-2.85,12.12-35.64,71.29-35.64,71.29l-4.99-68.08-2.14,76.99-9.27,9.27-4.63-96.95-2.49,106.22s-80.2,59.52-151.84,63.8c-71.64,4.28-155.88-55.25-155.88-55.25l-3.45-35.29Zm-403.84,37.43l-4.63,21.03-4.99-4.63-3.56-74.5-1.07,70.22c-17.47-28.16-42.77-87.33-25.66-154.69,17.11-67.37,76.63-103.01,76.63-103.01-1.07,30.3,10.69,68.79,10.69,68.79l-1.43-72.36,6.06-1.07,4.63,41.35,4.99-45.62c12.12-7.84,54.53-7.13,78.06-8.2,23.52-1.07,37.07.71,53.82,7.84,16.75,7.13,60.24,43.49,79.13,80.91,18.89,37.43,19.25,102.3,16.75,116.91-2.5,14.61-27.73,55.6-27.73,55.6l-2.21-52.75-3.21,58.82-7.13,8.55-3.45-74.5-3.09,81.98c-5.94,13.78-74.85,48.95-127.84,49.9s-112.16-43.01-112.16-43.01l-2.61-27.56Zm49.9,715.01c-13.19,43.84-49.19,92.67-49.19,92.67l-1.07-40.28-6.06,49.19-6.06,5.35-.36-70.93-5.35,76.63s-19.25,13.9-25.66,20.67c-6.42,6.77-14.26,13.9-22.81,8.2-8.55-5.7-20.32-4.99-13.19-61.66,7.13-56.67,35.64-136.16,42.77-216.48s20.44-147.33,17.11-249.5c-3.33-102.18-4.28-143.52-4.28-143.52,0,0-34.93,113.7-47.41,127.25l-6.77-46.69,2.14,53.11s-40.99,53.11-78.06,74.49c-37.07,21.39-48.83,48.12-85.54,27.45-23.88-43.13,75.92-162.89,75.92-162.89l7.84,54.53-3.21-60.95,7.49-9.98,7.84,39.56.71-51.68s72.36-86.97,102.65-106.93c30.3-19.96,54.89-34.22,85.9-23.17l4.28,74.14,2.14-70.93,7.13,3.21,2.14,44.55,4.63-43.13s54.53,22.1,115.84,3.56l2.14,67.01,2.85-68.08,12.48-4.28,5.7,80.2,4.63-84.83s11.05-4.63,17.82.36l4.63,73.07,3.56-73.78s17.11-4.28,20.67,13.19c3.56,17.47,7.49,13.54,4.99,57.39,0,0-54.18,55.96-88.75,104.08-34.57,48.12-89.82,129.03-97.66,171.45-7.84,42.42-5.7,75.56,34.22,87.68,0,0,11.41,16.4,12.12,28.16,0,0-57.74,108.71-70.93,152.55Zm242.02,109.07c-20.32,21.74-36-7.84-44.55-16.4-8.55-8.55-39.56-65.23-39.56-65.23l-.71-27.45-1.43,19.25-7.13-14.97-2.14-52.75-4.63,42.42-4.99-12.12c4.99-64.87-5.35-113.7-5.35-113.7l-4.28,85.9-15.68-38.5c-12.05-74.17,12.12-114.42,18.53-116.91s62.73-44.91,62.73-44.91c23.17,12.48,37.78,51.68,37.78,51.68-2.5,52.4,15.33,95.17,22.81,134.73,7.49,39.56,11.05,57.03,12.48,89.47,1.43,32.44-3.56,57.74-23.88,79.49Zm7.72-402.77l57.74-51.33-24.24,321.03s-20.91-79.37-19.01-94.1c1.9-14.73-14.35-161.58-14.5-175.6Zm688.4,167.05c-.24,20.67-24,79.37-24,79.37,0,0,.95-111.45-4.75-83.17-5.7,28.28-4.28,112.63-4.28,112.63l-5.47,10.69-4.04-41.35-2.38,52.75-6.89,15.68-.95-21.39-1.66,29.23c-17.82,47.76-64.63,91.72-64.63,91.72-43.25-2.14-48-58.93-48-58.93l1.19-51.56c9.27-34.46,22.1-99.33,31.13-132.83,9.03-33.51,8.08-73.19,8.08-73.19,9.98-35.17,42.3-42.06,42.3-42.06,27.56,19.49,59.88,39.92,59.88,39.92,18.77,24.24,24.71,51.8,24.48,72.48Zm-154.46-77.94c1.43,20.91-14.73,168.24-29.94,203.88-.59,1.38-26.14-345.98-26.14-345.98l63.68,58.93s-9.03,62.26-7.6,83.17Zm184.4-11.41c-25.66,31.37-80.79-31.37-105.51-52.28-24.71-20.91-95.05-101.23-95.05-101.23l-2.61-92.67-4.99,81.27c-28.51-40.4-49.43-111.21-49.43-111.21l-7.6,139.25s4.28,205.31,6.42,258.77c2.14,53.47,13.54,121.9,13.54,121.9,0,0,53.23,176.32,59.41,230.49s4.28,58.46-8.08,76.99c-12.36,18.53-59.88-10.93-88.87-38.5-28.99-27.56-66.53-104.08-66.53-104.08,2.85-12.83-3.8-36.12-3.8-36.12v28.04l-7.6-18.53c1.43-20.44-4.28-67.96-4.28-67.96l-3.8,53.7-5.7-14.73c3.8-51.33-8.08-143.52-8.08-143.52l-5.7,105.98c-9.5-31.37-56.55-126.42-56.55-126.42,17.58-22.34,38.02-101.23,38.02-101.23-19.01,21.39-137.82,246.18-155.88,308.44-18.06,62.26-49.43,95.52-49.43,95.52l-3.8-50.38-8.08,64.63-7.6,5.7v-89.35l-4.75,96.48s-11.41,8.55-29.47,24.24c-18.06,15.68-31.37,25.36-48.95,0-17.58-25.36,14.26-159.21,22.93-191.05,8.67-31.84,24.59-98.38,31.72-167.29,7.13-68.91,21.85-215.17,21.85-215.17,0,0-4.74-106.1-.93-145.07,3.8-38.97-5.23-124.75-5.23-124.75,0,0-24.95,49.19-28.16,81.62-3.21,32.44-33.15,80.91-33.15,80.91l-9.27-58.1,4.63,65.58-41.7,49.19s-64.51,63.45-115.49,86.26c-50.97,22.81-57.39-14.97-57.39-14.97,0,0,7.72-38.85,23.88-85.9,16.16-47.05,76.04-111.21,76.04-111.21l11.88,67.01-4.28-74.61,8.55-14.26,10.93,51.8.95-67.01s31.84-25.66,69.53-75.56c37.69-49.9,80.17-70.81,112.97-86.97,32.79-16.16,57.03-3.54,57.03-3.54l7.6,96.69,1.43-92.67,8.55,2.44,2.38,59.81,5.7-54.18c88.4,27.09,147.33,2.85,147.33,2.85l6.18,87.92-.48-88.4c6.18,0,20.44-7.6,20.44-7.6l4.28,103.13,7.6-107.88c3.33-4.75,21.39,0,21.39,0l5.23,95.52,5.7-95.52c21.39.48,59.88,25.66,87.92,45.73,28.04,20.07,96.48,84.01,96.48,84.01l2.38,37.54,3.33-29.47,18.53,23.76-.48,97.9,6.18-91.25c50.38,56.55,80.79,129.27,80.79,129.27,0,0,44.67,78.89,19.01,110.26Zm345.03-70.22c-20.67,3.56-40.99-20.67-73.07-40.63-32.08-19.96-72.71-69.5-72.71-69.5l3.21-52.75-6.06,48.12s-18.53-19.6-27.45-60.95c-8.91-41.35-22.46-72.71-22.46-72.71,0,0-2.85,166.1-3.21,189.98-.36,23.88,3.56,92.32,7.84,114.06,4.28,21.74,11.05,112.99,13.54,133.31,2.49,20.32,20.32,75.56,23.52,95.52,3.21,19.96,14.02,63.56,18.3,99.21,4.28,35.64-7.37,38.49-18.06,44.91-10.69,6.42-21.86-6.89-23.76-11.88-1.9-4.99-22.34-17.58-22.34-17.58l-5.7-78.65v72.95l-5.7-5.23-6.18-48.95-2.14,41.11s-20.67-25.66-23.05-33.98c-2.38-8.32-5.11-18.42-5.11-18.42-7.49-11.41-17.47-37.78-40.28-91.6-22.81-53.82-41.11-82.69-41.11-82.69-6.18-27.45,4.04-51.68,4.04-51.68,21.03-16.04,33.5-23.52,20.32-84.48-13.19-60.95-52.4-114.77-87.33-165.39-34.93-50.61-105.51-121.9-105.51-121.9-10.34-28.16,6.42-42.06,6.42-42.06,10.69-9.62,37.07-16.75,37.07-16.75l5.7,75.21,3.92-74.85c3.92-1.07,16.75-1.07,16.75-1.07l6.42,84.12,2.85-78.77,13.9,5.7,1.78,68.79,3.92-68.08s23.88,5.35,57.03,7.13c33.15,1.78,59.17-11.05,59.17-11.05l3.92,42.77,3.21-43.84,6.06-4.28,1.78,73.07,5.35-76.63,5.35-2.49c11.41-2.5,27.8,2.14,47.05,7.84,19.25,5.7,43.84,27.45,56.67,39.92,12.83,12.48,79.13,84.83,79.13,84.83l.71,52.04,7.49-39.21,7.84,10.69-3.92,60.95,8.2-54.18c28.87,30.3,59.17,83.76,59.17,83.76,0,0,18.18,49.54,19.96,62.73s-1.78,19.96-22.46,23.52Z"/>
  </g>
</svg>