<?xml version="1.0" encoding="UTF-8"?>
<svg id="Armas" xmlns="http://www.w3.org/2000/svg" viewBox="0 0 2011.02 2000.01">
  <defs>
    <style>
      .cls-1 {
        fill: #fff;
      }
    </style>
  </defs>
  <g id="faca">
    <g>
      <path d="m3.56,400.01c2.77-10.89,5.8-21.72,8.26-32.68,8.47-37.6,22.57-73.08,39.54-107.57,3.8-7.73,8.89-13.4,15.92-18.45,24.84-17.87,50.95-33.42,78.55-46.58,3.21-1.53,5.63-4.67,8.79-6.37,14.86-7.95,29.92-8.76,46.19-3.32,10.5,3.51,22.07,3.74,33.12,5.68,5.34.94,10.58,2.43,15.86,3.68,25.25,6.02,50.85,10.87,75.67,18.32,52.74,15.83,105.07,33.04,157.6,49.56,2.92.92,6.18.73,8.83,1.01,1.74,1.39,3.3,3.31,5.3,4.11,19.77,7.96,39.41,16.31,59.5,23.41,19.95,7.05,40.62,10.59,61.9,6.92,1.85-.32,3.7-1.43,5.25-2.57,23.03-16.99,45.57-34.68,69.11-50.93,25.24-17.42,53.78-27.66,83.61-34.4,3.21-.73,6.19-2.45,9.41-3.17,7.74-1.73,15.49-3.99,23.34-4.5,15.39-1.01,30.84-1.06,46.27-1.25,2.11-.03,4.64.96,6.28,2.31,11.76,9.72,23.29,19.71,34.97,29.52,17.41,14.62,32.27,31.68,47.74,48.24,19.64,21.03,40.74,40.69,61.38,60.77,6.31,6.14,13.17,11.72,21.82,19.36,1.02-1.97,1.67-4.26,3.11-5.81,14.18-15.24,28.02-30.83,42.88-45.38,17.95-17.58,36.75-34.29,55.28-51.26,4.74-4.34,9.79-8.36,14.86-12.32,1.34-1.04,3.33-1.94,4.94-1.83,28.74,2.09,57.52,3.82,85.55,11.47,31.94,8.71,60.89,23.27,87.09,43.39,8.32,6.39,16.58,12.86,24.7,19.5,2.79,2.28,5.27,4.05,9.21.93-2.61,6.35,2.45,8.18,5.42,11.3,3.3,3.47,7.11,4.45,11.86,5.09,10.64,1.45,21.24,3.24,31.69.12,17.19-5.14,34.26-10.69,51.25-16.43,10.57-3.56,20.94-7.71,31.32-11.79,1.41-.55,2.37-2.25,3.56-3.44,2.72-.28,6.17-.04,9.22-1.04,58.86-19.33,117.58-39.14,177.79-53.97,15.66-3.86,31.57-6.78,47.44-9.72,11.97-2.22,24.25-3,36.04-5.85,12.04-2.92,23.76-.97,35.62-.26,2.09.13,4.21.95,6.17,1.79,31.89,13.56,61.51,31.03,89.43,51.52,5,3.67,8.91,7.55,11.51,13.25,6.06,13.3,13.51,26.02,18.81,39.59,10.81,27.68,17.61,56.55,22.81,85.79,1.09,6.15,2.2,12.3,2.97,18.5.18,1.43-.71,3.21-1.58,4.51-10.92,16.14-21.95,32.19-32.84,48.35-.71,1.05-.45,2.75-.78,5.12-2.36,1.08-5.43,2.6-8.57,3.9-2.98,1.24-5.56.97-8.18-1.52-1.38-1.32-4-1.43-6.1-1.88-38.89-8.27-78.29-12.57-117.93-14.71-20.11-1.09-40.26-2.22-60.39-2.05-25.19.21-49.33,7.3-73.54,13.49-11.77,3.01-23.79,5.34-35.24,9.28-12.53,4.32-24.61,10-36.76,15.37-6.54,2.89-12.84,6.31-19.2,9.57-3.4,1.74-6.75,3.6-10.05,5.52-3.8,2.21-5.3,4.81-4.01,9.79,1.24,4.76.24,10.1.32,15.18.1,6.49.28,12.98.46,19.47,1.32,48.02-1.04,95.93-4.85,143.78-.65,8.17-1.02,16.39-2.11,24.5-.5,3.76-2.41,7.34-3.96,11.8,3.36,2.84,7.64,6.23,11.66,9.89,38.11,34.62,76.24,69.21,114.24,103.95,32.37,29.59,63.64,60.31,92.23,93.61,26.27,30.59,52.29,61.4,78.02,92.45,14.02,16.92,28.12,33.9,40.53,51.98,12.13,17.66,22.09,36.81,33.15,55.23,22.6,37.64,42.38,76.68,58.36,117.58,14.77,37.81,25.11,76.87,32.87,116.68,9.97,51.14,15.45,102.84,17.74,154.79,2.23,50.54-5.76,100.03-21.52,148.07-12.51,38.13-26.14,75.89-39.08,113.89-2.18,6.39-7,3.18-11.12,4.24-3.2-17.05-4.49-34.44-9.94-50.41-8.04-23.56-18.13-46.54-28.99-68.98-18.61-38.45-41.83-74.29-65.13-110.03-1.27-1.95-2.75-3.77-4.22-5.57-31.26-38.34-62.31-76.84-93.86-114.94-32.63-39.4-65.98-78.18-102.43-114.18-28.21-27.87-55.54-56.65-84.1-84.14-32.64-31.41-65.76-62.33-100.97-90.94-22.63-18.39-44.52-37.73-67.61-55.51-23.61-18.18-48.28-34.99-72.51-52.37-1.75-1.25-3.61-2.54-5.63-3.2-19.95-6.55-35.16-20.5-51.8-32.38-20.71-14.79-42.03-28.78-63.5-42.45-38.52-24.52-78.02-47.41-118.94-67.71-16.56-8.21-33.47-15.72-50.37-23.22-2.2-.98-5.6-.76-7.89.21-55.19,23.4-107.74,51.89-158.3,83.96-48.1,30.51-96.38,60.83-143.33,93.07-62.39,42.84-122.03,89.45-179.74,138.41-27.69,23.49-54.7,47.82-81.19,72.64-12.96,12.14-23.76,26.55-36.05,39.45-15.39,16.15-31.64,31.48-46.9,47.75-11.71,12.5-22.98,25.49-33.54,38.97-50.94,65.01-97.37,133.11-139.05,204.43-15.07,25.79-27.61,52.83-38.75,80.53-6.16,15.34-7.79,31.63-10.66,47.68-.66,3.69-1.59,7.33-2.37,10.85q-8.87.67-11.46-6.92c-12.56-37.07-25.86-73.91-37.37-111.3-6.15-19.97-9.8-40.78-13.53-61.39-5.95-32.95-5.48-66.38-4.07-99.61,1.35-32.04,6.89-63.67,13.11-95.22,8.52-43.22,18.29-86,34.25-127.16,18.56-47.88,43.09-92.64,70.48-136,26.7-42.26,58.13-80.8,90.19-118.98,37.55-44.72,76.38-88.15,119.67-127.44,33.19-30.13,66.32-60.31,99.48-90.47,1.21-1.1,2.37-2.25,4-3.79-6.97-7.28-13.58-14.49-20.54-21.36-6.62-6.54-13.72-12.6-20.32-19.16-1.86-1.85-3.04-4.59-3.95-7.13-4.55-12.62-2.36-25.9-3.42-38.85-4.08-49.86-5.26-99.84-3.93-149.83.31-11.65-2.41-23.57,1.83-35.09.33-.89-.8-2.89-1.8-3.58-3.69-2.55-7.5-4.96-11.46-7.07-9.55-5.08-19-10.43-28.87-14.78-12-5.29-24.11-10.7-36.69-14.25-24.51-6.92-49.29-12.91-74.1-18.67-26.52-6.15-53.48-6.72-80.52-4.62-28.24,2.19-56.54,3.8-84.68,6.92-21.66,2.4-43.1,6.71-64.63,10.23-1.45.24-3.26.56-4.14,1.53-3.81,4.23-8.45,2.58-11.96.82-12.83-6.44-22.49-16.03-25.77-30.6-2.07-9.18-6.4-17.02-12.43-24.13-2.35-2.77-4.08-6.06-6.09-9.11,0-3.67,0-7.33,0-11Zm863.76,23.05c-.45.23-.9.46-1.35.69-25.35-48.31-52.13-96-65.73-150.98-3.06,10.29-6.77,19.38-8.39,28.82-4.13,24.19-2.58,48.56,1.66,72.51,2.59,14.64,7.78,28.83,12.09,43.14,6.6,21.91,14.87,42.87,29.12,61.37,14.62,18.99,27.1,39.63,41.86,58.5,26.76,34.22,57.53,64.82,90.31,93.22,23.15,20.05,46.86,39.58,71.52,57.7,22.18,16.3,44.45,32.3,64.42,51.33,7.11,6.77,14.72,13.02,22.19,19.4,12.26,10.49,24.62,20.84,36.86,31.36,5.68,4.88,10.98,10.22,16.75,14.98,24.29,20.05,48.73,39.91,73.04,59.93,75.55,62.2,146.98,129.06,219.45,194.75,57.6,52.22,109.35,110.24,164.03,165.35,27.41,27.63,52.5,57.63,77.75,87.32,19.41,22.82,37.9,46.46,55.88,70.42,11.06,14.74,20.57,30.65,30.39,46.28,4.69,7.46,8.36,15.54,12.76,23.19,1.27,2.21,4.07,3.6,5.11,5.86,2.64,5.74,4.27,11.94,7.01,17.62,17.99,37.26,33.49,75.53,45.85,115.01,4.75,15.16,16.99,22.12,28.56,30.17l1.69-.49c-2.65-37.24-5.3-74.47-7.95-111.71,1.48.67,2.23,1.63,2.47,2.71.67,3.09,1.05,6.24,1.68,9.34,6.9,33.97,12.47,68.11,13.3,102.87.15,6.44,1.51,7.91,9.77,8.99,0-18.64.33-37.12-.09-55.59-.42-18.31-1.59-36.6-2.44-55.15,1.02.23,1.85.26,1.89.45,7.25,36.62,9.98,73.68,10.12,111.8,5.58-2.47,10.54-4.68,15.51-6.87,9.18-4.05,9.83-5.18,8.9-15.11-1.93-20.69-3.06-41.49-5.94-62.05-3.71-26.47-7.46-53.07-13.59-79.05-20-84.71-54.26-163.34-103.68-235.19-.79-1.14-1.06-2.65-1.57-3.98.71-.56,1.43-1.13,2.14-1.69.9,1.49,1.71,3.03,2.7,4.45,3.74,5.31,7.48,10.62,11.32,15.86,24.26,33.1,46.43,67.47,63.94,104.69,20.58,43.73,35.02,89.49,43.59,136.98,4.45,24.66,7.21,49.64,10.43,74.51,1.42,10.96,2.06,22.03,3.17,34.34,1.04-2.15,1.53-3.13,1.98-4.13,5.04-11.14,6.71-23.06,6.65-35.03-.11-20.79-.26-41.65-1.99-62.34-2.07-24.8-5.04-49.6-9.04-74.16-5-30.69-12.15-60.98-24-89.88-6.99-17.05-14.96-33.7-21.9-50.76-9.96-24.49-18.83-49.44-29.17-73.77-18.26-42.97-41.52-83.16-71.09-119.38-19.7-24.12-40.01-47.79-60.85-70.93-23.75-26.36-48.37-51.93-72.66-77.79-13.92-14.82-27.91-29.56-41.96-44.25-1.92-2.01-4.35-3.56-6.63-5.19-8.78-6.27-18.38-11.62-26.25-18.87-23.64-21.8-46.17-44.8-69.96-66.42-21.56-19.59-43.78-38.51-66.48-56.77-29.32-23.6-59.97-45.58-89.02-69.5-35.22-29-72.88-54.99-106.39-86.09-1.95-1.81-4.15-3.35-6.16-5.1-11.31-9.84-22.65-19.63-33.86-29.58-9.06-8.03-17.15-17.43-27.05-24.2-37.78-25.81-72.27-55.79-107.74-84.47-30.54-24.71-59.61-51.25-89.14-77.2-17.51-15.39-34.45-31.44-52-46.78-28.6-25-57.28-49.9-86.4-74.29-7.48-6.26-16.68-10.46-25.09-15.61-.41.46-.83.91-1.24,1.37,3.77,37.43,16.47,72.35,30.76,106.98-1.66-.8-2.85-1.83-3.51-3.14-7.95-15.93-16.09-31.78-23.62-47.91-6.71-14.36-9.87-29.62-9.28-45.54.17-4.43,2.34-10.17.32-12.91-2.06-2.81-8.09-2.8-12.44-3.79-7.22-1.64-10.85.64-10.79,8.09.09,10.75,1.23,21.49,1.92,32.23.09,1.44.16,2.88.24,4.32-.69.15-1.38.29-2.07.44-2.57-8.89-5.13-17.78-7.7-26.67-1.03,1.68-1.42,3.38-1.52,5.09-.7,13.14,1.76,25.88,5.44,38.38,11.16,37.92,26.3,74.32,42.7,110.22,2.67,5.85,5.66,11.55,8.5,17.32Zm709.79,847.32c.07,0,.48-.19.64-.05,4.46,3.74,8.91,7.5,13.33,11.29,27.26,23.39,53.47,47.91,73.43,78.01,12.49,18.83,26.86,35.96,41.57,52.96,35.92,41.51,67.99,85.96,99.37,130.94,6.14,8.8,12.94,17.13,19.44,25.68-28.58-82.42-71.4-156.27-129.19-221.34,32.99,32.02,61.64,67.46,86.15,106.29-.63-2.11-1.56-4-2.59-5.83-13.99-24.99-28.33-49.8-41.85-75.04-7.3-13.64-16.12-26-26.19-37.61-16.7-19.25-32.92-38.94-50.11-57.74-18.65-20.39-37.65-40.52-57.46-59.77-25.69-24.95-52.13-49.15-78.64-73.24-19.09-17.35-38.56-34.34-58.41-50.81-8.12-6.74-18.16-11.12-26.57-17.56-57.01-43.66-109.7-92.23-159.12-144.19-50.28-52.86-102.77-103.12-160.67-147.61-8.7-6.69-16.7-14.3-25.01-21.51-16.23-14.08-31.96-28.79-48.78-42.13-35.63-28.25-71.69-55.97-107.84-83.55-26.55-20.26-51.77-42.05-74.79-66.16-17.46-18.3-33.75-37.73-50.24-56.94-14.49-16.88-27.26-35.2-36.09-55.55-13.26-30.58-22.05-62.74-28.84-95.38-2.7-13-4.15-26.28-7.19-39.2-2.39-10.16-6.99-19.64-13.3-28.09-.57-.01-1.14-.02-1.7-.03-2.91,20.78-5.82,41.56-8.74,62.43-.41-.32-.8-.47-.88-.72-.21-.62-.37-1.27-.4-1.92-.81-21.24.42-42.28,5.98-62.92.41-1.53,1.07-3.7.38-4.72-3.99-5.83-8.05-11.72-15.38-15.73-21.98,46.69-24.47,94.66-15.32,143.92-19.06-49.04-16.47-97.29,6.35-145.55-3.41,1.08-6.26,1.54-8.67,2.82-7.61,4.05-15.34,7.97-22.48,12.75-10.62,7.12-21.37,14.25-30.98,22.62-14.42,12.56-27.91,26.2-41.77,39.4-2.29,2.18-4.52,4.43-6.69,6.74-18.93,20.14-38.44,39.78-56.53,60.64-9.82,11.32-19.01,23.9-25.29,37.4-8.52,18.32-12.68,38.58-23.01,56.27-3.88,6.64-3.19,12.8-.23,19.76,11.01,25.93,26.23,49.33,42.17,72.35,17.57,25.37,35.54,50.38,59.93,69.91.25.2.21.77.31,1.17-48.98-36.3-87.8-80.8-112.41-137.52-.52,1.25-.95,1.97-1.13,2.75-5.05,21.41-5.7,43.17-5.03,65.02.05,1.79,1.29,3.7,2.39,5.26,5.08,7.21,9.99,14.58,15.58,21.38,4.16,5.06,9.28,9.33,13.94,13.98.41.41.63,1.01,1.54,2.52-14.02-2.09-21.67-11.84-30.59-20.15,1.21,11.61,2.73,22.96,4.79,34.21.85,4.63,1.63,10.19,4.57,13.36,8.68,9.34,18.42,17.69,27.73,26.45.74.69,1.36,1.52,2.03,2.28-.32.4-.63.79-.95,1.19-9.63-5.26-18.74-11.32-26.73-19.22.11,1.73.62,3.1,1.02,4.51,7.16,24.8,20.67,45.93,37.22,65.45,20.43,24.1,44.87,39.93,77.65,39.67,1,0,1.99.17,2.99.23,22.1,1.42,44.2,2.93,66.31,4.2,7.64.44,15.41-.42,22.95.61,7.37,1.01,14.7.34,22.17,1.55,24.82,4.02,49.86,6.77,74.88,9.41,63.3,6.68,122.68,27.46,181.53,50.1,29.27,11.26,56.62,26.53,84.45,40.88,41.33,21.3,81.7,44.17,121.1,68.79,20.89,13.05,41.08,27.27,62.24,39.85,27.51,16.36,54.77,33.12,79.96,52.81,36.48,28.52,72.49,57.66,108.15,87.21,28.59,23.7,56.51,48.23,84.45,72.72,36.08,31.62,71.91,63.53,107.77,95.4,6.49,5.77,12.63,11.95,18.93,17.94.48-.46.96-.92,1.43-1.38-19.7-21.34-39.4-42.67-59.02-63.92Zm-1028.54-416.3c-13.92-6.82-28.24-9.8-43.06-11.51-13.24-1.52-25.41-1.4-36.03,8.2-13.57,12.28-27.67,23.97-41.22,36.27-9,8.17-16.82,17.72-26.25,25.3-17.29,13.9-31.9,30.23-45.35,47.61-7.74,10-16.55,18.65-26.32,26.5-1.28,1.03-2.81,2.09-3.47,3.49-5.09,10.91-14.01,18.41-22.58,26.35-7.91,7.33-16.11,14.65-22.58,23.19-22.72,30-45.03,60.32-66.94,90.93-13.65,19.07-26.89,38.49-39.16,58.47-8.63,14.05-17.77,27.75-24.39,43.23-4.82,11.26-9.7,22.37-13.24,34.1-9.61,31.85-19.82,63.53-28.88,95.53-7.1,25.09-13.94,50.35-18.9,75.92-5.61,28.86-9.75,58.08-7.8,87.75.67,10.21,2.95,19.7,9.32,27.9,1.12,1.44,2.54,2.64,4.43,4.57,1.37-78.71,19.35-152.71,46.53-224.8.71,1.69.53,3.23.15,4.71-2.06,7.89-4.63,15.68-6.19,23.67-7.11,36.56-14.35,73.11-20.74,109.81-5.11,29.34-8.85,58.91-9.14,88.79-.07,7.75,1.09,9.06,9.29,10.65.13-.61.29-1.23.4-1.85,3.54-21.47,6.47-43.06,10.74-64.38,8.2-40.88,22.08-80.13,35.83-119.39.27-.78.42-1.71.95-2.28.6-.65,1.55-.97,2.34-1.43.44.81,1.22,1.61,1.24,2.43.02,1.11-.56,2.23-.85,3.35-5.03,19.65-10.93,39.14-14.89,59-6.66,33.4-12.15,67.04-18,100.6-1.61,9.26-2.73,18.61-4.14,28.3,4.7.8,8.87,1.52,13,2.23,3.83-12.32,7.44-23.96,11.05-35.6.64.18,1.28.36,1.91.53-2.01,11.8-4.01,23.59-6.25,36.75,5.22-.55,9.83-.01,13.48-1.64,9-4,16.25-10.03,19.63-20.04,7.3-21.62,13.15-43.98,22.93-64.45,16.92-35.41,35.7-70,55.02-104.18,12.84-22.72,27.19-44.71,42.36-65.95,12.65-17.72,26.94-34.37,41.48-50.62,18.32-20.48,37.5-40.2,56.57-60,25.3-26.28,50.81-52.37,76.31-78.46,12.11-12.39,24.38-24.63,36.62-36.89,16.13-16.15,31.54-33.11,48.61-48.19,37.07-32.77,74.66-64.99,112.75-96.57,14.26-11.82,23.41-25.69,27.97-43.4,3.88-15.06-4.12-34.85-17.68-40.79-29.17,26.66-58.42,53.4-87.71,80.09-1.2,1.09-2.84,1.69-4.28,2.53-.46-.6-.92-1.2-1.39-1.8,27-30.02,53.8-60.23,83.75-88.96-10.69-5.11-20.73-9.88-30.75-14.7-9.98-4.8-20.59-4.7-31.28-4.25-11.61.49-20.1,6.83-28.21,14.33-11.6,10.73-23.48,21.14-35.29,31.64-.77.68-1.92.94-2.9,1.39-.38-.46-.77-.91-1.15-1.37,8.91-11.59,17.83-23.19,26.74-34.78-2.98.36-5.67,1.28-7.71,2.97-5.76,4.79-11.39,9.75-16.84,14.9-53.5,50.58-98.65,108.27-142.19,167.33-1.1,1.49-2.43,2.8-3.65,4.2,36.98-71.72,85.9-134.06,145.98-187.25Zm862.75-188.91c13.64,10.22,26.28,19.94,39.25,29.2,2.81,2.01,6.75,2.92,10.28,3.35,9.91,1.2,19.3-1.61,27.91-6.02,6.9-3.54,13.06-8.3,16.46-16.05,6.53-14.86,7.39-30.64,8.05-46.39.4-9.61-.86-19.28-1.01-28.92-.58-36.68-6.2-72.18-26.97-103.41-17.44-26.22-34.29-52.76-58.65-73.91-21.33-18.52-40.38-39.66-60.43-59.67-7.65-7.63-15.25-15.31-23.01-23.1-13.54,12.57-26.91,24.98-39.41,36.59,8.66-14.44,18.47-29.76,31.26-43.36-2.93-2.26-5.4-4.17-8.49-6.55-21.16,24.35-43.39,47.47-59.08,75.85,6.17-33.22,24.02-59.84,47.28-83.63-1.49-.97-2.4-1.7-3.42-2.2-16.24-8.05-32.07-17.12-48.85-23.82-19.73-7.88-40.43-13.3-60.44-20.53-15.57-5.63-31.29-5.56-47.24-3.47-10.26,1.35-19.73,5.16-25.39,14.15-8.85,14.07-17.22,28.49-24.93,43.22-3.09,5.89-4.53,12.87-5.64,19.54-2.88,17.37-1.41,34.77-.47,52.29.79,14.58,9.63,21.15,20.97,28.72,9.43-27.6,18.63-54.54,28.26-82.75,0,2.16.13,2.99-.02,3.77-5.16,27.81-9.98,55.7-19.24,82.56-.45,1.32-.46,3.88.28,4.35,7.04,4.49,14.29,8.65,21.47,12.91,4.43-11.68,8.35-22.02,12.27-32.36.45.16.9.32,1.35.48-3.11,10.78-6.23,21.56-9.45,32.74,5.72,1.74,11.53,5.34,16.33.98,6.48-5.89,13-12.4,17.27-19.91,10.8-19,17.23-39.75,18.44-61.66.56-10.24-.88-20.58-1.36-30.88-.36-7.78-1.6-15.63,1.58-23.48.73.32,1.59.41,1.79.83,3.25,6.72,7.41,13.19,9.42,20.28,7.35,25.88,6.28,52.36,1.27,78.27-3.55,18.33-10.89,35.91-16.29,53.9-.96,3.19-1.9,7.17-.84,10.04,2.56,6.94,5.29,14.25,9.77,19.98,16.21,20.73,36.16,37.77,56.86,53.8,18.3,14.17,37.38,27.32,56.03,41.03,11.64,8.56,23.12,17.33,35.09,26.31,12.49-22.77,27.75-43.03,48.3-58.94.33,1.3.16,2.22-.31,2.96-12.73,20.09-25.52,40.15-38.15,60.3-.61.97-.44,3.34.31,4.09,3.06,2.99,6.49,5.59,9.95,8.47,10.5-15.09,22.16-28.53,35.67-40.24.46.37.92.73,1.39,1.1-9.3,15.59-18.61,31.18-27.62,46.28,4.64,4.49,9.13,8.83,13.87,13.41,26.17-36.43,59.53-66.34,95.24-92.71-28.72,33.77-57.88,68.06-86.96,102.26ZM300.96,1408.29c.27.27.54.55.81.82,2.8-2.21,5.65-4.36,8.38-6.64,16.11-13.45,33.33-25.8,48.01-40.67,22.57-22.85,43.55-47.28,64.88-71.34,18.12-20.43,34.64-42.3,55.48-60.24,27.14-23.37,52.59-49.07,81.61-69.78,46.27-33.03,92.51-66.19,141.05-96.11,53.56-33.01,105.28-68.99,157.77-103.73,2.19-1.45,4.28-3.24,5.92-5.27,11.47-14.2,17.55-30.85,21.48-48.41.26-1.16.03-2.43.03-5.54-44.34,33.95-87.57,67.06-131.03,100.34.65-.94,1.11-1.79,1.74-2.47,38.45-41.25,80.8-77.87,128.4-108.25,3.79-2.42,4.13-5.58,1.4-8.25-4.7-4.61-9.94-8.73-15.25-12.64-1.12-.82-4.01-.57-5.26.33-12.43,8.94-24.68,18.13-37.01,27.21-.86.63-1.94.95-2.92,1.42-.35-.49-.69-.97-1.04-1.46,11.04-10.67,22.07-21.34,33.33-32.23-6.74-2.02-13.01-3.19-19.14,1.95-5.99,5.01-12.49,9.4-18.74,14.11-1.32,1-2.49,2.2-3.73,3.32-.41-.4-.82-.8-1.24-1.2,5.52-6.6,11.05-13.21,17.3-20.68-14.63.97-28.57.73-40.56,8.77-8.7,5.84-17.06,12.25-25.11,18.97-7.65,6.38-14.66,13.52-22.01,20.27-9.67,8.87-19.12,18-29.17,26.41-11.59,9.7-23.95,18.49-35.58,28.15-10.76,8.94-20.99,18.52-31.44,27.83-44.42,39.52-90.31,77.37-130.19,121.86-22.43,25.03-47.81,47.37-70.92,71.82-38.67,40.92-79.1,80.2-114.4,124.26-20.12,25.12-40.21,50.18-56.96,77.73-5.37,8.83-5.1,23.33.82,31.53,39.87-55.34,82.23-108.37,131-152.66-34.96,45.59-71.34,93.03-107.72,140.47ZM67.6,395.01c.66.03,1.32.06,1.97.09.08,1.61.19,3.22.24,4.83.39,11.98.77,23.95,1.14,35.93.12,3.86,1.9,5.71,5.91,5.46,6.48-.4,12.96-.61,19.45-.94,23.45-1.19,45.56-7.16,66.33-18.23,7.02-3.74,10.33-9.21,11.16-17.04,1.83-17.2,3.28-34.52,6.45-51.49,5.27-28.3,11.74-56.37,17.76-84.53,2.98-13.96,4.15-27.97,1.9-42.17-2.4-15.12-3.96-16.41-19.05-16.27-3.08.03-4.18,1.25-5.12,4.01-3.85,11.33-7.9,22.59-12.06,33.81-6.05,16.36-12.25,32.67-18.42,48.99-.18.47-.82.77-2.32,2.13,5.34-29.8,10.23-58.3,22.68-85.75-10.71,3.81-19.9,6.64-25.01,17.59-8.28,17.78-18.37,34.71-23.12,53.99-.23.92-1.18,1.66-1.8,2.49-.43-.17-.87-.34-1.3-.52,2.38-18.59,8.01-36.42,14.28-55.17-2.33,1.31-3.77,2-5.1,2.88-15.7,10.35-31.26,20.91-47.13,30.99-5.77,3.66-9.09,8.59-10.89,14.84-2.94,10.21-4.96,20.76-8.81,30.61-5.86,14.98-12.75,29.56-19.57,44.15-5.38,11.52-9.05,23.36-7.46,36.13.91,7.35,3.2,14.51,4.63,21.81,1.6,8.19,7.09,14.03,12.66,19.28,3.73,3.51,9.47,4.88,14.83,7.46,2.04-16.02,3.91-30.68,5.78-45.35Zm1790.22-104.18c.86,17.46,1.71,34.67,2.56,51.88-.64.1-1.28.21-1.93.31-.51-1.25-1.2-2.47-1.49-3.77-4.16-18.32-8.25-36.65-12.45-54.96-.34-1.49-1.1-3.47-2.27-4.09-6.26-3.31-12.71-6.25-20-9.75,3.08,13.75,5.92,26.39,8.75,39.03-1.51-.29-2.06-.89-2.26-1.59-4.09-14.6-11.23-27.72-19.57-40.24-.99-1.48-2.17-3.26-3.68-3.89-14.59-6.05-29.44-8.24-44.58-2-5.67,2.34-6.81,5.52-4.95,11.39,3.46,10.94,6.6,21.99,10.1,32.92,2.27,7.08,5.19,13.96,7.4,21.07,3.19,10.29,7.43,20.54,8.66,31.1,2.74,23.46,3.36,47.17,5.95,70.66.96,8.71,3.9,17.66,7.97,25.44,4.29,8.2,11.23,14.8,23.19,15.65-2.03-32.41-4.03-64.35-6.03-96.3.42-.07.84-.13,1.26-.2,9.24,32.34,18.81,64.61,15.85,99.25,11.43,1.98,22.42,3.1,32.97,5.9,17.63,4.69,30.14-.7,39.97-15.88,10.57-16.33,18.37-33.03,16.51-53.16-1.79-19.29-5.18-38.19-11.78-56.44-3.44-9.52-6.33-19.3-10.67-28.4-2.97-6.23-8-11.48-12.1-17.17-.36.25-.73.51-1.09.76.84,14.43,1.69,28.86,2.53,43.3-2.6-10.75-4.54-21.54-6.7-32.28q-3.84-19.01-20.7-28.19c-.27-.15-.62-.16-1.43-.35ZM367.72,462.05c1.99-7.19,3.46-12.8,5.1-18.37,1.62-5.47,3.43-10.89,5.15-16.34.54.15,1.09.29,1.63.44-.84,11.67-1.68,23.34-2.61,36.26,7.73-.38,14.36.6,20.07-1.26,12.83-4.18,18.12-15.86,21.65-27.39,4.51-14.77,6.86-30.18,10.71-45.17,3.26-12.72,7.35-25.22,11.05-37.82,3.04-10.35,5.03-21.17,9.36-30.94,3.98-8.98,4.14-17.52,2.73-26.69-1.61-10.47-7.84-17.19-17.28-22.33-6.46,8.75-12.77,17.3-19.08,25.86-.55-.34-1.09-.67-1.64-1.01,4.25-9.56,8.49-19.12,12.87-28.99-4.26-.75-8.08-5.95-12.36-.04-17.68,24.41-31.96,50.63-42.13,79.04-.79,2.2-1.31,4.51-1.95,6.76-.49-.14-.97-.28-1.46-.42,2.36-15.78,6.11-31.24,11.16-46.43,5.16-15.49,11.82-30.2,21.57-43.8-8.86.82-17.45,1.76-25.78,3.8-3.78.93-7.87,3.33-10.36,6.29-8.66,10.3-17.34,20.7-24.83,31.86-20.1,29.96-34.48,62.54-42.93,97.7-4.05,16.86,2.06,32.46,17.94,39.55,16.48,7.36,33.79,12.87,51.42,19.45Zm-60.83-228.06c-6.99-2.88-13.3-5.9-19.9-8.11-20.04-6.71-38-3.06-53.49,11.6-9.5,8.99-13.82,20.63-16.64,32.93-7.01,30.5-13.99,61.01-20.7,91.58-3.36,15.32-4.12,30.57,1.99,45.68,2.71,6.69,7.52,9.17,14.44,10.63,1.44-19.68,5.22-38.47,11.04-56.77v57.82c3.33,0,5.95-.07,8.56.02,3.09.1,4.01-1.15,4.44-4.37,2.06-15.47,4.56-30.88,6.97-46.3.09-.59.82-1.09,1.56-2.03v50.48c4.79-3.55,11.43-2.18,11.4-9.58-.1-27.29,6.02-53.48,14.27-79.27.38-1.18,1.17-2.23,1.78-3.35.47.16.95.32,1.42.49-6.51,25.5-8.63,51.36-7.43,77.65,2.72-2.78,4.77-5.76,6.83-8.74,2.27-3.28,4.06-7.1,6.95-9.7,6.41-5.77,9.75-13.26,13.61-20.65,11.63-22.25,23-44.68,35.86-66.2,5.62-9.4,10.88-18.5,13.22-29.2,1.44-6.6.26-12.61-5.17-16.62-7.27-5.38-15.12-9.99-23.7-15.57-6.45,17.69-12.36,33.89-18.27,50.09,1.03-17.84,4.36-35.23,10.99-52.51Zm1407.78,56.62c-.43.24-.87.48-1.3.72-.83-.81-1.85-1.5-2.45-2.45-2.03-3.24-4.1-6.48-5.79-9.9-1.49-3.02-3.58-3.97-6.94-4.46-12.74-1.84-24.79,1.19-36.9,4.27-11.39,2.89-22.41,6.92-31.68,14.18-12.17,9.54-14.07,15.71-3.51,26.42.23.24.48.48.66.75,13.86,20.75,28.9,40.83,41.24,62.45,13.02,22.82,22.98,47.29,29.63,72.94,2.23,8.59,2.68,8.57,12.89,8.82,1.17-22.22,2.34-44.47,3.5-66.73,6.36,21.93,7.89,44.35,7.76,67.41,3.1-.58,5.67-1.34,8.28-1.49,3.51-.21,4.38-1.62,3.97-5.09-.81-6.76-.81-13.62-1.61-20.39-2.33-19.82-4.89-39.61-7.32-59.42-.17-1.37.09-2.8.2-5.31,1.38,1.5,2.07,1.91,2.2,2.45,6.72,27.91,16.12,55.36,13.95,84.76,17.91-2.29,25.9-9.82,27.26-26.88,1.85-23.33,4.09-46.99-1.63-70.09-4.47-18.06-9.65-36.04-16.06-53.49-6.26-17.03-18.07-29.4-36.71-33.59-1.16-.26-2.38-.28-4.04-.47,1.6,5.33,2.98,9.95,4.37,14.58Zm-126.27,25.84c2.09,6.01,3.94,10.91,5.46,15.91.45,1.49-.03,3.25-.08,4.89-1.27-1.04-2.85-1.86-3.76-3.15-3.89-5.58-7.56-11.32-11.35-16.97-1.64-2.45-3.7-3.26-6.83-2.65-10.76,2.09-21.58,3.94-32.4,5.69-8.18,1.32-15.9,3.43-22.1,9.42-2.35,2.27-2.91,4.13-1.49,7.35,6.84,15.54,13.63,31.11,19.9,46.89,12.78,32.16,21.72,65.33,25.15,99.87.12,1.2.67,2.87,1.57,3.38,5.63,3.26,11.47,5.99,19.05,4.5v-48.27c.55-.05,1.1-.09,1.65-.14,2.22,15.79,4.44,31.57,6.69,47.61,1.6-.34,3.48-.74,5.1-1.09-.96-17.55-1.9-34.53-2.83-51.51.83-.09,1.66-.18,2.48-.27,3.71,16.32,10.25,32.12,7.28,50.21,4.85-1.38,9.18-2.41,13.32-3.94.92-.34,1.77-2.55,1.63-3.79-.95-8.26-2.35-16.46-3.28-24.72-2.54-22.51-5.74-44.89-12.6-66.58-.31-.97-.2-2.08-.29-3.12.53-.13,1.05-.26,1.58-.39,12.37,30.57,23.66,61.48,28.14,95.66,10.53-3.54,21.4-5.65,30.7-10.68,14.41-7.8,16.43-14.36,13.36-30.74-.61-3.25-1.41-6.56-2.74-9.57-4.88-11.1-10.16-22.03-15.03-33.14-8.44-19.25-17.98-37.7-30.95-54.53-9.7-12.59-21.74-20.43-37.33-26.12Zm-1094.95,10.49c-.37-.17-.75-.35-1.12-.52,5.04-11.26,10.09-22.51,15.4-34.37-9.43-.21-17.31,2.26-23.52,8.64-9.73,9.99-17.93,21.15-22.3,34.54-4.18,12.79-8.09,25.69-11.39,38.73-5.86,23.18-11.29,46.47-16.61,69.78-.94,4.11-.6,8.53-.7,12.8-.07,3.13,1.96,4.66,4.77,4.54,4.96-.21,9.99-.45,14.81-1.51,2.18-.48,4.53-2.56,5.74-4.56,2.93-4.82,5.22-10.03,7.82-15.06,1.92-3.72,3.92-7.41,5.88-11.11.33.15.67.29,1,.44-2.97,8.87-5.94,17.74-9.04,27,7.24-.55,11.45-3.01,14.2-9,2.39-5.2,6.16-9.88,9.87-14.34,11.49-13.82,23.29-27.38,34.86-41.13,6.43-7.64,11.96-16.16,19.13-23,8.5-8.12,14.57-17.64,20.03-27.73,4.27-7.88,3.27-14.1-3.22-20.24-2.98-2.82-6.5-5.06-10.12-7.82-16.42,21.35-31.02,43.18-41.95,67.37,6.8-26.03,16.74-50.45,36.32-70.43-5.15-2.55-9.38-4.64-13.83-6.84-7.32,12-14.35,23.55-21.39,35.1-.49-.2-.98-.4-1.48-.61,4.91-12.69,9.81-25.38,14.83-38.37-1.39-.71-3.28-1.68-5.65-2.89-7.54,10.31-14.94,20.44-22.34,30.58Zm946.66,16.63c6.18,14.88,12.22,29.4,18.26,43.93-.66.35-1.32.69-1.98,1.04-1.03-1.45-2.19-2.82-3.06-4.36-7.65-13.66-17.3-25.66-29.66-35.34-1.08-.84-3.12-1.31-4.38-.91-3.78,1.22-7.61,2.59-11.05,4.55-7.9,4.5-8.42,13.07-1.39,18.69,20.47,16.37,39.89,33.69,55.22,55.31,7.68,10.83,17,20.47,25.36,30.83,4.79,5.94,9.34,12.09,13.61,18.41,3.21,4.76,12.4,7.67,18.23,4.93-2.25-12.72-4.52-25.53-6.79-38.35.73-.19,1.46-.38,2.19-.57,4.3,12.15,8.6,24.3,12.9,36.45.53.24,1.06.48,1.59.72,1.67-2.09,4.26-3.94,4.87-6.3,3.42-13.34,4.87-27.12,1.89-40.52-5.96-26.73-16-52.1-28.89-76.28-10.59-19.86-32.26-20.73-49.78-15.64,3.22,6.31,6.48,12.71,9.74,19.1l-2.07,1.19c-2.36-3.45-4.73-6.9-7.09-10.35-7.84-11.46-3.36-9.75-16.99-6.94-.3.06-.57.31-.72.4Z"/>
      <path class="cls-1" d="m867.33,423.05c-2.84-5.77-5.82-11.47-8.5-17.32-16.4-35.9-31.54-72.3-42.7-110.22-3.68-12.5-6.14-25.23-5.44-38.38.09-1.71.49-3.4,1.52-5.09,2.57,8.89,5.13,17.78,7.7,26.67.69-.15,1.38-.29,2.07-.44-.08-1.44-.15-2.88-.24-4.32-.69-10.74-1.83-21.48-1.92-32.23-.06-7.45,3.57-9.73,10.79-8.09,4.35.99,10.38.99,12.44,3.79,2.01,2.74-.16,8.48-.32,12.91-.6,15.92,2.57,31.19,9.28,45.54,7.53,16.13,15.67,31.97,23.62,47.91.65,1.31,1.84,2.35,3.51,3.14-14.29-34.63-26.99-69.55-30.76-106.98.41-.46.83-.91,1.24-1.37,8.41,5.15,17.62,9.35,25.09,15.61,29.11,24.39,57.8,49.29,86.4,74.29,17.55,15.34,34.49,31.39,52,46.78,29.53,25.95,58.6,52.49,89.14,77.2,35.47,28.69,69.95,58.66,107.74,84.47,9.9,6.77,17.99,16.16,27.05,24.2,11.21,9.94,22.56,19.74,33.86,29.58,2.01,1.75,4.2,3.29,6.16,5.1,33.51,31.1,71.17,57.09,106.39,86.09,29.05,23.92,59.7,45.9,89.02,69.5,22.7,18.27,44.92,37.18,66.48,56.77,23.79,21.62,46.32,44.63,69.96,66.42,7.86,7.25,17.47,12.61,26.25,18.87,2.29,1.63,4.71,3.18,6.63,5.19,14.05,14.69,28.04,29.44,41.96,44.25,24.29,25.86,48.91,51.43,72.66,77.79,20.85,23.14,41.16,46.8,60.85,70.93,29.57,36.22,52.83,76.4,71.09,119.38,10.34,24.33,19.21,49.28,29.17,73.77,6.94,17.07,14.91,33.72,21.9,50.76,11.85,28.9,19.01,59.19,24,89.88,4,24.57,6.97,49.36,9.04,74.16,1.73,20.7,1.88,41.55,1.99,62.34.06,11.97-1.61,23.89-6.65,35.03-.45,1-.95,1.98-1.98,4.13-1.11-12.31-1.75-23.38-3.17-34.34-3.21-24.87-5.97-49.85-10.43-74.51-8.57-47.49-23.02-93.24-43.59-136.98-17.51-37.22-39.68-71.59-63.94-104.69-3.84-5.24-7.58-10.55-11.32-15.86-1-1.42-1.81-2.96-2.7-4.45-.71.56-1.43,1.13-2.14,1.69.51,1.33.78,2.84,1.57,3.98,49.42,71.85,83.68,150.48,103.68,235.19,6.13,25.98,9.88,52.58,13.59,79.05,2.88,20.56,4.01,41.36,5.94,62.05.93,9.93.28,11.06-8.9,15.11-4.97,2.19-9.93,4.4-15.51,6.87-.14-38.12-2.87-75.17-10.12-111.8-.04-.19-.87-.22-1.89-.45.85,18.55,2.03,36.84,2.44,55.15.42,18.47.09,36.95.09,55.59-8.26-1.08-9.62-2.55-9.77-8.99-.83-34.75-6.4-68.9-13.3-102.87-.63-3.1-1.01-6.25-1.68-9.34-.23-1.08-.98-2.04-2.47-2.71,2.65,37.24,5.3,74.47,7.95,111.71l-1.69.49c-11.56-8.05-23.81-15.01-28.56-30.17-12.36-39.48-27.86-77.74-45.85-115.01-2.74-5.68-4.38-11.88-7.01-17.62-1.04-2.26-3.84-3.65-5.11-5.86-4.4-7.65-8.07-15.74-12.76-23.19-9.82-15.63-19.34-31.54-30.39-46.28-17.98-23.97-36.48-47.61-55.88-70.42-25.25-29.69-50.34-59.69-77.75-87.32-54.68-55.11-106.43-113.13-164.03-165.35-72.46-65.69-143.89-132.54-219.45-194.75-24.31-20.02-48.75-39.88-73.04-59.93-5.77-4.77-11.07-10.1-16.75-14.98-12.23-10.51-24.6-20.87-36.86-31.36-7.47-6.39-15.08-12.63-22.19-19.4-19.97-19.03-42.24-35.03-64.42-51.33-24.66-18.13-48.38-37.65-71.52-57.7-32.78-28.4-63.55-59-90.31-93.22-14.76-18.87-27.24-39.51-41.86-58.5-14.24-18.5-22.52-39.47-29.12-61.37-4.31-14.31-9.5-28.5-12.09-43.14-4.24-23.96-5.79-48.32-1.66-72.51,1.61-9.45,5.32-18.54,8.39-28.82,13.6,54.98,40.38,102.67,65.73,150.98.45-.23.9-.46,1.35-.69Zm262.62,148.89c16.4,25.37,24.16,33.56,53.95,56.36,97.06,74.3,195.96,146.05,297.44,214.22.82.55,1.85.8,3.3,1.41-.33-1.17-.3-1.79-.6-2.03-113.35-92.93-233.43-177.07-349.03-267.07-1.52-1.18-3.37-1.94-5.06-2.89Zm492.91,501.07l-1.72,1.54c1.41.91,2.98,1.63,4.19,2.76,24.81,23.11,46.76,48.79,67.14,75.81,36.4,48.26,66.65,100.26,94.01,154.08,8.8,17.32,19.1,33.88,28.92,50.66,1.88,3.21,4.77,5.84,7.19,8.73.53-.41,1.05-.83,1.58-1.24-42.96-114.01-109.2-212.05-201.32-292.34Zm-533.1-491.43c-.35.46-.7.93-1.05,1.39,29.81,40.19,67.45,71.11,111.71,94.27.17-.99-.06-1.58-.48-1.95-13.81-11.95-27.7-23.8-41.45-35.82-18.39-16.08-36.59-32.39-55.06-48.39-4.17-3.62-9.1-6.36-13.68-9.51Zm30.27,77.66c.55-.57,1.09-1.13,1.64-1.7-1.56-1.22-3.29-2.27-4.64-3.69-18.81-19.76-37.91-39.25-56.18-59.5-8.99-9.97-16.28-21.46-24.67-32-1.46-1.83-4.62-2.32-7-3.42-.68,2.68-2.62,5.84-1.81,7.94,2.13,5.5,4.59,11.32,8.47,15.61,11.48,12.68,23.1,25.34,35.79,36.77,15.54,13.99,32.22,26.72,48.41,40Z"/>
      <path class="cls-1" d="m1577.12,1270.37c19.61,21.24,39.32,42.58,59.02,63.92-.48.46-.96.92-1.43,1.38-6.3-5.99-12.44-12.16-18.93-17.94-35.86-31.87-71.69-63.78-107.77-95.4-27.94-24.48-55.85-49.02-84.45-72.72-35.65-29.55-71.66-58.69-108.15-87.21-25.19-19.69-52.45-36.46-79.96-52.81-21.16-12.58-41.35-26.8-62.24-39.85-39.4-24.61-79.77-47.48-121.1-68.79-27.83-14.35-55.18-29.61-84.45-40.88-58.85-22.64-118.23-43.42-181.53-50.1-25.02-2.64-50.06-5.39-74.88-9.41-7.47-1.21-14.8-.55-22.17-1.55-7.53-1.03-15.31-.17-22.95-.61-22.11-1.27-44.21-2.78-66.31-4.2-1-.06-1.99-.24-2.99-.23-32.78.26-57.22-15.57-77.65-39.67-16.55-19.52-30.06-40.65-37.22-65.45-.41-1.4-.91-2.78-1.02-4.51,7.99,7.9,17.1,13.96,26.73,19.22.32-.4.63-.79.95-1.19-.67-.76-1.29-1.58-2.03-2.28-9.31-8.75-19.05-17.1-27.73-26.45-2.94-3.16-3.72-8.72-4.57-13.36-2.06-11.25-3.58-22.6-4.79-34.21,8.91,8.31,16.57,18.06,30.59,20.15-.91-1.51-1.13-2.11-1.54-2.52-4.66-4.65-9.78-8.92-13.94-13.98-5.59-6.8-10.5-14.17-15.58-21.38-1.1-1.56-2.33-3.47-2.39-5.26-.66-21.85-.02-43.61,5.03-65.02.18-.78.61-1.5,1.13-2.75,24.61,56.72,63.43,101.22,112.41,137.52-.1-.4-.06-.96-.31-1.17-24.39-19.52-42.36-44.54-59.93-69.91-15.94-23.02-31.16-46.42-42.17-72.35-2.96-6.96-3.65-13.12.23-19.76,10.33-17.69,14.49-37.96,23.01-56.27,6.28-13.5,15.47-26.08,25.29-37.4,18.09-20.86,37.6-40.51,56.53-60.64,2.17-2.3,4.4-4.55,6.69-6.74,13.86-13.2,27.35-26.84,41.77-39.4,9.61-8.37,20.36-15.5,30.98-22.62,7.14-4.79,14.88-8.7,22.48-12.75,2.41-1.28,5.26-1.75,8.67-2.82-22.82,48.26-25.41,96.52-6.35,145.55-9.15-49.26-6.66-97.23,15.32-143.92,7.33,4.01,11.38,9.9,15.38,15.73.7,1.02.04,3.18-.38,4.72-5.57,20.64-6.79,41.68-5.98,62.92.02.65.19,1.31.4,1.92.09.25.47.4.88.72,2.92-20.86,5.83-41.65,8.74-62.43.57.01,1.14.02,1.7.03,6.3,8.45,10.9,17.93,13.3,28.09,3.04,12.91,4.48,26.19,7.19,39.2,6.79,32.64,15.58,64.79,28.84,95.38,8.83,20.35,21.6,38.67,36.09,55.55,16.49,19.21,32.78,38.64,50.24,56.94,23.02,24.12,48.24,45.91,74.79,66.16,36.15,27.58,72.21,55.3,107.84,83.55,16.82,13.34,32.55,28.05,48.78,42.13,8.31,7.21,16.3,14.82,25.01,21.51,57.9,44.5,110.39,94.75,160.67,147.61,49.42,51.96,102.11,100.52,159.12,144.19,8.41,6.44,18.45,10.82,26.57,17.56,19.86,16.47,39.32,33.46,58.41,50.81,26.51,24.09,52.95,48.29,78.64,73.24,19.81,19.25,38.81,39.38,57.46,59.77,17.19,18.8,33.41,38.49,50.11,57.74,10.08,11.61,18.89,23.97,26.19,37.61,13.52,25.25,27.86,50.05,41.85,75.04,1.03,1.84,1.96,3.73,2.59,5.83-24.52-38.83-53.16-74.27-86.15-106.29,57.79,65.07,100.61,138.92,129.19,221.34-6.5-8.55-13.3-16.88-19.44-25.68-31.37-44.98-63.45-89.42-99.37-130.94-14.71-17.01-29.09-34.13-41.57-52.96-19.96-30.1-46.17-54.62-73.43-78.01-4.42-3.79-8.87-7.55-13.33-11.29-.16-.13-.57.05-.64.05Zm-422.67-385.4c-.2.32-.4.63-.59.95,5.07,3.58,10.19,7.08,15.2,10.75,51.8,37.94,99.81,80.48,148.14,122.62,46.57,40.61,92.88,81.53,139.37,122.24,8.58,7.51,17.49,14.64,26.24,21.94-1.47-3.16-3.64-5.59-5.88-7.96-38.04-40.23-79.44-76.91-120.26-114.23-62.21-56.87-127.57-109.58-198.92-154.64-1.03-.65-2.19-1.12-3.28-1.67Zm119.06,128.77c-6.02-11.03-70.97-67.79-124.15-109.42-33.74-26.41-131.23-86.19-141.57-86.3,6.74,4.21,12.93,7.98,19.03,11.89,53.85,34.56,105.76,71.81,155.46,112.13,26.38,21.39,52.99,42.5,79.57,63.65,3.68,2.93,7.76,5.37,11.66,8.04Zm-604.98-424.87c-.52.25-1.04.5-1.56.76-.1.76-.28,1.51-.27,2.27.22,13.1,4.28,25.21,9.93,36.8,11.04,22.68,25.08,43.53,39.82,63.93.54.75,1.61,1.11,3.54,2.38-.65-2.17-.8-3.1-1.19-3.91-6.37-13.16-13.09-26.16-19.08-39.49-6.26-13.94-11.38-28.41-17.9-42.22-3.45-7.3-8.8-13.71-13.29-20.52Zm97.76,100.96c-24.62-29.5-44-63.57-75.65-87.82,17.5,36.54,41.9,66.22,75.65,87.82Z"/>
      <path class="cls-1" d="m548.58,854.07c-60.08,53.19-109,115.53-145.98,187.25,1.22-1.4,2.56-2.71,3.65-4.2,43.54-59.06,88.68-116.75,142.19-167.33,5.45-5.15,11.08-10.11,16.84-14.9,2.04-1.69,4.72-2.61,7.71-2.97-8.91,11.59-17.83,23.19-26.74,34.78.38.46.77.91,1.15,1.37.98-.45,2.13-.71,2.9-1.39,11.81-10.5,23.69-20.91,35.29-31.64,8.11-7.5,16.6-13.84,28.21-14.33,10.69-.45,21.31-.55,31.28,4.25,10.02,4.82,20.06,9.59,30.75,14.7-29.94,28.73-56.74,58.94-83.75,88.96.46.6.92,1.2,1.39,1.8,1.44-.83,3.08-1.43,4.28-2.53,29.29-26.69,58.54-53.43,87.71-80.09,13.56,5.94,21.56,25.73,17.68,40.79-4.56,17.71-13.71,31.58-27.97,43.4-38.09,31.58-75.68,63.8-112.75,96.57-17.07,15.09-32.48,32.05-48.61,48.19-12.24,12.26-24.51,24.49-36.62,36.89-25.5,26.09-51.01,52.18-76.31,78.46-19.06,19.8-38.24,39.52-56.57,60-14.54,16.25-28.83,32.9-41.48,50.62-15.17,21.25-29.52,43.23-42.36,65.95-19.32,34.18-38.1,68.77-55.02,104.18-9.78,20.46-15.63,42.83-22.93,64.45-3.38,10.01-10.63,16.04-19.63,20.04-3.65,1.62-8.26,1.08-13.48,1.64,2.24-13.15,4.24-24.95,6.25-36.75-.64-.18-1.28-.36-1.91-.53-3.61,11.64-7.23,23.28-11.05,35.6-4.13-.71-8.3-1.42-13-2.23,1.4-9.69,2.52-19.04,4.14-28.3,5.85-33.56,11.34-67.2,18-100.6,3.96-19.87,9.86-39.35,14.89-59,.29-1.12.87-2.24.85-3.35-.02-.82-.8-1.62-1.24-2.43-.8.46-1.75.78-2.34,1.43-.52.57-.67,1.5-.95,2.28-13.75,39.26-27.62,78.51-35.83,119.39-4.28,21.32-7.2,42.91-10.74,64.38-.1.62-.26,1.23-.4,1.85-8.2-1.59-9.36-2.9-9.29-10.65.29-29.88,4.03-59.44,9.14-88.79,6.39-36.69,13.63-73.24,20.74-109.81,1.55-7.99,4.13-15.78,6.19-23.67.39-1.48.57-3.02-.15-4.71-27.18,72.1-45.16,146.1-46.53,224.8-1.89-1.93-3.31-3.13-4.43-4.57-6.37-8.2-8.65-17.69-9.32-27.9-1.95-29.67,2.19-58.88,7.8-87.75,4.97-25.57,11.8-50.83,18.9-75.92,9.06-32,19.27-63.68,28.88-95.53,3.54-11.74,8.42-22.85,13.24-34.1,6.62-15.48,15.77-29.18,24.39-43.23,12.27-19.98,25.51-39.4,39.16-58.47,21.9-30.6,44.22-60.93,66.94-90.93,6.47-8.54,14.67-15.86,22.58-23.19,8.57-7.95,17.49-15.44,22.58-26.35.65-1.4,2.19-2.46,3.47-3.49,9.77-7.85,18.58-16.51,26.32-26.5,13.45-17.38,28.06-33.71,45.35-47.61,9.43-7.58,17.25-17.14,26.25-25.3,13.55-12.3,27.65-24,41.22-36.27,10.62-9.61,22.79-9.72,36.03-8.2,14.83,1.7,29.14,4.69,43.06,11.51Zm-258.08,430.47c.35.29.7.57,1.05.86.67-.57,1.51-1.02,1.99-1.72,9.48-13.67,18.91-27.37,28.38-41.05,27.86-40.26,56.23-80.12,91.29-114.65,2.72-2.68,5.45-5.43,7.65-8.52,1.37-1.93,1.76-4.57,2.58-6.88-2.34.82-5.11,1.11-6.94,2.57-5.83,4.68-11.64,9.47-16.87,14.8-37.32,37.97-68.9,80.21-94.13,127.15-4.93,9.18-10,18.29-15.01,27.44Z"/>
      <path class="cls-1" d="m1411.33,665.17c29.08-34.2,58.24-68.49,86.96-102.26-35.71,26.37-69.07,56.28-95.24,92.71-4.74-4.58-9.23-8.92-13.87-13.41,9.01-15.1,18.32-30.69,27.62-46.28-.46-.37-.92-.73-1.39-1.1-13.51,11.71-25.17,25.15-35.67,40.24-3.46-2.88-6.89-5.48-9.95-8.47-.76-.74-.92-3.12-.31-4.09,12.63-20.15,25.42-40.21,38.15-60.3.47-.74.65-1.66.31-2.96-20.54,15.91-35.8,36.17-48.3,58.94-11.97-8.99-23.45-17.76-35.09-26.31-18.65-13.71-37.73-26.86-56.03-41.03-20.7-16.02-40.65-33.07-56.86-53.8-4.48-5.73-7.21-13.04-9.77-19.98-1.06-2.87-.12-6.85.84-10.04,5.41-17.99,12.75-35.57,16.29-53.9,5.02-25.9,6.08-52.38-1.27-78.27-2.01-7.08-6.17-13.56-9.42-20.28-.2-.42-1.07-.51-1.79-.83-3.18,7.85-1.94,15.7-1.58,23.48.48,10.3,1.92,20.64,1.36,30.88-1.2,21.92-7.63,42.66-18.44,61.66-4.27,7.51-10.79,14.02-17.27,19.91-4.8,4.36-10.61.76-16.33-.98,3.23-11.18,6.34-21.96,9.45-32.74-.45-.16-.9-.32-1.35-.48-3.92,10.34-7.84,20.67-12.27,32.36-7.19-4.26-14.43-8.42-21.47-12.91-.75-.48-.74-3.03-.28-4.35,9.26-26.86,14.09-54.75,19.24-82.56.14-.78.02-1.6.02-3.77-9.64,28.22-18.84,55.16-28.26,82.75-11.34-7.57-20.18-14.13-20.97-28.72-.94-17.52-2.41-34.92.47-52.29,1.11-6.67,2.55-13.64,5.64-19.54,7.72-14.72,16.08-29.14,24.93-43.22,5.66-8.99,15.13-12.81,25.39-14.15,15.95-2.09,31.67-2.16,47.24,3.47,20.01,7.23,40.71,12.65,60.44,20.53,16.78,6.7,32.61,15.77,48.85,23.82,1.02.51,1.93,1.23,3.42,2.2-23.26,23.79-41.11,50.42-47.28,83.63,15.69-28.37,37.92-51.5,59.08-75.85,3.09,2.38,5.57,4.29,8.49,6.55-12.79,13.6-22.6,28.92-31.26,43.36,12.5-11.61,25.87-24.01,39.41-36.59,7.76,7.8,15.37,15.47,23.01,23.1,20.04,20,39.1,41.15,60.43,59.67,24.36,21.15,41.2,47.69,58.65,73.91,20.77,31.23,26.39,66.72,26.97,103.41.15,9.65,1.42,19.31,1.01,28.92-.66,15.75-1.51,31.53-8.05,46.39-3.41,7.75-9.57,12.51-16.46,16.05-8.61,4.42-18,7.23-27.91,6.02-3.54-.43-7.47-1.34-10.28-3.35-12.97-9.26-25.61-18.99-39.25-29.2Z"/>
      <path class="cls-1" d="m300.96,1408.29c36.38-47.44,72.76-94.88,107.72-140.47-48.77,44.29-91.14,97.32-131,152.66-5.91-8.19-6.18-22.7-.82-31.53,16.75-27.55,36.84-52.61,56.96-77.73,35.3-44.06,75.73-83.35,114.4-124.26,23.11-24.45,48.49-46.8,70.92-71.82,39.88-44.5,85.77-82.34,130.19-121.86,10.46-9.3,20.69-18.88,31.44-27.83,11.62-9.67,23.98-18.45,35.58-28.15,10.05-8.41,19.5-17.55,29.17-26.41,7.35-6.74,14.36-13.88,22.01-20.27,8.05-6.71,16.41-13.13,25.11-18.97,11.98-8.04,25.93-7.8,40.56-8.77-6.25,7.47-11.77,14.08-17.3,20.68.41.4.82.8,1.24,1.2,1.24-1.11,2.4-2.32,3.73-3.32,6.24-4.71,12.75-9.1,18.74-14.11,6.13-5.13,12.39-3.97,19.14-1.95-11.25,10.88-22.29,21.55-33.33,32.23.35.49.69.97,1.04,1.46.98-.47,2.07-.79,2.92-1.42,12.33-9.08,24.58-18.27,37.01-27.21,1.25-.9,4.15-1.15,5.26-.33,5.31,3.92,10.54,8.03,15.25,12.64,2.73,2.67,2.39,5.84-1.4,8.25-47.61,30.38-89.96,67-128.4,108.25-.64.68-1.09,1.53-1.74,2.47,43.46-33.28,86.69-66.39,131.03-100.34,0,3.11.23,4.38-.03,5.54-3.93,17.56-10.01,34.21-21.48,48.41-1.64,2.03-3.73,3.82-5.92,5.27-52.48,34.74-104.21,70.73-157.77,103.73-48.54,29.92-94.78,63.08-141.05,96.11-29.02,20.71-54.47,46.42-81.61,69.78-20.84,17.94-37.36,39.81-55.48,60.24-21.33,24.05-42.32,48.48-64.88,71.34-14.68,14.86-31.9,27.22-48.01,40.67-2.73,2.28-5.58,4.43-8.38,6.64-.27-.27-.54-.55-.81-.82Z"/>
      <path class="cls-1" d="m67.6,395.01c-1.87,14.67-3.74,29.33-5.78,45.35-5.36-2.58-11.11-3.95-14.83-7.46-5.57-5.25-11.06-11.09-12.66-19.28-1.42-7.3-3.71-14.46-4.63-21.81-1.59-12.76,2.07-24.61,7.46-36.13,6.82-14.58,13.71-29.17,19.57-44.15,3.85-9.84,5.88-20.4,8.81-30.61,1.8-6.25,5.12-11.18,10.89-14.84,15.87-10.08,31.43-20.64,47.13-30.99,1.33-.88,2.77-1.57,5.1-2.88-6.26,18.75-11.9,36.58-14.28,55.17.43.17.87.34,1.3.52.62-.82,1.57-1.56,1.8-2.49,4.76-19.28,14.84-36.22,23.12-53.99,5.11-10.96,14.3-13.79,25.01-17.59-12.45,27.45-17.35,55.95-22.68,85.75,1.51-1.35,2.15-1.65,2.32-2.13,6.17-16.32,12.37-32.63,18.42-48.99,4.15-11.22,8.21-22.48,12.06-33.81.94-2.76,2.03-3.98,5.12-4.01,15.1-.14,16.65,1.15,19.05,16.27,2.25,14.2,1.08,28.21-1.9,42.17-6.02,28.16-12.48,56.23-17.76,84.53-3.16,16.98-4.62,34.29-6.45,51.49-.83,7.83-4.15,13.3-11.16,17.04-20.77,11.07-42.88,17.04-66.33,18.23-6.48.33-12.97.53-19.45.94-4.01.25-5.79-1.6-5.91-5.46-.36-11.98-.75-23.95-1.14-35.93-.05-1.61-.16-3.22-.24-4.83-.66-.03-1.32-.06-1.97-.09Z"/>
      <path class="cls-1" d="m1857.82,290.84c.8.19,1.15.2,1.43.35q16.81,9.2,20.7,28.19c2.17,10.74,4.11,21.53,6.7,32.28-.84-14.43-1.69-28.86-2.53-43.3.36-.25.73-.51,1.09-.76,4.11,5.69,9.13,10.94,12.1,17.17,4.33,9.1,7.23,18.88,10.67,28.4,6.6,18.25,9.99,37.15,11.78,56.44,1.87,20.13-5.94,36.83-16.51,53.16-9.83,15.18-22.34,20.57-39.97,15.88-10.55-2.8-21.54-3.92-32.97-5.9,2.95-34.64-6.62-66.91-15.85-99.25-.42.07-.84.13-1.26.2,2,31.94,4,63.88,6.03,96.3-11.96-.85-18.9-7.45-23.19-15.65-4.07-7.78-7.01-16.73-7.97-25.44-2.59-23.49-3.21-47.19-5.95-70.66-1.23-10.56-5.47-20.81-8.66-31.1-2.2-7.1-5.12-13.98-7.4-21.07-3.5-10.93-6.64-21.97-10.1-32.92-1.86-5.87-.72-9.06,4.95-11.39,15.15-6.24,30-4.05,44.58,2,1.51.63,2.69,2.41,3.68,3.89,8.35,12.52,15.49,25.64,19.57,40.24.2.7.75,1.3,2.26,1.59-2.83-12.64-5.67-25.29-8.75-39.03,7.29,3.5,13.74,6.45,20,9.75,1.17.62,1.93,2.6,2.27,4.09,4.21,18.31,8.29,36.64,12.45,54.96.3,1.3.99,2.51,1.49,3.77.64-.1,1.28-.21,1.93-.31-.85-17.21-1.7-34.42-2.56-51.88Z"/>
      <path class="cls-1" d="m367.72,462.05c-17.63-6.58-34.94-12.09-51.42-19.45-15.88-7.09-21.99-22.69-17.94-39.55,8.45-35.16,22.83-67.75,42.93-97.7,7.49-11.16,16.17-21.56,24.83-31.86,2.49-2.96,6.58-5.36,10.36-6.29,8.33-2.04,16.92-2.99,25.78-3.8-9.75,13.6-16.42,28.31-21.57,43.8-5.06,15.19-8.81,30.65-11.16,46.43.49.14.97.28,1.46.42.64-2.26,1.16-4.56,1.95-6.76,10.17-28.41,24.45-54.62,42.13-79.04,4.28-5.91,8.1-.71,12.36.04-4.38,9.87-8.63,19.43-12.87,28.99.55.34,1.09.67,1.64,1.01,6.31-8.55,12.62-17.11,19.08-25.86,9.44,5.14,15.67,11.87,17.28,22.33,1.41,9.16,1.25,17.71-2.73,26.69-4.33,9.78-6.33,20.59-9.36,30.94-3.7,12.6-7.78,25.11-11.05,37.82-3.85,14.99-6.2,30.4-10.71,45.17-3.52,11.54-8.82,23.22-21.65,27.39-5.71,1.86-12.35.88-20.07,1.26.93-12.92,1.77-24.59,2.61-36.26-.54-.15-1.09-.29-1.63-.44-1.72,5.44-3.53,10.86-5.15,16.34-1.65,5.56-3.12,11.18-5.1,18.37Z"/>
      <path class="cls-1" d="m306.89,233.99c-6.62,17.28-9.95,34.67-10.99,52.51,5.91-16.2,11.82-32.4,18.27-50.09,8.58,5.58,16.43,10.19,23.7,15.57,5.43,4.01,6.61,10.02,5.17,16.62-2.34,10.71-7.6,19.8-13.22,29.2-12.86,21.53-24.24,43.96-35.86,66.2-3.86,7.39-7.2,14.88-13.61,20.65-2.89,2.6-4.68,6.42-6.95,9.7-2.06,2.97-4.1,5.96-6.83,8.74-1.2-26.29.92-52.16,7.43-77.65-.47-.16-.95-.32-1.42-.49-.6,1.11-1.4,2.16-1.78,3.35-8.24,25.79-14.36,51.98-14.27,79.27.03,7.41-6.61,6.03-11.4,9.58v-50.48c-.74.94-1.47,1.43-1.56,2.03-2.41,15.42-4.91,30.83-6.97,46.3-.43,3.22-1.35,4.47-4.44,4.37-2.61-.08-5.23-.02-8.56-.02v-57.82c-5.82,18.3-9.59,37.09-11.04,56.77-6.92-1.46-11.73-3.94-14.44-10.63-6.11-15.11-5.35-30.36-1.99-45.68,6.71-30.57,13.69-61.08,20.7-91.58,2.83-12.3,7.14-23.95,16.64-32.93,15.5-14.66,33.45-18.31,53.49-11.6,6.59,2.21,12.91,5.23,19.9,8.11Z"/>
      <path class="cls-1" d="m1714.67,290.61c-1.39-4.63-2.77-9.25-4.37-14.58,1.66.18,2.88.21,4.04.47,18.64,4.18,30.44,16.56,36.71,33.59,6.42,17.45,11.6,35.43,16.06,53.49,5.72,23.1,3.48,46.76,1.63,70.09-1.35,17.06-9.35,24.59-27.26,26.88,2.17-29.4-7.23-56.85-13.95-84.76-.13-.54-.83-.95-2.2-2.45-.11,2.51-.37,3.94-.2,5.31,2.42,19.81,4.99,39.6,7.32,59.42.79,6.77.8,13.63,1.61,20.39.42,3.47-.46,4.88-3.97,5.09-2.61.16-5.19.91-8.28,1.49.14-23.06-1.4-45.47-7.76-67.41-1.17,22.25-2.34,44.5-3.5,66.73-10.22-.24-10.67-.23-12.89-8.82-6.65-25.65-16.61-50.12-29.63-72.94-12.34-21.62-27.38-41.7-41.24-62.45-.18-.27-.43-.51-.66-.75-10.56-10.71-8.66-16.88,3.51-26.42,9.27-7.27,20.29-11.29,31.68-14.18,12.11-3.08,24.16-6.11,36.9-4.27,3.36.48,5.44,1.44,6.94,4.46,1.69,3.42,3.76,6.66,5.79,9.9.6.95,1.62,1.64,2.45,2.45.43-.24.87-.48,1.3-.72Z"/>
      <path class="cls-1" d="m1588.4,316.45c15.59,5.69,27.63,13.53,37.33,26.12,12.97,16.83,22.51,35.28,30.95,54.53,4.87,11.11,10.15,22.04,15.03,33.14,1.32,3.01,2.13,6.32,2.74,9.57,3.07,16.38,1.05,22.94-13.36,30.74-9.29,5.03-20.17,7.14-30.7,10.68-4.47-34.18-15.76-65.09-28.14-95.66-.53.13-1.05.26-1.58.39.09,1.04-.02,2.15.29,3.12,6.86,21.69,10.06,44.07,12.6,66.58.93,8.26,2.33,16.46,3.28,24.72.14,1.23-.71,3.44-1.63,3.79-4.14,1.54-8.47,2.57-13.32,3.94,2.97-18.09-3.57-33.89-7.28-50.21-.83.09-1.66.18-2.48.27.93,16.98,1.87,33.96,2.83,51.51-1.62.35-3.5.75-5.1,1.09-2.25-16.04-4.47-31.83-6.69-47.61-.55.05-1.1.09-1.65.14v48.27c-7.58,1.5-13.42-1.23-19.05-4.5-.89-.52-1.45-2.19-1.57-3.38-3.43-34.54-12.37-67.71-25.15-99.87-6.27-15.78-13.06-31.35-19.9-46.89-1.42-3.22-.86-5.08,1.49-7.35,6.21-5.99,13.92-8.11,22.1-9.42,10.83-1.75,21.64-3.59,32.4-5.69,3.13-.61,5.19.2,6.83,2.65,3.79,5.66,7.46,11.39,11.35,16.97.9,1.3,2.49,2.12,3.76,3.15.05-1.64.54-3.41.08-4.89-1.52-5-3.37-9.91-5.46-15.91Z"/>
      <path class="cls-1" d="m493.45,326.94c7.4-10.13,14.81-20.26,22.34-30.58,2.37,1.21,4.26,2.18,5.65,2.89-5.02,12.99-9.93,25.68-14.83,38.37.49.2.98.4,1.48.61,7.04-11.55,14.07-23.09,21.39-35.1,4.45,2.2,8.68,4.29,13.83,6.84-19.58,19.98-29.52,44.41-36.32,70.43,10.93-24.19,25.53-46.02,41.95-67.37,3.62,2.76,7.14,5,10.12,7.82,6.49,6.14,7.48,12.36,3.22,20.24-5.46,10.09-11.53,19.61-20.03,27.73-7.16,6.84-12.7,15.37-19.13,23-11.57,13.75-23.38,27.31-34.86,41.13-3.71,4.46-7.48,9.14-9.87,14.34-2.75,5.99-6.96,8.45-14.2,9,3.1-9.26,6.07-18.13,9.04-27-.33-.15-.67-.29-1-.44-1.96,3.7-3.96,7.39-5.88,11.11-2.6,5.03-4.88,10.24-7.82,15.06-1.22,2-3.56,4.09-5.74,4.56-4.82,1.05-9.85,1.29-14.81,1.51-2.8.12-4.84-1.41-4.77-4.54.1-4.28-.24-8.7.7-12.8,5.33-23.31,10.75-46.6,16.61-69.78,3.3-13.04,7.21-25.94,11.39-38.73,4.37-13.39,12.58-24.55,22.3-34.54,6.21-6.38,14.09-8.84,23.52-8.64-5.31,11.85-10.36,23.11-15.4,34.37.37.17.75.35,1.12.52Z"/>
      <path class="cls-1" d="m1440.11,343.57c.15-.09.42-.34.72-.4,13.63-2.81,9.15-4.51,16.99,6.94,2.36,3.45,4.72,6.9,7.09,10.35l2.07-1.19c-3.26-6.39-6.52-12.79-9.74-19.1,17.52-5.1,39.19-4.22,49.78,15.64,12.89,24.18,22.94,49.54,28.89,76.28,2.99,13.41,1.53,27.19-1.89,40.52-.6,2.36-3.19,4.21-4.87,6.3-.53-.24-1.06-.48-1.59-.72-4.3-12.15-8.6-24.3-12.9-36.45-.73.19-1.46.38-2.19.57,2.27,12.82,4.54,25.63,6.79,38.35-5.83,2.73-15.02-.18-18.23-4.93-4.27-6.32-8.82-12.48-13.61-18.41-8.36-10.36-17.68-20.01-25.36-30.83-15.33-21.62-34.75-38.94-55.22-55.31-7.03-5.62-6.51-14.19,1.39-18.69,3.44-1.96,7.26-3.34,11.05-4.55,1.26-.4,3.3.07,4.38.91,12.36,9.69,22.01,21.68,29.66,35.34.86,1.54,2.03,2.91,3.06,4.36.66-.35,1.32-.69,1.98-1.04-6.04-14.53-12.07-29.05-18.26-43.93Z"/>
      <path d="m1129.95,571.94c1.7.95,3.55,1.71,5.06,2.89,115.6,90,235.67,174.14,349.03,267.07.29.24.27.86.6,2.03-1.45-.61-2.47-.86-3.3-1.41-101.48-68.17-200.38-139.92-297.44-214.22-29.79-22.81-37.55-31-53.95-56.36Z"/>
      <path d="m1622.86,1073.01c92.11,80.29,158.36,178.33,201.32,292.34-.53.41-1.05.83-1.58,1.24-2.42-2.89-5.31-5.52-7.19-8.73-9.83-16.78-20.12-33.34-28.92-50.66-27.35-53.82-57.6-105.83-94.01-154.08-20.38-27.02-42.33-52.7-67.14-75.81-1.21-1.12-2.79-1.85-4.19-2.76l1.72-1.54Z"/>
      <path d="m1089.75,581.58c4.58,3.15,9.51,5.9,13.68,9.51,18.47,16,36.67,32.3,55.06,48.39,13.74,12.02,27.64,23.87,41.45,35.82.42.37.64.96.48,1.95-44.26-23.16-81.9-54.08-111.71-94.27.35-.46.7-.93,1.05-1.39Z"/>
      <path d="m1120.03,659.24c-16.19-13.28-32.86-26.01-48.41-40-12.69-11.42-24.31-24.09-35.79-36.77-3.88-4.29-6.34-10.11-8.47-15.61-.81-2.1,1.12-5.26,1.81-7.94,2.37,1.11,5.53,1.59,7,3.42,8.4,10.53,15.68,22.03,24.67,32,18.27,20.25,37.37,39.74,56.18,59.5,1.35,1.42,3.09,2.47,4.64,3.69-.55.57-1.09,1.13-1.64,1.7Z"/>
      <path d="m1154.45,884.97c1.1.55,2.25,1.02,3.28,1.67,71.35,45.06,136.71,97.77,198.92,154.64,40.82,37.32,82.22,73.99,120.26,114.23,2.24,2.37,4.41,4.8,5.88,7.96-8.76-7.3-17.67-14.43-26.24-21.94-46.49-40.7-92.8-81.62-139.37-122.24-48.32-42.14-96.33-84.67-148.14-122.62-5.01-3.67-10.13-7.17-15.2-10.75.2-.32.4-.63.59-.95Z"/>
      <path d="m1273.51,1013.73c-3.9-2.67-7.97-5.11-11.66-8.04-26.58-21.15-53.19-42.25-79.57-63.65-49.71-40.32-101.61-77.57-155.46-112.13-6.1-3.91-12.29-7.68-19.03-11.89,10.34.11,107.83,59.89,141.57,86.3,53.18,41.63,118.13,98.38,124.15,109.42Z"/>
      <path d="m668.53,588.87c4.49,6.81,9.85,13.21,13.29,20.52,6.52,13.81,11.63,28.28,17.9,42.22,5.99,13.33,12.71,26.33,19.08,39.49.39.81.54,1.74,1.19,3.91-1.92-1.27-3-1.63-3.54-2.38-14.73-20.4-28.77-41.24-39.82-63.93-5.65-11.6-9.71-23.71-9.93-36.8-.01-.75.18-1.51.27-2.27.52-.25,1.04-.5,1.56-.76Z"/>
      <path d="m766.29,689.82c-33.74-21.59-58.15-51.28-75.65-87.82,31.64,24.25,51.03,58.31,75.65,87.82Z"/>
      <path d="m290.5,1284.54c5.01-9.14,10.07-18.26,15.01-27.44,25.23-46.94,56.81-89.19,94.13-127.15,5.23-5.32,11.04-10.12,16.87-14.8,1.83-1.46,4.6-1.75,6.94-2.57-.83,2.32-1.21,4.95-2.58,6.88-2.2,3.09-4.93,5.84-7.65,8.52-35.06,34.53-63.42,74.39-91.29,114.65-9.47,13.68-18.9,27.38-28.38,41.05-.48.7-1.32,1.15-1.99,1.72-.35-.29-.7-.57-1.05-.86Z"/>
    </g>
  </g>
</svg>