<?xml version="1.0" encoding="UTF-8"?>
<svg id="MiniBoss_off" data-name="MiniBoss off" xmlns="http://www.w3.org/2000/svg" viewBox="0 0 1019.09 1104.65">
  <defs>
    <style>
      .cls-1 {
        fill: #fff;
        stroke: #000;
        stroke-miterlimit: 10;
        stroke-width: 15px;
      }
    </style>
  </defs>
  <g>
    <path class="cls-1" d="M194.68,598.96c45.61,249.74,249.15,276.95,249.15,276.95,0,0,254.49,65.23,393.5-105.86s39.09-413.23,39.09-413.23c58.46-134.02,37.07-250.55,37.07-250.55-158.26-3.9-215.29,70.43-215.29,70.43-104.08-23.29-292.28.48-292.28.48-69.86-76.52-219.09-70.81-219.09-70.81-20.44,134.02,40.87,253.78,40.87,253.78-51.45,111.92-33.03,238.81-33.03,238.81h.01ZM380.02,415.39"/>
    <path class="cls-1" d="M163.36,672.39l-37.07,224.2,163.88-34.95s-95.44-77.33-126.81-189.25Z"/>
    <path class="cls-1" d="M381.47,896.59c78.53,121.54,157.01,160.75,157.01,160.75,71.11-21.39,169.11-159.92,169.11-159.92-124.99,63.09-326.12-.83-326.12-.83h0Z"/>
    <path class="cls-1" d="M929.56,684.42c-39.43,108.83-137.36,174.42-137.36,174.42l177.74,45.15-40.38-219.56h0Z"/>
  </g>
  <polygon points="581.47 171.29 591.09 288.46 591.09 168.93 581.47 171.29"/>
  <polygon points="660.52 173.64 660.52 236.23 666.64 173.64 660.52 173.64"/>
  <polygon points="743.35 392.93 743.35 326.58 748.52 389.17 743.35 392.93"/>
  <polygon points="701.11 520.76 703.94 609.87 707.47 522.9 701.11 520.76"/>
  <polygon points="730.05 524.46 731.47 565.32 734.99 524.46 730.05 524.46"/>
  <polygon points="797.82 635.99 797.82 567.87 802.41 631.05 797.82 635.99"/>
  <polygon points="600.17 703.76 604.05 629.99 606.52 703.76 600.17 703.76"/>
  <polygon points="554.99 572.46 554.99 544.89 557.11 576.76 554.99 572.46"/>
  <polygon points="466.76 701.99 470.29 627.52 470.29 701.99 466.76 701.99"/>
  <polygon points="500.29 703.76 503.11 674.46 503.11 703.76 500.29 703.76"/>
  <polygon points="318.88 650.81 326.64 541.4 314.29 646.58 318.88 650.81"/>
  <polygon points="369.7 528.34 368.29 582.93 374.29 528.34 369.7 528.34"/>
  <polygon points="354.96 399.06 360.52 327.17 360.52 400.58 354.96 399.06"/>
  <polygon points="315.7 128.81 305.11 249.52 321.7 131.64 315.7 128.81"/>
  <polygon points="394.41 174.34 389.11 261.17 397.94 176.11 394.41 174.34"/>
  <path d="M893.35,294.46v-106.82l3.76,96-3.76,10.82Z"/>
  <polygon points="876.88 707.54 881.07 536.34 881.07 689.11 876.88 707.54"/>
  <polygon points="354.9 842.61 360.17 817.76 360.17 845.56 354.9 842.61"/>
  <polygon points="556.05 852.11 557.11 869.99 559.23 852.11 556.05 852.11"/>
  <polygon points="660.88 869.99 661.58 845.56 665.11 872.34 661.58 872.34 660.88 869.99"/>
  <polygon points="839.82 115.52 839.82 194.58 843.35 115.52 839.82 115.52"/>
  <polygon points="234.7 810.05 183.88 849.23 236.82 817.76 234.7 810.05"/>
  <polygon points="136.26 836.29 183.88 801.93 140.11 825.93 136.26 836.29"/>
  <polygon points="195.52 757.46 167.64 768.05 191.64 754.64 195.52 757.46"/>
  <path d="M149.29,885.93c4.59-2.12,73.41-38.12,73.41-38.12l-57.18,36-16.24,2.12Z"/>
  <polygon points="476.11 922.64 478.23 972.76 481.41 922.64 476.11 922.64"/>
  <polygon points="579.88 1029.58 582.35 968.87 584.47 1027.81 579.88 1029.58"/>
  <polygon points="627.52 986.17 628.94 945.23 632.11 986.17 627.52 986.17"/>
  <polygon points="648.7 922.64 648.7 941.7 652.58 922.64 648.7 922.64"/>
  <polygon points="512.82 1036.64 517.76 968.87 515.29 1039.11 512.82 1036.64"/>
  <polygon points="829.17 834.4 902.94 865.11 831.29 830.52 829.17 834.4"/>
  <polygon points="959.05 865.11 911.76 840.76 959.05 858.95 959.05 865.11"/>
  <polygon points="951.64 816.05 923.05 796.99 948.47 808.99 951.64 816.05"/>
  <polygon points="891.29 768.76 907.52 775.11 893.41 763.11 891.29 768.76"/>
  <path d="M301.06,555.1c11.05-17.52,23.69-33.96,36.63-50.08,35.86-43.78,74.79-85.19,118.31-121.47,4.01-3.29,8.07-6.53,12.3-9.62-2.74,4.46-5.65,8.76-8.61,13.02-32.69,46.28-70.86,88.39-111.63,127.64-15.03,14.18-30.41,28.1-46.99,40.51h0Z"/>
  <path d="M450.64,565.32c-28.38-26.36-52.82-56.66-75.99-87.55-20.03-27.18-38.93-55.35-54.94-85.15-2.29-4.3-4.52-8.64-6.58-13.11,3.67,3.27,7.17,6.68,10.61,10.12,23.82,24.02,45.24,50.33,65.37,77.43,22.77,31.19,44.61,63.42,61.52,98.26h0Z"/>
  <path d="M646.44,555.1c11.05-17.52,23.69-33.96,36.63-50.08,35.86-43.78,74.79-85.19,118.31-121.47,4.01-3.29,8.07-6.53,12.3-9.62-2.74,4.46-5.65,8.76-8.61,13.02-32.69,46.28-70.86,88.39-111.63,127.64-15.03,14.18-30.41,28.1-46.99,40.51h0Z"/>
  <path d="M796.02,565.32c-28.38-26.36-52.82-56.66-75.99-87.55-20.03-27.18-38.93-55.35-54.94-85.15-2.29-4.3-4.52-8.64-6.58-13.11,3.67,3.27,7.17,6.68,10.61,10.12,23.82,24.02,45.24,50.33,65.37,77.43,22.77,31.19,44.61,63.42,61.52,98.26h0Z"/>
  <path d="M814.29,697.11c-26.12-5.65-57.88-8.71-76.71-7.29-18.82,1.41-95.29,8.71-101.65,10.35-6.35,1.65-71.29,14.12-78.35-5.88l.24-51.76,31.76-38.59s4.47-7.29,1.65-12.94-12-4.47-12-4.47l-22.53.18h-40.94s-10.59,1.06-11.47,7.41c-.88,6.35,1.94,9.71,1.94,9.71l33.88,37.94.71,52.06s-8.47,12.35-23.65,12.35-76.06-9.71-81.53-9.71-99.94-13.47-127.71-5.24-44.24,12-53.18,23.76c-8.94,11.76-6.82,11.06-1.65,9.88,5.18-1.18,27.53-10.59,32.24-12.47,4.71-1.88,25.65-5.65,25.65-5.65,0,0,.47,24.94,27.06,66.59,0,0,7.76,10.12,12.24,3.06,4.47-7.06,3.76-12.94,4.94-16,1.18-3.06,19.53-55.29,19.53-55.29,0,0,51.53,5.41,63.29,7.29,11.76,1.88,93.65,18.82,111.29.24,0,0,14.12,8.24,26.82,6.82,0,0,19.29,15.53,26.59,31.29,7.29,15.76,10.12,38.12,13.88,49.88,3.76,11.76,19.29,55.76,56.94,50.82,37.65-4.94,46.59-28.94,46.59-28.94,0,0,10.59-10.12,16.24-48.94,0,0,3.06-7.06,9.18-3.53,0,0,2.12,8.94,6.59,8.94s25.88-19.76,34.82-72.94c0,0,25.41,3.76,36.94,11.06,11.53,7.29,26.82,10.12,26.59,7.29-.24-2.82-10.12-21.65-36.24-27.29ZM343.11,757.46s-18.35-28.24-20.47-52.35h42.35s-17.88,31.76-21.88,52.35ZM721.88,761.7c-.71,22.35-8.24,48.94-18.59,60.24-10.35,11.29-24.47,16-44.24,11.76-19.76-4.24-30.59-35.53-31.29-50.35-.71-14.82-15.29-42.82-15.29-42.82-1.06-29.41,50-21.88,50-21.88,14.71,27.76,15.18,89.18,15.18,89.18,15.53-32.94,4.24-71.76,2.59-78.82-1.65-7.06,1.18-8.94,1.18-8.94,9.18-12.24,34.12-4.24,34.12-4.24,0,0,7.06,23.53,6.35,45.88ZM755.99,757.99c0-12-22.41-53.12-22.41-53.12,8.12-3.53,42.35.88,42.35.88-1.76,19.94-19.94,52.24-19.94,52.24Z"/>
</svg>