<?xml version="1.0" encoding="UTF-8"?>
<svg id="Layer_1" data-name="Layer 1" xmlns="http://www.w3.org/2000/svg" viewBox="0 0 662.78 358.41">
  <defs>
    <style>
      .cls-1 {
        fill: #533b22;
      }

      .cls-2 {
        fill: #5b4226;
      }

      .cls-3 {
        fill: #836845;
      }

      .cls-4 {
        fill: #533a21;
      }

      .cls-5 {
        fill: #5c4327;
      }

      .cls-6 {
        fill: #ffd586;
      }

      .cls-7 {
        fill: #ffd888;
      }

      .cls-8 {
        fill: #5b4327;
      }
    </style>
  </defs>
  <path d="M660.66,176.85c-10.71-4.82-49.29-29.88-52-35.18-2.71-5.29.12-57.88.59-66.82.47-8.94-2.12-65.76-2.12-69.06s-1.66-3.67-1.66-3.67c0,0-23.65,0-31.76.18-8.12.18-92.65,1.76-98.12,1.59-5.47-.18-26.29-1.59-30.18-1.59s-36.71-.88-44.47-.88-76.41-1.41-95.65-1.41-82.76.53-82.76.53c0,0-69.53,0-84.53,1.24s-77.47.71-81.35,1.41-1.94,13.41-3.18,25.59c-1.24,12.18-.88,64.06-.88,64.06,0,0,2.68,40.35,2.32,47.68s-8.38,9.79-13.24,12.53c-4.85,2.74-19.5,11.47-24.26,14.03-4.76,2.56-17.41,12.09-17.41,12.09,0,0,39.9,25.76,47.66,30.52s6.18,10.41,6.71,19.06c.53,8.65,1.24,126.71,1.24,126.71,0,0,32.47,1.76,62.29.53,29.82-1.24,55.24-.53,73.24,1.24,18,1.76,42.35,1.24,56.82.71s134.47-3.35,134.47-3.35c0,0,85.06-.88,96.88-1.76,11.82-.88,48.18,2.12,61.94,1.59,13.76-.53,67.59-1.24,67.59-1.24l-.29-67.94s-3.18-55.18-.59-65.41c2.59-10.24,26.94-22.47,33.18-27.18,6.24-4.71,21.65-14.71,21.65-14.71l-2.12-1.06ZM575.87,325.32c-5.88,1.41-36.24,0-59.29,0s-59.53,1.5-77.18,2.4-54.59-1.69-90.82-1.22-133.88-.47-148.24-1.18c-14.35-.71-70.65,2.47-105.32,2.29,0,0-9.71.79-10.5-2.03-.79-2.82-.71-16.59-.71-16.59,0,0,0-66.79,0-78.26,0-11.47-2.47-87.71-2.47-97.94s.88-100.59.88-100.59c0,0,0-2.47,4.06-2.47s121.24.88,136.94,1.06,107.93-.71,107.93-.71l67.84-.53,88.76-.71s80.12-.71,82.76.53c2.65,1.24,7.59,1.59,8.29,10.41s.12,91.41.12,91.41c0,0-1.42,70.59.23,82.82,1.65,12.24-1.89,69.88,0,77.65,1.89,7.76,2.59,32.24-3.29,33.65Z"/>
  <path class="cls-7" d="M93.62,330.1s-8.29-.4-8.91,0-6.35,6-6.44,6.53-.93,1.81,1.99,2.51,23.81-.75,30.4-.63,72-1,72-1h104.41s107.53,1.3,125.65,1.83,57.76-1.71,66.35-1.94,65.53-.47,68.47-.12,29.29,1.06,33.53.47,5.41-2.35,4.82-4-5.06-4.47-7.53-4.35-35.88.94-42.59.47-19.06-.82-26.35.24-34.71-.24-54.47.59-30.94,1.65-39.18,1.41-27.65-2.12-35.88-1.88-114.94-.94-126.35.12-68-1.18-71.65-.24-85.35,1.76-88.26,0Z"/>
  <path class="cls-4" d="M76.65,341.57s-2.53-.53-5.82,2-9.12,7.88-5.76,9.24,40.24.12,42.24.29,74.12-2.06,82.82-.88,77.88-.24,77.88-.24c0,0,116.71-1.06,123.88-.47s71.53-.12,87.88-2.47,35.41,2.71,50.35,2.59,66.24.47,68-2.24-3.06-5.65-3.06-5.65c0,0-.94-3.41-10.47-3.18s-76.35,1.41-87.53.47-45.29.71-53.53.94-30-.59-51.06.71-98.94-1.18-112-1.06-106.94-.94-114.59-.82-80.24.94-89.24.76Z"/>
  <path class="cls-2" d="M605.35,339.74s.57,5.21-1.81,4.37-8.96-2.34-9.49-10.24,2.65-41.6,2.53-49.25-.09-41.71-.68-49-2.47-41.29.94-40.82,8,20.35,8,22.24-1.18,43.53-.35,55.88.85,66.82.85,66.82Z"/>
  <path class="cls-3" d="M591.68,327.9s1.29,5.49-2.47,4.31-5.76-9.06-5.88-12.82-1.82-49.47-1.65-57.41.5-41.65-.01-49.94-1.25-15,0-23.47.19-72,.9-76.06-1.06-58.24,0-64.41-2.12-18.88,2.12-21.53,5.47.35,5.47,5.47,1.24,46.24,1.76,55.24.35,84,.35,84c0,0,.53,42.53.35,53.65s1.59,37.59,0,53.47-.94,49.51-.94,49.51Z"/>
  <path class="cls-2" d="M595.91,149.39v9.47s2.53.35,4.94-5.76,4.12-13.76,3.71-16.06-.58-31.18.06-43,.41-31.76,0-42.35-.06-35.82-.41-38.47-3.53-1.24-6.35,0-4.59,2.82-4.76,13.41,1.06,36.53,1.06,44.29,1.41,30,1.41,44.47.35,34,.35,34Z"/>
  <path class="cls-4" d="M609.53,179.71s-8.03-.61-9.97,3.27.53,9.26.79,9.88,5.74,17.56,5.74,17.56c0,0,13.5-11.95,24.18-15.37s21.26-12.24,21.26-12.24c0,0,3.71-2.84.71-3.1s-42.71,0-42.71,0Z"/>
  <path class="cls-3" d="M596.91,173.18s2.29,3.44,17.47,3.97,35.74-.53,35.74-.53c0,0,3-.62,2.38-2.12s-33.71-19.32-36.79-21.44-5.91-3.71-9.26-1.76-8.82,11.47-9.53,21.88Z"/>
  <path class="cls-2" d="M569.85,18.15s12.53.35,13.06,2.71-8.06,6.65-8.06,6.65l-22.47-.41s-36.79-.97-41.29-.62-21.97.88-28.24.97-21.26-.18-21.26-.18c0,0-37.06,0-40.32-.62s-24.71-2.12-30.79-2.03-26.74,1.94-30.53,1.94-144-1.41-156.18-.88-78,2.29-85.59,1.94-32.38.53-36.35-1.59-8.12-5.21-4.32-6.26,28.94.62,47.65,0,75.09-1.32,79.41-1.41,120.03.41,132.15.65,102.18.76,110.76-.41,77.65-.82,88.47-.35,33.91-.09,33.91-.09Z"/>
  <path class="cls-6" d="M593.51,4.92s6.71.22,3.79,3-4.81,6.88-10.41,7.63-19.9-.49-20.96-.49-63.84-1.15-72.66-.53-22.41,2.03-44.12,1.15-63.09-1.15-72.88-1.06-72.62,1.5-80.82,1.32-110.12-1.94-116.47-1.76-46.85,3.18-53.91,3.18-52.76-.26-55.15-1.32-10.68-7.32-5.82-9.71c0,0,23.82-.44,40.85-.26s70.15-1.94,79.15-1.85,125.03-.09,135.97-.09,81.44.09,91.32.71,73.68,1.41,88.68,1.5,87.62-1.59,93.44-1.41Z"/>
  <path class="cls-3" d="M69.49,34.92c0-.24-2-10.12,1.65-10.59s7.76,8.24,7.82,15-.29,39.35,0,60.29.53,73.76.76,85.18.24,62.47,0,73.76,1.88,67.76-.47,71.29-6.47,6.12-6.82,3.76-.12-44.12-.94-53.41-1.53-52.59-1.53-58.24-.59-43.41-.12-48.12.24-54.71-.82-67.06.35-68.94.47-71.88Z"/>
  <path class="cls-8" d="M57.4,20.54s-1.41-7.94,2.29-7.85,6.71,7.68,6.53,11.21-.68,53.03-.68,58.32,2,48.35,1.88,55.06.59,27.41-.59,28.12-3.29-4.35-3.29-4.35c0,0-5.65-9.18-5.88-19.65s0-33.76-.59-39.41.71-43.06.59-50.71-.45-24.5-.26-30.74Z"/>
  <path class="cls-5" d="M66.49,194.92s-5.88,6.24-8.47,15.76,2.47,53.88,1.53,63.88-.71,60.59-.82,62.71.47,11.18.47,11.18c0,0,10-5.29,9.88-14.47s.12-38.71-.47-41.29-2-35.41-1.76-37.88,1.18-61.73-.35-59.88Z"/>
  <path class="cls-3" d="M9.25,176.33s1.59,1.5,6.53,1.94,44.65-.35,44.65-.35c0,0,4.68-.35,4.5-4.59s-5.91-23.38-12.71-21.97-42,23.21-42.97,24.97Z"/>
  <path class="cls-1" d="M13.04,180.92s-4.59-.62-3.79,1.59,12.18,7.24,12.18,7.24c0,0,29.03,17.47,30.79,17.56s5.47-3.79,6.26-4.85,5.74-7.15,6.09-12.62.88-7.06-2.38-7.59-49.15-1.32-49.15-1.32Z"/>
  <path d="M603.51,161.74c9.29,1.43,18.54,3.54,27.53,6.29-9.3-1.43-18.54-3.54-27.53-6.29h0Z"/>
  <path d="M644.35,174.12c-6.36-.22-12.63-1.11-18.79-2.69,6.36.21,12.63,1.12,18.79,2.69h0Z"/>
  <path d="M597.99,190.99c6.64-2.29,13.45-3.93,20.41-4.88-6.64,2.3-13.45,3.92-20.41,4.88h0Z"/>
  <path d="M625.56,192.29c7.73-3.93,15.82-7.27,24.07-9.94-7.73,3.93-15.82,7.27-24.07,9.94h0Z"/>
  <path d="M598.82,195.01c.67,16.82.67,33.76,0,50.58-.67-16.82-.67-33.76,0-50.58h0Z"/>
  <path d="M602.1,289.82c-.68-11.14-.68-22.39,0-33.53.68,11.14.68,22.39,0,33.53h0Z"/>
  <path d="M596.87,340.58c-.68-8.25-.69-16.51,0-24.76.69,8.25.68,16.51,0,24.76h0Z"/>
  <path d="M598.82,160.05c-.67-20.79-.67-41.71,0-62.5.67,20.79.67,41.72,0,62.5h0Z"/>
  <path d="M601.57,7.93c.68,14.71.68,29.53,0,44.24-.68-14.71-.68-29.53,0-44.24h0Z"/>
  <path d="M596.91,66.99c-.68-12.28-.68-24.66,0-36.94.68,12.28.68,24.66,0,36.94h0Z"/>
  <path d="M587.13,22.29c.67,17.68.67,35.49,0,53.18-.67-17.69-.67-35.49,0-53.18h0Z"/>
  <path d="M587.13,154.99c.67,20.82.67,41.78,0,62.6-.67-20.82-.67-41.78,0-62.6h0Z"/>
  <path d="M588.63,289.82c.41,14.22.46,30.47.49,44.73-13.72-.05-27.43-.1-41.14-.5,13.55-.39,27.1-.44,40.65-.49,0,0-.49.49-.49.49.03-14.09.09-30.19.49-44.24h0Z"/>
  <path d="M584.16,328.2c-.68-7.93-.69-15.87,0-23.79.69,7.93.68,15.87,0,23.79h0Z"/>
  <path d="M599.69,9.23c-17.13.67-34.39.67-51.53,0,17.14-.67,34.39-.67,51.53,0h0Z"/>
  <path d="M565.69,13.46c-17.13.67-34.39.67-51.53,0,17.14-.67,34.39-.67,51.53,0h0Z"/>
  <path d="M506.63,8.88c-20.54.67-41.22.67-61.76,0,20.55-.67,41.22-.67,61.76,0h0Z"/>
  <path d="M422.28,12.52c-16.15.67-32.43.67-48.59,0,16.16-.67,32.43-.67,48.59,0h0Z"/>
  <path d="M370.75,5.82c-24.1.67-48.36.67-72.47,0,24.11-.67,48.37-.67,72.47,0h0Z"/>
  <path d="M368.4,8.29c13.33-.68,26.78-.68,40.12,0-13.34.68-26.78.68-40.12,0h0Z"/>
  <path d="M61.51,11.11c10.02-.68,20.15-.68,30.18,0-10.03.68-20.15.68-30.18,0h0Z"/>
  <path d="M74.93,14.64c19.72-.67,39.57-.67,59.29,0-19.72.67-39.58.67-59.29,0h0Z"/>
  <path d="M74.93,24.31c13.2-.68,26.51-.68,39.71,0-13.2.68-26.51.68-39.71,0h0Z"/>
  <path d="M119.22,22.58c14.9-.68,29.92-.68,44.82,0-14.91.68-29.92.68-44.82,0h0Z"/>
  <path d="M256.87,24.17c13.55-.68,27.21-.68,40.76,0-13.55.68-27.21.68-40.76,0h0Z"/>
  <path d="M579.63,25.58c-10.02.68-20.15.68-30.18,0,10.03-.68,20.15-.68,30.18,0h0Z"/>
  <path d="M552.1,21.17c-14.78.68-29.68.68-44.47,0,14.79-.68,29.69-.68,44.47,0h0Z"/>
  <path d="M76.6,27.93c.68,9.89.68,19.88,0,29.76-.68-9.89-.68-19.88,0-29.76h0Z"/>
  <path d="M71.87,175.23c-.67-18.07-.67-36.28,0-54.35.67,18.08.67,36.28,0,54.35h0Z"/>
  <path d="M78.09,331.37c-.67-17.03-.67-34.18,0-51.21.67,17.03.67,34.18,0,51.21h0Z"/>
  <path d="M73.28,276.4c-.67-18.78-.67-37.69,0-56.47.67,18.78.67,37.69,0,56.47h0Z"/>
  <path d="M64.84,194.88c.68,11.61.68,23.33,0,34.94-.68-11.61-.68-23.33,0-34.94h0Z"/>
  <path d="M64.84,346.99c-.67-17.6-.67-35.33,0-52.94.67,17.61.67,35.34,0,52.94h0Z"/>
  <path d="M60.34,236.4c.68,12.12.68,24.35,0,36.47-.68-12.12-.68-24.35,0-36.47h0Z"/>
  <path d="M58.13,205.64c-8.15-3.23-16.1-7.11-23.65-11.57,8.15,3.23,16.1,7.11,23.65,11.57h0Z"/>
  <path d="M17.46,184.55c11.78,2.21,23.49,5.11,34.94,8.65-11.78-2.21-23.49-5.11-34.94-8.65h0Z"/>
  <path d="M65.9,171.23c-6.31,1.3-12.7,1.92-19.15,1.85,6.31-1.3,12.7-1.92,19.15-1.85h0Z"/>
  <path d="M50.9,160.9c-10.51,4.54-21.32,8.48-32.29,11.74,10.5-4.54,21.34-8.48,32.29-11.74h0Z"/>
  <path d="M64.84,165.46c-.68-13.66-.68-27.42,0-41.08.68,13.66.68,27.43,0,41.08h0Z"/>
  <path d="M59.63,70.9c.67,15.96.67,32.04,0,48-.67-15.96-.67-32.04,0-48h0Z"/>
  <path d="M64.84,15.67c.68,7.88.69,15.77,0,23.65-.69-7.88-.68-15.77,0-23.65h0Z"/>
  <path d="M60.69,26.26c.68,7.94.69,15.89,0,23.83-.69-7.94-.68-15.89,0-23.83h0Z"/>
  <path d="M76.46,335.67c14.2-.68,28.51-.68,42.71,0-14.2.68-28.51.68-42.71,0h0Z"/>
  <path d="M74.16,349.26c24.3-.67,48.75-.67,73.06,0-24.31.67-48.76.67-73.06,0h0Z"/>
  <path d="M112.28,344.67c17.84-.67,35.8-.67,53.65,0-17.84.67-35.81.67-53.65,0h0Z"/>
  <path d="M172.69,334.53c25.62-.67,52.7-.66,78.35,0-25.66.66-52.72.67-78.35,0h0Z"/>
  <path d="M401.87,348.14c-14.23.68-28.58.68-42.82,0,14.24-.68,28.59-.68,42.82,0h0Z"/>
  <path d="M251.04,344.67c25.62-.67,52.7-.66,78.35,0-25.66.66-52.72.67-78.35,0h0Z"/>
  <path d="M599.71,347c-10.93.68-21.97.68-32.9,0,10.93-.68,21.97-.68,32.9,0h0Z"/>
  <path d="M552.93,344.2c-20.03.67-40.2.67-60.24,0,20.04-.67,40.2-.67,60.24,0h0Z"/>
  <path d="M492.69,334.4c-14.78.68-29.68.68-44.47,0,14.79-.68,29.69-.68,44.47,0h0Z"/>
  <path d="M374.81,335.9c-19.03.4-39.86.66-58.82,0,19.56-.69,39.27-.93,58.82,0h0Z"/>
</svg>