<?xml version="1.0" encoding="UTF-8"?>
<svg id="Classes" xmlns="http://www.w3.org/2000/svg" viewBox="0 0 2011.02 2000.01">
  <defs>
    <style>
      .cls-1 {
        fill: #fff;
      }
    </style>
  </defs>
  <g id="Paladin">
    <path class="cls-1" d="m493.01,762.68l-7.43-98.1-11.82-229.37,9.62-48.14,23.17-13.34,114.06,14.94,218.85,10.72,50.94-.71-26.71-65.58,44.2-68.44,67.72-76.28h43.49l86.26,111.21s5.7,55.6,4.28,57.74-2.85,43.49-2.85,43.49l105.5-5.7,240.95-16.4,44.62,2.85,19.54,63.45-12.12,222.97-11.41,100.67,23.52,3.56,81.98-9.54,59.88,30,71.51,65.8,17.6,64.16-42.06,39.21-91.96,56.32-46.34,9.47-92.67-41.55,2.14,95.52-37.78,180.79-42.77,74.41s-117.62,108.36-119.05,110.5-151.84,94.85-151.84,94.85l-14.97,7.59s9.27,76.49,9.27,78.63-28.23,109.07-34.79,116.91-77.13,140.44-77.13,140.44l-79.13-114.06-62.73-126.18,11.09-101.84-100.91-58.55-152.63-122.12-68.36-79.63-27.09-99.8-25.66-191.05-48.48,20.65-46.53,14.48-132.4-79.33-51.33-40.06,84.12-101.8,58.92-41.35,97.19,12.12,29.94-3.56-1.43-10.97Z"/>
    <g>
      <polygon class="cls-1" points="294.12 596.15 255.41 626.09 237.09 659.59 289.84 659.59 348.3 656.03 370.4 648.23 378.95 533.41 367.3 477.36 259.01 503.47 91.67 582.6 138 591.16 294.12 596.15"/>
      <polygon class="cls-1" points="556.46 1422.36 470.91 1309.73 433.84 1252.7 425.29 1252.7 359.71 1292.62 287.71 1368.19 203.59 1467.99 324.78 1439.47 398.2 1425.93 289.13 1530.72 191.94 1664.74 131.59 1786.64 275.59 1698.96 422.44 1578.48 505.84 1513.54 500.14 1559.95 506.56 1584.9 583.55 1549.26 552.54 1660.46 619.19 1612.7 671.23 1539.99 644.14 1507.2 556.46 1422.36"/>
      <path class="cls-1" d="m1623.63,1443.75l-12.12-14.26,56.32,8.55,104.79,27.8-63.45-97.66-62.02-59.86-73.43-50.64-32.79,22.1-74.68,98.38-102.45,104.08-60.25,56.32,83.41,85.54s45.62,40.63,45.62,37.07-29.23-119.01-29.23-119.01l62.9,35.6h28.35l-8.55-65.07,158.97,122.1s187.49,141.86,187.49,144,11.41-41.35,11.41-41.35l-64.87-102.65-155.41-191.05Z"/>
      <path class="cls-1" d="m1795.42,536.27l-111.2-49.43-55.13-12.36s-13.78,44.2-14.73,45.62c-.95,1.43,0,126.93,0,126.93l59.88,8.99h90.77l-53.7-53.23-12.83-12.36h150.65l35.17-12.36-88.88-41.82Z"/>
    </g>
    <g>
      <path d="m1442.79,1284.33c39.92-114.06,53.23-279.68,53.23-279.68,51.8,17.11,77.94,52.75,77.94,52.75,21.86-16.63,221.47-145.9,221.47-145.9-19.96-29.47-177.62-180.18-177.62-180.18-58.46,30.83-109.43,34.04-109.43,34.04,12.83-95.52,25.66-411.33,25.66-411.33,0,0-44.2.95-114.53,15.21-70.34,14.26-299.64,17.94-299.64,17.94,2.14-17.82,21.03-56.32,21.03-56.32-14.97-26.73-145.67-220.28-145.67-220.28-17.71,17.47-146.25,221.35-146.25,221.35,12.59,19.25,21.39,55.6,21.39,55.6-111.92,10.69-338.61-20.67-355.72-26.38-17.11-5.7-59.88-7.84-59.88-7.84l26.61,416.08c-43.25-5.23-109.31-38.97-109.31-38.97l-180.12,177.27,224.32,149.47c40.4-42.77,77.23-52.75,77.23-52.75,0,0,26.85,185.82,45.39,255.68,18.53,69.86,64.16,108.36,166.1,191.05,101.94,82.69,163.25,108.59,163.25,108.59-5.23,35.64-22.81,91.72-22.81,91.72l149.81,293.23,149.36-294.65c-9.03-18.53-22.57-89.11-22.57-89.11,42.06-25.66,280.87-162.53,320.79-276.59Zm-304.22-858.3s.18-9.09,14.79-12.48c14.61-3.39,75.92-3.74,75.92-3.74,0,0,88.99-6.36,105.62-8.02,16.63-1.66,34.69-8.79,54.89-9.5,20.2-.71,56.79-8.55,72.48-3.56,15.68,4.99,26.38,10.46,29.47,20.2,3.09,9.74,4.16,67.01,4.16,67.01,0,0,1.07,103.72,1.78,115.49s-.36,97.66-6.42,120.83c-6.06,23.17-12.48,37.07-12.48,37.07l-9.98,3.92,3.92-53.82s-10.69,52.4-11.41,57.39c0,0-9.62,4.04-11.52,0-1.9-4.04-5.7-16.4-4.75-37.31.95-20.91,14.85-86.38,14.85-86.38,0,0,7.84-57.74,1.43-102.3-6.42-44.55-11.05-64.16-27.8-74.14-16.75-9.98-36.36-12.48-53.82-9.98-17.47,2.5-48.48,9.98-77.7,11.41-29.23,1.43-89.82,5.7-89.82,5.7,0,0-53.11,6.06-65.94,3.21l-11.41-4.99-2.14-9.8s59.35-9.09,68.79-18.71c0,0-58.63,4.99-68.79,13.37l-.89-9.09,64.69-21.03s-52.04,4.46-57.92,9.27Zm-15.86,95.88s4.63-26.91,27.62-27.8c22.99-.89,84.83-.89,84.83-.89l1.78,28.69,4.81-28.69,13.9-1.25-4.81,125.47,11.94-125.47s58.1-5.35,73.6-8.73c15.5-3.39,26.2-3.92,34.22-2.14,8.02,1.78,27.45,3.03,27.45,3.03,0,0,22.99,7.13,26.02,18.18,3.03,11.05,4.46,43.49,4.46,48.3s-2.5,82.51-2.85,84.65-1.07,16.04-10.69,41.35c-9.62,25.31-15.33,39.92-25.31,52.04-9.98,12.12-32.44,36.36-71.64,33.86,0,0,7.13-73.78,2.5-90.53l-8.2,90.71h-8.91l-2.85-18.71-3.21,16.75s-48.83-2.85-65.94-4.99c-17.11-2.14-44.91-2.5-47.76-5.35,0,0,5.35-103.01-.71-137.94l-7.66,136.87-9.27-2.14-.53-48.48-7.84,45.98-13.19-3.39s5.35-124.93,3.21-140.26l-10.69,133.31s-23.88-21.39-29.58-50.26c-5.7-28.87-12.12-94.1,15.33-162.18Zm-311.29,238.46l-10.22,1.07c4.28-20.67,5.7-136.87,5.7-136.87l-13.19,136.87c-15.68,6.06-153.98,7.13-153.98,7.13l-1.78-18.18-3.21,16.75h-3.56c-1.43-49.54-7.49-108.36-7.49-108.36v105.86c-35.29-17.82-54.53-64.51-54.53-64.51l-8.2-121.54s-3.56-64.87,10.46-89.58c14.02-24.71,48.48-17.11,48.48-17.11l2.85,76.51,7.84-75.33h4.28l3.33,24.48,4.51-22.34c15.92,3.8,93.15,7.84,93.15,7.84l1.9,16.63,3.33-16.63h5.94l-.71,33.5,6.18-30.65h8.55c-4.75,25.43-1.66,103.6-1.66,103.6l9.03-103.6,81.74,4.04c36.12,36.12,37.54,78.42,37.54,78.42,0,0,12.36,82.22-15.68,139.25s-56.32,51.09-56.32,51.09v-47.52l-4.28,49.19Zm-317.64-362.5c5.17-12.83,36-8.38,41.52-8.73,5.52-.36,87.86,12.12,87.86,12.12,0,0,134.38,16.04,161.11,11.41s63.36-1.25,63.36-1.25c10.25,15.59,7.22,25.04,7.22,25.04l-70.4,10.69c26.73,5.35,69.59-3.83,69.59-3.83-.53,1.69-2.5,5.7-2.5,5.7l-21.92,9.53,17.2-2.23c-19.25,14.26-55.25,8.2-96.24,5.35-40.99-2.85-123.68-15.68-144.36-14.97-20.67.71-42.77,9.98-58.46,29.58-15.68,19.6-14.61,45.27-14.61,62.02s14.61,131.7,14.61,131.7c0,0,5.17,29.23,0,57.56-5.17,28.34-19.43,26.55-19.43,26.55l-.71-12.48-1.96,12.5-6.06-1.09-4.63-38.67-1.07,33.86c-3.74-3.03-10.46-19.72-10.46-19.72,0,0,.71-11.64,1.9-21.39,1.19-9.74-10.34-80.79-13.54-108.95-3.21-28.16-6.24-145.07-6.24-145.07,0,0,3.03-42.42,8.2-55.25Zm381.09,1051.72l-81.15-44.97c7.84,9.8,79.25,50.38,79.25,50.38l-4.81,11.35-12.77-7.84,11.58,12.3-3.74,6.95c-9.03-5.23-39.68-25.9-39.68-25.9,5.23,9.27,38.02,30.65,38.02,30.65-18.3,21.39-29.23,19.49-29.23,19.49,0,0-18.3-4.75-59.17-31.37-40.87-26.61-131.41-98.38-156.12-125.23-24.71-26.85-32.08-52.75-46.1-78.18-14.02-25.43-27.56-96.95-27.56-96.95,0,0-5.23-47.52-13.54-72.71-8.32-25.19-6.42-65.7-6.42-65.7,2.49-6.3,17.94-13.66,17.94-13.66,0,26.14,12.39,57.8,12.39,57.8-4.72-13.37-6.33-59.94-6.33-59.94l6.65-2.89c.24,16.35,7.84,40.67,7.84,40.67-1.19-10.22-2.85-40.63-2.85-40.63,15.45-.71,28.28,8.08,28.28,8.08,1.43,12.36,9.5,64.16,9.5,64.16,0,0,20.67,75.33,38.26,115.72,17.58,40.4,72.48,91.72,114.53,128.32,42.06,36.59,123.33,71.52,123.33,71.52,9.27,12.95,1.9,48.59,1.9,48.59Zm-13.6-87.92l1.01-21.51-4.99,22.81h-9.74l4.51-122.14-11.41,119.05-12.59-6.42.71-59.41-6.89,54.89s-49.19-34.69-66.06-46.57c-16.87-11.88-51.33-52.75-52.04-54.18-.71-1.43-43.96-71.76-43.96-71.76l-4.28-90.77-2.14,78.42s-25.43-58.93-28.75-91.96c-3.33-33.03,9.74-58.97,9.74-58.97,0,0,9.5-20.87,13.78-31.8,4.28-10.93,26.85-7.37,26.85-7.37l58.22,6.42,3.33,32.75,4.04-32.75,9.27,1.43,1.19,89.58,5.7-89.58,13.07,1.66,1.43,113.11,8.55-113.11c13.54.48,62.26,23.05,76.51,44.14,14.26,21.09,28.28,66.36,30.65,76.1,2.38,9.74,11.52,65.82,12.24,82.22.71,16.4,5.88,98.02,5.88,98.02,0,0-16.93,51.51-21.74,63.62-4.81,12.12-22.1,14.08-22.1,14.08Zm212.26,373.9v-221.7l-7.84,238.1-23.52,39.92v-104.44c-8.91,25.31-8.55,115.49-8.55,115.49l-16.04,19.25-2.14-129.39-4.99,136.87s-4.99,8.91-11.76,8.91-22.81-14.26-26.38-21.39c-3.56-7.13-45.62-86.26-45.62-86.26l-2.5-51.33-4.28,34.22-12.12-27.09-.36-105.86-5.7,90.18c-26.38-50.97-18.89-106.57-13.54-140.08,5.35-33.5,29.94-160.75,29.94-160.75,0,0,13.9-148.28,7.49-205.31-6.42-57.03-24.24-147.92-62.02-176.79-37.78-28.87-128.32-29.23-161.47-32.79s-72.71,3.56-86.97,4.63c-14.26,1.07-17.47,5.35-52.4,4.28-34.93-1.07-41.35,8.55-41.35,8.55-29.94-.71-57.03,21.74-57.03,21.74,0,0-20.32,8.55-60.59,4.63-40.28-3.92-59.88-24.24-59.88-24.24l141.86-1.78c-38.14-9.27-158.97-6.06-158.97-6.06-10.69-6.42-50.26-30.3-50.26-30.3,0,0-20.32-16.4-21.03-27.45-.71-11.05,2.85-23.88,2.85-23.88l54.89-5.35-53.47-3.21c.71-2.5,10.34-14.97,10.34-14.97l207.09-5.35-197.82-2.85s12.12-14.97,23.52-22.81c11.41-7.84,17.47-19.25,31.37-27.8,13.9-8.55,35.64-15.33,57.98-17.82,22.7-5.35,115.96,5.7,186.53,6.06,70.57.36,192.83,2.5,239.88-9.98,47.05-12.48,55.25-27.8,75.92-62.73,20.67-34.93,21.03-50.26,22.1-114.42,1.07-64.16-12.12-125.82-12.12-125.82,1.78-15.33-2.5-60.24-2.5-69.86s-12.83-51.68-16.75-72.36c-3.92-20.67,4.99-30.3,10.69-39.21,5.7-8.91,32.44-48.12,32.44-48.12l16.4,166.1-7.84-176.08c.71-6.06,23.52-24.95,23.52-24.95l4.28,93.03,6.42-97.66c4.63-4.63,19.96-5.35,19.96-5.35l11.05,302.61-2.14-302.61s14.97,1.07,69.15,67.72c54.18,66.65,16.75,148.28,13.9,165.39-2.85,17.11-.71,49.9-.71,49.9,0,0-9.27,95.52-8.91,140.79.36,45.27,16.75,105.15,49.54,129.39,32.79,24.24,118.34,24.59,160.4,29.23,42.06,4.63,158.26,5.7,181.78,5.7s84.83-11.41,116.2-12.83c31.37-1.43,58.81,19.25,58.81,19.25-12.12,0-71.29,7.49-71.29,7.49,16.04,2.5,81.27.71,81.27.71l22.46,17.47c-27.8-2.14-108,2.14-108,2.14l118.34,6.06,13.19,14.61c-59.52-9.27-312.24-6.42-312.24-6.42l321.15,13.54s30.65,37.78,24.95,56.67c-5.7,18.89-30.65,38.5-30.65,38.5l-99.8-1.78,90.89,10.34s-43.49,34.57-84.48,47.76c-40.99,13.19-63.45-3.56-119.05-26.73-55.6-23.17-136.16-20.67-136.16-20.67,0,0-194.97-8.91-232.4,37.07-37.43,45.98-50.26,141.51-54.18,183.21-3.92,41.7,4.63,136.87,6.06,158.61,1.43,21.74,19.6,170.38,19.6,170.38,0,0,9.62,96.95,9.62,135.09s-26.02,93.03-26.02,93.03Zm214.34-665.11l-.71,177.98-11.17,14.73-1.43-76.75s-7.37,71.76-5.7,84.12c0,0-29.23,26.26-48.48,35.52-19.25,9.27-27.8,31.37-83.41,55.25,0,0-40.99-9.62-46.69-31.37-5.7-21.74-2.85-52.04-4.28-66.3-1.43-14.26.71-53.47,4.63-86.26,3.92-32.79,19.25-93.39,19.25-93.39,0,0,1.15-42.39,56.67-82.34,0,0-4.99,47.05-2.14,74.14,0,0,7.84-65.23,6.77-76.99l11.05-3.56,1.07,39.21,7.84-41.59,12.12-3.67,3.92,110.85,6.3-112.28s46.57-9.03,79.37-6.18c32.79,2.85,64.4,5.23,77.23,19.01,12.83,13.78,9.27,54.65,9.27,54.65,0,0-12.36,98.85-86.02,183.68,0,0,8.79-125.47-5.47-168.48Zm-170.5,399.56l-1.91-8.2c12.35-2.85,75.69-40.28,75.69-40.28l-74.49,32.08c-4.63-21.39,5.7-49.54,5.7-49.54,9.98-3.56,17.47-11.05,17.47-11.05,0,0,100.87-65.94,124.75-82.69,23.88-16.75,53.11-50.61,76.28-77.35,23.17-26.73,50.97-79.13,55.25-97.31,4.28-18.18,15.68-66.3,21.74-93.74,6.06-27.45,21.74-27.09,21.74-27.09,1.07,11.05-9.98,52.04-9.98,52.04,9.98-14.61,19.25-52.04,19.25-52.04l17.11,8.55c2.49,55.96-11.41,126.53-24.24,188.2-12.83,61.66-32.44,89.11-58.46,128.32-26.02,39.21-136.16,114.42-136.16,114.42,0,0-53.11,36-73.43,45.62-20.32,9.62-38.85,9.98-38.85,9.98l-8.91-12.83,79.13-47.76-83.05,38.85-2.85-12.83,25.66-14.26-27.45,8.91Z"/>
      <path d="m172.1,659.5c51.68,15.33,219.56,4.63,219.56,4.63,3.56-103.01-9.98-211.01-9.98-211.01-96.59,17.11-331.13,136.16-331.13,136.16,22.81,10.69,222.42,13.54,222.42,13.54l-100.87,56.67Zm8.2-83.76s-8.55,1.66-19.96,2.14c-11.41.48-9.5-9.03-9.5-9.03l80.08-3.8-74.85-1.43c18.77-11.17,135.68-61.78,135.68-61.78,0,0,33.74-8.55,51.33-6.42,17.58,2.14,20.2,22.1,20.2,22.1l-33.5,3.09,34.69,5.23,1.43,8.32-52.28,4.75,53.7,2.61s-2.38,52.04-3.56,62.97c-1.19,10.93-6.42,18.77-15.45,29.94-9.03,11.17-27.56,13.07-27.56,13.07,0,0-4.28,1.66-31.13,0-26.85-1.66-28.75-10.46-28.75-10.46l41.11-3.09,33.98-6.65-69.62.95c.95-2.61,11.88-13.07,18.3-16.63,6.42-3.56,12.12-9.03,12.12-9.03,24.95-4.28,35.17-10.22,35.17-10.22-34.22-18.77-151.6-16.63-151.6-16.63Z"/>
      <path d="m441.92,1232.29c-8.91-24.95-71.29,44.2-115.49,78.42-44.2,34.22-162.18,196.75-162.18,196.75,0,0,34.22-3.92,79.84-29.23,45.62-25.31,102.65-37.43,102.65-37.43,0,0-103.72,123.68-151.84,197.11-48.12,73.43-120.83,222.42-120.83,222.42,6.95-11.23,32.08-20.67,32.08-20.67,22.81-29.94,98.38-76.99,104.08-83.41,5.7-6.42,56.32-32.08,87.68-64.87,31.37-32.79,197.11-162.71,197.11-162.71l-17.29,78.59,14.26-.71,81.45-47.05-45.27,142.57c119.05-97.66,176.79-173.94,176.79-173.94-193.9-126.89-263.05-295.84-263.05-295.84Zm172.87,252.89c3.92,5.52,13.54,21.56,15.68,23.88,2.14,2.32,12.48,18,12.48,18l-32.79,46.51,36.89-39.74s3.74,1.07,0,10.87c-3.74,9.8-29.23,39.21-34.93,43.31-5.7,4.1-31.54,21.21-31.54,21.21,0,0,0-29.23,11.05-52.57,11.05-23.35,21.21-33.5,21.21-33.5,0,0-24.06,4.81-40.1,15.5-16.04,10.69-27.09,16.04-27.09,16.04,0,0-13.72-4.28-25.66,4.1l35.82-40.1-42.59,38.49s-7.31-.18-6.42-11.94c.89-11.76,5.88-30.3,5.88-30.3l29.05-28.69s-34.22,17.47-43.84,22.1c-9.62,4.63-52.04,38.67-52.04,38.67,0,0-60.95,42.42-64.51,45.98-3.56,3.56-30.3,29.58-38.14,34.57-7.84,4.99-66.3,49.54-66.3,49.54,0,0-32.08,23.88-34.57,27.45-2.5,3.56-29.94,24.59-42.42,30.65-12.48,6.06-27.21,18.89-31.49,14.85s4.75-30.65,4.75-30.65l117.62-104.79s-74.61,50.61-106.46,84.83c0,0,20.2-37.07,48.95-54.89l-14.02,6.18s11.41-15.21,14.26-18.3c2.85-3.09,16.45-19.01,21.89-30.18,5.44-11.17,45.12-65.35,63.66-86.73,18.53-21.39,87.45-97.43,158.02-131.64l-108.83,34.93s-31.31,9.51-40.22,10.04c-8.91.53-39.56,5.7-39.56,5.7l-36.71,13.9,83.94-65.23-90.18,63.27s18-27.62,26.2-33.86c8.2-6.24,25.66-29.58,25.66-29.58,0,0,17.11-17.82,19.43-23.35,2.32-5.52,16.75-30.12,26.2-39.56,9.45-9.45,56.14-63.27,90.71-36.53l-36.89,34.75,44.2-28.69,7.66,7.66-39.03,32.97,43.31-27.8s6.95,10.16,13.54,22.46c6.59,12.3,44.2,58.99,44.2,58.99l36.53,39.03-25.84,27.98,30.83-20.67,3.74,3.56-75.92,68.18,84.3-61.59,30.3,30.48s16.22,8.73,20.14,14.26Z"/>
      <path d="m1739.34,1475.14c50.85,26.14,86.02,31.84,86.02,31.84-111.21-172.99-243.21-265.78-258.53-276.83-15.33-11.05-19.96,4.28-19.96,4.28-45.62,141.86-264.71,294.42-264.71,294.42,27.09,43.72,180.59,175.37,180.59,175.37l-48-144.95,85.07,48,13.78-.48-16.63-77.94s219.56,189.62,281.82,228.59c56.55,31.37,103.84,82.22,103.84,82.22,11.58,3.03,32.79,18.53,32.79,18.53-59.17-173.94-272.08-418.22-272.08-418.22,0,0,45.15,9.03,96,35.17Zm-25.66,93.98c29.23,44.55,100.16,132.24,105.86,158.26l-58.46-46.1,61.9,58.57s2.38,8.08-2.14,9.62l-79.01-66.3,65.94,61.54s-43.49-21.27-57.03-38.61c-13.54-17.35-77.7-60.36-77.7-60.36,0,0-91.72-73.19-103.37-81.27-11.64-8.08-81.03-65.58-121.19-78.89,0,0,28.04,23.52,30.42,37.07,2.38,13.54,6.12,21.68,3.98,28.46-2.14,6.77-5.17,6.59-5.17,6.59l-16.93-12.65,10.69,13.72s-6.59-1.07-14.26-6.77c-7.66-5.7-54.18-46.51-54.18-46.51l45.98,47.76-3.56.89s-52.22-31.54-67.37-31.54c0,0,16.04,13.54,18.18,25.84,2.14,12.3,11.98,30.57,11.76,45.27l-16.22-13.72s17.11,19.07,17.29,19.6c.18.53.65,9.8.65,9.8,0,0-21.39-10.22-35.17-26.14s-30.18-28.04-30.18-37.07-5.7-10.69,7.37-28.75c13.07-18.06,14.73-28.28,21.15-32.08,6.42-3.8,24.95-17.58,32.79-24.95,7.84-7.37,31.6-30.89,31.6-30.89l54.89,38.97-49.19-44.91,4.75-4.99,44.44,33.74-39.68-37.78,5.7-5.94,33.98,27.09-29.47-33.98s43.96-52.75,57.27-70.81c13.31-18.06,16.4-31.6,22.57-34.46l24.24,14.02-21.62-17.82,3.33-3.56s44.91,35.17,73.43,44.2c0,0-67.01-46.81-67.01-48.71,0,0,15.92-12.59,33.27-7.37,17.35,5.23,45.86,27.8,53.23,38.02,7.37,10.22,34.69,45.62,39.68,53.7,4.99,8.08,64.16,79.6,64.16,79.6,0,0-7.84-1.19-10.93-.48,0,0-23.52-12.12-37.31-22.1-13.78-9.98-95.29-60.59-95.29-60.59l92.44,67.96-18.06-2.14-67.49-43.01,46.81,40.16s-120-35.64-142.1-47.05l92.2,65.58s78.89,77.7,108.12,122.26Z"/>
      <path d="m1607.11,453.12l-10.34,212.08s198.18,8.55,220.63-4.28l-98.73-58.46,201.03-6.77,21.39-7.49s-233.47-116.55-333.98-135.09Zm229.9,122.44c-7.31,1.96-111.21,5.52-127.25,5.88s-48.83,11.58-48.83,11.58c42.24,8.02,63.8,32.61,67.37,40.63,3.56,8.02-8.91,11.76-8.91,11.76,0,0-40.99,4.46-60.77-1.43-19.78-5.88-26.2-21.92-26.2-21.92l34.57-1.78c-4.28-2.5-38.32-5.88-38.32-5.88-2.32-5.88-4.4-37.07-4.4-37.07l41.47-.71-41.35-6.11s-.89-22.4,2.14-46.64c3.03-24.24,20.67-28.51,20.67-28.51,13.19,3.03,14.79,0,18.71-1.25,3.92-1.25,39.74,7.66,62.55,18,22.81,10.34,54.53,27.8,54.53,27.8h-29.41s15.51,3.03,27.8,3.39,22.81,5.17,22.81,5.17c-14.97-2.85-89.47,0-89.47,0l105.5,8.73c8.38,1.6,16.75,10.34,16.75,10.34l-108-1.07,108,9.09Z"/>
    </g>
    <g>
      <path d="m957.56,1549.75c24.24-96,9.5-285.15,9.5-285.15.95,31.84-9.5,285.15-9.5,285.15Z"/>
      <path d="m993.68,1308.33s3.33-73.19,5.23-82.18c1.9-8.99-3.69-54.97-3.69-54.97-3.69,20.63-1.53,137.15-1.53,137.15Z"/>
      <path d="m1013.64,1212.33c9.03-94.1,2.38-117.39,2.38-117.39l-2.38,117.39Z"/>
      <path d="m987.5,792.68s7.13-114.53,0-163.96c0,0-5.23,121.19,0,163.96Z"/>
      <path d="m962.31,619.68s-5.23,51.34,0,98.39c0,0,4.75-61.34,0-98.39Z"/>
      <path d="m553.84,902.58s152.91,8.55,217.43,4.63c0,0-185.35-12.48-217.43-4.63Z"/>
      <path d="m1213.01,899.14s78.42,7.37,106.93,9.03c28.51,1.66,51.33-3.8,51.33-3.8-7.13-4.28-158.26-5.23-158.26-5.23Z"/>
      <path d="m521.28,477.36s14.49-16.87,19.25-21.5,9.5-10.46,9.5-10.46c-18.77,6.77-28.75,31.96-28.75,31.96Z"/>
      <path d="m547.42,428.64c14.02-1.66,21.62-1.07,20.44-4.4s-7.37-5.94-11.29-4.04-25.19,3.09-31.25,30.65c0,0,8.08-20.55,22.1-22.22Z"/>
      <path d="m1399.48,417.3c-8.38,3.03-10.69,3.56-10.69,3.56,0,0,39.74,9.98,53.29,12.12,0,0-9.27-5.17-16.75-8.2-7.49-3.03-17.47-10.51-25.84-7.49Z"/>
      <path d="m1475.05,431.73c-4.1-11.58-13.19-18.89-16.4-17.64-3.21,1.25,0,5.7,0,5.7,0,0,17.11,29.41,19.43,62.02,0,0,1.07-38.49-3.03-50.08Z"/>
      <path d="m1366.99,1255.57c-6.42,10.93-30.89,47.76-30.89,47.76,0,0,57.27-57.27,55.37-95.64,0,0-18.06,36.95-24.48,47.88Z"/>
      <path d="m721.18,1366.13c-22.63-11.94-54.36-51.68-54.36-51.68,12.65,25.84,41.52,50.08,50.08,56.32,8.55,6.24,12.12,2.85,12.12,2.85,3.39-2.85-7.84-7.49-7.84-7.49Z"/>
      <path d="m681.26,1315.52c11.23,7.66,16.98,5.41,16.98,5.41,3.44-1.54-1.12-3.8-4.68-5.05-3.56-1.25-11.94-8.02-11.94-8.02l-47.76-50.26s36.18,50.26,47.41,57.92Z"/>
    </g>
  </g>
</svg>