<svg xmlns="http://www.w3.org/2000/svg" viewBox="0 0 1000 200" preserveAspectRatio="none">
  <defs>
    <!-- Filtro para textura envelhecida -->
    <filter id="roughPaper" x="0%" y="0%" width="100%" height="100%">
      <feTurbulence baseFrequency="0.04" numOctaves="5" result="noise" />
      <feDiffuseLighting in="noise" lighting-color="white" surfaceScale="1">
        <feDistantLight azimuth="45" elevation="60" />
      </feDiffuseLighting>
    </filter>
    
    <!-- Gradiente para papel velho -->
    <linearGradient id="oldPaper" x1="0%" y1="0%" x2="100%" y2="100%">
      <stop offset="0%" style="stop-color:#f4e8d0;stop-opacity:1" />
      <stop offset="20%" style="stop-color:#e8dab3;stop-opacity:1" />
      <stop offset="50%" style="stop-color:#ead4a3;stop-opacity:1" />
      <stop offset="80%" style="stop-color:#d4bc87;stop-opacity:1" />
      <stop offset="100%" style="stop-color:#ceb074;stop-opacity:1" />
    </linearGradient>
  </defs>
  
  <!-- Sombra do pergaminho -->
  <path d="M 0,150 Q 50,140 100,145 T 200,150 T 300,145 T 400,150 T 500,145 T 600,150 T 700,145 T 800,150 T 900,145 T 1000,150 L 1000,200 L 0,200 Z" 
        fill="rgba(0,0,0,0.2)" transform="translate(5, 5)" />
  
  <!-- Corpo principal do topo -->
  <path d="M 0,150 Q 50,140 100,145 T 200,150 T 300,145 T 400,150 T 500,145 T 600,150 T 700,145 T 800,150 T 900,145 T 1000,150 L 1000,50 Q 980,20 950,15 T 900,25 T 850,20 Q 800,10 750,30 T 700,25 T 650,35 Q 600,25 550,20 T 500,30 T 450,25 Q 400,15 350,35 T 300,30 T 250,25 Q 200,20 150,30 T 100,25 T 50,35 Q 25,25 0,50 Z" 
        fill="url(#oldPaper)" 
        filter="url(#roughPaper)" />
  
  <!-- Rasgos e imperfeições no topo -->
  <path d="M 120,25 Q 125,15 130,20 T 140,15 T 150,25" fill="none" stroke="#b8a068" stroke-width="2" opacity="0.6" />
  <path d="M 320,30 Q 325,20 335,25 T 345,20" fill="none" stroke="#b8a068" stroke-width="2" opacity="0.6" />
  <path d="M 680,35 Q 685,25 695,30 T 705,25 T 715,35" fill="none" stroke="#b8a068" stroke-width="2" opacity="0.6" />
  
  <!-- Manchas de idade -->
  <circle cx="200" cy="80" r="15" fill="#d4bc87" opacity="0.3" />
  <ellipse cx="750" cy="70" rx="25" ry="15" fill="#c8a882" opacity="0.2" />
  <circle cx="450" cy="90" r="20" fill="#ceb074" opacity="0.25" />
  
  <!-- Queimadura no canto -->
  <path d="M 850,25 Q 880,20 900,35 T 920,50 T 940,45 Q 950,35 960,40 L 950,15 Q 920,10 900,25 Z" 
        fill="#8b6914" opacity="0.4" />
  
  <!-- Detalhes de dobras -->
  <path d="M 0,50 Q 100,55 200,50" fill="none" stroke="#c8a882" stroke-width="1" opacity="0.5" />
  <path d="M 800,50 Q 900,55 1000,50" fill="none" stroke="#c8a882" stroke-width="1" opacity="0.5" />
</svg>