<?xml version="1.0" encoding="UTF-8"?>
<svg id="Layer_2" data-name="Layer 2" xmlns="http://www.w3.org/2000/svg" viewBox="0 0 873.97 151.65">
  <defs>
    <style>
      .cls-1 {
        fill: #b48f63;
      }
    </style>
  </defs>
  <g id="Layer_3" data-name="Layer 3">
    <g>
      <path class="cls-1" d="M25.2,0l-4.94,44.24,13.41,16.24-11.76,4.71-13.88,55.53-4.94,24.71h33.88l4.94-5.41,5.18,5.41,5.41-6.35,3.76-12,8.24,12.94,23.29-6.35,24.24-6.82,49.88,2.35v-35.76s18.12,27.29,18.59,28.47,20-9.41,24.94-9.65,25.88,10.82,34.82,10.82,32.71-3.06,32.71-3.06l6.59-38.82,4.94,39.29,60.94,7.29,53.18,2.59,36.47-5.88,1.91,4.94,14.56-3.06v6.59l44-.24s8-30.59,7.06-30.59,6.59,32.47,6.59,32.47c0,0,22.12-6.12,32.24-6.12s33.88,8.71,44.47,6.82,22.35-4.94,31.29-2.35,46.12,9.65,46.59,4.71c.47-4.94,7.06-51.53,7.06-51.53l6.59,52,13.41-1.41,3.76-11.06,6.12,12.94h40.71l6.82-6.82,3.06,3.76,3.06-10.59,8.94,15.29s34.35,5.65,40,4,8.94-9.41,8.94-9.41l5.41-32,9.18,41.18,34.35,2.82,7.29-3.06-3.53-50.35-.71-12,1.65-19.06-5.65-39.76L25.2,0Z"/>
      <path d="M278.84,120.38c-.78,5.24-3.91,6.6-8.76,7.24-9.24,1.21-29.31.93-38.29-1.19-14.78-3.5-17.49-13.68-35.21-7.3-3.65,1.31-11.93,6.6-15.07,6.5-8.2-.24-10.7-19.24-16.66-23.73-1.81,6.59,5.14,28.46-2.72,30.76-7.58-.49-15.18-.51-22.78-.79-15.65-.59-26.98-2-42.72,2.29-7.74,2.11-26.64,12.75-33.18,8.6-2.23-1.41-4.19-6.41-6.59-7.88-1.04,3.77-.31,11.18-4.74,12.76-3.13,1.11-10.73,2.35-11.77-1.77l-2.21,3.02-36.3.48-1.84-2.22c4.73-28.82,11.44-57.55,18.53-85.96,1.99-4.09,7.94-.45,11.31-1.26l-12.02-15.54c.22-3.98,1.65-8.02,2.01-11.96.72-7.83.07-22.27,2.19-28.79.73-2.24,4.24-2.38,5.37-.73.73,1.07-.29,20.54-.57,23.52-.45,4.85-2.58,9.62-2.54,14.54l15.6,20.45c.07,4.8-10.23,4.12-13.33,5.7-4.59,2.35-5.96,20.08-7.37,25.61-2,7.84-5.01,15.27-6.87,23.12-1.19,5.03-4.38,19.39-4.25,23.76.16,5.36,19.81,3.32,23.54,1.51s6.88-12.28,9.73-12.28c4.36,0,2.08,11.8,6.5,13.02,1.92-3.29,3.46-19.41,6.63-19.93s8.3,10.99,9.58,11.74c.49.28,9.96,1.15,11.21,1.12,5.69-.15,13.45-5.66,19.38-7.62,19-6.3,32.5-.7,50.75-2.25,11.73-1,13.23-6.39,13.51-17.47.12-4.53-4.77-27.75,5.37-18.45,6.64,6.09,11.02,18.4,16.7,24.28,6.11,6.32,13.83-2.46,19.44-4.32,13.36-4.44,29.78,8.99,44.19,11.7,8.7,1.64,25.28,3.01,27.02-8.5,2.64-17.4,1.58-37.07,4.36-54.6.9-5.66,4.64-10.96,5.77-3.02,1.05,7.41,2.45,16.67,3.11,23.9.79,8.67-.35,22.83,1.44,30.54.55,2.35,3.15,6.47,5.04,7.95,7.3,5.71,27.94,3.99,38.01,4.98,27.58,2.72,48.26,6.97,76.99,3.97,6.86-.72,28.15-6.57,32.93-3.08,1.11.81.38,2.88.59,3.1.51.54,10.2-4.07,14.33-3.04,1.64,6.07,8.57,5.74,14.12,6.08,8.47.53,24.47,2.68,26.31-7.77.6-3.44,1.08-10.01,1.28-13.71.41-7.71-1.28-19.08-.04-26.02.26-1.45.82-2.66,2.51-2.54,2.87,0,4.26,6.74,4.98,9.03,3.68,11.67,3.56,25.73,6.95,37.02,2.91,9.7,16.56.95,24.16.06,17.55-2.07,32.85,6.29,47.89,5.96,6.33-.14,12.97-4.02,19.29-4.79,18.33-2.24,33.74,10.51,53.53,6.47,4.35-.89,6.65-10.5,7.41-14.53,3.56-18.9,3.13-40.41,4.28-59.67-.01-.86,2.13-.67,2.5-.5,6.87,3.04,8.52,66.82,11.43,76.51l5.94.3c2.88-1.85,1.88-32.2,10.68-15.91,2.21,4.1,3,14.91,6.15,15.84,2.46.73,30.76.66,33.55-.05,6.68-1.68,4.88-12.17,12.73-6.75,1.48-3.41,3.82-10.06,8.42-9.06,1.7.37,4.29,14.88,5.79,17.37,3.79,6.27,32.63,4.46,40.15,4.53,7.78-2.68,7.91-43.47,12.16-50.79,2.25.02,8.38,20.44,9.21,23.75,2.05,8.23.89,17.52,6.3,24.69,6.2,8.22,13.49,4.34,22.54,4.47,4.86.07,10.22,4.02,11.39-3.53,1.26-8.14-.62-28.12-2.19-36.65-1.01-5.48-7.47-18.41-4.82-22.32.95-1.4,3.28-1.91,3.79-2.69,2.88-4.4-3.26-24.4-3.76-31.17-.29-3.89-.58-13.54.04-17.02.7-3.92,3.44-2.73,4.73.26,4.88,11.24,5.34,34.52,7.52,47.45.78,4.63,3.48,8.88,2.74,13.75-3.78.7-5.37-.81-7.99-3,4.92,12.04,3.88,24.81,5,37.46.44,4.95,3.96,20.16,2.47,23.47-2.49,5.54-16.59,1.23-21.94.98s-11.79-.26-17.03.05c-3.3.2-8.72,3.34-11.27.74-1.77-1.8-2.93-33.27-4.25-38.72-1.35.56-1.69,5.15-1.87,6.61-.64,5.17-1.57,27.03-4.68,29.29-3.12,2.26-18.18-.69-22.95-.92-7.25-.34-20.53,1.16-26.8-1.2-2.78-1.04-5.59-10.77-5.7-13.8-2.24-2.25-3.32,6.52-4.96,7.53-4.1,2.52-5.21-2.67-5.53-2.52-4.57,8.9-9.77,5.09-16.96,4.95-8.34-.16-22.7,1.4-30.01.01-4.72-.9-2.96-5.97-4.03-5.98.54,7.35-19.83,7.37-21.5,4.26l-2.01-40.22c-1.74-.23-.94,2.27-.99,3.48-.38,9.31-.21,19.82-1.02,28.97-.47,5.34-1.16,10.2-7.56,10.44-20.82.77-46.09-10.09-66.67-6.67-4.27.71-10.6,3.69-14.3,3.8-3,.09-11.58-3.23-16.1-3.92-6.5-.98-17.52-2.26-23.86-2.23-11.64.05-23.94,5.3-35.1,3.19l-4.4-22.09v14.49c0,1.03-1.99,5.09-2.46,6.53-2.59,2.67-23.96-.99-28.99-1.08-7.04-.13-16.99,2.13-23.04,1.04-5.51-1-.19-5.75-.51-5.98-4.33.97-8.42,3.34-12.98,1.46-.86-.36-1.51-2-2.63-2.23-2.46-.52-24.69,4.26-29.9,4.76-34.13,3.23-64.62-4.95-98-7.98-5.79-.53-11.78.22-16.87-.04-4.38-.23-6.63-3.24-6.63-7.46v-18.49h-1c-.67,6.36.91,14.36,0,20.49Z"/>
    </g>
    <path d="M645.67,136.12c-1.2-8.39-1.42-17.17-1.5-25.65.04-8.57.31-17.13,1.5-25.65,1.19,8.52,1.46,17.07,1.5,25.65-.08,8.48-.3,17.25-1.5,25.65h0Z"/>
    <path d="M635.14,136.12c-2.06-11.99-2.08-24.31,0-36.29,2.08,11.99,2.06,24.3,0,36.29h0Z"/>
    <path d="M531.14,130.65c-2.06-9.75-2.08-19.9,0-29.65,2.08,9.75,2.06,19.9,0,29.65h0Z"/>
    <path d="M462.67,132.06c-1.2-9.6-1.42-19.65-1.5-29.32.07-9.68.29-19.71,1.5-29.32,1.21,9.6,1.43,19.64,1.5,29.32-.08,9.68-.3,19.71-1.5,29.32h0Z"/>
    <path d="M470.2,130.65c-2.06-11.18-2.08-22.71,0-33.88,2.08,11.17,2.06,22.71,0,33.88h0Z"/>
    <path d="M334.9,125.24c-1.2-8.74-1.42-17.89-1.5-26.71.04-8.93.31-17.83,1.5-26.71,1.19,8.88,1.46,17.78,1.5,26.71-.08,8.82-.3,17.96-1.5,26.71h0Z"/>
    <path d="M319.14,125.24c-2.06-10.94-2.08-22.24,0-33.18,2.08,10.94,2.06,22.24,0,33.18h0Z"/>
    <path d="M218.43,97.47c-1.2-9.98-1.42-20.42-1.5-30.47.07-10.06.29-20.48,1.5-30.47,1.21,9.98,1.43,20.42,1.5,30.47-.08,10.06-.3,20.48-1.5,30.47h0Z"/>
    <path d="M112.31,125.24c-2.06-13-2.08-26.3,0-39.29,2.08,13,2.06,26.3,0,39.29h0Z"/>
    <path d="M119.61,127.35c-2.06-8-2.07-16.48,0-24.47,2.07,8,2.06,16.47,0,24.47h0Z"/>
    <path d="M28.31,144.06c-1.2-8.51-1.42-17.41-1.5-26,.04-8.69.31-17.36,1.5-26,1.19,8.64,1.46,17.31,1.5,26-.08,8.59-.3,17.48-1.5,26h0Z"/>
    <path d="M778.67,58.88c1.2,10.87,1.42,22.23,1.5,33.18-.07,10.95-.29,22.3-1.5,33.18-1.21-10.87-1.43-22.23-1.5-33.18.08-10.95.3-22.3,1.5-33.18h0Z"/>
    <path d="M791.37,89.47c1.2,8.42,1.42,17.22,1.5,25.71-.04,8.6-.31,17.17-1.5,25.71-1.19-8.54-1.46-17.12-1.5-25.71.07-8.5.3-17.29,1.5-25.71h0Z"/>
    <path d="M850.2,146.82c-1.2-10.15-1.42-20.77-1.5-31,.07-10.23.29-20.84,1.5-31,1.21,10.15,1.43,20.77,1.5,31-.07,10.23-.3,20.84-1.5,31h0Z"/>
  </g>
</svg>