<?xml version="1.0" encoding="UTF-8"?>
<svg id="Layer_2" data-name="Layer 2" xmlns="http://www.w3.org/2000/svg" viewBox="0 0 893.07 228.91">
  <defs>
    <style>
      .cls-1 {
        fill: #b48f63;
      }
    </style>
  </defs>
  <g id="Layer_2-2" data-name="Layer 2">
    <g>
      <path d="M862.03,98.87l25.24,10.26c1.37.59,2.41,1.55,3.18,2.82,4.07,6.77,2.41,27.14,1.45,35.29-.44,3.74-2.03,15.91-3.4,18.6-1.04,2.04-4.29,3.05-6.47,3.04.44,2.96,2.1,3.74,1.8,7.2-.28,3.27-7.01,22.74-9.08,24.49-4.08,3.46-18.18-3.06-23.71-2.69l18.53,11.95c6.6,4.93-2.07,13.43-7.16,15.91-9.99,4.87-32.31,2.87-43.86,2.11-45.39-2.95-90.71-5.66-136.02-7.98-96.97-4.96-187.99-21.86-286.03-17.05-21.31,1.05-42.68,3.77-63.97,5.03-82.78,4.91-165.95,6.8-249.03,4.05-31.63-1.05-49.39-.3-66.88-29.12-1.5-2.47-7.12-11.65-7.42-13.65-.19-1.21-.35-2.02.8-2.81l6.03-1.45c-1.99-.05-5.23.17-6.74-1.27-2.43-2.32-6.94-24.64-6.25-28.23.8-4.17,4.13-2.03,7-1.51,1.28-1.49-5.54-17.73-6.49-21-4.5-15.43-7.79-18.97,10.29-17.28,1.11.1,3.4,1.18,3.2-.7-10.4-1.2-11.46-4.07-12.88-13.63-.36-2.42-1.31-12.77-.92-14.64,1.62-7.7,8.83-.28,10.8-1.75-4.72-6.75-2.26-16.48,1.43-23.06l13.57-.94c-8.11-8.59-2.63-8.4,6-7-2.36-4.53-10.49-4.4-7.49-10.98C37.26,14.72,43.73,2.12,57.55.88c13.74-1.23,29.91.3,44.02.02,43.6-.84,87.41-2.22,130.95,1.96,18.74,1.8,37.31,6.09,56.01,7.99,107.32,10.86,217.2,10.55,324.98,16.02,27.58,1.4,53.17,3.62,81.05,2.03,42.28-2.41,83.95-10.77,125.96-15.04,5.43-.55,22.62-2.77,26.45-1.46,5.71,1.95,22.93,25.07,26.85,31.14,3.99,6.17,16.1,27.21,15.21,33.76-.52,3.9-5.49,3.32-5.81,5,1.09,2.68,4.93,16.55.29,16.55h-21.5ZM879.7,75.57c1.76-2.5,1.33-3.79.67-6.51-2.51-10.22-21.9-37.1-30.31-43.72-9.07-7.14-31.85-4.57-43.51-3.47-18.2,1.73-36.94,6.37-55.15,8.85-70.94,9.65-137.06,4.02-207.81,2.18-76.7-1.98-152.45-5.58-229.06-12.03-69.45-5.85-136.9-11.37-206.95-13.05-13.65-.33-45.63-1.43-57.28,3.81-.8.36-13.39,9.88-13.98,10.53-4.15,4.57,8.98,9.5,6.28,14.71-1.67,3.22-7.96.39-5.75,6.28-1.14,4.45-14.84,1.8-18.04,7.99-4.23,8.18,2.61,12.41,1.1,17.06-.99,3.03-7.04,1.91-8.39,4.66-.42.86-1.51,9.15-1.33,10.27,1.01,6.09,18.64,9.58,23.68,12.91l.2,4.28c-8.16,3.83-17.85-1.12-25.11,2.22-3.72,5.77,7.22,25.08,7.78,32.01.32,3.95-2.51,2.93-4.22,4.27-4.61,3.64-2.07,14.7,1.55,18.51l24.97,6.55c.04,1.55.39,2.41-1.03,3.47-2.98,2.23-14.74,1.48-17.84,6.13-1.24,5.35,15.74,23.62,20.87,25.9,25.76,11.43,65,5.11,92.46,4.45,63.53-1.51,126.53,2.52,190.03-1.97,16.32-1.15,32.68-4.69,48.97-6.03,45.24-3.71,94.93-2.33,140.15.14,42.53,2.32,84.19,12.47,126.9,14.89,62.83,3.56,125.21,3.91,187.98,9.02,3.32.27,6.74,1.75,10.03,1.97,3.52.24,30.16.45,27-7-1.43-3.39-22-15.25-26.53-19.47-2.3-2.14-4.56-3.25-2.97-6.49,17.83,1.42,43.85,16.55,40-14.54-.67-5.4-5.26-8.32-5.03-13.47,4.83-.65,10.75,2.03,13.86-2.65,5.3-7.97,4.8-37.95-3.36-44.35-7.25-5.68-25.18-8.71-34.19-14.81-1.48-1-3.66-1.89-3.3-4.19,11.7-3.72,23.66-1.7,35.41-3.89,2.6-1.87-1.9-9.72-1.48-12.61.34-2.32,2.22-2.07,2.73-2.8Z"/>
      <path class="cls-1" d="M879.7,75.57c-.51.73-2.39.48-2.73,2.8-.43,2.88,4.07,10.74,1.48,12.61-11.76,2.2-23.71.18-35.41,3.89-.36,2.3,1.83,3.19,3.3,4.19,9.01,6.1,26.94,9.13,34.19,14.81,8.16,6.4,8.66,36.38,3.36,44.35-3.11,4.68-9.03,2-13.86,2.65-.23,5.16,4.36,8.07,5.03,13.47,3.86,31.09-22.17,15.97-40,14.54-1.59,3.25.67,4.35,2.97,6.49,4.53,4.22,25.09,16.08,26.53,19.47,3.15,7.45-23.49,7.24-27,7-3.29-.22-6.71-1.7-10.03-1.97-62.77-5.11-125.14-5.46-187.98-9.02-42.71-2.42-84.38-12.57-126.9-14.89-45.22-2.46-94.91-3.85-140.15-.14-16.3,1.34-32.65,4.87-48.97,6.03-63.49,4.49-126.5.46-190.03,1.97-27.46.65-66.7,6.98-92.46-4.45-5.13-2.28-22.11-20.55-20.87-25.9,3.1-4.65,14.86-3.9,17.84-6.13,1.42-1.06,1.07-1.92,1.03-3.47l-24.97-6.55c-3.62-3.82-6.16-14.87-1.55-18.51,1.71-1.35,4.54-.32,4.22-4.27-.57-6.92-11.5-26.23-7.78-32.01,7.27-3.35,16.96,1.61,25.11-2.22l-.2-4.28c-5.03-3.33-22.66-6.82-23.68-12.91-.19-1.13.9-9.41,1.33-10.27,1.35-2.75,7.4-1.62,8.39-4.66,1.51-4.65-5.33-8.89-1.1-17.06,3.2-6.19,16.91-3.54,18.04-7.99-2.21-5.88,4.07-3.06,5.75-6.28,2.71-5.21-10.42-10.14-6.28-14.71.59-.65,13.18-10.17,13.98-10.53,11.65-5.24,43.63-4.13,57.28-3.81,70.05,1.69,137.5,7.2,206.95,13.05,76.61,6.45,152.37,10.05,229.06,12.03,70.74,1.83,136.86,7.47,207.81-2.18,18.21-2.48,36.95-7.12,55.15-8.85,11.66-1.11,34.44-3.67,43.51,3.47,8.41,6.62,27.8,33.49,30.31,43.72.67,2.71,1.09,4-.67,6.51Z"/>
    </g>
    <path d="M10.21,120.72c10.6-1.2,21.68-1.42,32.35-1.5,10.68.07,21.75.29,32.35,1.5-10.6,1.21-21.68,1.43-32.35,1.5-10.68-.08-21.75-.3-32.35-1.5h0Z"/>
    <path d="M59.03,64.13c47.62-2.05,95.91-2.07,143.53,0-47.62,2.07-95.91,2.05-143.53,0h0Z"/>
    <path d="M67.5,187.43c64.66-2.05,130.17-2.06,194.82,0-64.66,2.06-130.17,2.05-194.82,0h0Z"/>
    <path d="M662.8,64.13c-64.97,2.05-130.8,2.06-195.76,0,64.97-2.06,130.8-2.05,195.76,0h0Z"/>
    <path d="M430.33,42.48c-62.94,2.05-126.71,2.06-189.65,0,62.94-2.06,126.71-2.05,189.65,0h0Z"/>
    <path d="M37.86,17.07c15.24-1.2,31.16-1.42,46.47-1.5,15.32.07,31.22.29,46.47,1.5-15.24,1.21-31.16,1.43-46.47,1.5-15.32-.07-31.22-.3-46.47-1.5h0Z"/>
    <path d="M880.68,173.78c-44.81,2.05-90.25,2.07-135.06,0,44.81-2.07,90.25-2.05,135.06,0h0Z"/>
    <path d="M852.44,217.07c-15.43,1.2-31.55,1.42-47.06,1.5-15.51-.07-31.62-.29-47.06-1.5,15.43-1.21,31.55-1.43,47.06-1.5,15.51.08,31.62.3,47.06,1.5h0Z"/>
    <path d="M883.5,68.84c-16.05,1.2-32.82,1.42-48.94,1.5-16.13-.07-32.88-.29-48.94-1.5,16.05-1.21,32.82-1.43,48.94-1.5,16.13.08,32.88.3,48.94,1.5h0Z"/>
    <path d="M871.74,125.31c-64.34,2.05-129.54,2.06-193.88,0,64.34-2.06,129.54-2.05,193.88,0h0Z"/>
    <path d="M648.21,162.01c-69.66,2.05-140.23,2.06-209.88,0,69.66-2.06,140.23-2.05,209.88,0h0Z"/>
    <path d="M515.5,148.37c-53.87,2.05-108.48,2.06-162.35,0,53.87-2.06,108.48-2.05,162.35,0h0Z"/>
  </g>
</svg>