<svg xmlns="http://www.w3.org/2000/svg" viewBox="0 0 1000 100" preserveAspectRatio="none">
  <defs>
    <!-- Reutilizando o gradiente -->
    <linearGradient id="oldPaperMid" x1="0%" y1="0%" x2="100%" y2="0%">
      <stop offset="0%" style="stop-color:#f4e8d0;stop-opacity:1" />
      <stop offset="30%" style="stop-color:#ead4a3;stop-opacity:1" />
      <stop offset="70%" style="stop-color:#ead4a3;stop-opacity:1" />
      <stop offset="100%" style="stop-color:#f4e8d0;stop-opacity:1" />
    </linearGradient>
    
    <!-- Padrão de textura -->
    <pattern id="paperTexture" x="0" y="0" width="200" height="200" patternUnits="userSpaceOnUse">
      <rect width="200" height="200" fill="url(#oldPaperMid)" />
      <circle cx="50" cy="50" r="30" fill="#d4bc87" opacity="0.1" />
      <circle cx="150" cy="150" r="20" fill="#ceb074" opacity="0.1" />
    </pattern>
  </defs>
  
  <!-- Sombra lateral -->
  <rect x="5" y="0" width="990" height="100" fill="rgba(0,0,0,0.1)" />
  
  <!-- Corpo principal (repetível) -->
  <path d="M 0,0 L 0,100 Q 10,98 20,100 T 40,100 T 60,100 T 80,100 T 100,100 T 120,100 T 140,100 T 160,100 T 180,100 T 200,100 T 220,100 T 240,100 T 260,100 T 280,100 T 300,100 T 320,100 T 340,100 T 360,100 T 380,100 T 400,100 T 420,100 T 440,100 T 460,100 T 480,100 T 500,100 T 520,100 T 540,100 T 560,100 T 580,100 T 600,100 T 620,100 T 640,100 T 660,100 T 680,100 T 700,100 T 720,100 T 740,100 T 760,100 T 780,100 T 800,100 T 820,100 T 840,100 T 860,100 T 880,100 T 900,100 T 920,100 T 940,100 T 960,100 T 980,100 L 1000,100 L 1000,0 Q 990,2 980,0 T 960,0 T 940,0 T 920,0 T 900,0 T 880,0 T 860,0 T 840,0 T 820,0 T 800,0 T 780,0 T 760,0 T 740,0 T 720,0 T 700,0 T 680,0 T 660,0 T 640,0 T 620,0 T 600,0 T 580,0 T 560,0 T 540,0 T 520,0 T 500,0 T 480,0 T 460,0 T 440,0 T 420,0 T 400,0 T 380,0 T 360,0 T 340,0 T 320,0 T 300,0 T 280,0 T 260,0 T 240,0 T 220,0 T 200,0 T 180,0 T 160,0 T 140,0 T 120,0 T 100,0 T 80,0 T 60,0 T 40,0 T 20,0 Z"
        fill="url(#paperTexture)" />
  
  <!-- Linhas de dobra horizontais -->
  <line x1="0" y1="25" x2="1000" y2="25" stroke="#c8a882" stroke-width="0.5" opacity="0.4" />
  <line x1="0" y1="50" x2="1000" y2="50" stroke="#c8a882" stroke-width="0.5" opacity="0.3" />
  <line x1="0" y1="75" x2="1000" y2="75" stroke="#c8a882" stroke-width="0.5" opacity="0.4" />
  
  <!-- Manchas aleatórias -->
  <ellipse cx="300" cy="40" rx="40" ry="20" fill="#d4bc87" opacity="0.15" />
  <circle cx="700" cy="60" r="25" fill="#ceb074" opacity="0.1" />
  
  <!-- Rasgos pequenos nas bordas -->
  <path d="M 0,30 Q 5,25 0,20" fill="none" stroke="#b8a068" stroke-width="1" opacity="0.6" />
  <path d="M 1000,70 Q 995,65 1000,60" fill="none" stroke="#b8a068" stroke-width="1" opacity="0.6" />
</svg>