<?xml version="1.0" encoding="UTF-8"?>
<svg id="Layer_2" data-name="Layer 2" xmlns="http://www.w3.org/2000/svg" viewBox="0 0 845.97 1163.4">
  <defs>
    <style>
      .cls-1 {
        fill: #b48f63;
      }
    </style>
  </defs>
  <g id="Layer_1-2" data-name="Layer 1">
    <g>
      <path class="cls-1" d="M14.88,0l1.94,88.59,33.53,18.71-33.53,8.47s-9.71,31.24-6.35,62.82c3.35,31.59,8.65,55.76,8.65,55.76l34.24,34.94h-29.65l-4.94,41.82,6.53,18.88-6.53,10.06s4.24,27,6.35,37.24-.43,26.06-4.59,29.47,4.94,10.76,3,23.12-8.29,63.53-1.24,72.53,43.41,28.06,43.41,28.06l-24.35,5.47-3.53,6-16.06,13.24,2.65,58.24.53,61.41s17.82,28.59,16.94,28.24-13.24,0-13.24,0c0,0-4.76,14.29,2.29,25.94s10.41,20.47,4.59,31.59-13.41,4.59-14.65,11.47-3,19.94,6.35,30l-3,4.94,5.82,21.35-9.53,20.82,1.41,10.06-1.06,9.35,5.47,24.88-2.65,18.71,32.12,18.35-30.88,7.06s-6.88,1.41-6.88,16.06-1.06,48.88-2.82,56.65-6,18-3.35,22.76,27.35,13.24,27.35,13.24l.18,3.71-27,11.12s-7.06,21.35-7.76,39.18c-.71,17.82-1.06,44.65-1.06,44.65l838.35,14.35s4.41-37.94,0-42.71-32.29-32.47-32.29-32.47l29.29,5.12s-7.76-49.94-6.88-57.35c.88-7.41-.35-24.71-.35-24.71l-6.18-11.65,2.12-5.29-3.71-8.47,6.53-5.82-4.06-54.53-51.88-39.53,49.41,8.82,4.06-46.59-10.24-24.88,5.12-16.06-7.24-75.35-14.29-10.94,22.41-14.65s1.76-56.82-7.76-83.12l-40.06-40.24,36.88,11.12s-1.24-57.88-1.24-63.88-3.91-60.82,3.53-90c7.44-29.18-1.41-27.53-1.41-27.53l-40.24-23.82,41.12,4.41-12-72.35,3.53-23.29-3.35-13.24,10.94-1.24s-.71-21.88-5.65-47.65l3.88-43.94-4.76-35.12-10.94-29.65,9.88-12.88.53-29.65,7.76-19.94.27-56.88L14.88,0Z"/>
      <path d="M810.41,25c.64-2.06,6.25-2.34,6.86.14-.44,4.69,1.06,9.25,1.19,13.81.19,6.9-1.58,36.98-5.03,41.1-.78.92-2.78,1.14-3.03,2.15-1.27,5.14.62,16.49.01,22.79-.66,6.88-3.28,15.9-10.01,19.02,0,1.44,5.39,7.03,5.85,10.22.37,2.52-2.17,3.85-1.37,6.2,1.03,3.02,6.4,6.89,8.02,11.07,5.5,14.24,1.68,48.62,2.47,65.53.21,4.46,2.7,9.16.91,13.34-1.57.96-5.33-1.38-4.88,1.62.53,3.57,3.72,9.61,4.72,14.3,1.31,6.15,5.04,28.58,4.34,33.75-1.23,9.17-13.25,1.68-14.04,2.46l6.93,14.49c.02,3.98-6.26,6.58-6.66,10.12-.52,4.64,1.22,17.31,1.85,22.76,2.31,20.15,7.46,40.02,9.96,60.16.06,1.25-.25,2.06-1.07,3-3.42,3.92-26.16-5.08-32.02-4.03l38.45,18.56c.44.91.97,1.88,1.13,2.88.61,3.84-7.1,29.18-8.28,35.85-6.57,37.07-1.41,89.15.67,127.75.23,4.28,3.29,18.71.8,21.21-.85.86-2.94,1.27-4.16,1.19-4.09-.27-17.75-7.15-23.09-8.95-.97-.33-2.83-1.89-3.5-.5,8.99,8.25,21.64,16.25,28.97,26.03,3.82,5.1,4.8,9.94,5.89,16.11,4.35,24.65,4.62,50.92,8.1,75.78-.98,7.15-14.17,9.51-19.95,12.14-.8.36-2.84.21-2.01,1.93.91,1.88,10.39,5.16,12.93,7.08,7.56,5.71-1.61,8.12-1.69,11.7-.12,5.68,3.14,16.58,3.75,23.25,1.2,13.23,1.06,26.72,2.02,39.98.32,4.38,4.01,21.25,1.5,23.52-1.09.99-3.67.82-3.5,1.48,3.07,5.61,7.46,12.77,7.73,19.27.09,2.02-.81,3.77-.79,5.69.17,13.75-.22,27.3-.99,41.01-.2,1.57-1.14,2.87-2.68,3.33-7.91,2.39-30.91-7.77-40.29-7.31l43.26,26.46,2.5,4.77c.41,17.59.3,35.21.19,52.81-.03,4.56,2.92,10.66-3.95,11.95,4.1,4.33,12.21,9.41,2.43,12.46l-.33,1.4,7.9,14.23c-3.03,11.42-1.97,24.11-.99,35.91,1.29,15.5,5.2,30.56,7.03,45.84-1.38,5.7-21.25-5.33-25.03-3.84,9.66,7.5,18.89,15.84,26.55,25.45l-1.65,47.95-4.26-.04-1.5-1.49c-.38-5.47.99-10.31.9-15.92-.38-24.42-3-33.66-21.03-49.96-3.19-2.88-14.44-9.98-15.02-13.05l.1-2.34c5.85-3.63,25.6,6.76,29.43,2.93.76-.76,1.25-2.49,1.41-3.6-1.48-14.35-5.13-28.48-5.93-42.93-.48-8.65,1.13-19.58-.25-27.75-1.2-7.11-7.82-11.98-8.73-18.69l3.96-1.55-7.91-9.14c.54-4.46,4.21-2.15,5.89-2.85,3.25-1.36,4.57-7.93,4.91-11.14.77-7.32-.8-35.14-3.14-41.61-.38-1.04-.69-1.78-1.28-2.72-3.82-6.18-31.48-22.9-39.35-28.65s-16.85-11.89-23.1-18.9c5.77-1.2,11.21,2.75,16.78,4.22,13.24,3.49,27.9,6.94,41.59,6.16,1.79-.61,2.7-6.86,3.14-8.86,4.43-20.26,1.96-40.09-9.25-57.68-.37-3.09,2.4-3.24,3.58-4.94,8.11-11.68-3.16-61.68-3.11-77.61-.78-4.35-5.03-7.92-8.25-10.75-2.9-2.55-10.49-4.63-6.01-9.06,8.55-6.24,21.09-10.24,23.09-21.9,2.22-12.95-3.94-58.45-9.16-70.94-5.72-13.67-31.88-33.04-43.34-44.66-2.4-2.43-8.23-3.88-3.44-8.41,2.15-.61,22.33,8.98,26.41,10.43,10.13,3.62,15.89,7.39,17.01-5.94,3.06-36.25-4.8-75.27-2.07-112.07.72-9.69,4.58-19.36,5.9-29.1.89-6.54,2.93-15.6-1.85-20.87-5.46-6.02-21.84-12.11-29.68-16.32-7.09-3.8-13.84-8.33-21.11-11.84l-1.31-1.82,1.74-3.38c8.24-.69,16.48.74,24.56,2.15,3.62.63,22.86,6.97,23.84,3.03-1.62-16.41-5.93-32.63-7.93-48.95-.94-7.65-2.83-21.65-2.01-28.78.43-3.69,2.82-7.8,2.94-11.13.14-3.98-5.26-15.87-2.11-18.04,3.41-.96,8.77.48,11.14-2.86,5.06-7.15-5.85-39.31-8.79-48.26-.02-3.8,3.28-3.84,4.61-5.91,2.36-3.69,2.07-27.93,2.11-33.89.09-12.94.16-23.6-4.83-36.19-3.36-8.48-5.01-10.1-7.4-19.6-.64-2.54-3.8-6.09-3.76-8.25.05-3.07,5.68-4.4,7.43-6.52,5.65-6.83,2.3-24.99,3.62-33.38,1.03-6.55,6.94-13.83,6.94-23.06V25Z"/>
      <path d="M41.41,106.5c-3.96-5.04-26.16-8.83-27.57-13.91l-1.47-82.63L14.92,1.5c.59,2.13,2.09,4.4,2.44,6.55,1.82,11.27.84,23.68,1.1,34.91.34,14.79-1.43,29.85,2.64,44.27,1.88,3.68,26.49,13.42,32.05,16.98,1.99,1.27,1.91,3.55.63,5.39-8.49,4.09-29.4,4.14-33.88,12.89-1.4,2.73-3.9,11.43-4.42,14.58-3.26,19.81-2.57,71.02,4.45,89.4,3.85,10.07,17.31,21.03,25.46,28.54,2.7,2.49,19.37,15.35,18.96,17.87-4.64,5.8-14.21,1.19-20.46.63-3.34-.3-12.06-1.24-14.77-.79-1.05.17-2.15.52-2.78,1.47-4.18,6.25-3.64,33-1.7,40.58,1.39,5.42,5.78,11.05,7.85,16.21-.28,2.79-9.07,5.38-10.08,14.02-2.08,17.9,12.08,29.1,8.76,48.76-.9,5.32-6.62,11.52-6.83,16.25-.14,3.12,1.78,6.36,2.11,9.94.88,9.73-1.82,24.54-2.09,35.01-.25,9.86-1.61,39.78,4.53,46.56,3.64,4.02,16.43,12.03,21.6,15.4,5.99,3.9,14.99,7.65,20.3,11.69,2.04,1.55,2.36,3.45.7,5.49s-14.11,1.71-18.16,2.83c-2.6.72-13.19,6.46-15.84,8.16-6.54,4.2-9.08,10.31-9.98,18.02-2.08,17.83.89,37.06.94,54.84.06,23.09-5.66,50.15,5.56,70.44,1.99,3.59,10.39,13.38,10.48,15.61.16,4.4-9.26.14-11.43,2.42-9.48,16.39,8.98,26.33,8.4,42.59-.12,3.49-2.44,11.87-4.21,14.84-2.35,3.96-6.07,4.43-8.71,7.29-1.65,1.78-5.71,9.78-5.92,12.09-.8,8.94,11.22,17.56,10.88,23.77-.15,2.76-4.12,2.24-6.07,2.53-1.5,5.89,6.12,12.39,6.05,17.49,0,.7-4.19,11.45-4.89,13.17-1.07,2.62-4.72,7.22-5.01,9.01-.42,2.57,1.82,5.76,1.73,8.7s-2,5.67-1.94,9.04c.13,7.6,4.96,18.1,5.06,27.1.05,5.05-3.58,11.95-1.1,16.02,3.84,6.29,26.67,11.97,34.05,14.95,4.46,1.8,13.31,3.98,12.02,9.48l-22.4,1.11c-7.78,2.88-23.43,2.15-27.1,10.9-4.56,10.9-1.77,31.23-2.52,43.48-.37,6.01-1.41,14.68-2.09,20.89-.93,8.42-8.96,20.39.84,26.4,5.71,3.5,27.17,4.83,29.33,7.92,3.81,5.44-8.32,6.52-11.76,8.12-3.74,1.74-15.2,8.13-18.64,10.36-13.39,8.68-9.03,38.3-9.62,52.38-.28,6.6-.69,19.9-2.28,25.72-.51,1.88-3.54,8.32-5.82,5.15-.41-1.28-.82-2.54-.94-3.9-1.26-14.18.71-42.13,2.02-56.99.77-8.72,2.73-18.87,4.48-27.52,3.48-8.41,21.6-7.64,29.49-10.01l-29.08-7.65c-3.07-4.78,1.74-15.56,2.77-21.15,5.15-27.86,2.28-55.44,6.52-83.48l3.5-3.5,28.29-3.22-28.28-13.94c-3.77-3.13,1.42-18.02,1.37-23.54-.08-8.77-4.9-19.78-4.71-28.18.07-3.26,2.49-6.36,2.42-7.65-.14-2.51-4.1-6.74-2.87-11.06,9.06-2.18,4.62-8.37,6.27-13.91.58-1.95,3.83-2.96,3.64-5.02-1.86-4.15-9.03-18.99-5.85-22.24,1.47-1.51,5,.33,4-1.93-1.59-3.58-8.16-8.86-8.94-13.06-.57-3.06-.41-21.22.88-23.02,2.91-4.08,8.65.5,13.12-3.89,1.98-1.94,6.1-13.13,6-16-.23-7.4-10.11-15.36-11.05-24.03-.45-4.22-.1-20.09,1.5-23.5,2.1-4.47,5.65.37,8.5-.5-3.29-5.69-12.96-13.81-13.93-20.07-.89-5.72.9-10.78.98-15.89.43-27.27.06-55.83-1.05-83.03-.41-10.1-2.94-22.21-2.81-32.03.12-8.78,12.71-6.23,18.82-7.48.66-3.28-4.96-2.07-7.28-3.21-5.14-2.55-.25-6.78,2.78-6.78h25.5c-.55-1.54-3.51-2.7-4.98-3.52-9.64-5.33-32.65-13.6-34.78-25.22-2.74-14.97-2.15-44.05-1.28-59.81.36-6.46,3.18-16.46,3.07-21.99-.06-3.14-2.27-4.71-2.8-7.18-2.5-11.67,7.37-16.55,7.72-24.87.18-4.32-4.83-12.96-6.23-17.63-3.83-12.78-2.28-23.8-.26-36.86l4.58-3.47c.27-2.66-4.44-7.63-5.52-10.47-2.67-6.97-1.61-39.83-.42-48.4.21-1.49.88-4.07,1.85-5.15,3.72-4.16,23.04,2.49,29.06,1.55-6.77-8.87-17.06-14.93-25.01-22.48-1.72-1.63-4.73-4.26-5.84-6.16-2.46-4.24-6.27-24.22-7.02-29.98-3.12-23.9-3.43-54.92.01-78.74.64-4.45,3.02-19.41,6.89-21.11.48-.21,6.15-1.52,6.48-1.52h18.5Z"/>
    </g>
    <path d="M706.76,6.65c2.05,57.86,2.06,116.5,0,174.35-2.06-57.86-2.05-116.5,0-174.35h0Z"/>
    <path d="M335.47,6.65c2.05,44.73,2.07,90.1,0,134.82-2.07-44.73-2.05-90.1,0-134.82h0Z"/>
    <path d="M391.94,6.65c1.2,16.55,1.42,33.84,1.5,50.47-.07,16.64-.29,33.91-1.5,50.47-1.21-16.55-1.43-33.84-1.5-50.47.08-16.64.3-33.91,1.5-50.47h0Z"/>
    <path d="M118.06.43c2.05,49.84,2.06,100.37,0,150.21-2.06-49.84-2.05-100.37,0-150.21h0Z"/>
    <path d="M86.29,0c2.05,39.2,2.07,78.98,0,118.18-2.07-39.2-2.05-78.98,0-118.18h0Z"/>
    <path d="M567.71,522.65c-2.04-83.21-2.05-167.38,0-250.59,2.05,83.21,2.04,167.38,0,250.59h0Z"/>
    <path d="M396.88,1039.35c-2.05-77.31-2.06-155.63,0-232.94,2.06,77.31,2.05,155.63,0,232.94h0Z"/>
    <path d="M292.41,467.59c2.04,85.32,2.05,171.62,0,256.94-2.05-85.32-2.04-171.62,0-256.94h0Z"/>
    <path d="M261.35,442.18c2.05,53.4,2.06,107.54,0,160.94-2.06-53.4-2.05-107.54,0-160.94h0Z"/>
    <path d="M601.59,223.35c2.05,40.27,2.07,81.14,0,121.41-2.07-40.27-2.05-81.14,0-121.41h0Z"/>
    <path d="M619.94,354.65c2.05,82.47,2.06,166,0,248.47-2.06-82.47-2.05-166,0-248.47h0Z"/>
    <path d="M713.12,991.35c-2.01-142.42-2.02-288.17,0-430.59,2.02,142.42,2.01,288.17,0,430.59h0Z"/>
    <path d="M423.75,642.65c-2.05-66.53-2.06-133.94,0-200.47,2.06,66.53,2.05,133.94,0,200.47h0Z"/>
    <path d="M66.53,797.94c-2.05-74.11-2.06-149.19,0-223.3,2.06,74.11,2.05,149.19,0,223.3h0Z"/>
    <path d="M41.35,535.94c1.2,16.13,1.42,32.98,1.5,49.18-.07,16.21-.29,33.04-1.5,49.18-1.21-16.13-1.43-32.97-1.5-49.18.08-16.21.3-33.04,1.5-49.18h0Z"/>
    <path d="M107,253c2.05,60.2,2.06,121.21,0,181.41-2.06-60.2-2.05-121.21,0-181.41h0Z"/>
    <path d="M219.24,17.24c2.05,36.52,2.07,73.6,0,110.12-2.07-36.52-2.05-73.6,0-110.12h0Z"/>
  </g>
</svg>