<?xml version="1.0" encoding="UTF-8"?>
<svg id="Classes" xmlns="http://www.w3.org/2000/svg" viewBox="0 0 2011.02 2000.01">
  <defs>
    <style>
      .cls-1 {
        fill: #fff;
      }
    </style>
  </defs>
  <g id="Rogue">
    <g>
      <path d="m1401.95,1022.6c-15.92,4.4-31.34,9.1-46.99,12.87-15.2,3.66-30.66,4.08-46.06.59-2.42-.55-5.17-.88-7.08-2.26-4.99-3.59-9.84-2.85-14.94-.69-.91.39-1.93.54-2.86.9-21.03,8.11-41.31,4.04-60.99-4.46-28.7-12.4-57.1-25.48-85.74-38.01-13.69-5.99-28.24-8.57-43.12-9.58-5.13-.35-10.19-1.55-15.32-1.9-4.85-.34-9.74-.07-15.03.95,1.35,1.08,2.65,2.24,4.06,3.23,22.03,15.55,44.25,30.84,66.09,46.66,55.28,40.05,109.97,80.92,165.66,120.38,89.52,63.43,179.42,126.35,272.27,184.87,19.83,12.5,40.6,23.52,60.81,35.43,1.97,1.16,3.84,3.61,4.43,5.82,9.16,34.51,18.61,68.95,26.94,103.67,6.16,25.69,11.29,51.66,16,77.66,8.65,47.72,17.16,95.48,24.75,143.38,6.4,40.37,11.54,80.95,16.96,121.47,1.52,11.33,2.09,22.79,3.13,34.58-6.74-.99-13.19-2.55-19.69-2.79-52.94-1.94-103.59-16.53-154.61-28.51-75.28-17.67-150.5-35.53-226.48-49.98-32.99-6.28-65.94-12.71-98.93-18.99-24.16-4.6-48.96-7.04-72.39-14.04-32.54-9.72-65.52-17.34-98.4-25.53-26.41-6.58-53.41-9.02-80.51-10.57-5.93-.34-11.84-1.21-17.74-1.93-2.21-.27-6.82-7.14-5.99-10.02,1.68-5.87-1.56-10.31-3.73-14.9-2.88-6.09-6.77-11.41-6.62-18.88.09-4.5-2.76-9.15-4.67-13.57-9.76-22.57-20.31-44.81-29.34-67.66-20.43-51.69-42.13-102.81-69.17-151.42-14.38-25.85-30.64-50.63-45.57-76.18-20.73-35.47-41-71.2-61.47-106.81-1.22-2.13-2.47-4.25-4.09-7.03-3.35,3.8-6,7.42-9.24,10.39-27.49,25.23-46.49,56.92-66.3,87.86-16.27,25.41-24.46,54.14-30.19,83.54-2.52,12.9-5.05,25.82-6.76,38.84-2.37,18.09-1.98,36.2,2.05,54.13,2.11,9.41,3.62,18.97,6.19,28.25,9.18,33.23,22.94,64.05,43.2,92.47,57.17,80.17,131.94,138.74,218.95,182.97,44.67,22.71,91.98,38.52,139.52,53.7,53.16,16.97,107.55,28.89,162.52,38.09,34.09,5.7,68.26,11.06,102.52,15.67,26.18,3.52,52.55,5.66,78.84,8.37,12.89,1.33,25.97,1.68,38.65,4.11,11.67,2.23,22.9,6.71,34.37,10.09,5.08,1.5,10.25,2.7,16.45,4.31-11.3,2.31-21.51,4.87-31.88,6.4-13.96,2.06-28.01,3.89-42.08,4.79-23.38,1.49-46.83,3.12-70.23,2.98-74.61-.46-149.21-1.95-223.82-2.47-18.59-.13-37.2,1.96-55.8,2.95-6.15.33-12.33.79-18.46.49-37.22-1.83-74.56-2.58-111.62-6.15-46.51-4.48-92.78-11.37-139.16-17.14-15.51-1.93-31.35-2.24-46.52-5.61-57.91-12.85-117.2-19-174.28-35.79-21.04-6.19-41.83-13.3-62.95-19.19-29.59-8.25-57.46-20.86-85.61-32.74-47.58-20.08-92.35-45.23-133.39-76.66-36.26-27.77-65.33-61.58-84.27-103.55-11.6-25.72-15.89-52.8-8.24-79.83,9.47-33.48,31.08-58.12,63.27-72.45,12.09-5.38,24.67-9.66,37.23-14.53-17.24-23.41-28.92-49.77-37.53-77.75-8.67-28.18-16.51-56.55-20.5-85.76-2.13-15.62-2.75-31.47-3.41-47.25-.54-12.97-.13-25.98-.15-38.98-.05-36.69,7.08-72,20.49-106.08,3.71-9.44,7.74-18.75,11.57-28.14,7.73-18.97,19.78-34.64,36.25-46.77,10.18-7.5,20.55-14.76,31.08-21.76,18.55-12.33,39.77-16.55,61.36-18.95,14.52-1.62,29.15-2.23,43.74-3.17,19.47-1.25,37.75,3.64,54.89,12.24,12.59,6.32,24.56,13.92,36.59,21.29,2.56,1.57,4.12,1.3,6.13-.25,10.68-8.23,21.4-16.42,32.06-24.68,6.4-4.96,12.72-10.04,19.45-15.36-2.77-3.04-5.01-5.69-7.45-8.14-24.52-24.7-48.93-49.53-73.7-73.98-10.16-10.03-21.1-19.28-31.82-28.72-1.26-1.11-3.71-2.1-5.09-1.63-15.88,5.46-31.92,10.6-47.41,17.04-28.52,11.86-55.04,27.65-80.76,44.57-23.76,15.62-46.83,32.32-69.79,49.12-10.45,7.65-19.09,17.95-29.99,24.73-11.44,7.11-21.29,15.88-31.29,24.5-33.68,29.02-67.02,58.43-100.33,87.87-6.46,5.71-12.21,12.24-18.3,18.37-1.48,1.49-3.04,2.89-5.79,3.92.39-3.31-.13-7.11,1.32-9.87,11.81-22.52,16.41-47.41,24.06-71.3,8.92-27.88,12.99-57.25,24.97-84.13,18.97-42.54,37.56-85.23,60.78-125.79,36.05-62.97,77.12-122.25,126.27-175.65,14.61-15.87,31.38-29.75,47.17-44.54,1.07-1,2.2-1.94,3.24-2.86-11.15-25.31-28.1-46.67-43.28-69.08-23.81-35.15-48.26-69.86-72.63-104.63-4-5.71-5.68-11.58-5.9-18.54-.72-23.27,9.08-42.37,23.33-59.49,10.17-12.22,25.06-15.72,39.91-18.64,1.79-.35,3.59-.78,5.4-.89,6.57-.39,11.85,1.16,17.54,5.67,14.83,11.77,30.76,22.16,46.3,33.04,51.84,36.28,103.16,73.26,152.32,113.15,7.63,6.19,15.27,12.37,22.96,18.48,4.5,3.58,9.56,6.57,13.58,10.6,5.56,5.57,12.03,3.03,17.9,2.51,20.65-1.86,41.21-4.83,61.86-6.74,38.15-3.54,76.42-4.52,114.72-3.89,41.35.68,82.19,5.91,122.61,14.48,51.98,11.01,102.21,27.95,152.35,45.17,4.81,1.65,6.84.61,9.54-3.23,27.32-38.91,46.61-82.05,66.67-124.85,31.97-68.22,63.8-136.55,97.51-203.92,15.97-31.92,36.12-61.74,54.48-92.45,2.38-3.99,5.45-7.56,8.07-11.42,4.18-6.16,7.86-12.71,12.48-18.51,6.3-7.91,13.1-15.46,20.04-22.83,7.07-7.51,14.93-14.3,21.76-22,7.78-8.78,17.24-15.02,27.21-20.81,15.25-8.85,30.37-17.92,45.52-26.94,21.27-12.66,44.7-18.72,68.85-22.39,20.38-3.1,40.8-5.94,61.23-8.61,6.09-.8,12.29-.75,18.45-.91,10.8-.28,21.62-.09,32.39-.68,21.34-1.17,41.45,4.89,61.85,9.6,31.1,7.18,58.41,22.52,85.87,37.99,79.72,44.9,139.7,108.96,186.81,186.72,26.03,42.96,42.05,88.66,48.96,138.06,4.42,31.58,6.29,63.32,4.46,95.08-2.21,38.22-10.95,75.36-23.73,111.35-20.62,58.06-50.35,111.12-90.33,158.18-6.45,7.59-12.99,15.57-20.98,21.28-13.56,9.7-28.12,18.07-42.59,26.41-26.65,15.36-53.85,29.78-80.2,45.62-12.19,7.33-23.68,16.26-34.1,25.96-8.29,7.72-15.32,17.17-21.41,26.81-10.65,16.86-19.9,34.6-30.16,51.72-18.47,30.8-40.36,58.79-69.7,80.09-17.93,13.02-38.36,20.04-60.16,23.92-15.94,2.84-30.92,1.85-45.7-5.09-21.75-10.23-32.59-31.61-27.34-55.08.25-1.11.45-2.22.69-3.39Zm26.66-67.76c-.31-.27-.61-.53-.92-.8-19.81,26.74-43.09,49.46-74,63.57,6.1.02,12-.03,17.61-1.32,34.21-7.87,61.84-26.02,81.63-55.01,11.91-17.43,22.41-35.83,33.46-53.84,2.15-3.5,4.55-7.05,5.74-10.91,2.73-8.89,4.76-17.99,7.12-26.99.21-.79.76-1.49,1.15-2.24.63.12,1.26.24,1.89.36-1.21,11.28-1.41,22.78-3.8,33.8-9.46,43.65-35.63,76.66-68.77,104.88-6.84,5.82-9.67,20.22-4.17,28.97,13.65-7.52,27.35-15.08,41.06-22.64.29.45.57.89.86,1.34-13.19,8.73-26.38,17.45-39.75,26.29.77.95,1.95,2.55,3.27,4.01,5.59,6.18,5.58,6.12,12.6,1.84,19.85-12.1,37.93-26.48,54.94-42.27.87-.81,1.85-1.49,2.78-2.24-17.39,19.7-36.3,37.54-59.82,50.79,12.29,6.26,24.99,8.05,37.73,6.71,23.55-2.47,44.18-12.95,63.46-26.08,23.61-16.08,38.78-39.42,53.47-63.17,11.19-18.1,22.49-36.14,34.21-53.9,22.16-33.57,51.75-59.11,87.71-76.67,32.75-15.99,63.4-35.26,92.93-56.33,11.86-8.46,22.64-18.63,30.47-31.3,10.14-16.42,19.72-33.21,30.35-49.3,11.96-18.1,20.31-37.74,27.49-58.02,7.2-20.36,14.41-40.72,21.58-61.08.49-1.4.86-2.87,1.13-4.34,5.03-27.58,6.05-55.52,6.79-83.43.49-18.29-.23-36.62-.83-54.91-.69-20.8-2.81-41.47-8.08-61.68-1.93-7.4-4.61-14.6-6.94-21.89-5.67,32.98-34.19,75.24-41.78,83.97.91-1.76,1.96-3.44,2.97-5.14,12.46-20.95,23.68-42.5,30.06-66.18,6.84-25.4,6.64-17.07-3.67-39.55-3.49-7.6-8.11-14.68-12.21-22-.42.12-.83.24-1.25.35.67,11.65-1.63,22.72-5.65,33.54-4.8,12.95-11.43,25.83-16.02,30.08,1.23-2.57,2.3-4.8,3.38-7.04,8.12-16.93,13.4-34.64,16.35-53.24,1.41-8.88-4.04-13.59-7.88-20.2-3.98,6.66-7.54,12.61-11.1,18.56,1.83-6.93,4.46-13.38,6.69-19.96.56-1.65.52-4.22-.41-5.54-12.15-17.29-23.78-34.99-39.27-49.67-5.65-5.36-10.89-11.18-16.07-17.01-4.94-5.56-9.52-11.44-14.32-17.13-6.11-7.25-11.47-15.38-18.57-21.47-14.4-12.33-29.66-23.66-44.82-35.08-2.2-1.66-5.95-2.48-8.69-2.01-16.22,2.78-32.35,6.06-47.46,8.97,13.58-7.45,29.27-11.97,46.22-13.47-3.42-2.53-6.91-5.82-10.58-6.03-10.91-.65-22-.99-32.84.17-26.85,2.88-52.3,11.21-76.9,22.14-9.76,4.34-19.38,9-29.06,13.52,40.21-24.9,82.35-43.78,132.57-41.32-2.29-1.64-3.26-2.46-4.34-3.11-9.57-5.72-18.96-11.78-28.78-17.04-20.7-11.07-41.66-21.64-64.99-26.23-12.55-2.47-25.11-4.95-37.72-7.07-23.61-3.97-47.28-8.7-71.32-5.22-17.86,2.58-35.14,7.83-50.12,18.37-26.37,18.56-49.86,40.51-72.8,63.06-9.04,8.89-17.98,17.89-26.97,26.83,25.02-30.88,51.7-60.11,83.13-84.79-7.38,2.47-14.54,5.13-21.37,8.46-4.38,2.14-8.82,4.71-12.27,8.07-16.08,15.7-31.83,31.75-47.7,47.68-1.61,1.62-3.18,3.28-4.77,4.92,6.66-9.52,13.93-18.41,21.47-27.06,7.42-8.51,15.13-16.78,22.9-25.36-.68-.11-.86-.2-.99-.15-.95.3-1.92.56-2.83.95-39.76,17.26-76.32,39.42-105.43,72.02-8.98,10.05-18.45,20.03-24.58,32.48-15.35,31.17-30.61,62.39-46.67,93.2-10.92,20.94-22.81,41.38-34.85,61.71-10.43,17.6-21.95,34.54-32.5,52.07-16.07,26.73-27.92,55.56-40.72,83.9-18.09,40.04-36.2,79.93-61.86,116.05-19.28,27.14-39.92,52.86-64.46,75.38-5.39,4.95-11.14,9.56-16.15,14.86-19.45,20.58-38.56,41.52-61.13,58.82-14.19,10.87-18.16,26.72-21.66,43.15,16.24-13.54,32.49-27.07,48.73-40.61.28.33.56.67.84,1-16.1,14.7-32.14,29.45-48.35,44.03-2.71,2.43-3.64,4.84-2.42,8.79,4.43-3.13,8.56-6.14,12.78-9.01,4.22-2.88,8.54-5.62,12.81-8.43-6.62,6.51-13.6,12.43-20.49,18.44-7.2,6.29-8.01,7.78-1.3,14.81,9.84,10.31,20.91,19.44,31.49,29.04,2.48,2.25,4.42.6,6.55-.92,24-17.11,48.04-34.17,72.08-51.21,2.66-1.88,5.42-3.62,8.13-5.43.29.43.59.87.88,1.3-26.43,20.04-52.87,40.07-79.68,60.39,2.18,1.07,4.03,1.79,5.7,2.82,4.65,2.88,8.46,2.42,12.98-1.09,6.72-5.21,14.21-9.43,21.38-14.07.28.41.57.82.85,1.23-7.68,5.87-15.36,11.74-23.24,17.77,7.67,2.99,8.39,2.82,12.8-.26,18.69-13.07,37.41-26.09,56.18-39.05,4.32-2.98,8.86-5.64,13.3-8.45.23.34.46.68.68,1.02-23.38,16.41-46.77,32.83-70.92,49.78,2.88.41,4.83.69,6.78.97,8.92,1.29,17.04-2.15,25.38-4.27,2.54-.64,5.33-.82,7.58-2.03,11.39-6.11,22.24-13.4,34.02-18.58,30.3-13.33,60.6-26.53,89.49-42.83,15.49-8.74,31.3-16.95,47.27-24.78,16.74-8.21,34.27-10.96,52.12-3.57,18.72,7.75,29.23,22.15,24.96,42.77-1.89,9.1-3.41,18.48-6.87,27.01-5.16,12.73-11.49,25.06-18.08,37.14-6.13,11.25-11.03,22.92-12.45,35.55-1.18,10.5,2.58,15.61,13.28,12.14,1.27-.41,2.53-.83,3.77-1.31,15.03-5.86,28.67-14.05,40.94-24.51,1.43-1.22,2.89-2.4,4.33-3.6.25.36.49.72.74,1.08-15.26,16.48-32.5,29.9-56.63,35.08,4.59,3.36,8.27,6.07,11.97,8.77,2.84,2.07,5.74,2.17,8.85.5,8.48-4.56,17.04-8.98,25.5-13.58,2.5-1.36,4.77-3.14,7.15-4.72.38.58.76,1.16,1.13,1.74-10.18,6.84-20.36,13.68-30.29,20.35,13.03,6.07,26.09,3.11,39.17-1.71,18.67-6.88,33.37-19.81,48.86-31.56,8.41-6.38,14.47-14.66,18.68-24.29,3.8-8.69,7.38-17.47,11.23-26.13.91-2.04,2.48-3.78,3.75-5.66.31,2.16.63,4.32.93,6.48.05.33.08.66.11.99,1.39,13.18-.88,25.76-8.07,36.85-10.55,16.27-22.86,31.1-38.94,42.39-1.72,1.21-3.63,2.65-4.51,4.44-5.4,11.04-6.18,22.22-.57,33.57,1.69,3.43,3.46,4.84,7.25,3.06,10.53-4.95,21.15-9.71,31.72-14.58,1.35-.62,2.63-1.41,3.94-2.12-10.47,10.18-22.82,16.96-36.71,21.33,7.06,7.69,8.66,7.99,16.83,3.34,2.89-1.65,5.78-3.32,8.55-5.16,7.52-5.01,14.98-10.12,22.46-15.19.35.43.7.86,1.05,1.3-10.18,8.37-20.37,16.74-30.36,24.96,6.8,1.31,13.47,1.88,20.42-2.02,18.97-10.63,36.84-22.72,53.02-37.25,8.01-7.19,15.95-14.46,23.92-21.69Zm-993.25,129.18c1.76-10.97,6.65-20.59,13.17-29.37-4.68-2.68-7.82-1.61-10.5,2.44-11.68,17.6-23.5,35.12-35.24,52.68-.72,1.07-1.22,2.29-1.82,3.44,6.82-22.95,19.47-42.64,34.17-61.54-12.97-3.27-25.17-1.73-37.08.02-22.15,3.24-41.76,12.87-59.69,26.2-15.5,11.53-27.78,26.28-41.01,40.08-1.19,1.24-1.98,3.11-2.37,4.82-3.02,13.08-3.75,26.33-2.47,39.67.87,9.07,2.04,18.11,3.08,27.16-7.28-18.96-10.76-38.43-8.36-59.07-4.9,7.08-8.97,14.38-12.85,21.78-.44.84.14,2.25.34,3.38,4.71,26.49,13.62,51.73,22.81,76.89,1.27,3.49,2.78,6.89,4.17,10.34-14.49-25.58-26.15-52.26-31.79-82.01-3.09,4.27-4.25,7.72-3.16,12.31,3.06,12.84,5.57,25.82,8.29,38.74l-1.25.44c-3.78-11.7-7.56-23.4-11.69-36.17-1.33,5.18-2.6,9.54-3.56,13.97-3.97,18.36-9.35,36.58-11.35,55.16-2.35,21.78-1.88,43.87-2.29,65.84-.11,5.95.54,12.01,1.64,17.88,3.1,16.64,6.43,33.25,10.02,49.8,3.86,17.77,9.17,35.1,19.28,50.46,9.7,14.72,18.93,29.91,32.65,41.42,4.53,3.8,9.42,8.04,14.87,9.75,21.09,6.61,42.54,12.08,63.73,18.39,11.76,3.5,23.77,6.78,34.8,11.98,21.32,10.06,37.7,26.84,53.06,44.12,22.9,25.76,28.78,55.5,16.73,88.27-.63,1.72-1.53,3.44-1.68,5.21-1.57,18.83-10.3,34.92-19.41,50.86-.6,1.05-1.71,1.81-2.58,2.7-.46-.25-.93-.5-1.39-.75,9.64-21.88,12.87-44.52,11.56-68.37-1.31-23.73-3.41-46.76-17.37-68.01-18.38,28.68-22.61,60.1-25.9,91.81-2.92-34.36,1.14-67.11,22.17-95.7-3.2-3.65-6.38-7.28-10.06-11.49-6.95,13.49-13.26,25.75-19.58,38.01,2.59-14.4,8.03-27.63,16.17-40.07-2.48-1.69-4.77-3.05-6.82-4.69-3.25-2.6-5.47-2-7.44,1.6-5.53,10.12-11.2,20.17-16.13,29.02,1.91-11.76,6.43-24.12,15.13-35.76-9.24-3.57-17.92-7.37-26.89-10.29-23.73-7.73-47.48-15.55-73.04-13.92-3.24.21-5.03.94-6.21,4.21-2.23,6.17-5.05,12.13-7.62,18.18-.43-.09-.86-.19-1.29-.28,1.38-6.94,2.75-13.87,4.12-20.8-10.22-.45-11.74-.32-14.77,8.67-4.6,13.66-8.03,27.72-11.76,41.66-.96,3.61-1.18,7.41-1.73,11.12-.93-20.44,1.5-40.24,10.01-59.63-8.33,2.36-16.77,4.53-24.22,8.54-12.56,6.77-24.71,14.35-36.6,22.26-8.94,5.95-16.63,13.48-20.05,24.16-2.83,8.85-6.14,17.69-7.69,26.8-3.68,21.58-3.91,43.02,6.1,63.45,2.25,4.59,3.38,9.72,5.39,14.45,2.39,5.62,4.59,11.45,7.89,16.54,14.97,23.1,31.69,44.9,50.68,64.84,7.2,7.56,14.44,15.57,23.07,21.21,28.28,18.49,57.32,35.84,88.01,50.11,27.56,12.81,54.95,26.39,84.66,33.61,57.67,14.02,115.62,26.91,173.22,41.22,40.23,10,80.4,19.48,121.85,23.29,34.6,3.18,69.02,8.28,103.54,12.34,14.36,1.69,28.77,3.11,43.18,4.27,16.75,1.35,33.52,2.52,50.3,3.32,16.79.8,33.61,1.62,50.4,1.38,15.45-.22,30.89-1.85,46.33-2.79,5.24-.32,8.24-3.63,12.17-7.52-41.76-3.27-126.4-21.12-139.55-29.45,16.98,3.53,33.34,7.36,49.86,10.28,28.95,5.1,58,9.67,87.02,14.38,2.52.41,5.43,1.04,5.79-3.25.33-3.98-1.31-5.14-5.08-5.41-5.53-.39-11.02-1.43-16.53-2.19.03-.23.07-.46.1-.69h19.67c-11.43-10.28-23.84-17.64-37.22-22.59-24-8.89-48.54-16.32-72.72-24.76-21.49-7.5-43.33-14.33-64.02-23.66-24.37-10.98-47.58-24.5-71.46-36.59-17.25-8.74-34.29-17.83-49.56-29.77-37.43-29.26-73.45-59.92-103.81-96.93-23.59-28.75-47.77-56.98-63.52-91.01-5.96-12.89-11.55-26.45-14.02-40.29-2.15-12.07-4.49-24.07-7.36-35.97-4.43-18.44-7.05-37.26-4.43-55.98,3.55-25.33,7.74-50.71,13.94-75.5,10.14-40.51,31.12-76.16,53.66-110.92,7.27-11.21,13.45-23.11,20.13-34.7-.54-.37-1.08-.74-1.62-1.11-8.95,8.38-17.9,16.75-26.84,25.13-11.05,10.36-22.19,20.63-33.08,31.16-2.77,2.68-5.5,5.86-6.99,9.34-9.96,23.29-13.72,48.17-18.04,72.88-2.39,13.66-4.62,27.35-6.92,41.03.4-38.55,4.16-76.56,18.77-113.61-5.03,2.67-9.02,5.1-13.26,6.95-3.37,1.47-5.03,3.72-6.11,7.19-2.94,9.45-6.29,18.78-9.48,28.15-1.12-10.66,2.12-20.4,6.4-30.4-6.62,1.19-11.3,3.25-13.29,9.64-3.79,12.22-8.36,24.21-11.94,36.49-3.05,10.47-5.18,21.21-7.71,31.83.22-24.94,5.48-48.8,14.88-70.76-10.33,0-20.76.07-31.18-.02-9.71-.09-18.67-3.05-25.39-9.96-7.39-7.6-13.99-16.01-20.41-24.47-2.2-2.9-3.48-6.91-4.02-10.59-2.33-15.92-.58-31.2,8.4-45.08,2.8-4.33,5.29-8.87,8.19-13.13,10.65-15.64,19.36-32.24,24.5-50.51,2.3-8.18,3.9-16.56,5.82-24.84-.63-.35-1.27-.7-1.9-1.05-32.45,15.93-53.86,43.14-72.91,72.79,14.82-35.52,37.87-63.28,74.61-79.68-.33-4.47-.26-10-1.22-15.35-2.03-11.33-4.53-22.69-12.84-31.39-16.15-16.91-35.8-28.45-57.46-36.86-3.21-1.25-4.71-.41-6.37,2.33-5.06,8.37-10.38,16.59-15.59,24.87Zm31.72-214.83c.13,2.69.08,4.58.32,6.43,2.76,21.09,13.67,38.45,27.61,53.3,23.12,24.63,47.15,48.48,71.81,71.57,20.08,18.8,39.62,37.88,57.39,58.99,25.7,30.53,48.86,62.85,70.97,95.92,13.95,20.86,25.99,43,38.83,64.59,19.48,32.74,38.81,65.57,58.38,98.25,25.3,42.25,50.78,84.4,76.16,126.6,20.19,33.57,32.46,70.64,46.79,106.77,10.89,27.46,23.36,54.04,39.95,78.55,1.47,2.17,3.21,4.33,5.29,5.87,10.86,8.01,32.42,7.52,45.67-.89-17.06-28.95-34.14-57.92-51.21-86.9.44-.27.87-.54,1.31-.82,18.45,28.43,36.9,56.87,55.81,86.01,34.2-26.34,69.02-53.04,103.69-79.92,8.91-6.91,17.38-14.37,26.08-21.61-12.41-15.02-24.36-29.5-36.31-43.97.41-.34.82-.69,1.23-1.03,12.41,14.09,24.81,28.19,37.43,42.52,1.86-1.59,3.86-3.3,5.64-4.82-29.58-36.16-59-72.13-88.42-108.09.43-.37.86-.74,1.3-1.12,30.4,35.03,60.79,70.05,91.47,105.41,4.3-3.79,8.95-7.9,13.33-11.76-71.56-86.78-145.19-170.71-221.32-252.45,81.99,76.51,152.89,163.08,224.85,248.33,35.94-31,71.23-61.44,106.46-91.82-42.39-43.07-84.97-86.32-127.54-129.57.32-.32.64-.64.97-.96,44.64,41.26,87.63,84.21,130.23,129.47,3.86-6.46,8.2-11.62,10.21-17.56,3.64-10.75,5.75-21.58-2.03-32.29-13.84-19.04-28.04-37.68-45.51-53.59-10.96-9.98-22.3-19.56-33.01-29.79-11.42-10.9-21.65-23.12-33.55-33.44-45.82-39.69-92.2-78.73-138.2-118.22-55.6-47.74-110.8-95.94-166.58-143.46-37.26-31.75-75.43-62.44-112.84-94.02-41.35-34.92-82.4-70.2-123.33-105.61-6.92-5.99-14.15-10.11-23.23-11.26-5.28-.67-10.48-2.04-15.72-3.09-.12.36-.23.72-.35,1.09,22.97,23.73,45.95,47.47,68.92,71.2-.37.37-.74.74-1.11,1.1-24.85-23.63-49.72-47.25-74.54-70.92-4.67-4.46-16.91-5.95-22.7-2.6,20.27,22.78,40.56,45.57,60.85,68.36-.31.28-.62.57-.93.85-1.2-1.13-2.44-2.21-3.58-3.4-20.06-20.9-40.1-41.83-60.19-62.7-1.07-1.12-2.83-2.78-3.87-2.53-8.33,1.99-17.51,2.43-23.89,9-13.79,14.19-27.43,28.55-40.67,43.25-6.4,7.1-11.75,15.14-17.04,22.06,44.05,43.26,87.3,85.72,130.55,128.19-.42.44-.85.87-1.27,1.31-44.34-40.88-90.03-80.33-130.9-125.82-1.3,2.41-2.43,4.5-3.19,5.91,14.93,16.21,29.4,31.92,43.87,47.62-.53.52-1.05,1.04-1.58,1.56-14.92-14.33-29.83-28.65-44.75-42.98-.4.14-.79.28-1.19.41.73,1.7,1.06,3.76,2.24,5.05,9.56,10.44,19.28,20.72,28.92,31.08.7.75,1.16,1.72,1.73,2.58-.37.35-.74.69-1.11,1.04-11.27-10.17-22.55-20.35-34.61-31.24Zm803.12,863.68c.44-.29.88-.59,1.32-.88,4.98,6,9.8,12.15,15.04,17.91,1.69,1.86,4.37,3.3,6.83,3.86,6.47,1.48,13.12,2.15,19.62,3.53,15.25,3.25,30.4,6.91,45.67,10.05,11.06,2.28,22.27,3.81,33.36,5.97,66.04,12.84,130.95,31.39,198.04,38.86,6.78.75,13.61,1.05,21.4,1.63-6.87-8.54-12.91-16.03-18.94-23.53.34-.28.68-.56,1.02-.84,6.12,6.54,12.27,13.06,18.36,19.63,4.06,4.37,4.77,4.46,10.32.53-17.74-21.47-35.47-42.93-53.19-64.39,2.14.72,3.36,2.29,4.69,3.76,17.03,18.71,34.14,37.34,51.02,56.19,2.42,2.7,3.99,3.22,6.89,1.01,5.61-4.28,8.85-9.69,7.72-16.76-.7-4.37-2.3-8.65-3.86-12.83-7.66-20.5-20.71-37.76-35.05-53.68-32.73-36.37-62.32-75.1-89.01-115.99-9.12-13.98-18.38-27.62-29.56-40.03-17.27-19.16-34.79-38.14-51.18-58.03-18.89-22.93-38.24-45.25-62.58-62.62-10-7.14-20.11-14.24-30.79-20.27-13.6-7.69-27.46-5.15-40.13,2.65-8.47,5.21-16.1,11.81-24.05,17.86-4.73,3.6-9.36,7.34-14.12,11.08,10.33,13.74,20.3,27.01,30.27,40.28-.37.3-.75.59-1.12.89-11.1-12.35-22.21-24.7-33.52-37.28-2.17,1.63-4.27,3.19-6.46,4.83,5.83,8.71,11.48,17.16,17.14,25.61-.39.31-.79.61-1.18.92-7.01-7.64-14.02-15.28-21.11-23-3.25,2.29-6.31,4.45-9.33,6.58,24.75,34.68,49.15,68.88,73.56,103.08-.52.38-1.03.76-1.55,1.14-25.71-33.44-51.41-66.88-77.68-101.05-14.19,12.43-28.7,24.43-42.38,37.29-25.13,23.62-50.38,47.05-77.96,67.86-8.19,6.18-16,12.88-24.05,19.4,9.32,13.14,18.38,25.93,27.44,38.71-.37.3-.75.6-1.12.9-10.35-11.87-20.7-23.74-31.28-35.88-1.98,1.53-4.01,3.09-5.45,4.21,13.19,17.39,26,34.28,38.81,51.17l-.98.83c-14.07-16.03-28.14-32.07-42.33-48.23-.9.67-1.57,1.14-2.21,1.65-17.96,14.28-31.32,32.58-44.32,51.16-.84,1.2-.73,3.81,0,5.21,1.2,2.3,3.15,4.27,5.01,6.16,8.85,9,19.84,14.52,31.53,18.61,15.37,5.38,30.94,10.19,46.33,15.51,8.94,3.09,17.45,7.83,26.6,9.89,33.53,7.58,67.21,14.46,100.89,21.37,8.22,1.69,16.62,2.49,26.03,3.85-17.08-26.74-33.5-52.45-49.92-78.15,2.35,1.46,4.07,3.39,5.54,5.49,16.2,23.2,32.33,46.45,48.58,69.62,1.25,1.78,3.09,3.86,5,4.31,4.64,1.07,9.48,1.25,15.04,1.88-4.47-6.89-8.57-13.18-12.66-19.48Zm197.41-370.01c-13.85-14.88-27.2-29.21-40.54-43.54,13.45,11.08,26.31,22.67,38.73,34.72,5.51,5.34,10.64,8.49,19.1,7.32,11.48-1.59,23.25-1.02,34.9-1.31,7.47-.18,14.97.05,22.41-.53,2.48-.19,5.58-1.78,6.91-3.74.68-1-1.55-4.49-3.04-6.41-11.27-14.45-26.54-24-41.51-34.02-32.76-21.95-64.85-44.83-98.92-64.9-23.46-13.82-45.15-30.65-67.47-46.36-26.54-18.68-53.84-36.44-79.14-56.68-53.34-42.67-107.21-84.59-163.71-122.97-19.31-13.12-38.21-26.88-58.74-38.38-16.89-9.46-32.12-22-47.64-33.76-23.6-17.89-47.57-35.41-70.05-54.65-42.76-36.6-84.4-74.55-130.39-107.15-14.49-10.27-29.88-19.3-45.18-28.34-5.14-3.04-11.3-4.35-16.99-6.45-.12.31-.24.61-.36.92,18.55,16.47,37.09,32.94,55.64,49.4-.32.4-.63.8-.95,1.2-1.75-1.37-3.52-2.72-5.25-4.1-20.06-15.98-40-32.12-60.29-47.8-4.21-3.26-9.72-4.83-14.64-7.17-.18.41-.36.82-.54,1.23,6.65,4.93,13.43,9.69,19.92,14.82,6.66,5.26,13.12,10.78,19.5,16.38,6.09,5.35,11.96,10.95,17.93,16.45-2.97-.9-5.15-2.67-7.4-4.35-14.56-10.83-29.02-21.8-43.76-32.39-6.61-4.74-13.27-10.66-20.8-12.62-17.32-4.51-34.58-2.42-51.32,6.69,1.57,2.47,2.7,5.12,4.57,7.04,8.13,8.34,16.16,16.82,24.84,24.56,8.8,7.85,18.4,14.79,27.51,22.31,31.96,26.4,63.74,53.02,95.81,79.29,42.38,34.72,84.94,69.21,127.46,103.76,23.14,18.8,47.09,36.83,66.89,59.21,11.95,13.51,25.43,24.75,39.86,35.18,1.35.98,2.69,1.97,3.95,3.06,37.45,32.54,75.17,64.78,112.25,97.74,25.26,22.45,49.81,45.7,74.35,68.94,32.27,30.56,66.09,59.54,95.58,92.96,1.08,1.22,2.43,2.44,3.9,3.03,11.56,4.62,22.86,10.4,34.85,13.28,18.35,4.42,37.24,4.27,56.07,2.06,5.01-.59,10.16-.09,15.24-.09.27-.66.54-1.33.82-1.99l-130.35-123.78c.67.96,1.74,1.59,2.69,2.37,12.99,10.69,26.52,20.78,38.82,32.22,30.1,28,59.84,56.41,89.22,85.17,6.01,5.88,11.91,5.7,19.49,4.84-6.37-7.39-12.32-14.29-18.27-21.19,7.5,5.73,14.21,12.15,21.07,18.41,1.22,1.12,3.14,2.21,4.67,2.13,7.12-.4,14.21-1.23,22.32-2ZM112.12,1056.4c5.59,1.82,8.11.27,10.48-3.35,10.65-16.28,21.46-32.47,32.51-48.49,6.71-9.73,14.54-18.71,20.85-28.67,25.26-39.87,59.99-71.22,93.49-103.53,18.54-17.88,39.4-33.33,58.84-50.3,60.46-52.8,128.58-93.33,201.39-126.41,25.44-11.56,51.03-22.64,78.12-29.99,24.49-6.65,49.33-11.59,74.62-12.6,28.59-1.15,57.24-.44,85.87-.81,34.98-.46,69.89.63,104.62,4.94,27.86,3.46,55.65,7.45,83.44,11.39,7.2,1.02,15.31-2.82,19.17-10.69-25.8-5.74-51.31-11.42-76.82-17.1,26.51,1.52,52.31,6.8,77.64,14.77.78-6.83-.96-9.68-6.73-11.12-11.3-2.82-22.62-5.53-33.94-8.26-2.43-.59-4.87-1.11-7.3-1.66-2.27-.51-4.53-1.01-6.8-1.51,15.93-1.53,31,2.35,46.3,5.69-4.74-4.38-9.1-9.3-15.82-10.49-15.23-2.7-30.45-5.45-45.74-7.8-11.74-1.8-23.57-3.02-35.36-4.5.05-.54.11-1.08.16-1.62,22.31,1.94,44.61,3.89,66.92,5.83-11.52-3.36-23.21-6.42-35.03-8.89-18.54-3.88-37.26-6.98-55.73-11.17-9.5-2.16-18.44-7.61-27.97-8.74-26.89-3.19-53.92-6.11-80.96-6.92-32.91-.99-65.88.13-98.83.62-30.03.45-59.52,5.78-89.13,10.13-44.06,6.46-85.76,21.4-127.62,35.45-21.99,7.38-41.14,20.94-58.14,37.06-15.7,14.9-31.94,29.26-47.15,44.64-14.73,14.89-30.16,29.56-42.28,46.47-29.08,40.59-56.3,82.51-84.47,123.76-7.75,11.34-17.34,21.28-23.17,34.1-12.95,28.47-26.99,56.44-39.95,84.91-6.53,14.35-11.72,29.3-17.34,44.05-.74,1.93-.42,4.26-.6,6.41.47.08.94.16,1.41.24,8.39-24.44,25.13-43.38,40.71-63.08-13.13,22.27-26.26,44.54-39.65,67.26Zm1276.01,345.25c.26,11.83,1.97,22.3,7.17,31.64,8.9,15.98,18.17,31.75,30.21,45.76,18.56,21.58,35.97,44.17,55.06,65.25,25.72,28.39,51.21,56.93,74.42,87.42,7.86,10.32,14.74,21.39,22.78,31.55,21.18,26.75,41.88,53.94,66.58,77.69,9.03,8.68,18.51,16.84,30.38,21.48,7.76,3.04,14.04-1.12,14.62-9.35.12-1.66.69-3.35.48-4.96-1.86-14.13-3.83-28.25-5.87-42.36-.15-1.06-1.08-2.05-1.75-3-19.08-27.28-38.18-54.55-57.26-81.84-.58-.83-.99-1.79-1.49-2.68.37-.25.73-.5,1.1-.75,18.36,23.71,36.73,47.42,55.04,71.05-1.04-5.57-1.81-11.35-3.27-16.95-.98-3.77-2.39-7.65-4.54-10.86-8.76-13.17-17.89-26.09-26.86-39.12-.86-1.25-1.51-2.63-2.26-3.95.25-.15.49-.3.74-.45,8.92,10.96,17.84,21.91,26.76,32.87.45-1.76.3-3.07-.03-4.34-7.21-27.6-8.36-55.83-9.52-84.16-.71-17.42-2.78-34.89-5.65-52.09-1.57-9.39-2.74-19.09-9.31-27.46-23.34-29.73-46-59.99-68.91-90.06-4.01-5.26-10.36-6.91-16.55-4.4,12.97,17.9,25.98,35.86,38.99,53.82-1.54.06-2.31-.52-2.9-1.25-13.56-16.66-27.06-33.36-40.68-49.97-1.39-1.7-3.3-3.68-5.26-4.07-4.28-.86-8.74-.78-13.95-1.14,9,13.26,17.54,25.84,26.09,38.42-.39.29-.78.57-1.16.86-9.72-12.01-19.57-23.92-29.05-36.12-2.1-2.7-4.16-3.93-7.42-3.88-8.99.16-17.99.32-26.98.26-24.35-.16-48.59,1.13-72.61,5.3-11.73,2.04-23.45,4.18-35.06,6.26,15.55,22.39,30.91,44.49,46.27,66.6-.45.33-.91.65-1.36.98-15.41-20.34-30.82-40.69-46.98-62.03ZM358.03,876.73c-.27.25.13-.24.64-.58,32.56-21.91,66.77-40.73,103.29-55.27,3.71-1.48,7.3-4.03,10.08-6.92,27.2-28.37,53.96-57.16,81.43-85.26,8.93-9.13,19.44-15.97,33.93-12.12,10.27,2.72,20.66,2.62,31.02-2.17,8.68-4.01,18.27-6.07,27.46-8.99.14.37.27.73.41,1.1-10.31,4.62-20.62,9.24-31.67,14.2,6.11,2.07,10.96,2.31,16.4.34,15.02-5.44,30.28-10.2,45.45-15.2.97-.32,2.03-.35,3.04-.51.09.28.18.57.27.85-14.38,6.16-28.75,12.33-43.13,18.49,11.48,2.9,22.9,4.98,34.4,6.27,16.52,1.85,33.11,3.18,49.68,4.6,2.08.18,4.31-.17,6.33-.76,14.84-4.35,29.58-9.06,44.48-13.2,11.66-3.24,23.5-5.83,35.26-8.71.13.45.26.89.39,1.34-22.61,7.32-45.22,14.64-67.84,21.96.14.51.27,1.02.41,1.54,25.01-3.82,48.89-12.79,74.07-16.37-13.05,4.45-26.09,8.89-39.14,13.34.04.62.08,1.24.13,1.85,6.68.08,13.44.85,20.02.08,8.73-1.02,17.31-3.3,25.97-4.93,34.81-6.54,69.65-12.9,104.4-19.71,5.76-1.13,11.21-4,16.69-6.34,1.55-.66,2.7-2.27,4.03-3.44-.22-.45-.43-.9-.65-1.35-24.51,1.52-49.02,3.04-73.53,4.56-.04-.56-.07-1.11-.11-1.67,25.16-6.61,50.83-8.17,77.06-6.68.28-2.08.51-3.79.93-6.82h-38.94c-.02-.78-.04-1.56-.06-2.34,9.92-.76,19.84-1.53,30.33-2.33-2.06-.85-3.64-1.7-5.32-2.16-14.4-3.91-28.66-7.6-43.91-7.87-17.6-.31-35.13-3.32-52.74-4.37-46.7-2.76-93.42-4.56-140.15.03-17.89,1.76-35.99,1.94-53.71,4.67-38.55,5.96-75.15,18.97-110.62,34.75-53.71,23.9-104.19,53.62-151.26,88.83-44.55,33.33-86.05,70.33-127.01,107.93-3.55,3.26-6.91,6.75-10.25,10.23-41.21,42.9-77.15,89.93-109.75,139.6-3.42,5.2-7.39,10.04-11.1,15.05.17.16.34.31.5.47,8.37-8.17,16.74-16.35,25.11-24.52.47,1.09.32,1.57.02,1.9-12.18,13.67-24.47,27.25-36.52,41.05-3.35,3.84-5.99,8.31-8.96,12.49,5.3.63,9.22-.04,11.83-3.91,13.14-19.5,29.91-35.68,47.24-51.33,2.99-2.69,6.08-5.27,9.12-7.9l.28.38c-16.75,18.31-33.5,36.61-50.25,54.92l.95.99c.65-.39,1.34-.71,1.93-1.17,16.12-12.35,32.38-24.52,48.28-37.15,11.41-9.07,21.72-19.32,32.03-29.68,11.55-11.61,25.21-21.15,38.11-31.38,21.94-17.41,44.78-33.52,69.52-46.72,25.97-13.86,52.25-27.14,78.22-41,10.36-5.53,21.35-10.48,27.61-20.74-1.82-3.44-3.56-6.72-5.55-10.48-9.37,4.85-19.37,9.76-29.12,15.14-9.57,5.28-18.88,11.04-28.3,16.6,13.25-12.5,33.73-25.54,58.87-37.24,8.61-4.01,12.1-12.36,18.58-18.1-.27-.33-.55-.66-.82-.99-9.69,4.93-19.38,9.87-29.07,14.8-.23-.42-.47-.85-.7-1.27,9.49-5.78,18.44-12.91,28.61-17,12.78-5.13,19.27-16.13,28.52-24.54-.23-.35-.46-.7-.7-1.05-34.36,17.4-68.72,34.8-102.48,51.89Zm98.18-358.23c-6.64-4.35-12.11-8.11-17.78-11.53-1.18-.71-3.29-.67-4.65-.14-21.29,8.28-42.12,17.51-61.06,30.5-1.74,1.19-3.43,2.45-5.15,3.67,2.59-3.5,5.75-6.15,9-8.69,16.36-12.78,34.58-22.22,54.74-29.78-2.05-1.38-3.33-2.32-4.68-3.15-20.82-12.88-41.28-26.23-60.16-41.94-10.47-8.72-21.6-16.66-32.65-24.66-1.66-1.2-4.96-1.76-6.71-.93-10.51,4.93-20.86,10.24-31.12,15.68-3.57,1.89-6.75,4.54-10.1,6.84,10.75-11.85,22.97-21.61,38.22-27.34-13.32-6.04-26.2-11.42-41.07-8.84-30.64,5.31-47.56,36.29-34.85,64.45,1.57,3.49,2.78,7.18,4.7,10.46,4.66,7.93,9.64,15.66,14.74,23.87,13.36-17.28,44.92-38.86,57.02-39.24-1.58.91-2.85,1.64-4.12,2.37-16.43,9.46-31.2,21-43.88,35.11-5.08,5.66-4.91,5.81.59,11.54,9.46-9.87,19.79-17.19,22.93-17.54-5.7,6.45-12.53,14.17-19.64,22.2.89,1.17,2.23,2.93,3.17,4.17,7.07-6.03,13.76-11.74,20.46-17.45-4.34,7.46-9.43,13.98-14.28,20.69-.9,1.24-1.63,3.66-1.03,4.76,2.76,5.01,6.02,9.74,8.85,14.18,6.7-5.64,12.93-10.9,19.16-16.15-4.25,6.63-8.97,12.62-13.76,18.54-1.93,2.38-1.95,4.57-.39,7.26,4.58,7.92,8.6,16.18,13.45,23.93,5.43,8.66,11.53,16.9,17.17,25.09,4.67-4.16,8.56-7.62,12.45-11.09-1.51,4.46-3.59,8.36-6.04,12.01-2.15,3.2-1.61,5.47.91,6.94,8.46-7.39,16.74-14.61,25.01-21.83-5.8,8.22-12.09,15.71-18.09,23.43-.99,1.27-1.59,4-.89,5.21,3.56,6.24,13.34,10.02,20.06,7.31,10.01-4.03,19.78-8.67,29.55-13.25,9.62-4.51,18.96-9.66,28.72-13.83,20.92-8.93,42.42-16.6,62.94-26.35,15.09-7.17,17.58-18.29,8.62-30.39-5.28-7.13-12.41-12.87-18.51-19.43-4.6-4.94-9.65-5.28-15.74-3.12-11.37,4.02-22.9,7.57-34.7,11.43,11.78-8.24,24.85-12.96,38.45-16.86-3.27-4.16-6.67-4.63-10.91-2.87-11.97,4.96-24.06,9.65-36.05,14.54-2.5,1.02-4.82,2.49-7.22,3.76,12.59-11.11,27.08-18.57,44.32-23.53Zm771.71,293.93c-8.51-10.55-19.87-15.12-33.15-14.62-12.24.46-23.2,5.56-33.82,11.21-21.12,11.24-42.13,22.68-63.29,33.85-23.97,12.65-48.03,25.14-72.09,37.61-9.6,4.98-19.46,9.47-28.95,14.65-11.49,6.26-13.52,17.13-5.16,27.06,3.52,4.18,7.76,7.76,11.56,11.71,2.47,2.57,5.02,3.15,8.47,1.82,4.63-1.79,9.46-3.03,14.21-4.51.1.29.19.58.29.87-5.51,2.16-11.03,4.32-16.58,6.49,5.46,7.15,6.39,7.45,14.08,4.66,4.38-1.59,8.71-3.36,13.17-4.68,12.06-3.57,24.18-6.94,36.28-10.4l.43,1.43c-16.61,6.3-33.21,12.61-50.98,19.35,5.47,2.27,8.39,6.6,14.2,4.67,31.02-10.32,62.84-17.38,95.14-22.28,10.96-1.67,21.96-3.1,32.95-4.65-41.76,10.33-84.22,17.39-126.19,30.6,2.13.86,3.32,1.34,4.52,1.82,17.04,6.82,35.16,7.13,53,7.74,13.57.46,26.5,2.66,38.82,7.87,21.9,9.25,43.53,19.15,65.35,28.59,13.42,5.81,26.87,11.61,40.54,16.78,9.8,3.71,15.76.97,20.34-8.44,4.36-8.97,3.36-17.53-3.39-24.99-1.32-1.46-3.71-2.34-5.74-2.7-8.13-1.43-16.31-2.6-24.49-3.74-3.19-.44-6.48-1.01-9.64-.68-9.98,1.05-19.92,2.5-29.87,3.8-.04-.31-.08-.62-.13-.92,9.55-2.31,19.1-4.61,29.51-7.12-1.56-1.39-2.19-1.92-2.78-2.48-5.13-4.9-10.68-9.45-15.27-14.81-5.47-6.39-7.36-14.54-7.78-22.75-.79-15.32,6.51-28.25,13.05-41.35,5.42-10.85,10.88-21.69,16.25-32.57,1.06-2.14,1.82-4.42,2.72-6.64-.38-.4-.77-.8-1.15-1.19-37.08,18.25-74.15,36.5-107.31,52.82,30.14-21.86,67.35-40.02,105.17-57.03,6.31-2.84,9.86-9.37,8.57-16.94-16.27,7.08-32.53,14.14-49.57,21.55.87-.99,1.1-1.45,1.46-1.64,15.31-8.04,30.53-16.26,46.03-23.92,3.52-1.74,4.98-3.31,4.06-7.01-.34-1.38-.49-2.82-.82-4.82-17.96,7.1-35.5,14.04-53.04,20.98l-.58-1.25c17.11-7.88,34.22-15.76,51.64-23.79Zm-561.04,352.52c-17.9,33.09-35.6,65.8-53.29,98.51,3.9-11.16,7.07-22.83,12.47-33.37,11.52-22.49,24.21-44.38,36.38-66.54,1.09-1.99,3.14-4.52,2.63-6.14-1.78-5.66-4.48-11.04-6.82-16.52l-1.82.3c-10.21,18.77-20.42,37.55-30.62,56.32-.02-1.86.37-3.59.92-5.27,5.83-18.01,14.27-34.77,24.3-50.77,3.56-5.68,3.49-6.09-1.97-10-6.48,9.83-12.97,19.67-19.45,29.51l-1.8-1.09c5.15-8.84,10.04-17.84,15.52-26.48,4.18-6.6,4.27-7.7-2.69-12.64-6.19,9.87-12.37,19.71-19.18,30.56,3.14-13.71,8.99-24.93,16.51-35.7-4.98-6.14-9.21-12.7-14.73-17.86-7.98-7.46-16.55-14.42-25.54-20.63-7.14-4.94-15.15-8.68-23.01-12.46-3.85-1.85-7.25-.34-9.88,3.35-8.77,12.28-14.37,26.03-17.06,40.64-1.47,7.97-1.06,16.63.28,24.69,2.52,15.16,1.5,29.81-3.02,44.34-6.18,19.89-13.86,39.11-23.75,57.52-5.83,10.85-8.84,22.64-5.53,35.18,3.27,12.43,9.98,21.9,22.6,26.78,2.52-3.84,4.95-7.55,7.38-11.26.25.16.49.32.74.48-1.45,3.95-2.9,7.9-4.35,11.86.53.37,1.05.74,1.58,1.11,1.18-1.27,2.7-2.36,3.48-3.84,7.18-13.71,14.18-27.52,21.35-41.24,1.85-3.54,4.08-6.89,6.13-10.32.24.14.48.29.72.43-8.06,18-16.12,36-24.29,54.26,6.79,1.61,12.72-.03,18.77-2.03,17.26-5.71,32.45-15.3,47.53-25.06,6.69-4.33,13.27-8.9,19.48-13.88,15.18-12.17,30.14-24.61,45.1-37.03,1.42-1.18,3.13-2.99,3.24-4.6.5-7.16.2-14.21-3.33-20.89-5.03-9.53-9.6-19.31-14.98-30.22Zm268.09-437.91c-51.06,8.68-100.94,17.56-149.19,33.55-.17.6-.35,1.21-.52,1.81,18.51,14.22,37.02,28.44,55.27,42.47,33.7-23.08,65.59-47.76,94.44-77.83Zm713,753.88c-3.57-14.13-6.58-28.43-10.85-42.34-6.02-19.58-15.32-36.88-36.86-43.59-1.09-.34-2.02-1.18-3.11-1.55-5.05-1.73-10.13-3.37-15.48-5.14,22.41,31.3,44.33,61.92,66.3,92.62Z"/>
      <path d="m1773,1788.88c1.49-3.46,2.74-7.05,4.52-10.35,9.18-17.04,13.14-35.45,14.2-54.54,1.2-21.58-6.63-40.86-16.65-59.27-6.52-11.97-14.19-23.31-21.24-34.99-10.32-17.11-14.85-36.21-18.78-55.5-3.41-16.76-3.96-33.7-2.99-50.68.99-17.44,5.88-33.71,16.5-47.89,5.58-7.45,11.14-14.94,17.11-22.07,2.28-2.72,5.78-4.39,8.51-6.78,1.17-1.02,2.68-2.78,2.53-4.01-3.75-29.98,8.53-54.93,24.53-78.68,3.34-4.96,7.32-9.48,10.98-14.22,17.64-22.92,43.66-25.06,66.3-13.91,19.88,9.79,33.5,26.27,43.54,45.84,10.12,19.72,14.77,40.98,16.79,62.72,1.49,16.03,1.87,32.25,1.46,48.36-.65,25.94-6.87,51.02-14.38,75.72-10.02,32.94-23.64,64.51-42.8,93.02-24.61,36.61-50.98,72.07-81.59,104.03-8.36,8.72-18.19,16.04-27.34,24-.4-.27-.79-.53-1.19-.79Zm67.54-99.8c7-8.44,14.01-15.24,17.57-24.74,3.45-9.2,7.37-18.22,11.09-27.32.32.11.64.22.96.33-1.88,6.64-3.75,13.28-5.63,19.92.39.19.79.38,1.18.56,4.31-8.47,9.79-16.57,12.62-25.51,3.65-11.5,5.61-23.6,7.51-35.57,1.76-11.1,2.47-22.37,3.46-31.8v46.55c1.58-4.01,3.25-8.08,4.8-12.19,3.69-9.79,7.16-19.67,11.04-29.39,1.77-4.45,5.16-8.37,6.33-12.92,11.49-44.91,14.97-89.97.51-134.96-2.81-8.76-6.82-17.13-10.28-25.68-.43.17-.87.34-1.3.52,1.03,4.68,2.21,9.33,3.04,14.04.81,4.57,1.41,9.2,1.82,13.83.43,4.8.62,9.63.74,14.46.12,4.57.03,9.14.03,13.72-.52-.03-1.04-.06-1.56-.1-.51-6.46-.8-12.95-1.58-19.38-1.95-16.08-5.24-31.85-11.8-46.76-3.19-7.24-8.97-11.38-16.77-14.03.66,4.11,1.18,7.42,1.8,11.3-5.25-4.18-3.66-14.29-13.45-13.06,6.27,15.15,8.7,28.88,6.49,37.32-.5-2.86-.63-5.41-1.42-7.73-2.91-8.44-5.51-17.05-9.28-25.11-2.6-5.57-4.92-5.62-9.77-1.8-14.37,11.32-22.47,26.3-25.7,44.2-2.04,11.34,1.26,21.79,4.75,32.21.99,2.97,2.69,6.02,4.89,8.21,7.91,7.86,13.31,16.96,15.5,27.93,2.88,14.39,2.43,28.87.37,43.23-2.9,20.22-10.33,39.19-17.45,58.19-.35.94-1.17,1.7-1.78,2.54l-1.15-.39c.2-1.29.34-2.6.62-3.88,2.17-9.92,4.39-19.82,6.52-29.74.24-1.09.13-2.28.05-3.42-.38-4.77-1.01-9.52-1.18-14.29-.42-11.48-.36-22.98-1.02-34.44-.4-6.83-2.99-13.03-8.84-18.71-.56,6.98-1.04,12.92-1.52,18.85-1.23-1.72-1.45-3.47-1.65-5.23-.6-5.28-1.16-10.57-1.79-15.85-.46-3.89-2.87-5.17-6.65-4.96v12.8c-1.3-2.25-1.92-4.61-2.49-6.97-1.81-7.51-5.33-9.06-12.36-5.32-1.31.7-2.53,1.64-3.59,2.68-7,6.75-13.07,14.05-16.51,23.45-3.06,8.36-5.17,17.33-12.08,23.8-.56.52-.82,1.45-1.01,2.25-4.51,18.8-6,37.89-3.62,57.02,2.57,20.67,12.38,38.8,22.57,56.5,10.03,17.43,18.35,35.45,22.8,55.1.81,3.6,2.87,5.41,6.1,5.35,7.02-.13,13.59-1.58,17.43-8.51,3.88-6.99,8.09-13.8,11.71-20.91,4.84-9.51,9.24-19.23,13.83-28.86.43.17.86.34,1.29.51-5.21,13.59-10.43,27.17-16.19,42.19Z"/>
      <path class="cls-1" d="m1428.61,954.84c-7.97,7.23-15.91,14.5-23.92,21.69-16.19,14.53-34.05,26.62-53.02,37.25-6.95,3.89-13.62,3.33-20.42,2.02,9.99-8.21,20.17-16.59,30.36-24.96-.35-.43-.7-.86-1.05-1.3-7.48,5.07-14.94,10.18-22.46,15.19-2.77,1.84-5.66,3.51-8.55,5.16-8.18,4.66-9.78,4.35-16.83-3.34,13.89-4.37,26.24-11.15,36.71-21.33-1.31.71-2.59,1.5-3.94,2.12-10.57,4.87-21.19,9.63-31.72,14.58-3.79,1.78-5.56.37-7.25-3.06-5.6-11.35-4.82-22.53.57-33.57.88-1.79,2.79-3.24,4.51-4.44,16.07-11.3,28.39-26.13,38.94-42.39,7.19-11.09,9.46-23.67,8.07-36.85-.03-.33-.06-.66-.11-.99-.31-2.16-.62-4.32-.93-6.48-1.27,1.88-2.85,3.62-3.75,5.66-3.85,8.67-7.43,17.45-11.23,26.13-4.21,9.63-10.27,17.92-18.68,24.29-15.49,11.74-30.19,24.68-48.86,31.56-13.08,4.82-26.14,7.78-39.17,1.71,9.93-6.67,20.11-13.51,30.29-20.35-.38-.58-.76-1.16-1.13-1.74-2.38,1.59-4.65,3.36-7.15,4.72-8.46,4.6-17.02,9.02-25.5,13.58-3.11,1.67-6.01,1.57-8.85-.5-3.7-2.7-7.39-5.41-11.97-8.77,24.13-5.19,41.37-18.6,56.63-35.08-.25-.36-.49-.72-.74-1.08-1.44,1.2-2.9,2.38-4.33,3.6-12.27,10.46-25.91,18.66-40.94,24.51-1.24.48-2.51.9-3.77,1.31-10.7,3.47-14.46-1.65-13.28-12.14,1.42-12.63,6.31-24.3,12.45-35.55,6.59-12.08,12.91-24.4,18.08-37.14,3.46-8.53,4.98-17.91,6.87-27.01,4.27-20.63-6.24-35.02-24.96-42.77-17.86-7.4-35.38-4.64-52.12,3.57-15.97,7.83-31.78,16.05-47.27,24.78-28.89,16.29-59.19,29.49-89.49,42.83-11.78,5.18-22.62,12.47-34.02,18.58-2.24,1.2-5.04,1.38-7.58,2.03-8.35,2.11-16.47,5.55-25.38,4.27-1.95-.28-3.89-.56-6.78-.97,24.16-16.96,47.54-33.37,70.92-49.78-.23-.34-.46-.68-.68-1.02-4.44,2.81-8.98,5.47-13.3,8.45-18.77,12.96-37.49,25.97-56.18,39.05-4.41,3.08-5.12,3.25-12.8.26,7.88-6.03,15.56-11.9,23.24-17.77-.28-.41-.57-.82-.85-1.23-7.16,4.64-14.66,8.86-21.38,14.07-4.52,3.51-8.33,3.97-12.98,1.09-1.66-1.03-3.51-1.76-5.7-2.82,26.81-20.32,53.25-40.36,79.68-60.39-.29-.43-.59-.87-.88-1.3-2.71,1.81-5.47,3.55-8.13,5.43-24.05,17.05-48.09,34.1-72.08,51.21-2.13,1.52-4.07,3.18-6.55.92-10.58-9.6-21.65-18.73-31.49-29.04-6.71-7.03-5.9-8.52,1.3-14.81,6.89-6.02,13.86-11.94,20.49-18.44-4.27,2.8-8.59,5.55-12.81,8.43-4.22,2.87-8.34,5.87-12.78,9.01-1.21-3.96-.28-6.36,2.42-8.79,16.21-14.57,32.25-29.33,48.35-44.03-.28-.33-.56-.67-.84-1-16.24,13.54-32.49,27.07-48.73,40.61,3.5-16.43,7.48-32.28,21.66-43.15,22.57-17.3,41.69-38.23,61.13-58.82,5.01-5.31,10.76-9.92,16.15-14.86,24.55-22.51,45.18-48.24,64.46-75.38,25.66-36.12,43.76-76.01,61.86-116.05,12.8-28.33,24.65-57.17,40.72-83.9,10.54-17.53,22.07-34.47,32.5-52.07,12.04-20.32,23.94-40.77,34.85-61.71,16.06-30.8,31.31-62.03,46.67-93.2,6.14-12.45,15.61-22.43,24.58-32.48,29.11-32.6,65.68-54.76,105.43-72.02.91-.39,1.88-.65,2.83-.95.14-.04.31.04.99.15-7.77,8.58-15.48,16.85-22.9,25.36-7.55,8.65-14.81,17.54-21.47,27.06,1.59-1.64,3.16-3.3,4.77-4.92,15.86-15.93,31.61-31.98,47.7-47.68,3.45-3.37,7.89-5.93,12.27-8.07,6.83-3.34,13.99-5.99,21.37-8.46-31.43,24.69-58.11,53.92-83.13,84.79,8.99-8.95,17.92-17.94,26.97-26.83,22.94-22.55,46.44-44.5,72.8-63.06,14.98-10.54,32.26-15.79,50.12-18.37,24.04-3.47,47.72,1.25,71.32,5.22,12.61,2.12,25.17,4.6,37.72,7.07,23.33,4.58,44.29,15.15,64.99,26.23,9.82,5.25,19.21,11.31,28.78,17.04,1.08.65,2.06,1.46,4.34,3.11-50.22-2.46-92.36,16.42-132.57,41.32,9.68-4.52,19.3-9.18,29.06-13.52,24.6-10.93,50.05-19.26,76.9-22.14,10.84-1.16,21.93-.82,32.84-.17,3.67.22,7.16,3.51,10.58,6.03-16.96,1.5-32.65,6.02-46.22,13.47,15.11-2.91,31.24-6.19,47.46-8.97,2.74-.47,6.49.35,8.69,2.01,15.16,11.41,30.42,22.75,44.82,35.08,7.11,6.09,12.47,14.22,18.57,21.47,4.8,5.69,9.38,11.57,14.32,17.13,5.18,5.83,10.42,11.65,16.07,17.01,15.49,14.68,27.12,32.38,39.27,49.67.93,1.32.97,3.89.41,5.54-2.23,6.58-4.86,13.03-6.69,19.96,3.56-5.95,7.12-11.9,11.1-18.56,3.84,6.61,9.28,11.32,7.88,20.2-2.94,18.6-8.23,36.31-16.35,53.24-1.07,2.24-2.15,4.47-3.38,7.04,4.59-4.25,11.22-17.14,16.02-30.08,4.01-10.82,6.32-21.89,5.65-33.54.41-.12.83-.24,1.25-.35,4.1,7.32,8.72,14.4,12.21,22,10.31,22.48,10.52,14.15,3.67,39.55-6.38,23.68-17.6,45.23-30.06,66.18-1.01,1.7-2.07,3.38-2.97,5.14,7.58-8.73,36.11-50.99,41.78-83.97,2.34,7.29,5.01,14.5,6.94,21.89,5.27,20.2,7.4,40.88,8.08,61.68.61,18.3,1.32,36.63.83,54.91-.74,27.91-1.76,55.85-6.79,83.43-.27,1.47-.63,2.93-1.13,4.34-7.18,20.37-14.38,40.72-21.58,61.08-7.17,20.28-15.53,39.92-27.49,58.02-10.63,16.09-20.21,32.88-30.35,49.3-7.83,12.67-18.6,22.84-30.47,31.3-29.54,21.07-60.19,40.33-92.93,56.33-35.96,17.56-65.54,43.11-87.71,76.67-11.72,17.76-23.02,35.8-34.21,53.9-14.69,23.75-29.86,47.09-53.47,63.17-19.28,13.13-39.91,23.61-63.46,26.08-12.75,1.34-25.44-.45-37.73-6.71,23.52-13.24,42.43-31.08,59.82-50.79-.93.74-1.91,1.43-2.78,2.24-17.01,15.79-35.09,30.17-54.94,42.27-7.02,4.28-7.01,4.34-12.6-1.84-1.33-1.47-2.5-3.06-3.27-4.01,13.37-8.84,26.56-17.57,39.75-26.29-.29-.45-.57-.89-.86-1.34-13.71,7.56-27.41,15.11-41.06,22.64-5.5-8.75-2.66-23.15,4.17-28.97,33.15-28.22,59.31-61.23,68.77-104.88,2.39-11.02,2.59-22.52,3.8-33.8-.63-.12-1.26-.24-1.89-.36-.39.74-.94,1.44-1.15,2.24-2.36,9-4.39,18.1-7.12,26.99-1.18,3.86-3.59,7.4-5.74,10.91-11.05,18.01-21.55,36.41-33.46,53.84-19.8,28.99-47.43,47.14-81.63,55.01-5.61,1.29-11.51,1.33-17.61,1.32,30.91-14.11,54.19-36.83,74-63.57.31.27.61.53.92.8Zm60.54-469.68c-.9-2.57-1.4-3.95-1.88-5.33-8.53-24.68-16.68-49.5-25.7-74-9.42-25.58-19.75-50.83-29.55-76.27-7.5-19.47-15.95-38.47-28.34-55.39-8.31-11.35-18.74-19.38-33.44-21.42-18.73-2.6-35.3,4.53-52.32,10-.13.04-.1.57-.2,1.25,5.31-.75,10.55-1.27,15.71-2.25,18.91-3.59,34.51,1.45,46.1,17.29,1.3,1.78,2.54,3.61,3.93,5.6-25.37,3.53-46.92,14.13-67.05,28.11,19.67-10.7,40.18-19.05,62.4-22.85,7.89-1.35,8.5-1.1,10.9,7.15-6.59,1.99-13.19,3.98-19.79,5.97.12.41.24.82.36,1.23,6.73-1.95,13.46-3.89,20.81-6.02,2.61,7.2,5.5,13.93,7.45,20.93,2.11,7.57-.93,12.1-8.42,14.1-22.63,6.04-42.09,16.96-57,35.56-28.59,35.65-36.73,75.23-23.21,118.91,1.6,5.16.93,7.18-3.46,10.15-8.27,5.59-15.82,12.23-23.67,18.43.28.34.55.67.83,1.01,9.76-6.64,19.51-13.28,29.62-20.16,2.06,4.59,3.6,8.01,5.3,11.79-16.24,7.89-29.68,18.6-40.41,32.58,12.8-11.27,26.7-20.78,40.98-27.46,10.49,13.3,20.45,26.13,30.64,38.79,12.77,15.86,28.78,26.73,48.47,32.65,15.55,4.67,31.17,9.39,47.4,8.3,21.15-1.43,41.74-6.22,60.9-15.93,1.58-.8,3.36-1.48,5.1-1.67,10.22-1.09,20.47-1.94,30.7-3.04,8.48-.91,17.09-3.07,22.12-10.08,5.6-7.81,9.39-16.94,13.82-25.57.63-1.23.44-2.87.63-4.33-4.43,2.95-7.94,6.58-11.35,10.31-18.47,20.23-46.75,18.14-58.01-6.33-4.38-9.52-8.67-19.09-12.96-28.65-.58-1.3-.9-2.72-1.25-3.8,5.7-3.38,10.99-6.52,16.28-9.65-.22-.39-.43-.79-.65-1.18-5.56,2.41-11.12,4.83-17,7.38-.88-2.37-1.64-4.19-2.24-6.06-.6-1.86-1.05-3.77-1.65-5.98,30.86-9.9,58.05-25.8,83.47-44.93-13.79,7.21-27.15,15.25-41.11,22.08-13.99,6.84-28.57,12.48-43.24,18.79Zm276,54.98c-.28.52-.66,1.02-.83,1.58-7.07,23.77-18.46,45.56-29.88,67.45-5.82,11.16-14.15,17.02-25.91,19.24-1.14.22-2.26.57-3.4.79-8.98,1.72-18.09,2.9-26.9,5.26-15.32,4.1-28.35-2.19-41.57-8.05-5.19-2.3-6.68-6.24-5.03-11.77,3.18-10.67,6.2-21.4,8.92-32.19.44-1.76-1.05-4-1.65-6.01-1.93.83-4.75,1.11-5.63,2.57-5.23,8.72-9.32,17.91-10.96,28.13-2.31,14.41-.53,27.57,10.33,38.34,5.2,5.15,10.61,10.09,15.67,15.38,1.4,1.47,2.41,3.76,2.66,5.79,1.05,8.4.8,17.06,2.74,25.23,6.37,26.88,35.63,46.49,64.52,43.99,5.05-.44,10.1-.84,15.66-1.3-5.01,17.94-15.4,32.45-24.04,47.86,11.07-13.38,22.36-26.61,25.86-44.43.31-1.55.62-3.96,1.6-4.38,4.29-1.81,8.83-3.04,14.77-4.96-5.91,12.12-11.1,22.77-16.28,33.42,8.23-8.98,14.21-19.17,17.88-30.76.66-2.08,2.35-4.54,4.23-5.42,18.08-8.49,33.44-20.51,46.62-35.38,4.71-5.32,9.07-10.95,13.59-16.45.45.2.89.4,1.34.6-4.56,12.22-9.12,24.43-13.67,36.65,9.42-14.31,16.41-29.63,20.32-46.33.82-3.52,1.9-7.09,3.56-10.28,10.82-20.82,15-42.87,12.6-66.17-.38-3.74.52-6.66,3.19-9.45,18.2-19,37.33-36.84,60.16-50.29.13-.08.02-.59.02-1.7-6.45,2.01-12.99,3.31-18.89,6.03-15.41,7.1-30.58,14.72-45.74,22.36-3.26,1.64-6.1,3.32-8.77.48-2.08,2.69-3.49,5.95-5.96,7.47-15.57,9.62-31.38,18.86-47.12,28.2-1.12.67-2.35,1.16-4.41,2.16,14.13-30.09,21.49-60.86,26.86-92.2-.7.45-1.01,1.02-1.15,1.63-6.42,28.85-16.67,56.43-27.03,84.05-4.44,11.83-13.69,15.97-23.45,21.68,5.47-14.11,10.66-27.53,15.85-40.94-7.55,13.24-14.33,26.77-20.67,40.5-2.07,4.48-5.19,6.93-10.37,8.71,14.13-24.66,24.67-49.91,30.32-77.11Zm-604.27,34.48c-39.06,32.04-74.74,67.57-109.18,104.36.32.33.63.65.95.98,36.08-35.12,72.15-70.23,108.23-105.35Zm464.82,208.51c-15.1,31.7-30.19,63.4-45.29,95.1,9.95-8.57,35.33-61.75,45.29-95.1Zm-61.15,108.99c13.96-16.23,39.18-68.64,38.99-78.66-12.94,26.11-25.96,52.39-38.99,78.66Zm-96.8-120.47c-12.15,30.63-28.23,59.12-45.62,86.93,21.19-25.9,37.3-54.44,45.62-86.93Zm146.01,77.82c.59.19,1.18.39,1.77.58,9.66-29.7,19.32-59.39,28.97-89.09-12.27,28.83-24.38,57.72-30.74,88.51Zm130.29-541.31c-19.36,26.24-38.71,52.49-57.71,78.24,24.44-21.71,40.72-50.23,57.71-78.24Zm-599.86,304.32c-22.7,16.51-43.41,35.09-61.29,56.73,20.43-18.91,40.86-37.82,61.29-56.73Zm540.32-200.22c20.86-20.78,37.87-44.57,53.07-69.74-17.69,23.25-35.38,46.49-53.07,69.74Zm-223.66,336.6c-8.04,16.83-16.09,33.66-24.13,50.49,10.72-15.56,19.33-32.12,24.13-50.49Z"/>
      <path class="cls-1" d="m435.36,1084.02c5.22-8.28,10.53-16.5,15.59-24.87,1.66-2.74,3.15-3.58,6.37-2.33,21.67,8.41,41.31,19.95,57.46,36.86,8.31,8.7,10.81,20.06,12.84,31.39.96,5.35.89,10.87,1.22,15.35-36.74,16.39-59.79,44.16-74.61,79.68,19.05-29.65,40.47-56.86,72.91-72.79.63.35,1.27.7,1.9,1.05-1.92,8.29-3.52,16.66-5.82,24.84-5.14,18.27-13.85,34.87-24.5,50.51-2.9,4.26-5.39,8.79-8.19,13.13-8.98,13.88-10.73,29.16-8.4,45.08.54,3.67,1.82,7.69,4.02,10.59,6.42,8.46,13.02,16.87,20.41,24.47,6.72,6.91,15.68,9.87,25.39,9.96,10.42.09,20.85.02,31.18.02-9.41,21.97-14.67,45.83-14.88,70.76,2.53-10.62,4.66-21.36,7.71-31.83,3.58-12.28,8.14-24.27,11.94-36.49,1.98-6.39,6.67-8.45,13.29-9.64-4.28,10.01-7.52,19.75-6.4,30.4,3.19-9.37,6.54-18.7,9.48-28.15,1.08-3.47,2.74-5.71,6.11-7.19,4.24-1.85,8.23-4.28,13.26-6.95-14.61,37.05-18.37,75.06-18.77,113.61,2.3-13.68,4.53-27.37,6.92-41.03,4.33-24.71,8.08-49.59,18.04-72.88,1.49-3.49,4.22-6.66,6.99-9.34,10.89-10.52,22.03-20.8,33.08-31.16,8.94-8.38,17.89-16.75,26.84-25.13.54.37,1.08.74,1.62,1.11-6.68,11.59-12.87,23.49-20.13,34.7-22.54,34.76-43.52,70.4-53.66,110.92-6.21,24.79-10.39,50.17-13.94,75.5-2.63,18.71,0,37.54,4.43,55.98,2.86,11.91,5.2,23.9,7.36,35.97,2.47,13.84,8.06,27.41,14.02,40.29,15.74,34.03,39.93,62.26,63.52,91.01,30.36,37.01,66.38,67.67,103.81,96.93,15.27,11.94,32.31,21.03,49.56,29.77,23.88,12.09,47.09,25.61,71.46,36.59,20.69,9.33,42.54,16.16,64.02,23.66,24.18,8.44,48.71,15.88,72.72,24.76,13.38,4.95,25.79,12.31,37.22,22.59h-19.67c-.03.23-.07.46-.1.69,5.51.76,10.99,1.8,16.53,2.19,3.76.26,5.41,1.42,5.08,5.41-.36,4.29-3.27,3.66-5.79,3.25-29.02-4.71-58.07-9.27-87.02-14.38-16.52-2.91-32.89-6.75-49.86-10.28,13.15,8.34,97.79,26.18,139.55,29.45-3.93,3.89-6.93,7.2-12.17,7.52-15.45.94-30.88,2.58-46.33,2.79-16.79.23-33.61-.58-50.4-1.38-16.78-.8-33.55-1.98-50.3-3.32-14.42-1.16-28.82-2.58-43.18-4.27-34.52-4.06-68.94-9.16-103.54-12.34-41.45-3.81-81.62-13.3-121.85-23.29-57.6-14.31-115.55-27.2-173.22-41.22-29.71-7.22-57.1-20.8-84.66-33.61-30.69-14.27-59.73-31.62-88.01-50.11-8.63-5.64-15.87-13.65-23.07-21.21-18.99-19.95-35.71-41.74-50.68-64.84-3.3-5.09-5.5-10.92-7.89-16.54-2.01-4.73-3.14-9.85-5.39-14.45-10-20.42-9.77-41.87-6.1-63.45,1.55-9.11,4.86-17.94,7.69-26.8,3.42-10.67,11.11-18.21,20.05-24.16,11.88-7.91,24.04-15.49,36.6-22.26,7.44-4.01,15.88-6.18,24.22-8.54-8.51,19.39-10.93,39.19-10.01,59.63.56-3.71.77-7.52,1.73-11.12,3.73-13.94,7.16-28,11.76-41.66,3.03-8.98,4.55-9.12,14.77-8.67-1.37,6.93-2.75,13.86-4.12,20.8.43.09.86.19,1.29.28,2.57-6.05,5.39-12.01,7.62-18.18,1.18-3.27,2.97-4,6.21-4.21,25.57-1.64,49.31,6.19,73.04,13.92,8.97,2.92,17.65,6.72,26.89,10.29-8.7,11.64-13.22,23.99-15.13,35.76,4.93-8.85,10.6-18.89,16.13-29.02,1.97-3.6,4.19-4.21,7.44-1.6,2.05,1.64,4.33,3,6.82,4.69-8.15,12.44-13.58,25.67-16.17,40.07,6.31-12.26,12.63-24.51,19.58-38.01,3.69,4.21,6.87,7.84,10.06,11.49-21.02,28.59-25.08,61.34-22.17,95.7,3.29-31.71,7.52-63.13,25.9-91.81,13.95,21.25,16.05,44.27,17.37,68.01,1.32,23.85-1.91,46.49-11.56,68.37.46.25.93.5,1.39.75.87-.89,1.98-1.65,2.58-2.7,9.11-15.94,17.83-32.02,19.41-50.86.15-1.77,1.05-3.49,1.68-5.21,12.05-32.77,6.18-62.51-16.73-88.27-15.36-17.28-31.74-34.05-53.06-44.12-11.03-5.21-23.04-8.48-34.8-11.98-21.19-6.31-42.64-11.78-63.73-18.39-5.45-1.71-10.34-5.94-14.87-9.75-13.72-11.51-22.95-26.7-32.65-41.42-10.11-15.36-15.43-32.69-19.28-50.46-3.59-16.55-6.91-33.15-10.02-49.8-1.09-5.86-1.75-11.93-1.64-17.88.41-21.96-.06-44.06,2.29-65.84,2-18.58,7.38-36.8,11.35-55.16.96-4.43,2.23-8.79,3.56-13.97,4.13,12.77,7.91,24.47,11.69,36.17l1.25-.44c-2.73-12.92-5.24-25.9-8.29-38.74-1.09-4.59.07-8.05,3.16-12.31,5.64,29.75,17.3,56.42,31.79,82.01-1.4-3.44-2.9-6.85-4.17-10.34-9.18-25.16-18.1-50.4-22.81-76.89-.2-1.13-.78-2.54-.34-3.38,3.88-7.4,7.94-14.7,12.85-21.78-2.4,20.64,1.08,40.11,8.36,59.07-1.04-9.05-2.2-18.09-3.08-27.16-1.29-13.34-.55-26.59,2.47-39.67.39-1.71,1.18-3.58,2.37-4.82,13.23-13.8,25.51-28.55,41.01-40.08,17.93-13.33,37.54-22.96,59.69-26.2,11.91-1.74,24.11-3.29,37.08-.02-14.7,18.9-27.35,38.58-34.17,61.54.6-1.15,1.1-2.37,1.82-3.44,11.74-17.56,23.56-35.07,35.24-52.68,2.69-4.05,5.82-5.12,10.5-2.44-6.53,8.78-11.42,18.4-13.17,29.37Zm-92.64,625.33c-.49-.07-.98-.14-1.48-.21-3.81,4.41-2.78,9.78-2.18,14.9,1.64,13.87,9.25,24.72,18.24,34.76,30.41,33.95,68.08,57.12,110.05,73.86,3.33,1.33,6.66,2.63,10,3.94-1.03-1.62-2.43-2.37-3.85-3.1-11.66-6.05-23.44-11.89-34.97-18.19-29.24-15.98-56.18-35.03-78.45-60.1-8.14-9.17-15.2-19.05-16.7-31.71-.55-4.68-.47-9.43-.67-14.16Zm.17-373.96c-8.42,34.19,32.61,112.25,72.45,129.92-39.99-33.24-64.37-76.48-72.45-129.92Zm101.8,121.47c-27.8-26.25-47.07-57.45-55.52-95.82-6.56,24.11,27.83,82.6,55.52,95.82Zm326.49,417.67c-33.04-8.5-58.6-29.93-86.52-46.99,20.29,17,41.16,33.13,65.73,43.58,4.53,1.93,9.51,2.89,14.37,3.88,2.02.41,4.27-.28,6.42-.47Zm-223.75-301.14c3.54,35.05,30.67,87.39,42.94,96.83-7.17-13.87-16.47-30.01-23.98-46.94-7.52-16.94-13.26-34.68-18.96-49.89Zm-165.23,188.36c12.25,17.09,29.37,25.05,47.12,31.78-15.34-10.34-30.8-20.77-47.12-31.78Zm282.11,41.35c18.01,16.78,51.75,37.56,59.91,37.76-19.8-12.48-39.86-25.12-59.91-37.76Z"/>
      <path class="cls-1" d="m467.08,869.19c12.06,10.89,23.34,21.06,34.61,31.24.37-.35.74-.69,1.11-1.04-.57-.87-1.03-1.84-1.73-2.58-9.64-10.36-19.36-20.64-28.92-31.08-1.18-1.29-1.52-3.35-2.24-5.05.4-.14.79-.28,1.19-.41,14.92,14.33,29.83,28.65,44.75,42.98.53-.52,1.05-1.04,1.58-1.56-14.47-15.71-28.94-31.41-43.87-47.62.76-1.41,1.89-3.5,3.19-5.91,40.87,45.48,86.57,84.94,130.9,125.82.42-.44.85-.87,1.27-1.31-43.25-42.47-86.5-84.94-130.55-128.19,5.29-6.92,10.64-14.96,17.04-22.06,13.24-14.7,26.88-29.06,40.67-43.25,6.38-6.56,15.56-7,23.89-9,1.04-.25,2.79,1.42,3.87,2.53,20.09,20.87,40.13,41.8,60.19,62.7,1.14,1.19,2.38,2.27,3.58,3.4.31-.28.62-.57.93-.85-20.29-22.79-40.58-45.59-60.85-68.36,5.78-3.35,18.02-1.85,22.7,2.6,24.82,23.67,49.69,47.28,74.54,70.92.37-.37.74-.74,1.11-1.1-22.97-23.73-45.95-47.47-68.92-71.2.12-.36.23-.72.35-1.09,5.24,1.05,10.43,2.42,15.72,3.09,9.08,1.15,16.31,5.27,23.23,11.26,40.93,35.41,81.97,70.7,123.33,105.61,37.41,31.58,75.57,62.27,112.84,94.02,55.78,47.52,110.98,95.72,166.58,143.46,45.99,39.49,92.37,78.53,138.2,118.22,11.9,10.31,22.13,22.53,33.55,33.44,10.72,10.23,22.05,19.81,33.01,29.79,17.47,15.9,31.67,34.55,45.51,53.59,7.78,10.7,5.67,21.54,2.03,32.29-2.01,5.95-6.35,11.1-10.21,17.56-42.6-45.27-85.59-88.21-130.23-129.47-.32.32-.64.64-.97.96,42.58,43.25,85.15,86.51,127.54,129.57-35.23,30.39-70.52,60.82-106.46,91.82-71.95-85.24-142.86-171.81-224.85-248.33,76.13,81.74,149.76,165.68,221.32,252.45-4.38,3.87-9.03,7.97-13.33,11.76-30.68-35.35-61.08-70.38-91.47-105.41-.43.37-.86.74-1.3,1.12,29.42,35.96,58.84,71.92,88.42,108.09-1.78,1.52-3.78,3.23-5.64,4.82-12.62-14.34-25.03-28.43-37.43-42.52-.41.34-.82.69-1.23,1.03,11.95,14.47,23.91,28.95,36.31,43.97-8.7,7.23-17.17,14.7-26.08,21.61-34.67,26.88-69.49,53.58-103.69,79.92-18.91-29.15-37.36-57.58-55.81-86.01-.44.27-.87.54-1.31.82,17.08,28.98,34.15,57.95,51.21,86.9-13.25,8.41-34.81,8.9-45.67.89-2.08-1.53-3.82-3.7-5.29-5.87-16.59-24.51-29.06-51.09-39.95-78.55-14.33-36.13-26.59-73.2-46.79-106.77-25.38-42.2-50.86-84.35-76.16-126.6-19.57-32.68-38.91-65.51-58.38-98.25-12.84-21.59-24.88-43.73-38.83-64.59-22.12-33.06-45.28-65.39-70.97-95.92-17.77-21.12-37.31-40.19-57.39-58.99-24.66-23.09-48.69-46.94-71.81-71.57-13.94-14.85-24.85-32.21-27.61-53.3-.24-1.85-.2-3.74-.32-6.43Zm250.95,262.89c-.34.32-.68.63-1.02.95,54.65,74.13,109.3,148.26,163.85,222.27-.49-1.1-.95-2.49-1.68-3.71-46.04-77.01-104.63-144.82-158.41-216.15-.87-1.15-1.83-2.24-2.74-3.35Zm67.65-125.89c-.28.31-.55.63-.83.94.77.62,1.56,1.23,2.32,1.87,31.15,26.65,60.27,55.4,88.18,85.4,2.94,3.16,6.23,5.98,9.47,8.84.83.73,2.08.97,3.13,1.44.3-.43.59-.85.89-1.28-29.92-37.12-64.83-68.97-103.17-97.21Zm51.1,76.14c-11.21-18.19-66.4-69.7-78.47-74.81,25.3,24.12,51.88,49.47,78.47,74.81Z"/>
      <path class="cls-1" d="m1270.2,1732.88c4.09,6.3,8.18,12.59,12.66,19.48-5.56-.63-10.4-.81-15.04-1.88-1.91-.44-3.75-2.53-5-4.31-16.25-23.16-32.38-46.42-48.58-69.62-1.47-2.1-3.19-4.03-5.54-5.49,16.42,25.71,32.84,51.41,49.92,78.15-9.41-1.37-17.81-2.17-26.03-3.85-33.68-6.91-67.36-13.79-100.89-21.37-9.14-2.07-17.65-6.8-26.6-9.89-15.39-5.32-30.96-10.13-46.33-15.51-11.69-4.09-22.69-9.61-31.53-18.61-1.86-1.89-3.8-3.86-5.01-6.16-.73-1.4-.85-4.01,0-5.21,12.99-18.58,26.35-36.88,44.32-51.16.64-.51,1.31-.98,2.21-1.65,14.18,16.16,28.26,32.2,42.33,48.23l.98-.83c-12.81-16.89-25.62-33.78-38.81-51.17,1.44-1.11,3.47-2.68,5.45-4.21,10.58,12.14,20.93,24.01,31.28,35.88.37-.3.75-.6,1.12-.9-9.06-12.78-18.12-25.56-27.44-38.71,8.05-6.52,15.86-13.22,24.05-19.4,27.57-20.81,52.83-44.25,77.96-67.86,13.69-12.86,28.2-24.86,42.38-37.29,26.27,34.18,51.98,67.61,77.68,101.05.52-.38,1.03-.76,1.55-1.14-24.41-34.2-48.81-68.4-73.56-103.08,3.02-2.13,6.09-4.29,9.33-6.58,7.09,7.73,14.1,15.37,21.11,23,.39-.31.79-.61,1.18-.92-5.66-8.45-11.31-16.9-17.14-25.61,2.19-1.64,4.28-3.2,6.46-4.83,11.32,12.58,22.42,24.93,33.52,37.28.37-.3.75-.59,1.12-.89-9.97-13.27-19.95-26.54-30.27-40.28,4.76-3.74,9.38-7.48,14.12-11.08,7.95-6.05,15.58-12.65,24.05-17.86,12.66-7.8,26.52-10.34,40.13-2.65,10.67,6.03,20.79,13.14,30.79,20.27,24.34,17.37,43.69,39.69,62.58,62.62,16.39,19.9,33.91,38.87,51.18,58.03,11.18,12.4,20.44,26.05,29.56,40.03,26.69,40.89,56.28,79.62,89.01,115.99,14.33,15.93,27.39,33.18,35.05,53.68,1.56,4.18,3.16,8.45,3.86,12.83,1.13,7.07-2.11,12.48-7.72,16.76-2.9,2.21-4.47,1.69-6.89-1.01-16.88-18.84-34-37.47-51.02-56.19-1.34-1.47-2.55-3.04-4.69-3.76,17.73,21.46,35.45,42.91,53.19,64.39-5.55,3.93-6.27,3.84-10.32-.53-6.09-6.57-12.24-13.09-18.36-19.63-.34.28-.68.56-1.02.84,6.03,7.5,12.07,14.99,18.94,23.53-7.79-.58-14.62-.87-21.4-1.63-67.09-7.47-132-26.02-198.04-38.86-11.09-2.16-22.3-3.69-33.36-5.97-15.27-3.14-30.42-6.8-45.67-10.05-6.5-1.39-13.15-2.06-19.62-3.53-2.47-.56-5.15-2.01-6.83-3.86-5.24-5.76-10.06-11.91-15.04-17.91-.44.29-.88.59-1.32.88Z"/>
      <path class="cls-1" d="m1467.61,1362.86c-8.11.77-15.21,1.59-22.32,2-1.53.09-3.44-1.01-4.67-2.13-6.87-6.25-13.58-12.68-21.07-18.41,5.95,6.9,11.9,13.8,18.27,21.19-7.58.86-13.48,1.04-19.49-4.84-29.38-28.76-59.11-57.17-89.22-85.17-12.29-11.43-25.83-21.53-38.82-32.22-.95-.78-2.02-1.41-2.69-2.37l130.35,123.78c-.27.66-.54,1.33-.82,1.99-5.08,0-10.22-.5-15.24.09-18.83,2.21-37.72,2.36-56.07-2.06-11.99-2.89-23.29-8.67-34.85-13.28-1.48-.59-2.83-1.81-3.9-3.03-29.49-33.43-63.31-62.4-95.58-92.96-24.54-23.24-49.09-46.49-74.35-68.94-37.08-32.96-74.79-65.2-112.25-97.74-1.25-1.09-2.6-2.09-3.95-3.06-14.43-10.43-27.91-21.67-39.86-35.18-19.8-22.38-43.75-40.4-66.89-59.21-42.52-34.55-85.08-69.04-127.46-103.76-32.07-26.27-63.85-52.89-95.81-79.29-9.1-7.52-18.71-14.46-27.51-22.31-8.68-7.74-16.71-16.23-24.84-24.56-1.87-1.92-3-4.57-4.57-7.04,16.74-9.11,34-11.2,51.32-6.69,7.53,1.96,14.19,7.87,20.8,12.62,14.74,10.58,29.2,21.56,43.76,32.39,2.25,1.68,4.44,3.45,7.4,4.35-5.97-5.49-11.84-11.09-17.93-16.45-6.38-5.6-12.85-11.12-19.5-16.38-6.49-5.13-13.27-9.9-19.92-14.82.18-.41.36-.82.54-1.23,4.91,2.35,10.43,3.92,14.64,7.17,20.29,15.69,40.22,31.83,60.29,47.8,1.74,1.38,3.5,2.74,5.25,4.1.32-.4.63-.8.95-1.2-18.55-16.47-37.09-32.94-55.64-49.4.12-.31.24-.61.36-.92,5.69,2.1,11.85,3.42,16.99,6.45,15.31,9.04,30.7,18.08,45.18,28.34,46,32.61,87.64,70.55,130.39,107.15,22.48,19.24,46.44,36.76,70.05,54.65,15.52,11.76,30.75,24.3,47.64,33.76,20.53,11.5,39.43,25.27,58.74,38.38,56.5,38.37,110.37,80.3,163.71,122.97,25.3,20.24,52.61,38,79.14,56.68,22.32,15.71,44.01,32.55,67.47,46.36,34.07,20.07,66.16,42.95,98.92,64.9,14.97,10.03,30.24,19.57,41.51,34.02,1.49,1.92,3.73,5.41,3.04,6.41-1.34,1.96-4.43,3.55-6.91,3.74-7.44.57-14.93.34-22.41.53-11.65.29-23.43-.28-34.9,1.31-8.46,1.17-13.59-1.98-19.1-7.32-12.43-12.04-25.29-23.64-38.73-34.72,13.34,14.33,26.69,28.66,40.54,43.54Zm-458.85-368.61c-.38.43-.77.87-1.15,1.3,38.83,30.99,77.66,61.97,116.48,92.96-36.06-34.38-73.92-66.52-115.33-94.26Zm-42.93-17.54l-1.57,1.81c18.28,14.47,36.57,28.95,54.85,43.42.39-.49.79-.99,1.18-1.48-18.15-14.58-36.31-29.16-54.46-43.75Z"/>
      <path class="cls-1" d="m112.12,1056.4c13.39-22.71,26.52-44.99,39.65-67.26-15.57,19.7-32.31,38.64-40.71,63.08-.47-.08-.94-.16-1.41-.24.17-2.15-.14-4.48.6-6.41,5.62-14.75,10.81-29.71,17.34-44.05,12.96-28.47,27-56.44,39.95-84.91,5.83-12.82,15.43-22.75,23.17-34.1,28.17-41.25,55.39-83.17,84.47-123.76,12.12-16.92,27.55-31.58,42.28-46.47,15.21-15.38,31.44-29.74,47.15-44.64,17-16.13,36.15-29.68,58.14-37.06,41.85-14.05,83.56-28.99,127.62-35.45,29.62-4.34,59.1-9.68,89.13-10.13,32.94-.49,65.92-1.61,98.83-.62,27.04.81,54.07,3.73,80.96,6.92,9.53,1.13,18.46,6.58,27.97,8.74,18.47,4.2,37.18,7.29,55.73,11.17,11.82,2.47,23.51,5.54,35.03,8.89-22.31-1.94-44.61-3.89-66.92-5.83-.05.54-.11,1.08-.16,1.62,11.79,1.48,23.62,2.7,35.36,4.5,15.29,2.35,30.51,5.1,45.74,7.8,6.73,1.19,11.08,6.11,15.82,10.49-15.3-3.35-30.37-7.23-46.3-5.69,2.27.5,4.54,1,6.8,1.51,2.44.55,4.88,1.07,7.3,1.66,11.32,2.74,22.64,5.45,33.94,8.26,5.77,1.44,7.51,4.29,6.73,11.12-25.34-7.97-51.13-13.25-77.64-14.77,25.51,5.68,51.02,11.36,76.82,17.1-3.86,7.87-11.97,11.71-19.17,10.69-27.79-3.94-55.58-7.93-83.44-11.39-34.73-4.31-69.64-5.4-104.62-4.94-28.62.37-57.28-.34-85.87.81-25.29,1.02-50.13,5.96-74.62,12.6-27.08,7.35-52.68,18.43-78.12,29.99-72.81,33.08-140.93,73.61-201.39,126.41-19.44,16.98-40.3,32.42-58.84,50.3-33.5,32.32-68.22,63.66-93.49,103.53-6.31,9.96-14.15,18.94-20.85,28.67-11.05,16.02-21.85,32.21-32.51,48.49-2.37,3.62-4.89,5.17-10.48,3.35Zm460.6-435.02c-28-3.47-134.15,49.53-153.29,77.17,23.84-17.88,47.85-33.58,74.02-45.25,25.97-11.58,52.75-21.33,79.27-31.92Zm-267.28,189.96c-.52-.52-1.05-1.05-1.57-1.57-15.49,13.61-31.55,26.62-46.28,41-13.3,12.98-25.22,27.4-37.56,41.35-1.74,1.97-2.4,4.9-3.55,7.38.65.44,1.3.87,1.95,1.31,25.86-32.92,56.68-60.96,87.02-89.47Zm229.45-149.14c.1.28.21.55.31.83.76-.18,1.54-.33,2.29-.55,11.82-3.4,23.51-7.31,35.47-10.11,18.75-4.38,37.67-7.98,56.5-12.03,1.37-.3,2.54-1.54,3.81-2.35-1.32-.64-2.59-1.57-3.99-1.84-1.42-.28-2.99-.05-4.46.17-26.24,3.85-51.77,10.41-76.45,20.14-4.54,1.79-8.98,3.82-13.47,5.73Zm73.44-30.61c-26.12-.91-49.95,7.14-72,17.46,23.25-5.64,47.63-11.55,72-17.46Zm-375.13,223.8l-1.28-1.17c-6.43,7.7-12.87,15.4-19.3,23.09.53.43,1.05.87,1.58,1.3,6.33-7.74,12.66-15.48,19-23.23Z"/>
      <path class="cls-1" d="m1388.13,1401.65c16.16,21.34,31.57,41.68,46.98,62.03.45-.33.91-.65,1.36-.98-15.36-22.11-30.72-44.21-46.27-66.6,11.61-2.08,23.33-4.22,35.06-6.26,24.03-4.17,48.26-5.46,72.61-5.3,8.99.06,17.99-.11,26.98-.26,3.26-.06,5.32,1.18,7.42,3.88,9.48,12.2,19.33,24.11,29.05,36.12.39-.29.78-.57,1.16-.86-8.54-12.58-17.09-25.17-26.09-38.42,5.21.36,9.67.28,13.95,1.14,1.96.39,3.87,2.37,5.26,4.07,13.62,16.61,27.13,33.31,40.68,49.97.59.73,1.36,1.3,2.9,1.25-13.01-17.96-26.02-35.92-38.99-53.82,6.19-2.51,12.55-.86,16.55,4.4,22.91,30.07,45.57,60.33,68.91,90.06,6.57,8.37,7.74,18.07,9.31,27.46,2.87,17.21,4.94,34.67,5.65,52.09,1.15,28.33,2.31,56.55,9.52,84.16.33,1.26.47,2.58.03,4.34-8.92-10.96-17.84-21.91-26.76-32.87-.25.15-.49.3-.74.45.75,1.32,1.41,2.7,2.26,3.95,8.97,13.03,18.09,25.96,26.86,39.12,2.14,3.22,3.55,7.09,4.54,10.86,1.46,5.6,2.23,11.38,3.27,16.95-18.31-23.64-36.67-47.35-55.04-71.05-.37.25-.73.5-1.1.75.49.9.9,1.85,1.49,2.68,19.08,27.28,38.18,54.56,57.26,81.84.67.95,1.59,1.93,1.75,3,2.04,14.11,4.01,28.22,5.87,42.36.21,1.6-.36,3.3-.48,4.96-.57,8.23-6.85,12.39-14.62,9.35-11.87-4.65-21.35-12.8-30.38-21.48-24.69-23.75-45.4-50.94-66.58-77.69-8.04-10.16-14.93-21.23-22.78-31.55-23.21-30.49-48.7-59.04-74.42-87.42-19.1-21.08-36.51-43.67-55.06-65.25-12.05-14.01-21.31-29.78-30.21-45.76-5.2-9.34-6.91-19.81-7.17-31.64Z"/>
      <path class="cls-1" d="m358.03,876.73c33.76-17.09,68.12-34.49,102.48-51.89.23.35.46.7.7,1.05-9.25,8.42-15.74,19.41-28.52,24.54-10.17,4.09-19.12,11.22-28.61,17,.23.42.47.85.7,1.27,9.69-4.93,19.38-9.87,29.07-14.8.27.33.55.66.82.99-6.48,5.74-9.97,14.09-18.58,18.1-25.13,11.7-45.62,24.73-58.87,37.24,9.42-5.55,18.73-11.31,28.3-16.6,9.74-5.38,19.75-10.29,29.12-15.14,1.99,3.76,3.73,7.04,5.55,10.48-6.25,10.26-17.24,15.22-27.61,20.74-25.97,13.86-52.25,27.14-78.22,41-24.74,13.2-47.59,29.32-69.52,46.72-12.9,10.24-26.56,19.77-38.11,31.38-10.31,10.36-20.63,20.62-32.03,29.68-15.89,12.63-32.16,24.8-48.28,37.15-.59.45-1.28.78-1.93,1.17l-.95-.99c16.75-18.31,33.5-36.61,50.25-54.92l-.28-.38c-3.04,2.63-6.13,5.21-9.12,7.9-17.33,15.65-34.1,31.83-47.24,51.33-2.61,3.87-6.53,4.54-11.83,3.91,2.97-4.18,5.61-8.65,8.96-12.49,12.05-13.79,24.34-27.38,36.52-41.05.3-.34.44-.81-.02-1.9-8.37,8.17-16.74,16.35-25.11,24.52-.17-.16-.34-.31-.5-.47,3.71-5.01,7.68-9.85,11.1-15.05,32.61-49.67,68.55-96.7,109.75-139.6,3.34-3.48,6.7-6.97,10.25-10.23,40.95-37.6,82.46-74.61,127.01-107.93,47.07-35.21,97.56-64.93,151.26-88.83,35.46-15.78,72.07-28.8,110.62-34.75,17.72-2.74,35.82-2.92,53.71-4.67,46.72-4.59,93.44-2.79,140.15-.03,17.61,1.04,35.14,4.05,52.74,4.37,15.24.27,29.51,3.96,43.91,7.87,1.68.46,3.25,1.31,5.32,2.16-10.5.81-20.42,1.57-30.33,2.33.02.78.04,1.56.06,2.34h38.94c-.41,3.03-.64,4.75-.93,6.82-26.23-1.49-51.9.07-77.06,6.68.04.56.07,1.11.11,1.67,24.51-1.52,49.02-3.04,73.53-4.56.22.45.43.9.65,1.35-1.33,1.17-2.48,2.78-4.03,3.44-5.48,2.34-10.93,5.21-16.69,6.34-34.75,6.8-69.6,13.16-104.4,19.71-8.66,1.63-17.24,3.91-25.97,4.93-6.58.77-13.34,0-20.02-.08-.04-.62-.08-1.24-.13-1.85,13.05-4.45,26.09-8.89,39.14-13.34-25.17,3.57-49.06,12.54-74.07,16.37-.14-.51-.27-1.02-.41-1.54,22.61-7.32,45.22-14.64,67.84-21.96-.13-.45-.26-.89-.39-1.34-11.76,2.88-23.6,5.47-35.26,8.71-14.9,4.14-29.64,8.84-44.48,13.2-2.02.59-4.25.94-6.33.76-16.57-1.42-33.15-2.75-49.68-4.6-11.51-1.29-22.92-3.36-34.4-6.27,14.38-6.16,28.75-12.33,43.13-18.49-.09-.28-.18-.57-.27-.85-1.02.16-2.08.19-3.04.51-15.18,5-30.44,9.76-45.45,15.2-5.44,1.97-10.29,1.73-16.4-.34,11.05-4.95,21.36-9.58,31.67-14.2-.14-.37-.27-.73-.41-1.1-9.19,2.92-18.78,4.98-27.46,8.99-10.35,4.78-20.74,4.89-31.02,2.17-14.5-3.84-25.01,2.99-33.93,12.12-27.47,28.1-54.23,56.9-81.43,85.26-2.77,2.89-6.37,5.44-10.08,6.92-36.53,14.54-70.73,33.36-103.29,55.27-.5.34-.91.82-.64.58Z"/>
      <path class="cls-1" d="m456.2,518.5c-17.23,4.96-31.73,12.42-44.32,23.53,2.4-1.26,4.72-2.73,7.22-3.76,12-4.9,24.08-9.59,36.05-14.54,4.24-1.76,7.65-1.29,10.91,2.87-13.6,3.9-26.67,8.62-38.45,16.86,11.8-3.86,23.33-7.41,34.7-11.43,6.09-2.15,11.14-1.82,15.74,3.12,6.1,6.55,13.23,12.3,18.51,19.43,8.96,12.1,6.47,23.23-8.62,30.39-20.52,9.75-42.02,17.41-62.94,26.35-9.76,4.17-19.09,9.32-28.72,13.83-9.78,4.58-19.55,9.22-29.55,13.25-6.72,2.71-16.5-1.07-20.06-7.31-.69-1.21-.09-3.94.89-5.21,6-7.72,12.28-15.21,18.09-23.43-8.27,7.22-16.55,14.44-25.01,21.83-2.53-1.47-3.06-3.74-.91-6.94,2.45-3.65,4.53-7.55,6.04-12.01-3.89,3.46-7.78,6.93-12.45,11.09-5.64-8.19-11.74-16.43-17.17-25.09-4.85-7.74-8.87-16.01-13.45-23.93-1.56-2.69-1.54-4.88.39-7.26,4.79-5.93,9.52-11.91,13.76-18.54-6.23,5.25-12.47,10.51-19.16,16.15-2.83-4.44-6.09-9.17-8.85-14.18-.6-1.1.13-3.51,1.03-4.76,4.85-6.7,9.94-13.23,14.28-20.69-6.69,5.71-13.39,11.42-20.46,17.45-.95-1.25-2.29-3.01-3.17-4.17,7.11-8.04,13.94-15.76,19.64-22.2-3.14.34-13.47,7.66-22.93,17.54-5.5-5.73-5.67-5.89-.59-11.54,12.67-14.11,27.45-25.66,43.88-35.11,1.27-.73,2.54-1.47,4.12-2.37-12.1.38-43.66,21.96-57.02,39.24-5.1-8.21-10.08-15.94-14.74-23.87-1.92-3.28-3.13-6.97-4.7-10.46-12.71-28.16,4.21-59.15,34.85-64.45,14.87-2.57,27.75,2.8,41.07,8.84-15.24,5.74-27.47,15.49-38.22,27.34,3.36-2.3,6.53-4.95,10.1-6.84,10.26-5.44,20.6-10.75,31.12-15.68,1.75-.82,5.05-.27,6.71.93,11.05,8,22.18,15.94,32.65,24.66,18.88,15.71,39.34,29.06,60.16,41.94,1.35.83,2.63,1.77,4.68,3.15-20.16,7.56-38.38,17-54.74,29.78-3.25,2.54-6.41,5.19-9,8.69,1.72-1.23,3.41-2.48,5.15-3.67,18.94-12.99,39.77-22.22,61.06-30.5,1.36-.53,3.48-.57,4.65.14,5.67,3.42,11.14,7.17,17.78,11.53Z"/>
      <path class="cls-1" d="m1227.91,812.43c-17.42,8.03-34.53,15.91-51.64,23.79l.58,1.25c17.54-6.94,35.08-13.88,53.04-20.98.33,2,.47,3.43.82,4.82.92,3.71-.54,5.27-4.06,7.01-15.5,7.66-30.72,15.88-46.03,23.92-.36.19-.59.64-1.46,1.64,17.04-7.41,33.29-14.48,49.57-21.55,1.29,7.58-2.25,14.11-8.57,16.94-37.83,17.01-75.03,35.16-105.17,57.03,33.16-16.32,70.23-34.57,107.31-52.82.38.4.77.8,1.15,1.19-.9,2.22-1.66,4.5-2.72,6.64-5.38,10.88-10.83,21.71-16.25,32.57-6.54,13.1-13.84,26.03-13.05,41.35.43,8.22,2.31,16.36,7.78,22.75,4.59,5.36,10.14,9.91,15.27,14.81.59.56,1.21,1.09,2.78,2.48-10.41,2.51-19.96,4.82-29.51,7.12.04.31.08.62.13.92,9.95-1.3,19.89-2.75,29.87-3.8,3.16-.33,6.45.24,9.64.68,8.18,1.13,16.36,2.31,24.49,3.74,2.03.36,4.42,1.24,5.74,2.7,6.76,7.46,7.75,16.02,3.39,24.99-4.58,9.41-10.54,12.15-20.34,8.44-13.67-5.17-27.12-10.97-40.54-16.78-21.82-9.44-43.45-19.35-65.35-28.59-12.32-5.2-25.24-7.4-38.82-7.87-17.84-.61-35.96-.92-53-7.74-1.2-.48-2.39-.96-4.52-1.82,41.97-13.21,84.43-20.28,126.19-30.6-10.98,1.54-21.98,2.98-32.95,4.65-32.3,4.91-64.12,11.96-95.14,22.28-5.81,1.93-8.73-2.4-14.2-4.67,17.77-6.75,34.38-13.05,50.98-19.35l-.43-1.43c-12.1,3.45-24.21,6.83-36.28,10.4-4.46,1.32-8.79,3.1-13.17,4.68-7.69,2.79-8.62,2.49-14.08-4.66,5.55-2.17,11.07-4.33,16.58-6.49-.1-.29-.19-.58-.29-.87-4.75,1.48-9.59,2.72-14.21,4.51-3.44,1.33-5.99.75-8.47-1.82-3.81-3.95-8.04-7.53-11.56-11.71-8.35-9.93-6.33-20.8,5.16-27.06,9.49-5.17,19.35-9.67,28.95-14.65,24.06-12.47,48.12-24.96,72.09-37.61,21.16-11.17,42.17-22.61,63.29-33.85,10.63-5.66,21.58-10.76,33.82-11.21,13.29-.5,24.64,4.06,33.15,14.62Z"/>
      <path class="cls-1" d="m666.87,1164.95c5.38,10.91,9.95,20.69,14.98,30.22,3.53,6.68,3.83,13.73,3.33,20.89-.11,1.62-1.82,3.42-3.24,4.6-14.97,12.43-29.93,24.87-45.1,37.03-6.21,4.98-12.79,9.55-19.48,13.88-15.09,9.76-30.27,19.35-47.53,25.06-6.05,2-11.98,3.64-18.77,2.03,8.17-18.26,16.23-36.26,24.29-54.26-.24-.14-.48-.29-.72-.43-2.05,3.43-4.28,6.78-6.13,10.32-7.16,13.72-14.17,27.53-21.35,41.24-.78,1.48-2.3,2.57-3.48,3.84-.53-.37-1.05-.74-1.58-1.11,1.45-3.95,2.9-7.9,4.35-11.86-.25-.16-.49-.32-.74-.48-2.43,3.71-4.86,7.41-7.38,11.26-12.62-4.88-19.32-14.35-22.6-26.78-3.31-12.55-.3-24.33,5.53-35.18,9.89-18.41,17.57-37.63,23.75-57.52,4.52-14.53,5.54-29.18,3.02-44.34-1.34-8.05-1.75-16.72-.28-24.69,2.69-14.61,8.29-28.36,17.06-40.64,2.63-3.69,6.04-5.2,9.88-3.35,7.86,3.78,15.87,7.53,23.01,12.46,8.98,6.21,17.56,13.17,25.54,20.63,5.53,5.17,9.76,11.72,14.73,17.86-7.52,10.76-13.37,21.99-16.51,35.7,6.81-10.85,12.99-20.7,19.18-30.56,6.96,4.93,6.87,6.04,2.69,12.64-5.47,8.64-10.37,17.64-15.52,26.48l1.8,1.09c6.49-9.84,12.97-19.68,19.45-29.51,5.46,3.91,5.53,4.32,1.97,10-10.03,16-18.47,32.76-24.3,50.77-.54,1.68-.94,3.41-.92,5.27,10.21-18.77,20.42-37.55,30.62-56.32l1.82-.3c2.35,5.48,5.05,10.86,6.82,16.52.51,1.62-1.54,4.15-2.63,6.14-12.17,22.16-24.86,44.05-36.38,66.54-5.4,10.54-8.57,22.21-12.47,33.37,17.7-32.71,35.39-65.42,53.29-98.51Z"/>
      <path class="cls-1" d="m1647.96,1480.92c-21.97-30.7-43.89-61.31-66.3-92.62,5.35,1.77,10.43,3.41,15.48,5.14,1.09.37,2.02,1.21,3.11,1.55,21.53,6.71,30.84,24.01,36.86,43.59,4.28,13.91,7.28,28.21,10.85,42.34Z"/>
      <path class="cls-1" d="m1840.54,1689.08c5.77-15.02,10.98-28.61,16.19-42.19-.43-.17-.86-.34-1.29-.51-4.59,9.63-9,19.36-13.83,28.86-3.62,7.12-7.84,13.93-11.71,20.91-3.84,6.92-10.41,8.37-17.43,8.51-3.22.06-5.28-1.75-6.1-5.35-4.45-19.65-12.77-37.67-22.8-55.1-10.18-17.7-20-35.83-22.57-56.5-2.38-19.14-.89-38.23,3.62-57.02.19-.79.46-1.72,1.01-2.25,6.91-6.48,9.02-15.45,12.08-23.8,3.44-9.39,9.51-16.7,16.51-23.45,1.07-1.03,2.29-1.98,3.59-2.68,7.03-3.74,10.55-2.19,12.36,5.32.57,2.37,1.18,4.72,2.49,6.97v-12.8c3.79-.21,6.19,1.08,6.65,4.96.62,5.28,1.19,10.57,1.79,15.85.2,1.75.42,3.5,1.65,5.23.48-5.94.96-11.87,1.52-18.85,5.84,5.68,8.44,11.87,8.84,18.71.67,11.46.61,22.96,1.02,34.44.17,4.77.81,9.53,1.18,14.29.09,1.13.19,2.33-.05,3.42-2.14,9.92-4.35,19.83-6.52,29.74-.28,1.28-.42,2.59-.62,3.88l1.15.39c.6-.84,1.43-1.6,1.78-2.54,7.13-19.01,14.55-37.97,17.45-58.19,2.06-14.36,2.5-28.84-.37-43.23-2.19-10.97-7.59-20.07-15.5-27.93-2.2-2.18-3.9-5.24-4.89-8.21-3.49-10.42-6.79-20.87-4.75-32.21,3.22-17.9,11.32-32.88,25.7-44.2,4.85-3.82,7.16-3.77,9.77,1.8,3.77,8.06,6.37,16.67,9.28,25.11.8,2.32.92,4.87,1.42,7.73,2.21-8.44-.22-22.17-6.49-37.32,9.79-1.23,8.19,8.88,13.45,13.06-.62-3.89-1.15-7.2-1.8-11.3,7.79,2.65,13.58,6.8,16.77,14.03,6.57,14.91,9.86,30.69,11.8,46.76.78,6.43,1.07,12.92,1.58,19.38.52.03,1.04.06,1.56.1,0-4.57.09-9.15-.03-13.72-.13-4.82-.31-9.65-.74-14.46-.41-4.63-1.02-9.25-1.82-13.83-.83-4.71-2.01-9.36-3.04-14.04.43-.17.87-.34,1.3-.52,3.46,8.55,7.47,16.92,10.28,25.68,14.46,45,10.98,90.05-.51,134.96-1.16,4.54-4.55,8.47-6.33,12.92-3.88,9.72-7.35,19.59-11.04,29.39-1.55,4.12-3.22,8.19-4.8,12.19v-46.55c-.99,9.42-1.7,20.69-3.46,31.8-1.89,11.97-3.85,24.07-7.51,35.57-2.84,8.94-8.32,17.04-12.62,25.51-.39-.19-.79-.38-1.18-.56,1.88-6.64,3.75-13.28,5.63-19.92-.32-.11-.64-.22-.96-.33-3.71,9.1-7.63,18.13-11.09,27.32-3.56,9.49-10.57,16.3-17.57,24.74Z"/>
      <path d="m1489.15,485.16c14.67-6.31,29.25-11.94,43.24-18.79,13.96-6.83,27.32-14.87,41.11-22.08-25.41,19.13-52.6,35.03-83.47,44.93.6,2.21,1.05,4.12,1.65,5.98.6,1.87,1.35,3.68,2.24,6.06,5.89-2.55,11.44-4.97,17-7.38.22.39.43.79.65,1.18-5.29,3.14-10.58,6.27-16.28,9.65.35,1.08.66,2.5,1.25,3.8,4.29,9.57,8.58,19.13,12.96,28.65,11.26,24.47,39.54,26.56,58.01,6.33,3.41-3.73,6.92-7.36,11.35-10.31-.19,1.45,0,3.1-.63,4.33-4.43,8.63-8.21,17.76-13.82,25.57-5.03,7.01-13.64,9.17-22.12,10.08-10.22,1.09-20.47,1.94-30.7,3.04-1.74.19-3.52.87-5.1,1.67-19.15,9.7-39.74,14.5-60.9,15.93-16.22,1.1-31.85-3.63-47.4-8.3-19.69-5.91-35.71-16.79-48.47-32.65-10.19-12.66-20.15-25.5-30.64-38.79-14.27,6.69-28.18,16.19-40.98,27.46,10.73-13.98,24.17-24.68,40.41-32.58-1.7-3.78-3.24-7.2-5.3-11.79-10.11,6.88-19.87,13.52-29.62,20.16-.28-.34-.55-.67-.83-1.01,7.85-6.2,15.41-12.84,23.67-18.43,4.38-2.96,5.05-4.99,3.46-10.15-13.52-43.68-5.38-83.27,23.21-118.91,14.91-18.6,34.37-29.52,57-35.56,7.49-2,10.54-6.53,8.42-14.1-1.95-7-4.85-13.73-7.45-20.93-7.36,2.13-14.08,4.08-20.81,6.02-.12-.41-.24-.82-.36-1.23,6.6-1.99,13.2-3.98,19.79-5.97-2.4-8.25-3.01-8.5-10.9-7.15-22.22,3.79-42.73,12.14-62.4,22.85,20.13-13.98,41.69-24.58,67.05-28.11-1.39-1.99-2.63-3.82-3.93-5.6-11.58-15.84-27.18-20.88-46.1-17.29-5.16.98-10.4,1.5-15.71,2.25.1-.68.07-1.21.2-1.25,17.02-5.47,33.6-12.6,52.32-10,14.7,2.04,25.13,10.07,33.44,21.42,12.39,16.92,20.84,35.92,28.34,55.39,9.8,25.44,20.13,50.69,29.55,76.27,9.02,24.5,17.17,49.32,25.7,74,.48,1.38.97,2.76,1.88,5.33Z"/>
      <path d="m1765.15,540.14c-5.65,27.2-16.19,52.45-30.32,77.11,5.18-1.78,8.3-4.23,10.37-8.71,6.34-13.73,13.11-27.25,20.67-40.5-5.19,13.41-10.39,26.82-15.85,40.94,9.76-5.71,19.02-9.85,23.45-21.68,10.35-27.62,20.61-55.19,27.03-84.05.14-.61.45-1.18,1.15-1.63-5.38,31.34-12.73,62.11-26.86,92.2,2.06-1,3.28-1.49,4.41-2.16,15.74-9.34,31.54-18.58,47.12-28.2,2.47-1.53,3.87-4.78,5.96-7.47,2.67,2.84,5.51,1.16,8.77-.48,15.16-7.63,30.33-15.26,45.74-22.36,5.89-2.72,12.44-4.02,18.89-6.03,0,1.11.12,1.62-.02,1.7-22.83,13.44-41.96,31.29-60.16,50.29-2.67,2.78-3.58,5.71-3.19,9.45,2.4,23.3-1.78,45.34-12.6,66.17-1.66,3.19-2.74,6.76-3.56,10.28-3.91,16.7-10.91,32.02-20.32,46.33,4.56-12.22,9.12-24.43,13.67-36.65-.45-.2-.89-.4-1.34-.6-4.52,5.49-8.87,11.13-13.59,16.45-13.18,14.87-28.54,26.88-46.62,35.38-1.88.88-3.57,3.34-4.23,5.42-3.67,11.58-9.65,21.78-17.88,30.76,5.19-10.65,10.38-21.3,16.28-33.42-5.94,1.92-10.48,3.15-14.77,4.96-.98.42-1.29,2.82-1.6,4.38-3.5,17.82-14.8,31.04-25.86,44.43,8.64-15.41,19.03-29.92,24.04-47.86-5.56.46-10.61.86-15.66,1.3-28.89,2.51-58.15-17.1-64.52-43.99-1.94-8.16-1.69-16.83-2.74-25.23-.25-2.03-1.26-4.32-2.66-5.79-5.06-5.29-10.47-10.23-15.67-15.38-10.86-10.77-12.64-23.93-10.33-38.34,1.64-10.21,5.73-19.41,10.96-28.13.87-1.46,3.7-1.74,5.63-2.57.6,2.02,2.09,4.26,1.65,6.01-2.71,10.8-5.74,21.52-8.92,32.19-1.65,5.53-.16,9.47,5.03,11.77,13.22,5.86,26.25,12.15,41.57,8.05,8.8-2.36,17.92-3.53,26.9-5.26,1.14-.22,2.26-.58,3.4-.79,11.75-2.22,20.08-8.08,25.91-19.24,11.42-21.88,22.81-43.68,29.88-67.45.17-.56.55-1.05.83-1.58Z"/>
      <path d="m1160.89,574.62c-36.08,35.12-72.15,70.23-108.23,105.35-.32-.33-.63-.65-.95-.98,34.44-36.8,70.12-72.33,109.18-104.36Z"/>
      <path d="m1625.71,783.14c-9.96,33.35-35.34,86.53-45.29,95.1,15.1-31.7,30.19-63.4,45.29-95.1Z"/>
      <path d="m1564.56,892.13c13.02-26.27,26.04-52.55,38.99-78.66.19,10.02-25.02,62.43-38.99,78.66Z"/>
      <path d="m1467.75,771.66c-8.32,32.49-24.43,61.04-45.62,86.93,17.39-27.81,33.47-56.3,45.62-86.93Z"/>
      <path d="m1613.76,849.48c6.37-30.79,18.47-59.68,30.74-88.51-9.66,29.7-19.32,59.39-28.97,89.09-.59-.19-1.18-.39-1.77-.58Z"/>
      <path d="m1744.05,308.16c-16.99,28.01-33.27,56.53-57.71,78.24,18.99-25.75,38.35-52,57.71-78.24Z"/>
      <path d="m1144.19,612.48c-20.43,18.91-40.86,37.82-61.29,56.73,17.88-21.64,38.58-40.22,61.29-56.73Z"/>
      <path d="m1684.5,412.26c17.69-23.25,35.38-46.49,53.07-69.74-15.2,25.17-32.21,48.96-53.07,69.74Z"/>
      <path d="m1460.84,748.86c-4.8,18.36-13.41,34.92-24.13,50.49,8.04-16.83,16.09-33.66,24.13-50.49Z"/>
      <path d="m342.72,1709.36c.21,4.72.12,9.48.67,14.16,1.49,12.66,8.55,22.54,16.7,31.71,22.27,25.07,49.21,44.12,78.45,60.1,11.53,6.3,23.31,12.14,34.97,18.19,1.41.73,2.82,1.48,3.85,3.1-3.33-1.31-6.67-2.62-10-3.94-41.97-16.75-79.64-39.91-110.05-73.86-8.99-10.04-16.6-20.89-18.24-34.76-.61-5.12-1.63-10.49,2.18-14.9.49.07.98.14,1.48.21Z"/>
      <path d="m342.89,1335.4c8.07,53.44,32.45,96.68,72.45,129.92-39.83-17.67-80.87-95.72-72.45-129.92Z"/>
      <path d="m444.68,1456.87c-27.69-13.22-62.08-71.72-55.52-95.82,8.46,38.38,27.72,69.57,55.52,95.82Z"/>
      <path d="m771.18,1874.54c-2.15.19-4.39.88-6.42.47-4.86-.99-9.84-1.96-14.37-3.88-24.57-10.45-45.44-26.58-65.73-43.58,27.91,17.06,53.48,38.49,86.52,46.99Z"/>
      <path d="m547.43,1573.39c5.7,15.22,11.44,32.95,18.96,49.89,7.51,16.93,16.81,33.06,23.98,46.94-12.27-9.44-39.4-61.78-42.94-96.83Z"/>
      <path d="m382.2,1761.76c16.32,11.01,31.78,21.43,47.12,31.78-17.75-6.73-34.88-14.69-47.12-31.78Z"/>
      <path d="m664.31,1803.11c20.06,12.64,40.11,25.28,59.91,37.76-8.16-.2-41.9-20.98-59.91-37.76Z"/>
      <path d="m718.03,1132.09c.92,1.12,1.88,2.2,2.74,3.35,53.79,71.33,112.37,139.14,158.41,216.15.73,1.23,1.19,2.62,1.68,3.71-54.55-74-109.2-148.14-163.85-222.27.34-.32.68-.63,1.02-.95Z"/>
      <path d="m785.69,1006.2c38.34,28.24,73.25,60.09,103.17,97.21-.3.43-.59.85-.89,1.28-1.06-.47-2.31-.71-3.13-1.44-3.24-2.85-6.54-5.68-9.47-8.84-27.91-30-57.03-58.75-88.18-85.4-.76-.65-1.55-1.25-2.32-1.87.28-.31.55-.63.83-.94Z"/>
      <path d="m836.79,1082.34c-26.59-25.35-53.17-50.69-78.47-74.81,12.07,5.11,67.26,56.62,78.47,74.81Z"/>
      <path d="m1008.76,994.25c41.42,27.74,79.27,59.88,115.33,94.26-38.83-30.99-77.66-61.97-116.48-92.96.38-.43.77-.87,1.15-1.3Z"/>
      <path d="m965.84,976.71c18.15,14.58,36.31,29.16,54.46,43.75-.39.49-.79.99-1.18,1.48-18.28-14.47-36.57-28.95-54.85-43.42l1.57-1.81Z"/>
      <path d="m572.72,621.37c-26.52,10.59-53.3,20.34-79.27,31.92-26.17,11.67-50.18,27.37-74.02,45.25,19.14-27.64,125.3-80.64,153.29-77.17Z"/>
      <path d="m305.43,811.34c-30.34,28.51-61.17,56.54-87.02,89.47-.65-.44-1.3-.87-1.95-1.31,1.16-2.48,1.81-5.41,3.55-7.38,12.34-13.95,24.26-28.36,37.56-41.35,14.73-14.38,30.8-27.39,46.28-41,.52.52,1.05,1.05,1.57,1.57Z"/>
      <path d="m534.88,662.2c4.49-1.92,8.93-3.94,13.47-5.73,24.69-9.73,50.22-16.29,76.45-20.14,1.47-.22,3.04-.45,4.46-.17,1.4.28,2.66,1.2,3.99,1.84-1.26.8-2.43,2.05-3.81,2.35-18.83,4.05-37.75,7.64-56.5,12.03-11.96,2.8-23.65,6.71-35.47,10.11-.75.22-1.53.37-2.29.55-.1-.28-.21-.55-.31-.83Z"/>
      <path d="m608.32,631.59c-24.37,5.91-48.74,11.82-72,17.46,22.05-10.32,45.88-18.37,72-17.46Z"/>
      <path d="m233.19,855.39c-6.33,7.74-12.66,15.48-19,23.23-.53-.43-1.05-.87-1.58-1.3,6.43-7.7,12.87-15.4,19.3-23.09l1.28,1.17Z"/>
    </g>
  </g>
</svg>