<?xml version="1.0" encoding="UTF-8"?>
<svg id="Layer_9" data-name="Layer 9" xmlns="http://www.w3.org/2000/svg" viewBox="0 0 2007.46 2000">
  <defs>
    <style>
      .cls-1 {
        fill: #fff;
      }

      .cls-2 {
        fill: #6abd45;
      }
    </style>
  </defs>
  <g id="Self">
    <g id="Layer_14" data-name="Layer 14">
      <path class="cls-1" d="m950.7,476.76l-66.3,22.7-70.57,57.74-42.77,78.06,7.82,122.97,36.02,101.58,45.98,53.17-67.37,39.86-164.67,165.74s-101.73,128.79-109.07,190.34,9.62,75.92,36.36,74.85,113.35-64.16,113.35-64.16l117.03-109.07,12.36,6.42s-7.49,188.2-9.62,227.76-33.15,249.15-49.19,310.1-29.94,125.11-14.97,152.91,45.98,26.73,78.06,0,70.57-85.54,70.57-85.54l112.28-240.59,43.84,49.19s59.88,147.56,73.78,168.95,97.31,143.29,146.5,135.8,27.8-99.45,27.8-99.45l-43.84-186.06s-27.18-180.71-26.42-226.69-6.73-235.25-6.73-235.25l81.62,86.61s113.52,116.38,161.12,101.58,21.39-83.41,21.39-83.41c0,0-24.59-89.82-95.17-173.23s-165.74-168.95-210.65-199.96,25.66-74.85,25.66-74.85c0,0,59.14-97.03,40.78-188.2s-92.11-164.09-173.37-179.89l-42.77,23.77-36.36-5.46-22.46-18.31Z"/>
    </g>
    <path class="cls-2" d="m946.21,457.28l-185.35-218.85,24.43-13.54h86.06l7.84-98.38,17.11-57.03,83.41-6.42s116.2,3.56,118.34,3.56,27.09,20.67,27.09,20.67l15.68,126.89,16.4,8.55,68.44,4.99-3.56,38.5-121.19,151.84-72.71,76.99-59.17-12.12-22.81-25.66Z"/>
    <path d="m1353.98,1081.04c-71.29-89.82-191.52-173.23-191.52-173.23,70.34-95.29,103.6-213.62,67.49-303.45-36.12-89.82-163.01-138.3-163.01-138.3,24.24-22.34,205.78-248.55,205.78-248.55l-129.74-5.7c2.38-74.61-9.98-156.83-9.98-156.83-18.53,6.18-268.99-2.38-268.99-2.38-6.18,15.68-4.75,163.49-4.75,163.49-35.64-12.36-139.72,0-139.72,0,26.14,23.29,213.51,249.03,213.51,249.03-140.44,54.53-171.45,139.72-176.08,203.88-4.63,64.16,21.03,118.69,21.03,118.69,17.47,72.36,60.95,120.12,60.95,120.12-23.64,9.74-119.88,88.63-183.09,163.72-63.21,75.09-119.17,170.26-133.43,198.06-14.26,27.8-25.66,64.87-9.98,100.87,15.68,36,60.24,31.37,103.37,3.21,43.13-28.16,174.3-142.22,174.3-142.22-2.14,21.39-22.57,327.21-28.75,365.7-6.18,38.5-56.08,245.23-57.98,272.32-1.9,27.09,6.65,68.91,40.4,73.66,33.74,4.75,38.97-3.8,105.5-59.41,66.53-55.6,135.92-276.12,135.92-276.12,48.95,27.09,92.67,164.91,111.21,201.5,18.53,36.59,118.81,166.81,174.89,132.59,56.08-34.22,8.55-164.44-11.41-239.05-19.96-74.61-29.94-202.93-29.94-214.81s-19.96-257.11-19.96-257.11c0,0,44.91,44.2,114.06,99.09,86.48,56.51,153.98,108.36,171.09,15.68-12.12-101.94-69.86-174.65-141.15-264.48Zm-451.25-684.12c-13.07-13.31-43.72-51.8-54.18-64.16s-34.46-38.97-34.46-38.97l-26.14-23.76c-2.38-15.45-1.9-23.76,1.9-28.75,3.8-4.99,25.9-8.55,25.9-8.55-.71,17.82,9.27,60.36,9.27,60.36l2.14-59.17,14.49.24c-4.28,31.37,7.13,86.97,7.13,86.97,0,0,0-45.15.95-64.87.95-19.72-2.14-22.57-2.14-22.57,0,0,19.72-1.43,26.14-6.42s6.18-17.58,6.18-17.58c0,0-.95-42.53,0-61.07.95-18.53,1.19-15.68,9.98-38.73,8.79-23.05,27.33-30.18,27.33-30.18l4.99,67.25,5.23-68.2c4.04-2.14,20.2-1.19,20.2-1.19-7.6,33.74,4.28,113.58,4.28,113.58,0,0-.24-47.29,2.61-67.72,2.85-20.44-1.43-46.1-1.43-46.1,0,0,26.38,1.9,34.93.48,8.55-1.43,51.33-3.33,51.33-3.33l2.14,22.1,5.23-22.1s33.98,3.09,43.72,5.47c9.74,2.38,16.63,18.77,21.39,30.89,4.75,12.12,7.84,51.33,7.84,51.33,0,0,.48,43.49,4.04,54.89,3.56,11.41,17.35,12.59,17.35,12.59l-.24,62.02,8.79-60.36s26.61,2.14,36.12,2.14,16.16,1.43,16.16,1.43c8.55,13.78-2.14,26.38-4.04,33.27s-14.97,21.86-14.97,21.86c0,0-15.21,21.62-22.81,36.12-7.6,14.5-15.21,15.92-15.21,15.92,0,0-24.71,21.15-41.35,49.43-16.63,28.28-39.68,47.64-48.42,58.51-8.73,10.87-26.02,13.72-35.64,19.43-9.62,5.7-18.96,6.42-18.96,6.42l-5.63-45.8-4.46,45.8c-9.49,4.9-25.9-10.93-25.9-10.93,9.87-29.83-1.43-103.13-1.43-103.13l-5.47,95.76s-41.82-47.29-54.89-60.59Zm-66.3,424.63l-5.94,27.8-6.65-5.23-2.14-96.48-3.56,92.2c-39.68-68.67-39.21-130.93-39.21-130.93,0,0-2.61-77.7,32.32-128.08,34.93-50.38,73.66-70.46,73.66-70.46-1.6,44.2,12.12,85.54,12.12,85.54l-.89-90,7.49-2.14,5.52,53.82,5.7-59.17,21.21-9.62,28.69,9.09,29.05,35.29s3.74,4.1,6.2,4.1,3.6-3.03,3.6-3.03l25.31-30.3c7.84-6.06,47.76-10.34,47.76-10.34,28.16,8.91,88.75,67.72,112.28,113.7,23.52,45.98,18.18,142.57,18.18,142.57-16.4,42.42-36.36,70.57-36.36,70.57l-4.28-67.01-2.49,76.99-9.27,9.62-4.28-96.24-2.49,105.86c-4.99,15.68-85.19,43.49-106.22,54.89-21.03,11.41-65.58,7.84-65.58,7.84-79.13-7.96-135.92-55.01-135.92-55.01l-3.8-35.88Zm618.06,532.51s-8.55,15.68-29.23,11.76c-20.67-3.92-53.47-40.28-83.41-63.8-29.94-23.52-90.18-94.81-90.18-94.81l-2.5-93.74-8.55,80.91c-16.75-23.52-46.69-106.22-46.69-106.22l-7.84,161.47s8.55,162.18,8.2,212.08c-.36,49.9,9.62,111.56,9.62,111.56,0,0,25.66,120.48,39.21,168.24,13.54,47.76,23.17,97.78,23.17,97.78,0,0,4.04,43.01-3.33,64.16-7.37,21.15-26.14,19.25-52.28,3.09-26.14-16.16-43.49-36.36-57.98-52.51-14.5-16.16-51.8-83.88-51.8-83.88v-37.54l-2.85,28.28-9.5-20.44-1.9-67.49-4.75,53.47-5.47-14.73c2.85-67.01-7.6-145.9-7.6-145.9l-7.13,106.93c-5.23-20.44-56.08-124.51-56.08-124.51l39.92-99.8c-46.57,56.08-122.14,224.32-146.38,291.33-24.24,67.01-60.83,112.63-60.83,112.63l-4.28-49.43-7.6,61.78-6.18,5.23v-91.25l-7.43,100.28s-12.05,8.08-19.18,13.78c-7.13,5.7-9.03,9.98-9.03,9.98-19.96,28.99-42.3,15.21-51.33-8.55-9.03-23.76,12.83-139.25,24.71-181.54,11.88-42.3,32.32-143.05,32.32-143.05,0,0,11.41-132.12,18.74-195.33,7.34-63.21,1.69-112.63,1.69-112.63,2.38-98.85-3.92-203.05-3.92-203.05-4.63,7.49-19.25,50.97-29.94,94.46-10.69,43.49-31.72,69.15-31.72,69.15l-9.27-59.88,5.35,68.08s-31.37,36-35.64,42.42c-4.28,6.42-52.75,40.99-93.74,73.07-40.99,32.08-58.1,23.52-58.1,23.52,0,0-25.66,2.14-27.45-26.02-1.78-28.16,22.46-74.49,32.79-99.45,10.34-24.95,67.01-93.39,67.01-93.39l13.19,69.5-6.77-74.5,9.62-16.75,12.12,53.11v-67.72l76.88-80.2c26.27-40.28,88.15-84.48,118.45-88.4,30.3-3.92,43.13,3.52,43.13,3.52l8.55,95.21,2.14-91.25,8.2,3.56,1.43,58.46,4.63-55.96s18.89,12.48,70.93,14.97c52.04,2.5,79.84-11.41,79.84-11.41l3.92,85.19v-85.9l20.67-5.7,3.56,100.51,5.35-105.15c6.42-5.7,24.95,0,24.95,0l4.99,91.96,4.63-91.96s28.51,2.14,86.26,43.13c57.74,40.99,97.66,86.97,97.66,86.97l1.78,35.29,6.06-26.02,17.82,22.46-1.78,96.95,6.06-90.89c37.43,37.78,86.97,135.45,100.51,172.16,13.54,36.71,3.56,62.38,3.56,62.38Z"/>
  </g>
</svg>