<?xml version="1.0" encoding="UTF-8"?>
<svg id="Classes" xmlns="http://www.w3.org/2000/svg" viewBox="0 0 2011.02 2000.01">
  <defs>
    <style>
      .cls-1 {
        fill: #fff;
      }
    </style>
  </defs>
  <g id="wizard">
    <g>
      <path d="m1493.08,1335.82c33.09-5.39,61.89,10.93,75.9,43.44,5.19,12.04,9,24.67,13.78,36.9,8.6,21.98,17.55,43.81,26.17,65.78,5.99,15.25,13.68,29.5,22.67,43.23,12.58,19.23,30.55,32.43,48.9,45.12,16.56,11.44,34.01,21.58,50.71,32.83,9.24,6.22,18.17,13.03,26.49,20.42,20.93,18.61,32.87,41.92,32.42,70.23-.28,17.72-8.56,33.3-16.63,48.7-17.26,32.9-39.68,62.31-61.82,91.92-.6.8-1.18,1.63-1.86,2.35-18.82,19.78-37.46,39.75-56.56,59.26-12.26,12.52-28.13,15.84-44.99,15.18-7.33-.29-13.26-3.88-18.15-9.36-5.86-6.58-11.66-13.24-17.93-19.41-15.45-15.18-31.01-30.24-46.78-45.09-24.5-23.08-36.72-51.57-37.19-84.94-.35-24.98,1.19-50.01.34-74.97-.95-27.98-8.22-54.27-29.91-73.88-10.71-9.68-22.3-18.65-34.51-26.32-13.9-8.74-28.93-15.67-43.47-23.38-22.34-11.85-45.01-23.15-66.89-35.81-9.67-5.59-18.63-13.09-26.36-21.2-15.3-16.05-15.57-35.4-8.03-54.95,2.99-7.76,8.4-14.59,12.26-21.11-2.94-5.65-5.75-11.53-9.03-17.13-1.53-2.61-3.56-5.48-6.11-6.85-6.88-3.68-14.05-6.9-21.32-9.77-8.74-3.45-17.89-3.83-26.99-1.6-25.87,6.35-51.78,12.51-78.45,14.41-5.8.41-11.69.65-17.47.14-14.5-1.29-27.03-16.01-27.78-30.71-1.34-26.53,4.32-51.61,14.39-75.87,6.05-14.58,12.28-29.09,18.71-43.51,2.06-4.62.79-8.28-2.3-11.3-5.65-5.53-12.07-9.18-20.36-10.53-19.51-3.2-39.21-6-57.32-14.89-3.67-1.8-7.98-2.27-11.86-3.69-19.46-7.1-31.5-24.99-32.15-45.65-.5-15.6,2.84-29.91,9.9-43.74,9.69-18.95,17.54-38.96,28.55-57.07,14.41-23.71,31.22-45.97,46.79-68.99,2.13-3.15,3.24-7.07,4.48-10.74,1.91-5.66,3.32-11.48,5.29-17.12,5.87-16.79,11.86-33.53,17.91-50.26,1.47-4.06,2.64-8.49,5.13-11.87,5.67-7.71,4.78-16.44,3.37-24.47-5.62-31.92-21.06-58.01-48.97-75.51-19.16-12.01-39.89-20.62-62.13-25.1-31.02-6.26-62.33-4.72-93.59-2.49-6.16.44-11.18,4-15.2,8.78-15.05,17.91-9.81,44.47,7.8,55.51,3.46,2.17,8.14,2.53,12.33,3.37,13.84,2.78,27.7,5.47,41.58,8.02,4.39.81,8.91,1.69,13.33,1.52,25.85-1.03,38.24,15.18,44.03,32.68,8.3,25.07,6.16,50.02-3.2,74.33-10.34,26.84-20.71,53.68-32.22,80.03-5.34,12.24-13.14,23.46-20.28,34.85-7.16,11.41-14.64,22.64-22.43,33.64-14.03,19.83-28.5,39.35-42.59,59.15-15.17,21.32-35.06,37.84-54.99,54.25-16.44,13.54-35.54,14.23-54.9,8.37-25.63-7.77-50.58-17.17-74.34-29.96-19.73-10.62-40.83-18.64-60.87-28.74-13.57-6.83-27.21-13.03-41.83-17.3-33.31-9.73-66.29-20.69-99.79-29.68-26.92-7.22-54.49-11.32-82.46-13.41-32.88-2.45-65.61.1-98.4.11-5.27,0-10.51,1.58-15.8,2.1-9.26.91-18.54,1.54-27.81,2.31-7.43.62-14.97.66-22.26,2.03-12.68,2.38-23.71.67-32.79-9.37-12.08-13.36-21.32-27.93-27.29-45.34-4.29-12.51-3.27-23.68-.48-35.56,5.72-24.35,13.92-47.62,29.17-67.89,1.26-1.68,2.2-3.79,2.65-5.84,4.88-22.28,16-41.46,29.28-59.6,2.85-3.89,6.15-7.62,8.12-11.94,6.86-15.04,16.78-27.86,27.32-40.4,26.15-31.11,52.39-62.16,77.82-93.86,14.15-17.64,26.75-36.52,40.04-54.84.29-.4.52-.86.85-1.23,23.73-26.12,40.33-57.47,62.27-84.92,4.73-5.91,8.28-12.86,11.77-19.64,15.93-30.92,31.64-61.89,52.95-89.71,6.37-8.32,10.27-18.59,14.9-28.16,16.94-35.06,33.96-70.08,50.42-105.36,6.75-14.45,11.65-29.76,18.33-44.24,7.94-17.21,16.33-34.26,25.56-50.81,9.94-17.81,25.33-31.24,39.64-45.42,9.71-9.61,19.53-19.11,31.89-25.48,15-7.73,31.07-12.39,47.64-13.83,21.51-1.87,43.28-3.55,64.77-2.35,35.18,1.96,69.53,9.76,102.24,23.08,22.46,9.14,44.34,19.73,66.42,29.8,53.75,24.52,107.81,48.43,161.07,73.97,28.91,13.86,56.34,30.8,84.67,45.89,11.57,6.16,23.81,11.06,35.69,16.65,21.83,10.27,43.24,21.52,65.5,30.75,39.06,16.22,79.28,28.82,120.96,36.83,23.82,4.58,47.44,10.48,70.82,16.97,34.38,9.54,54.28,36.7,54.27,72.49,0,27.28-8.01,52.76-17.79,77.86-10.58,27.15-25.46,51.87-40.97,76.42-18.78,29.7-34.33,61.14-47.77,93.71-14.3,34.65-27.89,69.56-36.75,105.94-10.42,42.79-22.07,85.51-25.16,129.67-1.46,20.87-1.76,42.05.05,62.86,1.8,20.74,11.44,39.04,25,55.09,13.11,15.51,25.95,31.26,38.93,46.88,10.56,12.71,12.11,27.57,10.9,43.33-1.89,24.72-12.02,45.01-31.05,60.99-1.99,1.67-3.59,4.83-3.81,7.44-1.34,15.7-.94,31.29,5.02,46.62Zm-611.27-208.27c25.47-29.95,43.48-64.09,59.86-98.48-57.4-31.75-114.16-63.16-170.93-94.56.27-.5.54-1.01.81-1.51,59.93,25.09,118.27,53.37,174.27,87.33.93-2.44,1.96-4.36,2.4-6.41,2.76-12.67,6.04-25.27,7.86-38.08,1.56-10.94,2.64-22.03-1.61-33.04-6.48-16.8-16.47-30.63-33.65-36.7-19.57-6.91-39.92-11.57-59.7-17.96-10.2-3.29-20.67-6.98-29.56-12.74-7.65-4.96-15.2-9.94-23.27-14.26-14.65-7.85-22.65-19.93-20.78-37.11.75-6.93,1.7-13.95,3.65-20.61,10.49-35.66,25.87-69.14,46.39-100.16,6.35-9.6,13.45-18.58,22.82-25.63,9.29-6.98,19.39-10.52,31.07-10.4,25.95.26,51.84-.71,76.91,8.88,15.3,5.86,31.43,9.72,47.41,13.6,14.37,3.49,28.96,6.25,43.59,8.47,26.15,3.97,52.53,6.53,78.55,11.16,16.31,2.9,31.95,9.42,48.21,12.7,24.83,5.01,45.09,17.14,62.51,35.1,21.73,22.41,27.85,48.59,21.17,78.68-4.86,21.9-16.69,40.9-24.38,61.61-2.46,6.61-6.4,12.84-10.49,18.66-13.69,19.48-27.76,38.69-41.67,58.02-9.53,13.23-18.33,27.07-28.75,39.55-10.19,12.21-19.2,25.03-27.44,38.58-7.93,13.05-16.6,25.67-25.38,38.18-8.59,12.23-18.32,23.69-26.41,36.22-5.83,9.03-9.98,19.18-14.44,29.03-.96,2.11-1.02,6.54.23,7.41,4.98,3.44,10.64,5.9,16.84,9.14,9.34-35.68,30.96-62.07,57-85.51-18.97,27.14-31.65,57.35-44.56,87.97,7.24,1.4,13.8,2.46,20.23,4.01,3.08.75,4.59-.05,5.8-2.81,4.59-10.53,9.28-21.02,13.99-31.5.72-1.61,1.74-3.1,2.61-4.64.64.32,1.27.63,1.91.95-5.62,12.94-11.24,25.89-16.97,39.1,2.22.56,4.3,1.03,6.36,1.61,15.87,4.43,29.84,11.87,38.57,26.46,7.22,12.07,10.53,25.57,11.36,39.48.98,16.44-3.74,31.55-12.39,45.51-2.89,4.66-5.49,9.51-7.99,14.39-.69,1.34-1.29,3.64-.62,4.6,3.52,5.14,6.58,11.25,11.46,14.64,7.01,4.86,15.4,7.79,23.31,11.26,1.84.81,4.16.51,6.43.75,1.15-9.07,1.65-17.76,3.42-26.19,7.62-36.15,15.6-72.23,23.53-108.32.23-1.05,1.41-1.89,2.15-2.83.41,1.23,1.22,2.49,1.15,3.7-.32,5.65-.8,11.28-1.38,16.91-2.2,21.68-3.99,43.42-6.85,65.02-2.26,17.12-5.86,34.07-9.11,52.45,11.33-1,22.23-1.65,33.06-2.97,30.18-3.7,58.85-12.34,85.72-26.77,4.53-2.43,9.46-4.12,14.22-6.09,9.69-4.01,19.48-7.78,29.06-12.03,6.62-2.94,12.96-6.51,19.45-9.82-1.05-2.58-1.94-4.37-2.52-6.26-9.49-30.85-18.96-61.71-28.34-92.6-.25-.83.51-1.97.79-2.97.87.57,2.11.94,2.56,1.74,1.78,3.19,3.23,6.57,4.97,9.79,11.65,21.59,21.95,43.73,28.34,67.53,1.28,4.75,2.96,9.4,4.51,14.26,6.69-4.93,6.18-4.79,4.12-11.88-4.47-15.33-8.4-30.83-12.43-46.29-.21-.82.75-1.94,1.17-2.92.92.53,2.08.86,2.69,1.63.68.87.77,2.18,1.26,3.23,6.38,13.5,12.78,27,19.52,41.21,3.93-4.75,7.3-8.64,10.48-12.69,5.74-7.3,8.2-15.58,8.7-24.95,1.01-18.64-5.3-35.31-12.17-51.99-7.65-18.59-15.6-37.08-22.56-55.93-12.02-32.54-17.38-66.25-15.52-100.98.45-8.31,1.02-16.62,1.96-24.88,2.41-21.14,3.99-42.46,7.85-63.34,6.51-35.22,18.91-68.88,29.39-103.07,10.97-35.8,25.83-69.5,46.77-100.58,3.56-5.28,5.9-11.55,7.97-17.64,5.74-16.84,10.42-34.07,16.69-50.7,5.35-14.19,5.62-28.44,4.85-43.2-.61-11.65-5.33-21.26-12.11-30.03-16.35-21.15-34.04-40.99-56.19-56.44-18.02-12.57-35.29-26.27-53.75-38.13-28.55-18.32-57.71-35.71-86.85-53.1-27.85-16.62-55.61-33.46-84.13-48.88-29.12-15.75-59.07-29.96-88.73-44.71-57.21-28.45-117.77-47.75-179.01-65.09-36.04-10.2-72.61-11.4-109.3-4.27-23.43,4.56-44.93,14.36-65.41,26.47-7.72,4.57-16.14,8.21-23.18,13.64-22.13,17.08-39.74,38.3-54.11,62.22-17.05,28.36-34.13,56.71-51.05,85.14-9.02,15.15-17.73,30.48-26.6,45.71-4.01,6.89-7.37,14.32-12.26,20.53-22.81,28.97-40.36,61-56.11,94.15-1.92,4.04-4.06,8.07-6.67,11.69-7.6,10.53-15.82,20.61-23.2,31.29-14,20.26-26.81,41.37-43.76,59.47-2.03,2.17-3.62,4.78-5.26,7.28-23.17,35.15-49.68,67.68-78.46,98.29-17.52,18.63-34.8,37.25-46.93,60-7.93,14.87-16.64,29.18-27.5,42.2-5.08,6.09-8.8,13.3-13.28,19.91-12.87,19.01-18.93,40.58-23.71,62.65-2.85,13.14-2.11,14.26,9.33,21.25,12.97,7.93,27.15,12.52,41.76,15.99,12.27,2.91,24.57,7.08,37,7.65,20.07.93,40.26-.72,60.39-1.13,18.95-.39,37.9-1.71,56.53,3.94,22.75,6.89,45.56,13.65,68.63,19.36,21.25,5.26,41.52,12.74,61.76,21.03,35.81,14.67,70.37,31.76,104.63,49.57,24.58,12.78,49.83,23.34,77.63,27.49,21.38,3.19,40.35.26,56.62-14.78,1.43-1.32,3.46-1.99,5.21-2.97-34.69-22.07-66.8-43.92-97.17-68.3,35.85,16.95,71.68,33.83,103.78,57.89,2.86-3.86,5.2-7,7.41-9.98-6.48-6.13-12.54-11.87-18.6-17.61.3-.44.61-.87.91-1.31,7.65,3.7,15.31,7.39,23.64,11.42Zm507.52,318.93c-9.21-7.49-17.89-14.44-26.44-21.55-2.73-2.27-5.31-2.34-8.16-.58-6.22,3.85-12.68,7.37-18.58,11.66-6.45,4.69-7.68,9.45-4.22,16.6,8.04,16.65,21.67,27.62,38.15,34.98,15.93,7.12,32.29,13.3,48.35,20.15,5.18,2.21,10.22,4.91,14.98,7.94,25.09,15.95,46.89,35.29,64.85,59.32,22.02,29.48,34.33,62.7,39.88,98.43,3.49,22.46,3.85,45.39,6.38,68.03,2.4,21.49,7.33,41.93,22.56,59.03,10.37,11.65,21.85,20.44,37.06,23.2,14.07,2.55,28.2,3.72,42.14-2.34,12.63-5.49,21.57-14.75,29.44-25.43.77-1.05.82-3.38.19-4.59-6.51-12.55-13.26-24.97-19.84-37.48-.44-.83-.1-2.08-.12-3.13,1.12.32,2.33.47,3.34,1.01.67.36,1.02,1.28,1.54,1.93,8.2,10.02,16.4,20.03,24.93,30.44,2.87-3.01,5.76-6.06,8.72-9.17-1.57-1.83-2.67-3.31-3.97-4.58-25.15-24.48-43.7-54.08-63.82-82.45-.74-1.05-.41-2.86-.59-4.31,1.23.57,2.79.83,3.62,1.75,3.24,3.57,6.17,7.42,9.36,11.05,17.81,20.28,35.66,40.51,53.47,60.79,2.82,3.21,5.46,6.57,8.39,10.11,2.93-3.54,5.77-6.61,8.11-10.02.77-1.12.77-3.38.18-4.7-2.71-6.08-5.82-11.98-8.61-18.02-.53-1.14-.25-2.66-.35-4.01,1.3.69,2.89,1.11,3.86,2.11,4.13,4.26,8.08,8.7,12.47,13.49.95-1.95,1.63-3.06,2.05-4.26,5.07-14.65,7.17-29.82,6.25-45.21-1-16.67-7.42-30.86-21.33-41.14-4.26-3.14-8.12-6.97-11.61-10.96-15.7-17.97-35.11-31.64-53.73-46.15-12.45-9.71-26.32-17.61-35.67-30.9-4.21-5.99-9.01-11.57-13.24-17.54-16.89-23.85-32.1-48.73-41.29-76.61-4.65-14.11-10.25-27.63-16.55-41.06-10.01-21.36-26.07-36.26-46.41-47.11-2.47-1.32-5.65-1.67-8.52-1.77-21.14-.73-39.26,10.09-58.89,15.27.17.6.16,1,.36,1.21,20.89,22.28,33.35,50.07,49.38,75.52.65,1.03.4,2.63.56,3.96-1.19-.58-2.73-.86-3.49-1.79-2.41-2.96-4.36-6.31-6.79-9.25-17.23-20.76-34.53-41.46-51.88-62.12-.68-.81-2.25-1.66-3.1-1.41-3.89,1.12-7.66,2.62-11.65,4.05,7.91,14.34,15.52,28.11,23.12,41.88-.45.31-.91.62-1.36.94-.93-.99-1.92-1.93-2.77-2.98-9.14-11.24-18.22-22.53-27.45-33.71-.74-.9-2.61-1.73-3.57-1.42-3.21,1.07-6.24,2.67-9.61,4.18,6.76,9.75,13.19,19.01,19.95,28.74Z"/>
      <path class="cls-1" d="m881.81,1127.55c-8.34-4.03-15.99-7.72-23.64-11.42-.3.44-.61.87-.91,1.31,6.06,5.74,12.12,11.48,18.6,17.61-2.21,2.98-4.54,6.12-7.41,9.98-32.1-24.05-67.93-40.94-103.78-57.89,30.37,24.38,62.48,46.23,97.17,68.3-1.75.97-3.78,1.65-5.21,2.97-16.27,15.04-35.25,17.97-56.62,14.78-27.8-4.15-53.05-14.71-77.63-27.49-34.27-17.81-68.83-34.9-104.63-49.57-20.24-8.29-40.51-15.77-61.76-21.03-23.06-5.71-45.88-12.47-68.63-19.36-18.64-5.64-37.58-4.32-56.53-3.94-20.14.41-40.32,2.06-60.39,1.13-12.43-.57-24.73-4.74-37-7.65-14.6-3.47-28.78-8.06-41.76-15.99-11.44-6.99-12.18-8.1-9.33-21.25,4.78-22.06,10.83-43.64,23.71-62.65,4.48-6.61,8.2-13.82,13.28-19.91,10.85-13.02,19.57-27.33,27.5-42.2,12.13-22.75,29.41-41.38,46.93-60,28.79-30.61,55.3-63.14,78.46-98.29,1.65-2.5,3.23-5.11,5.26-7.28,16.95-18.09,29.77-39.2,43.76-59.47,7.38-10.68,15.6-20.76,23.2-31.29,2.61-3.62,4.75-7.64,6.67-11.69,15.76-33.14,33.3-65.18,56.11-94.15,4.89-6.21,8.24-13.64,12.26-20.53,8.87-15.23,17.58-30.56,26.6-45.71,16.93-28.44,34-56.78,51.05-85.14,14.38-23.92,31.98-45.14,54.11-62.22,7.04-5.43,15.46-9.07,23.18-13.64,20.48-12.11,41.99-21.91,65.41-26.47,36.69-7.13,73.27-5.94,109.3,4.27,61.24,17.34,121.8,36.64,179.01,65.09,29.66,14.75,59.61,28.96,88.73,44.71,28.52,15.42,56.28,32.26,84.13,48.88,29.14,17.39,58.3,34.77,86.85,53.1,18.47,11.85,35.74,25.55,53.75,38.13,22.15,15.46,39.84,35.29,56.19,56.44,6.78,8.77,11.5,18.38,12.11,30.03.77,14.76.5,29.01-4.85,43.2-6.27,16.63-10.96,33.85-16.69,50.7-2.07,6.09-4.41,12.36-7.97,17.64-20.94,31.08-35.8,64.77-46.77,100.58-10.47,34.18-22.88,67.84-29.39,103.07-3.86,20.89-5.44,42.2-7.85,63.34-.94,8.26-1.52,16.58-1.96,24.88-1.86,34.73,3.49,68.44,15.52,100.98,6.96,18.85,14.91,37.34,22.56,55.93,6.87,16.68,13.18,33.36,12.17,51.99-.51,9.37-2.96,17.65-8.7,24.95-3.18,4.04-6.55,7.94-10.48,12.69-6.74-14.21-13.14-27.7-19.52-41.21-.49-1.05-.58-2.35-1.26-3.23-.6-.77-1.77-1.1-2.69-1.63-.42.98-1.38,2.1-1.17,2.92,4.02,15.46,7.95,30.95,12.43,46.29,2.07,7.09,2.57,6.94-4.12,11.88-1.55-4.87-3.23-9.51-4.51-14.26-6.39-23.8-16.69-45.95-28.34-67.53-1.74-3.22-3.19-6.6-4.97-9.79-.45-.8-1.68-1.17-2.56-1.74-.29,1-1.05,2.13-.79,2.97,9.38,30.89,18.85,61.75,28.34,92.6.58,1.89,1.47,3.68,2.52,6.26-6.5,3.31-12.83,6.88-19.45,9.82-9.58,4.25-19.37,8.02-29.06,12.03-4.77,1.97-9.7,3.66-14.22,6.09-26.87,14.44-55.54,23.07-85.72,26.77-10.82,1.33-21.73,1.97-33.06,2.97,3.25-18.39,6.85-35.33,9.11-52.45,2.86-21.6,4.64-43.34,6.85-65.02.57-5.63,1.05-11.27,1.38-16.91.07-1.21-.75-2.46-1.15-3.7-.74.94-1.92,1.78-2.15,2.83-7.93,36.09-15.91,72.17-23.53,108.32-1.77,8.42-2.27,17.11-3.42,26.19-2.28-.23-4.6.06-6.43-.75-7.92-3.48-16.31-6.4-23.31-11.26-4.88-3.39-7.94-9.5-11.46-14.64-.66-.97-.06-3.26.62-4.6,2.5-4.88,5.11-9.73,7.99-14.39,8.64-13.97,13.36-29.08,12.39-45.51-.83-13.91-4.13-27.41-11.36-39.48-8.73-14.59-22.71-22.02-38.57-26.46-2.05-.57-4.13-1.05-6.36-1.61,5.73-13.21,11.35-26.15,16.97-39.1-.64-.32-1.27-.63-1.91-.95-.88,1.54-1.89,3.03-2.61,4.64-4.71,10.48-9.41,20.97-13.99,31.5-1.2,2.76-2.72,3.56-5.8,2.81-6.43-1.56-12.99-2.61-20.23-4.01,12.91-30.63,25.59-60.83,44.56-87.97-26.03,23.44-47.65,49.83-57,85.51-6.21-3.24-11.87-5.7-16.84-9.14-1.25-.87-1.19-5.3-.23-7.41,4.46-9.85,8.61-20,14.44-29.03,8.09-12.53,17.83-23.99,26.41-36.22,8.78-12.51,17.44-25.13,25.38-38.18,8.24-13.55,17.24-26.37,27.44-38.58,10.42-12.48,19.22-26.32,28.75-39.55,13.91-19.32,27.98-38.54,41.67-58.02,4.09-5.82,8.03-12.04,10.49-18.66,7.69-20.71,19.52-39.71,24.38-61.61,6.67-30.09.56-56.27-21.17-78.68-17.42-17.96-37.68-30.09-62.51-35.1-16.26-3.28-31.91-9.8-48.21-12.7-26.02-4.63-52.4-7.19-78.55-11.16-14.62-2.22-29.21-4.99-43.59-8.47-15.97-3.88-32.11-7.74-47.41-13.6-25.08-9.6-50.96-8.62-76.91-8.88-11.67-.12-21.78,3.42-31.07,10.4-9.38,7.05-16.47,16.03-22.82,25.63-20.52,31.02-35.9,64.49-46.39,100.16-1.96,6.66-2.9,13.68-3.65,20.61-1.87,17.18,6.13,29.26,20.78,37.11,8.07,4.33,15.61,9.31,23.27,14.26,8.89,5.76,19.36,9.45,29.56,12.74,19.77,6.38,40.13,11.04,59.7,17.96,17.19,6.07,27.18,19.91,33.65,36.7,4.25,11.01,3.16,22.1,1.61,33.04-1.82,12.81-5.1,25.41-7.86,38.08-.45,2.05-1.47,3.97-2.4,6.41-56-33.96-114.35-62.24-174.27-87.33-.27.5-.54,1.01-.81,1.51,56.76,31.4,113.53,62.8,170.93,94.56-16.38,34.39-34.39,68.53-59.86,98.48Zm153.2-734.07c.1-.11.2-.21.29-.32-2.76-2.06-5.56-4.07-8.27-6.2-26.64-20.93-55.27-38.03-87.93-48.15-22.72-7.03-45.15-9.25-68.07-1.39-37.37,12.82-69.23,34.57-98.58,60.41-4.01,3.53-6.63,8.21-6.81,15.11,3.58-1.06,6.93-1.46,9.63-3,4.16-2.37,8.15-5.22,11.75-8.4,28.21-24.93,60.86-41.6,96.68-52.53,16.21-4.95,32.51-6.06,48.49.12,19.21,7.44,38.21,15.45,57.14,23.6,15.36,6.62,30.46,13.81,45.68,20.75Zm347.66,420.6c.54.18,1.08.35,1.62.53,1.41-3.18,2.77-6.39,4.25-9.53,11.09-23.48,22-47.02,29.42-72.02,8.42-28.38,17.29-56.63,25.47-85.08,1.36-4.72,1.67-10.72-.03-15.17-5.83-15.22-14.55-28.86-27.25-39.39-2.53-2.1-6.66-2.93-10.1-3.08-3.85-.17-5.87,2.68-4.25,6.45,1.35,3.15,3.41,6.04,5.45,8.84,6.27,8.6,12.73,17.07,19.02,25.66,3.84,5.25,4.34,10.82,1.98,17.01-2.61,6.83-4.88,13.82-6.82,20.87-12.99,47.35-25.85,94.74-38.72,142.13-.24.87-.03,1.85-.03,2.78Zm-286.76-346.95c.26-.43.53-.86.79-1.29-.98-.91-1.87-1.93-2.95-2.7-2.98-2.11-6-4.17-9.07-6.16-14.51-9.39-28.32-20.2-43.71-27.82-38.54-19.08-79.68-30.78-121.91-38.44-12.66-2.3-25.55-2.58-37.85,2.72-4.24,1.83-7.99,4.15-9.01,10.69,3.19-.28,6.31.24,8.62-.89,12.92-6.32,26.54-5.93,40.15-4.37,16.64,1.91,32.68,6.62,47.94,13.4,19,8.44,37.46,18.11,56.5,26.46,22.53,9.88,45.44,18.91,68.2,28.27.67.28,1.53.1,2.3.13ZM507.72,998.4c.2-.07,2.01-.33,2.1-.88.29-1.67.59-4.33-.32-5.04-3.05-2.36-6.42-5.07-10.03-5.79-10.92-2.18-21.99-3.64-33.04-5.08-14.36-1.88-28.91-2.63-43.08-5.4-16.25-3.17-27.44-21.72-21.68-36.89,8.89-23.44,19.47-46.24,29.24-69.35.53-1.25.18-2.88.24-4.33-1.22.57-2.79.83-3.6,1.75-16.2,18.34-27.25,39.38-35.44,62.5-9.59,27.05,9.86,55.22,35.86,57.34,3.98.32,7.96.79,11.93,1.21,18.21,1.94,36.43,3.74,54.61,5.95,4.2.51,8.23,2.45,13.23,4.02Zm-61.42-51.32c-7.5-6.8-5.92-15.1-4.21-22.42,2.26-9.63,5.82-19.12,10.01-28.11,14.62-31.37,29.76-62.5,44.68-93.73.31-.66.34-1.45.49-2.19-1.9.08-2.98.81-3.76,1.78-1.67,2.07-3.11,4.33-4.79,6.39-20.55,25.18-37.92,52.27-50.06,82.55-5.84,14.55-9.84,29.39-7.51,45.27,1.27,8.64,5.28,11.6,15.15,10.45Zm251.66-333.07c7.95-1.02,11.87-4.94,15.29-9.6,9.15-12.48,18.71-24.69,27.4-37.48,18.51-27.25,42.4-48.49,70.65-65.09.4-.23.53-.92,1.36-2.47-14.46,5.22-28.42,8.56-40.42,16.71-13.45,9.13-25.16,20.15-35.53,32.7-13.11,15.86-24.32,32.92-33.44,51.34-2.01,4.06-3.27,8.48-5.32,13.89Z"/>
      <path class="cls-1" d="m1389.33,1446.48c-6.75-9.73-13.19-19-19.95-28.74,3.37-1.52,6.4-3.12,9.61-4.18.95-.32,2.83.52,3.57,1.42,9.22,11.18,18.31,22.47,27.45,33.71.85,1.05,1.84,1.99,2.77,2.98.45-.31.91-.62,1.36-.94-7.6-13.77-15.2-27.54-23.12-41.88,3.99-1.43,7.77-2.93,11.65-4.05.85-.24,2.42.6,3.1,1.41,17.35,20.66,34.65,41.36,51.88,62.12,2.44,2.94,4.38,6.29,6.79,9.25.76.93,2.3,1.21,3.49,1.79-.17-1.33.09-2.93-.56-3.96-16.03-25.46-28.49-53.25-49.38-75.52-.2-.21-.19-.61-.36-1.21,19.63-5.17,37.75-15.99,58.89-15.27,2.87.1,6.06.46,8.52,1.77,20.34,10.85,36.4,25.75,46.41,47.11,6.29,13.43,11.89,26.95,16.55,41.06,9.19,27.88,24.4,52.77,41.29,76.61,4.23,5.98,9.03,11.55,13.24,17.54,9.36,13.29,23.22,21.19,35.67,30.9,18.61,14.51,38.03,28.18,53.73,46.15,3.49,4,7.36,7.82,11.61,10.96,13.92,10.28,20.33,24.46,21.33,41.14.92,15.39-1.18,30.55-6.25,45.21-.42,1.2-1.1,2.31-2.05,4.26-4.4-4.79-8.34-9.23-12.47-13.49-.97-1.01-2.56-1.42-3.86-2.11.09,1.35-.18,2.86.35,4.01,2.79,6.04,5.9,11.94,8.61,18.02.59,1.32.58,3.58-.18,4.7-2.34,3.41-5.18,6.48-8.11,10.02-2.93-3.54-5.58-6.9-8.39-10.11-17.81-20.28-35.66-40.51-53.47-60.79-3.18-3.63-6.12-7.47-9.36-11.05-.84-.92-2.4-1.19-3.62-1.75.17,1.45-.16,3.26.59,4.31,20.12,28.37,38.67,57.97,63.82,82.45,1.3,1.27,2.4,2.75,3.97,4.58-2.96,3.11-5.85,6.16-8.72,9.17-8.53-10.41-16.73-20.42-24.93-30.44-.53-.64-.88-1.57-1.54-1.93-1-.54-2.21-.69-3.34-1.01.02,1.05-.32,2.3.12,3.13,6.58,12.51,13.33,24.93,19.84,37.48.63,1.21.58,3.54-.19,4.59-7.87,10.68-16.81,19.94-29.44,25.43-13.94,6.06-28.07,4.9-42.14,2.34-15.21-2.76-26.69-11.55-37.06-23.2-15.23-17.11-20.16-37.54-22.56-59.03-2.53-22.64-2.89-45.57-6.38-68.03-5.55-35.73-17.86-68.94-39.88-98.43-17.95-24.04-39.75-43.38-64.85-59.32-4.76-3.02-9.8-5.73-14.98-7.94-16.06-6.85-32.42-13.03-48.35-20.15-16.48-7.37-30.11-18.34-38.15-34.98-3.45-7.15-2.22-11.91,4.22-16.6,5.9-4.29,12.36-7.81,18.58-11.66,2.85-1.76,5.43-1.69,8.16.58,8.55,7.11,17.23,14.07,26.44,21.55Zm145.95,110.68c-.31.29-.62.57-.94.86.58,1.03,1.05,2.15,1.77,3.08,18.75,24.41,37.5,48.82,56.31,73.18,1.61,2.08,3.46,4.11,5.59,5.61,1.04.74,2.98.22,4.51.27-.23-1.45,0-3.2-.74-4.29-18.69-27.66-40.29-52.92-63.72-76.65-.8-.81-1.85-1.38-2.78-2.06Z"/>
      <path d="m1035.01,393.47c-15.22-6.94-30.33-14.13-45.68-20.75-18.92-8.15-37.92-16.17-57.14-23.6-15.98-6.18-32.27-5.07-48.49-.12-35.82,10.92-68.47,27.59-96.68,52.53-3.6,3.18-7.59,6.02-11.75,8.4-2.7,1.54-6.04,1.93-9.63,3,.18-6.89,2.8-11.58,6.81-15.11,29.35-25.84,61.21-47.59,98.58-60.41,22.92-7.86,45.35-5.64,68.07,1.39,32.66,10.11,61.29,27.22,87.93,48.15,2.71,2.13,5.51,4.14,8.27,6.2-.1.11-.2.21-.29.32Z"/>
      <path d="m1382.67,814.07c0-.93-.21-1.92.03-2.78,12.87-47.39,25.73-94.78,38.72-142.13,1.93-7.05,4.21-14.05,6.82-20.87,2.37-6.18,1.86-11.76-1.98-17.01-6.29-8.59-12.75-17.06-19.02-25.66-2.04-2.79-4.09-5.69-5.45-8.84-1.62-3.78.4-6.62,4.25-6.45,3.45.15,7.57.98,10.1,3.08,12.7,10.53,21.42,24.17,27.25,39.39,1.7,4.45,1.39,10.45.03,15.17-8.18,28.45-17.05,56.7-25.47,85.08-7.42,25-18.33,48.54-29.42,72.02-1.48,3.15-2.84,6.35-4.25,9.53-.54-.18-1.08-.35-1.62-.53Z"/>
      <path d="m1095.91,467.12c-.77-.03-1.63.14-2.3-.13-22.76-9.36-45.66-18.4-68.2-28.27-19.04-8.35-37.5-18.01-56.5-26.46-15.26-6.78-31.3-11.49-47.94-13.4-13.61-1.56-27.24-1.94-40.15,4.37-2.31,1.13-5.43.61-8.62.89,1.02-6.54,4.78-8.86,9.01-10.69,12.29-5.3,25.18-5.01,37.85-2.72,42.23,7.66,83.37,19.36,121.91,38.44,15.39,7.62,29.2,18.43,43.71,27.82,3.07,1.98,6.09,4.04,9.07,6.16,1.08.77,1.97,1.79,2.95,2.7-.26.43-.53.86-.79,1.29Z"/>
      <path d="m507.72,998.4c-5-1.56-9.03-3.5-13.23-4.02-18.18-2.21-36.4-4.01-54.61-5.95-3.97-.42-7.95-.89-11.93-1.21-26-2.12-45.44-30.28-35.86-57.34,8.19-23.13,19.24-44.16,35.44-62.5.82-.92,2.38-1.18,3.6-1.75-.06,1.45.29,3.08-.24,4.33-9.77,23.11-20.35,45.91-29.24,69.35-5.76,15.18,5.43,33.73,21.68,36.89,14.17,2.76,28.73,3.52,43.08,5.4,11.05,1.44,22.12,2.9,33.04,5.08,3.62.72,6.99,3.43,10.03,5.79.92.71.61,3.37.32,5.04-.1.55-1.91.81-2.1.88Z"/>
      <path d="m446.29,947.09c-9.87,1.15-13.88-1.81-15.15-10.45-2.33-15.88,1.67-30.72,7.51-45.27,12.14-30.28,29.52-57.37,50.06-82.55,1.68-2.06,3.11-4.32,4.79-6.39.78-.97,1.87-1.7,3.76-1.78-.16.73-.18,1.53-.49,2.19-14.92,31.23-30.05,62.36-44.68,93.73-4.19,8.99-7.75,18.48-10.01,28.11-1.72,7.32-3.29,15.61,4.21,22.42Z"/>
      <path d="m697.95,614.02c2.05-5.42,3.31-9.84,5.32-13.89,9.12-18.42,20.33-35.48,33.44-51.34,10.37-12.55,22.08-23.56,35.53-32.7,12-8.15,25.96-11.49,40.42-16.71-.83,1.55-.96,2.24-1.36,2.47-28.25,16.6-52.14,37.84-70.65,65.09-8.69,12.79-18.24,25-27.4,37.48-3.42,4.67-7.34,8.59-15.29,9.6Z"/>
      <path d="m1535.27,1557.16c.93.68,1.98,1.25,2.78,2.06,23.43,23.73,45.02,48.99,63.72,76.65.74,1.1.52,2.85.74,4.29-1.53-.05-3.46.46-4.51-.27-2.13-1.5-3.98-3.53-5.59-5.61-18.82-24.36-37.57-48.77-56.31-73.18-.71-.93-1.18-2.05-1.77-3.08.31-.29.62-.57.94-.86Z"/>
    </g>
  </g>
</svg>